<svg width="27" height="20" viewBox="0 0 27 20" fill="none" xmlns="http://www.w3.org/2000/svg">
<rect width="27" height="20" rx="1.55571" fill="#007CC2"/>
<path fill-rule="evenodd" clip-rule="evenodd" d="M27.0001 11.8679H25.61C25.4732 11.8679 25.3824 11.8742 25.3019 11.9257C25.2281 11.9748 25.191 12.0499 25.191 12.1529C25.191 12.2684 25.2628 12.3497 25.3624 12.3882C25.4386 12.4118 25.5279 12.4181 25.6559 12.4181L26.0621 12.4311C26.481 12.4436 26.7569 12.5124 26.9283 12.6814C26.9503 12.7093 26.9742 12.7348 27.0001 12.7608V11.8679ZM27.0001 13.9339C26.8092 14.2015 26.4508 14.3363 25.962 14.3363H24.4962V13.66H25.9576C26.1031 13.66 26.2052 13.6446 26.2706 13.583C26.316 13.5378 26.3575 13.467 26.3575 13.3794C26.3575 13.2918 26.316 13.2168 26.2638 13.1739C26.2096 13.1248 26.127 13.1032 25.9967 13.1012C25.2867 13.082 24.3985 13.1248 24.3985 12.1333C24.3985 11.6818 24.6871 11.2024 25.4884 11.2024H27.0001V10.5815H25.5929C25.1695 10.5815 24.859 10.6802 24.6373 10.8342V10.5815H22.5611C22.2335 10.5815 21.8444 10.6629 21.6534 10.8342V10.5815H17.9489V10.8342C17.6535 10.6263 17.154 10.5815 16.9259 10.5815H14.4782V10.8342C14.2458 10.6138 13.7311 10.5815 13.4142 10.5815H10.6691L10.0481 11.2539L9.45724 10.5815H5.36597V14.9509H9.38156L10.0285 14.2723L10.6345 14.9509H13.1057V13.9233H13.3532C13.6769 13.9296 14.07 13.9166 14.4069 13.7732V14.9509H16.4479V13.8097H16.548C16.6715 13.8097 16.6847 13.8184 16.6847 13.9383V14.9509H22.8849C23.2799 14.9509 23.6861 14.8499 23.9161 14.6723V14.9509H25.8814C26.2945 14.9509 26.6915 14.8951 27.0001 14.7473V13.9339ZM23.9684 12.6815C24.1139 12.8379 24.1988 13.0261 24.1988 13.3453C24.1988 14.0196 23.7687 14.3363 23.004 14.3363H21.5275V13.66H22.9977C23.1451 13.66 23.2452 13.6446 23.3106 13.583C23.3624 13.5378 23.3971 13.467 23.3971 13.3794C23.3971 13.2918 23.3561 13.2167 23.3019 13.1739C23.2452 13.1248 23.169 13.1031 23.0348 13.1012C22.3268 13.082 21.4361 13.1248 21.4361 12.1333C21.4361 11.6818 21.7252 11.2024 22.5201 11.2024H24.0421V11.8681H22.65C22.5157 11.8681 22.42 11.8743 22.3439 11.9258C22.2613 11.9749 22.2335 12.05 22.2335 12.153C22.2335 12.2685 22.3028 12.3499 22.3985 12.3884C22.4786 12.412 22.5611 12.4182 22.6915 12.4182L23.1041 12.4312C23.5147 12.4437 23.797 12.5126 23.9684 12.6815ZM17.1193 12.489C17.0192 12.5467 16.8952 12.553 16.7497 12.553H15.8249V11.8531H16.7609C16.8952 11.8531 17.0324 11.8551 17.1193 11.9047C17.2189 11.96 17.2799 12.0543 17.2799 12.1891C17.2799 12.3239 17.2189 12.4312 17.1193 12.489ZM17.5773 12.8808C17.7487 12.9385 17.8835 13.0521 17.9489 13.1417C18.0617 13.2962 18.0768 13.4396 18.0768 13.7154V14.3363H17.319V13.9445C17.319 13.7539 17.3361 13.4757 17.195 13.3303C17.0841 13.2167 16.9128 13.1888 16.6349 13.1888H15.8249V14.3363H15.0671V11.2024H16.8107C17.2018 11.2024 17.4772 11.2193 17.7316 11.3545C17.966 11.4936 18.1203 11.6905 18.1203 12.05C18.1203 12.5443 17.7795 12.7994 17.5773 12.8808ZM18.5392 11.2024H21.0739V11.8532H19.2951V12.4182H21.0236V13.0584H19.2951V13.6812L21.0739 13.6855V14.3363H18.5392V11.2024ZM13.4187 12.6473H12.4372V11.8531H13.4294C13.7009 11.8531 13.8942 11.9624 13.8942 12.2339C13.8942 12.5082 13.7116 12.6473 13.4187 12.6473ZM11.6814 14.0513L10.5173 12.7734L11.6814 11.5408V14.0513ZM8.67553 13.6812H6.80786V13.0584H8.47582V12.4182H6.80786V11.8531H8.71068L9.54027 12.7609L8.67553 13.6812ZM14.7043 12.2339C14.7043 13.1012 14.0485 13.2875 13.384 13.2875H12.4372V14.3363H10.9645L10.0285 13.2962L9.05587 14.3363H6.05687V11.2024H9.10567L10.0393 12.23L11.0061 11.2024H13.4294C14.029 11.2024 14.7043 11.367 14.7043 12.2339Z" fill="#FEFEFE"/>
<path fill-rule="evenodd" clip-rule="evenodd" d="M2.43214 7.59734L1.91311 6.35121L1.39651 7.59734H2.43214ZM13.8725 7.10052C13.7704 7.16501 13.6464 7.16501 13.5009 7.16501H12.5761V6.47336H13.5097C13.64 6.47336 13.7831 6.47336 13.8725 6.52486C13.9701 6.57396 14.0287 6.66829 14.0287 6.80306C14.0287 6.93783 13.9701 7.04902 13.8725 7.10052ZM20.4505 7.59734L19.9247 6.35121L19.4012 7.59734H20.4505ZM8.1933 8.94611H7.41596L7.40717 6.49716L6.30855 8.94611H5.644L4.53854 6.49283V8.94611H2.99656L2.70799 8.24386H1.12499L0.831537 8.94611H0.00830065L1.36571 5.81658H2.4951L3.78513 8.77909V5.81658H5.02731L6.01558 7.94208L6.92768 5.81658H8.1933V8.94611ZM11.2924 8.94611H8.75821V5.81658H11.2924V6.47358H9.51407V7.02998H11.247V7.67446L9.51407 7.67254V8.2997H11.2924V8.94611ZM14.8646 6.66418C14.8646 7.15849 14.5282 7.41552 14.3305 7.49493C14.5023 7.55895 14.6434 7.6658 14.704 7.75773C14.8104 7.91416 14.8344 8.05567 14.8344 8.32954V8.94611H14.0702L14.0658 8.54998C14.0658 8.36612 14.0829 8.09177 13.9418 7.94448C13.829 7.83282 13.6659 7.80923 13.3944 7.80923H12.5761V8.94611H11.8158V5.81658H13.5663C13.9481 5.81658 14.2352 5.82909 14.4828 5.96819C14.7235 6.1073 14.8646 6.31282 14.8646 6.66418ZM15.308 8.94611H16.0853V5.81658H15.308V8.94611ZM25.0628 8.94611H23.9857L22.5501 6.59968V8.94611H21.0018L20.7064 8.24386H19.1302L18.8475 8.94611H17.9594C17.5902 8.94611 17.119 8.86476 16.8607 8.60148C16.5893 8.33387 16.4545 7.97866 16.4545 7.40493C16.4545 6.94238 16.537 6.51641 16.8607 6.18479C17.1083 5.9321 17.4901 5.81658 18.0136 5.81658H18.7499V6.48657H18.0311C17.7533 6.48657 17.5966 6.52941 17.4403 6.67477C17.3187 6.80521 17.2235 7.05357 17.2235 7.38327C17.2235 7.72163 17.2948 7.96133 17.4359 8.11968C17.5468 8.23953 17.766 8.27804 17.9662 8.27804H18.307L19.371 5.81658H20.5091L21.7967 8.77716V5.81658H22.95L24.2855 7.99984V5.81658H25.0628V8.94611ZM0 9.56454H1.29638L1.59178 8.8647H2.24315L2.52977 9.56454H5.08395V9.03172L5.31588 9.56454H6.63862L6.86225 9.02306V9.56454H13.2055L13.1991 8.42141H13.3231C13.414 8.42382 13.4359 8.432 13.4359 8.57158V9.56454H16.7152V9.29693C16.9779 9.43603 17.3905 9.56454 17.931 9.56454H19.308L19.6034 8.8647H20.2616L20.5501 9.56454H23.2103V8.90321L23.6077 9.56454H25.7405V5.19995H23.6273V5.71352L23.3387 5.19995H21.1737V5.71352L20.9022 5.19995H17.9789C17.4901 5.19995 17.058 5.26397 16.7152 5.45264V5.19995H14.6996V5.45264C14.4784 5.2553 14.1767 5.19995 13.8422 5.19995H6.47358L5.98042 6.32383L5.47262 5.19995H3.15525V5.71352L2.89695 5.19995H0.920892L0 7.27202V9.56454Z" fill="#FEFEFE"/>
</svg>
