<svg width="33" height="40" viewBox="0 0 33 40" fill="none" xmlns="http://www.w3.org/2000/svg">
<path d="M16.5351 22.5825C21.0143 22.5825 24.6455 18.465 24.6455 13.3857C24.6455 8.3065 21.0143 4.18896 16.5351 4.18896C12.0558 4.18896 8.42468 8.3065 8.42468 13.3857C8.42468 18.465 12.0558 22.5825 16.5351 22.5825Z" stroke="#008542" stroke-miterlimit="10"/>
<path d="M24.6455 10.0124C24.6455 10.0124 23.8909 10.5093 22.6478 11.6231C21.1621 12.9532 22.2618 8.68518 16.538 8.68518C10.8054 8.68518 12.2824 13.0906 10.8171 11.9505C9.3401 10.8046 8.42757 10.4246 8.42757 10.4246C7.74317 3.4729 12.0572 0 16.5351 0C21.0129 0 24.6455 3.26827 24.6455 10.0124Z" fill="#008542"/>
<path d="M21.3434 25.7192C20.4104 27.4148 18.6087 28.5636 16.5351 28.5636C14.4848 28.5636 12.7036 27.4381 11.7618 25.7748C6.69317 26.4647 2.6599 28.4408 1.16827 32.8638C0.475095 34.916 2.0106 37.0412 4.17786 37.0412L9.78759 37.9943C14.2333 38.7485 18.7725 38.7514 23.2182 38.003L28.939 37.0412C31.0361 37.0412 32.595 35.0329 31.9954 33.0246C30.5945 28.3648 26.5758 26.3653 21.3434 25.7192Z" fill="#008542" stroke="#008542" stroke-miterlimit="10"/>
</svg>
