<svg width="24" height="26" viewBox="0 0 24 26" fill="none" xmlns="http://www.w3.org/2000/svg">
<path d="M11.7906 14.6403C14.9019 14.6403 17.4241 11.9709 17.4241 8.67804C17.4241 5.3852 14.9019 2.71582 11.7906 2.71582C8.67931 2.71582 6.1571 5.3852 6.1571 8.67804C6.1571 11.9709 8.67931 14.6403 11.7906 14.6403Z" stroke="white" stroke-width="1.27174" stroke-miterlimit="10"/>
<path d="M17.4243 6.49098C17.4243 6.49098 16.9001 6.81316 16.0367 7.53522C15.0047 8.39753 15.7685 5.63057 11.7928 5.63057C7.81092 5.63057 8.83686 8.4866 7.81905 7.74748C6.79311 7.00457 6.15927 6.7582 6.15927 6.7582C5.68388 2.25147 8.68043 0 11.7907 0C14.9011 0 17.4243 2.11881 17.4243 6.49098Z" fill="white"/>
<path d="M15.1306 16.6741C14.4825 17.7733 13.2311 18.5181 11.7907 18.5181C10.3666 18.5181 9.12935 17.7884 8.47519 16.7101C4.95449 17.1573 2.15297 18.4385 1.11688 21.3059C0.635399 22.6363 1.70197 24.0141 3.20735 24.0141L7.10388 24.6319C10.1919 25.1209 13.3448 25.1228 16.4328 24.6376L20.4065 24.0141C21.8632 24.0141 22.946 22.7121 22.5295 21.4101C21.5564 18.3892 18.765 17.0929 15.1306 16.6741Z" fill="white" stroke="white" stroke-width="1.2687" stroke-miterlimit="10"/>
</svg>
