<svg width="17" height="12" viewBox="0 0 17 12" fill="none" xmlns="http://www.w3.org/2000/svg">
<path d="M15.2653 12H1.73469C0.780611 12 0 11.2593 0 10.3539V1.64609C0 0.740741 0.780611 0 1.73469 0H15.2653C16.2194 0 17 0.740741 17 1.64609V10.3539C17 11.2593 16.2194 12 15.2653 12Z" fill="#BCBDBC"/>
<path d="M17 3.19336H0V4.88883H17V3.19336Z" fill="white"/>
<path d="M2.56741 7.98364H5.7419C5.95006 7.98364 6.10618 8.14825 6.10618 8.32932C6.10618 8.52685 5.93271 8.675 5.7419 8.675H2.56741C2.35925 8.675 2.20312 8.51039 2.20312 8.32932C2.20312 8.14825 2.35925 7.98364 2.56741 7.98364Z" fill="white"/>
<path d="M8.13577 9.89302H2.56741C2.35925 9.89302 2.20312 9.72841 2.20312 9.54734C2.20312 9.36627 2.37659 9.20166 2.56741 9.20166H8.13577C8.34394 9.20166 8.50006 9.36627 8.50006 9.54734C8.50006 9.72841 8.32659 9.89302 8.13577 9.89302Z" fill="white"/>
</svg>
