<svg width="31" height="32" viewBox="0 0 31 32" fill="none" xmlns="http://www.w3.org/2000/svg">
<rect opacity="0.05" y="1" width="31" height="31" rx="7.56098" fill="#008542"/>
<rect opacity="0.05" y="0.5" width="31" height="31" rx="7.56098" fill="#008542"/>
<path d="M7.96343 23.8134H23.2782C24.6342 23.8134 25.7416 22.706 25.7416 21.35V10.9634C25.7416 9.6074 24.6342 8.5 23.2782 8.5H7.96343C6.6074 8.5 5.5 9.6074 5.5 10.9634V21.35C5.5 22.706 6.6074 23.8134 7.96343 23.8134Z" fill="#008542" stroke="white"/>
<path d="M25.2416 12.8086H6V14.8309H25.2416V12.8086Z" fill="white"/>
<path d="M8.90646 18.5225H12.4995C12.7352 18.5225 12.9119 18.7188 12.9119 18.9348C12.9119 19.1704 12.7155 19.3471 12.4995 19.3471H8.90646C8.67085 19.3471 8.49414 19.1508 8.49414 18.9348C8.49414 18.7188 8.67085 18.5225 8.90646 18.5225Z" fill="white"/>
<path d="M15.2091 20.8002H8.90646C8.67085 20.8002 8.49414 20.6039 8.49414 20.3879C8.49414 20.1719 8.69048 19.9756 8.90646 19.9756H15.2091C15.4447 19.9756 15.6214 20.1719 15.6214 20.3879C15.6214 20.6039 15.4251 20.8002 15.2091 20.8002Z" fill="white"/>
</svg>
