<svg width="56" height="56" viewBox="0 0 56 56" fill="none" xmlns="http://www.w3.org/2000/svg">
<g clip-path="url(#clip0_1599_7826)">
<rect width="56" height="56" rx="8" fill="#808080" fill-opacity="0.05"/>
<rect x="0.5" y="0.5" width="55" height="55" rx="7.5" stroke="#808080" stroke-opacity="0.4"/>
<g clip-path="url(#clip1_1599_7826)">
<path d="M21.153 26.3252V25.9478C21.153 22.3831 21.1558 18.8177 21.1475 15.253C21.1475 14.9879 21.2222 14.8099 21.4199 14.6412C22.1729 13.9957 22.9127 13.3345 23.658 12.6791C23.7083 12.6347 23.7509 12.579 23.8215 12.5661C23.8313 12.5711 23.8418 12.5747 23.8508 12.5811C23.8592 12.5869 23.8704 12.5954 23.8718 12.6033C23.8767 12.6483 23.8823 12.6941 23.8823 12.7398C23.8858 15.0936 23.8886 17.4468 23.8928 19.8006C23.8928 19.8092 23.9032 19.8177 23.9137 19.8335C24.0143 19.8356 24.0583 19.7427 24.1177 19.6848C25.8682 17.9707 27.616 16.2545 29.3652 14.539C30.8482 13.0851 32.3333 11.6326 33.8163 10.178C33.9134 10.0815 34.0035 9.99929 34.1586 10C35.3866 10.0064 36.6147 10.0036 37.8553 10.0036C37.8686 10.1558 37.7484 10.2037 37.6765 10.2745C36.0391 11.8785 34.4003 13.4796 32.7608 15.0808C30.7734 17.0207 28.7854 18.9593 26.7973 20.8978C25.0111 22.6397 23.2249 24.381 21.4381 26.1215C21.3675 26.1901 21.3088 26.2773 21.1537 26.3252H21.153Z" fill="#666666"/>
<path d="M20.8463 39.271C20.9616 39.2453 20.979 39.1874 21.007 39.1431C21.5141 38.3489 22.2616 37.9636 23.1557 37.8571C23.5874 37.8057 24.0247 37.7985 24.4564 37.8886C25.7173 38.1531 26.5136 39.0544 26.6379 40.3632C26.6617 40.6127 26.6736 40.8643 26.6743 41.1152C26.6778 42.5769 26.6757 44.0387 26.6757 45.5012C26.6757 45.5469 26.6757 45.5927 26.6757 45.6384C26.6708 45.9236 26.6708 45.9265 26.4046 45.9279C26.0141 45.9301 25.623 45.9308 25.2325 45.9279C24.9677 45.9258 24.9642 45.9229 24.9635 45.6384C24.9621 44.2453 24.9621 42.8514 24.9635 41.4583C24.9635 41.2524 24.9517 41.0494 24.9062 40.8464C24.7372 40.098 24.2755 39.6506 23.5504 39.5047C22.1791 39.2288 20.9965 40.1509 20.8693 41.5805C20.8533 41.7621 20.847 41.9451 20.847 42.1281C20.8449 43.2589 20.8463 44.3897 20.8463 45.5205C20.8463 45.6005 20.8442 45.6806 20.8463 45.7606C20.8484 45.87 20.8093 45.9301 20.6912 45.9293C20.2225 45.9265 19.7538 45.9265 19.285 45.9293C19.1656 45.9293 19.1314 45.865 19.1349 45.7571C19.137 45.677 19.1349 45.597 19.1349 45.5169C19.1349 42.0451 19.1349 38.5727 19.1349 35.1009C19.1349 35.0323 19.1383 34.9636 19.1349 34.895C19.1272 34.7685 19.1726 34.7063 19.306 34.707C19.7635 34.7113 20.2211 34.7099 20.6786 34.707C20.7883 34.707 20.8456 34.7514 20.8456 34.8664C20.8456 34.9694 20.847 35.0723 20.847 35.1745C20.847 36.4083 20.847 37.6413 20.847 38.875C20.847 38.9994 20.847 39.1245 20.847 39.2703L20.8463 39.271Z" fill="#666666"/>
<path d="M39.3892 41.3981C39.5387 41.3552 39.5994 41.2551 39.6735 41.1786C40.6633 40.1565 41.6539 39.135 42.636 38.105C42.7792 37.9549 42.9182 37.8798 43.1285 37.8863C43.6524 37.902 44.1763 37.8913 44.7093 37.8913C44.7289 38.0464 44.6129 38.1007 44.5438 38.1751C43.7355 39.0435 42.9245 39.9084 42.1142 40.7748C41.9067 40.9964 41.9067 40.9978 42.0667 41.2494C42.9972 42.7133 43.9283 44.1772 44.8588 45.6418C44.9063 45.7162 44.9468 45.7955 45.0006 45.8891C44.8937 45.9506 44.7938 45.9263 44.7002 45.927C44.2315 45.9299 43.7621 45.9177 43.2941 45.9335C43.0894 45.9406 42.9727 45.8663 42.8658 45.6926C42.2239 44.649 41.5721 43.6125 40.9225 42.5739C40.8631 42.4796 40.8002 42.3873 40.743 42.3009C40.6228 42.3087 40.5795 42.3995 40.5208 42.4624C40.1967 42.8084 39.8803 43.1629 39.5505 43.5039C39.4311 43.6275 39.3829 43.7555 39.3857 43.9284C39.3948 44.511 39.3913 45.0936 39.3878 45.6761C39.3864 45.922 39.3815 45.9263 39.1489 45.9284C38.736 45.932 38.3225 45.9213 37.9103 45.9335C37.7266 45.9392 37.6721 45.8627 37.6882 45.6933C37.6945 45.6254 37.6889 45.556 37.6889 45.4881C37.6889 42.0385 37.6889 38.5896 37.6889 35.14C37.6889 35.06 37.6945 34.9799 37.6882 34.9006C37.6763 34.7469 37.7511 34.7061 37.8887 34.7076C38.3239 34.7133 38.7591 34.7133 39.1943 34.7076C39.3396 34.7054 39.3976 34.764 39.3885 34.9091C39.3836 34.9885 39.3885 35.0693 39.3885 35.1486C39.3885 37.1129 39.3885 39.0778 39.3885 41.0421V41.3988L39.3892 41.3981Z" fill="#666666"/>
<path d="M34.5707 43.6439C34.848 43.9434 35.1044 44.2286 35.3698 44.5046C35.4732 44.6118 35.4236 44.6783 35.3447 44.759C34.9598 45.1522 34.5155 45.4552 34.0084 45.6511C32.9158 46.0728 31.8038 46.1257 30.698 45.7326C29.2617 45.2222 28.4822 44.1443 28.2481 42.6296C28.1434 41.9542 28.1916 41.2873 28.3697 40.6275C28.7672 39.155 29.9617 38.0192 31.706 37.8491C32.2403 37.7969 32.7775 37.8134 33.3049 37.9399C34.6713 38.268 35.4453 39.18 35.7443 40.5503C35.8665 41.11 35.9 41.6804 35.8756 42.2537C35.8623 42.5718 35.863 42.5739 35.5563 42.5739C33.8142 42.5746 32.072 42.5739 30.3298 42.5739H29.9233C30.1119 43.3616 30.4933 43.972 31.1967 44.2987C32.3095 44.8155 33.3496 44.6003 34.3101 43.8705C34.3548 43.8369 34.394 43.7955 34.4366 43.7583C34.4701 43.729 34.5036 43.7011 34.5714 43.6432L34.5707 43.6439ZM29.9058 41.2515C29.9596 41.268 29.991 41.2858 30.0225 41.2858C31.407 41.288 32.7922 41.2873 34.1767 41.2915C34.3318 41.2915 34.3667 41.2251 34.3486 41.0843C34.2529 40.328 33.9099 39.7404 33.212 39.4295C32.5351 39.1279 31.838 39.1271 31.1646 39.4395C30.4102 39.789 30.0329 40.4281 29.9065 41.2508L29.9058 41.2515Z" fill="#666666"/>
<path d="M16.2813 40.2603C15.8726 39.8643 15.4395 39.5948 14.9296 39.4626C14.5139 39.3546 14.0913 39.3103 13.6687 39.3832C12.6886 39.5519 12.0774 40.148 11.8085 41.1202C11.6492 41.697 11.6688 42.2739 11.8406 42.8421C12.1787 43.9601 13.1867 44.6062 14.3624 44.4704C15.2286 44.3703 15.5611 44.216 16.393 43.5147C16.6592 43.7999 16.926 44.0909 17.1985 44.3761C17.2781 44.459 17.2753 44.5255 17.2054 44.6105C17.0036 44.8578 16.7751 45.0744 16.5146 45.2538C15.6232 45.8693 14.6264 46.0394 13.5772 45.9693C13.061 45.935 12.5615 45.8121 12.097 45.5748C10.8284 44.9272 10.1767 43.8421 10.0293 42.4275C9.96082 41.7656 10.0097 41.1059 10.2158 40.464C10.6866 38.9951 11.9223 37.9779 13.4277 37.85C14.282 37.7771 15.1231 37.8414 15.9236 38.1916C16.3483 38.3775 16.7283 38.6305 17.0581 38.9658C17.1698 39.0794 17.2138 39.1581 17.0867 39.3003C16.8157 39.6027 16.5628 39.9215 16.2813 40.2596V40.2603Z" fill="#666666"/>
<path d="M29.7543 19.9165C31.7954 22.5741 33.8205 25.211 35.8407 27.8407C35.8086 27.9537 35.7282 27.9179 35.6702 27.9179C34.7104 27.9201 33.7499 27.9179 32.7901 27.9215C32.6497 27.9215 32.5408 27.8965 32.443 27.7721C30.9145 25.82 29.3812 23.8722 27.8493 21.9222C27.8291 21.8965 27.8165 21.8643 27.7878 21.8107C28.4326 21.1895 29.0809 20.5648 29.7543 19.9158V19.9165Z" fill="#666666"/>
</g>
</g>
<defs>
<clipPath id="clip0_1599_7826">
<rect width="56" height="56" fill="white"/>
</clipPath>
<clipPath id="clip1_1599_7826">
<rect width="35" height="36" fill="white" transform="translate(10 10)"/>
</clipPath>
</defs>
</svg>
