<svg width="31" height="31" viewBox="0 0 31 31" fill="none" xmlns="http://www.w3.org/2000/svg">
<path d="M23.7143 10.1967V19.5414C23.7143 20.0898 23.1604 20.5164 22.5123 20.472L19.931 20.2893C18.0808 20.1563 16.2141 20.2228 14.3861 20.4831L13.3337 20.6327C11.5002 20.893 9.63898 20.9595 7.78887 20.8266L5.01369 20.6271C4.4376 20.5884 4 20.184 4 19.6965V10.3518C4 9.8034 4.55393 9.37688 5.20202 9.42119L7.78887 9.60399C9.63898 9.73693 11.5002 9.67046 13.3337 9.41011L14.3861 9.26055C16.2196 9.00021 18.0808 8.93374 19.931 9.06668L22.7006 9.26609C23.2711 9.30487 23.7143 9.70923 23.7143 10.1967Z" fill="#BCBDBC" stroke="white" stroke-width="0.821429" stroke-miterlimit="10" stroke-linecap="round"/>
<path d="M14.6427 11.4644V12.172H16.0869V13.5874H14.6427H13.1984C13.1082 13.5873 13.0212 13.6202 12.9545 13.6798C12.8878 13.7394 12.8463 13.8212 12.8381 13.9093C12.83 13.9974 12.8558 14.0852 12.9104 14.1556C12.9651 14.226 13.0446 14.2737 13.1334 14.2895L13.1984 14.2951H14.6427C15.1215 14.2951 15.5807 14.4815 15.9192 14.8133C16.2578 15.1451 16.448 15.5951 16.448 16.0644C16.448 16.5336 16.2578 16.9836 15.9192 17.3154C15.5807 17.6472 15.1215 17.8336 14.6427 17.8336V18.5413H13.1984V17.8336H11.7541V16.4182H14.6427C14.7329 16.4184 14.8199 16.3854 14.8866 16.3258C14.9533 16.2663 14.9948 16.1844 15.0029 16.0963C15.0111 16.0083 14.9853 15.9204 14.9306 15.85C14.876 15.7797 14.7965 15.7319 14.7077 15.7162L14.6427 15.7105H13.1984C12.7196 15.7105 12.2604 15.5241 11.9218 15.1923C11.5833 14.8605 11.3931 14.4105 11.3931 13.9413C11.3931 13.472 11.5833 13.022 11.9218 12.6902C12.2604 12.3584 12.7196 12.172 13.1984 12.172V11.4644H14.6427Z" fill="white"/>
<path d="M26.9999 11.8395V21.1843C26.9999 21.7327 26.446 22.1592 25.7979 22.1149L23.2166 21.9321C21.3665 21.7991 19.4997 21.8656 17.6718 22.1259L16.6193 22.2755C14.7858 22.5359 12.9246 22.6023 11.0745 22.4694L8.29933 22.27C7.72325 22.2312 7.28564 21.8268 7.28564 21.3394V11.9946C7.28564 11.4462 7.83957 11.0197 8.48767 11.064L11.0745 11.2468C12.9246 11.3798 14.7858 11.3133 16.6193 11.0529L17.6718 10.9034C19.5053 10.643 21.3665 10.5766 23.2166 10.7095L25.9862 10.9089C26.5568 10.9477 26.9999 11.3521 26.9999 11.8395Z" fill="#BCBDBC" stroke="white" stroke-width="0.821429" stroke-miterlimit="10" stroke-linecap="round"/>
<path d="M17.9283 13.1072V13.8149H19.3726V15.2303H17.9283H16.484C16.3938 15.2301 16.3068 15.263 16.2401 15.3226C16.1734 15.3822 16.1319 15.4641 16.1238 15.5521C16.1156 15.6402 16.1414 15.7281 16.1961 15.7984C16.2507 15.8688 16.3303 15.9165 16.4191 15.9323L16.484 15.9379H17.9283C18.4071 15.9379 18.8663 16.1243 19.2049 16.4561C19.5435 16.7879 19.7337 17.2379 19.7337 17.7072C19.7337 18.1764 19.5435 18.6264 19.2049 18.9582C18.8663 19.29 18.4071 19.4764 17.9283 19.4764V20.1841H16.484V19.4764H15.0398V18.061H17.9283C18.0185 18.0612 18.1056 18.0282 18.1722 17.9687C18.2389 17.9091 18.2804 17.8272 18.2886 17.7392C18.2967 17.6511 18.2709 17.5632 18.2163 17.4929C18.1616 17.4225 18.0821 17.3747 17.9933 17.359L17.9283 17.3533H16.484C16.0052 17.3533 15.546 17.1669 15.2075 16.8351C14.8689 16.5033 14.6787 16.0533 14.6787 15.5841C14.6787 15.1149 14.8689 14.6649 15.2075 14.3331C15.546 14.0013 16.0052 13.8149 16.484 13.8149V13.1072H17.9283Z" fill="white"/>
</svg>
