<svg width="60" height="60" viewBox="0 0 60 60" fill="none" xmlns="http://www.w3.org/2000/svg">
<circle cx="30" cy="30" r="30" fill="#FDC82F"/>
<path d="M30.0204 15C32.4289 15 34.31 17.1117 34.0213 19.5122L32.2498 34.3138C32.1105 35.4493 31.155 36.3059 30.0105 36.3059C28.8659 36.3059 27.9005 35.4493 27.7711 34.3138L26.0294 19.5022C25.7408 17.1117 27.6119 15 30.0204 15Z" fill="white"/>
<path d="M27.7411 43.4974C27.1241 42.8799 26.8056 42.1129 26.8056 41.2164C26.8056 40.32 27.1141 39.553 27.7411 38.9354C28.3582 38.3179 29.1246 37.9991 30.0203 37.9991C30.916 37.9991 31.6824 38.3079 32.2994 38.9354C32.9165 39.553 33.235 40.32 33.235 41.2164C33.235 42.1129 32.9264 42.8799 32.2994 43.4974C31.6824 44.115 30.916 44.4337 30.0203 44.4337C29.1246 44.4337 28.3682 44.125 27.7411 43.4974Z" fill="white"/>
</svg>
