<svg width="60" height="60" viewBox="0 0 60 60" fill="none" xmlns="http://www.w3.org/2000/svg">
<path d="M60 30C60 46.5685 46.5685 60 30 60C13.4315 60 0 46.5685 0 30C0 13.4315 13.4315 0 30 0C46.5685 0 60 13.4315 60 30Z" fill="#FDC82F"/>
<path d="M26 42.5597C26 42.0636 26.0902 41.5978 26.2765 41.1562C26.4628 40.7146 26.7093 40.3335 27.0279 40.0068C27.3465 39.6801 27.7192 39.42 28.158 39.2325C28.5968 39.0449 29.0596 38.9481 29.5525 38.9481C30.0454 38.9481 30.5083 39.0449 30.9471 39.2325C31.3859 39.42 31.7646 39.6801 32.0892 40.0068C32.4138 40.3335 32.6722 40.7146 32.8586 41.1562C33.0449 41.5978 33.1411 42.0636 33.1411 42.5597C33.1411 43.0679 33.0449 43.5397 32.8586 43.9753C32.6722 44.4108 32.4138 44.7859 32.0892 45.1005C31.7646 45.4151 31.3859 45.6691 30.9471 45.8567C30.5083 46.0442 30.0454 46.135 29.5525 46.135C29.0596 46.135 28.5968 46.0442 28.158 45.8567C27.7192 45.6691 27.3465 45.4211 27.0279 45.1005C26.7093 44.7799 26.4628 44.4048 26.2765 43.9753C26.0902 43.5458 26 43.0739 26 42.5597ZM26.1683 16.1294C26.1683 15.9903 26.1984 15.7967 26.2525 15.5547C26.3066 15.3127 26.4448 15.0768 26.6552 14.8409C26.8656 14.605 27.1842 14.4114 27.617 14.248C28.0498 14.0847 28.6328 14 29.3782 14C30.1236 14 30.7247 14.0726 31.1695 14.2238C31.6143 14.3751 31.9509 14.5566 32.1914 14.7743C32.4318 14.9921 32.5881 15.228 32.6542 15.4761C32.7203 15.7241 32.7504 15.9419 32.7384 16.1234C32.6542 17.3575 32.558 18.5916 32.4558 19.8257C32.3537 21.0598 32.2334 22.2636 32.1072 23.4433C31.981 24.6229 31.8487 25.7602 31.7045 26.8552C31.5602 27.9502 31.428 28.9846 31.3017 29.9525C30.9892 32.209 30.6706 34.3687 30.3279 36.4376H28.7651C28.3984 34.3687 28.0437 32.203 27.7071 29.9525C27.5689 28.9907 27.4246 27.9562 27.2743 26.8552C27.1241 25.7542 26.9798 24.6169 26.8415 23.4312C26.7033 22.2455 26.5771 21.0416 26.4628 19.8075C26.3486 18.5734 26.2525 17.3454 26.1683 16.1294Z" fill="white"/>
</svg>

