<svg width="268" height="268" fill="none" xmlns="http://www.w3.org/2000/svg"><g clip-path="url(#clip0)"><path d="M133.7 267.3c73.8 0 133.7-59.8 133.7-133.7C267.3 59.8 207.5 0 133.7 0 59.8 0 0 59.8 0 133.7c0 73.8 59.8 133.6 133.7 133.6z" fill="#D1E5E3"/><path d="M233.9 45.3c-2.9-1.2-7.9-3.2-11.3-3.3-2.7 0-4.3 1-5.1 2.3-7-.6-4.7 1.2-9 2.1-1.4.3-1.8.4-2.6 1-1.2.9-2.4 2.8-1 4.5 1.4 1.7 3.3 1 3.3 3.5l-6.5.3c-3.1-6-10-4.2-11.5-5.2-2.4-1.7-7-2.5-9.8-.7-1.7-2.3-17.4 0-17.9.8l-1.9.2c-.7-1.6-3.2-1.9-5.9-1.7-2.3.2-16.4-5.2-17.9 3.4-5.4-.2-8.9 1.8-9 6.1-1.3-.3-2-.9-3.8-.8-3.4.3-1.6 2.5-9.7.5-7.6-1.9-13 1.3-19.7 2.9-5.8 1.3-6.3-1.4-9.7-1-3.7.4-4.2 3.3-10.7 2.9-4.9-.3-2.9-4.8-10.8-5.3-.6-2.2-.2-4.6-5.1-3 .1 0 .1 0 .2-.1-.2-.4-3.2-4.4-8.1-5.2-.4-.1-.8-.1-1.2-.1-5.6-.3-1.9 1.9-5.7 2.6-1.4.3-8.3.2-8.9.2-4.5.1-3.5 3.4-7.1 5.3-1.6-.1-4.8 1.4-4.8 1.4s-2.1 2.9-4.7 7.2c-2.5 4.2-5 9.7-5 9.7 10.5.5 19.5.3 30.1.6 2.4.1 4.9.1 7.3 0 9.4-.3 19.1-1.4 28.2-1.6 6.2-.2 11.8-.8 18-.8 10.9 0 16.7-.7 27.1-1.4 3.1-.2 5.6-.5 8.8-.7 19.3-.8 37.9 0 56.7-.4 8.2.5 25 .2 32 1.8-4.3 0-28.4-.5-30.2.5-2-.2-39.1 1.3-42.4 1.7l4.4 1.2c4.9 1.4 37.9-.9 48.8 1.1 5.3 1 17.3.3 19.9.8 1.4.3.7.4 1.8.8 4.1 1.6 14.6.3 16.7.3 2 0 3.4.4 5.5.4 4 .1 6.4-.8 10.3-.6 0 0-4.1-9.9-11.3-20.6-7.9-11.3-10.8-13.6-10.8-13.6z" fill="#fff"/><path d="M220.9 108.5L210.7 125l-53.2 4.3s-.2-2-1-6.3c-.5-2.8-2.3-7.3-2.3-7.3l66.7-7.2z" fill="#008542"/><path d="M253.2 158.2L210.7 125l10.2-16.5 43.2 37.9-10.9 11.8z" fill="#053C1C"/><path d="M2 156.5s1.1 5.9 2.1 9.9S7.2 177 7.2 177l234.9-6.7-41.7-28.5L2 156.5z" fill="#6D5A3B"/><path d="M198.1 145.2l12.6-20.3L.3 143.1s.5 5.9.8 8c.3 2.2 1.1 7.2 1.1 7.2l195.9-13.1z" fill="#FDC82F"/><path d="M198.1 145.2l12.6-20.3 42.5 33.3-11.2 12-43.9-25z" fill="#AD8204"/><path d="M138 208.3v-4.5l11 3.7c-.1.1-4.2 1.1-11 .8z" fill="#913E1D"/><path d="M149.6 217.7h-5.2v21.5h5.2v-21.5z" fill="#BAAE9A"/><path d="M149.6 213.6H138l.1 44.1 8.6 3.3 2.9-.2v-22.2h-4.8v-20.5h4.8v-4.5z" fill="#D4BA9A"/><path d="M135.8 157.9l2.2 3.1.1 96.7-2.9.5.1 3.4h-.7l.6-103.6h.6v-.1z" fill="#BBA177"/><path d="M134.8 261.6l-11.5 1v-4.2l-1.5-100.6h13.9l-.9 103.8z" fill="#CCA97C"/><path d="M102.8 200.3s-10.6-1.2-10.9-3v-.3c.6-2 10.7-1.5 10.7-1.5l.2 4.8z" fill="#956923"/><path d="M112.1 265.6s-2.4-.4-3.4-.6c-1-.2-5.1-1.1-5.1-1.1l-1.9-.5-2.6-.7-1.6-.5-.4-.2h15.1v3.6h-.1z" fill="#1C1812"/><path d="M112.1 262.2l11.2.4v4.3s-2.2-.1-5.5-.5c-3.4-.4-5.7-.8-5.7-.8v-3.4z" fill="#29302D"/><path d="M134 202.6l-16-4.9.6 64.9h4.7l.3-.1v-56.4l10.4 2.3v-5.8z" fill="#C7BBA1"/><path d="M118.6 262.6h-14.3l-1.8-72.6c0-.8.6-1.4 1.4-1.4h12.8c.8 0 1.4.6 1.4 1.4l.5 72.6z" fill="#008542"/><path d="M95.5 260.2v1.6l.9.3 1 .3 6.6.4v-2.3l-8.5-.3z" fill="#423D31"/><path d="M123.3 206.1v56.5l10.7-.9v-53.3l-10.7-2.3z" fill="#BAAE9A"/><path d="M125.9 245.4v-9.2l4.2 2.1v7.1h-4.2z" fill="#161A14"/><path d="M107.5 195.9s-4.4.8-4.7 4.4l-.3-5.1 4.9.5.1.2zM118.1 191.6s-7.6-1.5-15.6-1.6c0 0-.1-1.3 1.4-1.4 3.7-.2 12.9 0 12.9 0s.5 0 .9.4.4.8.4.8v1.8z" fill="#0C3017"/><path d="M149.9 206.3c0 .8-.9 1.5-1.8 1.2-6.5-2.4-29.7-10.2-37.6-11.2-7.8-1-18.3-1.3-18.6 1v-5.2c0-1.1.9-2.1 2.1-2.2 4.2-.4 14-1.2 24.9 1.8 12.6 3.5 26.6 9.3 30.2 10.7.5.2.8.7.8 1.2v2.7z" fill="#FDC82F"/><path d="M118.2 200.1s-.5-1.7-3.5-2.9l3.5.9v2z" fill="#0C3017"/><path d="M150.2 244.1h-.6v3.7h.3c1.4 0 2.5 1.2 2.5 2.5V266l2-.3 1.7-.3V250c.1-3.2-2.6-5.9-5.9-5.9z" fill="#C7982B"/><path d="M149.6 245.6v2.2h.3c1.4 0 2.5 1.2 2.5 2.5V266l2-.3v-14.2c.1-3-1.9-5.4-4.8-5.9z" fill="#B97920"/><path d="M149.6 259.5l2.2 1.1-2.2.3v-1.4z" fill="#2C2C2B"/><path d="M123.3 266.9s3.3.3 6.4.4c3.1.1 8.3-.1 8.3-.1s3.3-.2 5.8-.3c2.5-.1 7.9-.8 7.9-.8l.1-5.5-5.1.3-8.6-3.3-3.2.1.1 3.9-11.7 1v4.3z" fill="#161A14"/><path d="M130 244.8s.7 6.5-4.2 12.6c-4.9 6.2-9.6 6.9-10.1-.7-.5-7.5 1.2-22.3 4.1-29.7 2.9-7.4 6.3-13.7 6-20.5" stroke="#161A14" stroke-width=".712" stroke-miterlimit="10" stroke-linecap="round" stroke-linejoin="round"/><path d="M130.9 244.7h-1c-.2 0-.4-.2-.4-.5v-5.9c0-.3.2-.5.4-.5h.9c.2 0 .4.2.4.5v5.9c.1.3-.1.5-.3.5z" fill="#008542"/><path d="M154.2 115.6v11.5l3.3 2.5c0-.1-.7-8.4-3.3-14z" fill="#8BA58B"/><path d="M50.6 135l103.5-7.9 3.3 2.4-102.5 7.9-4.3-2.4z" fill="#6B6967"/><path d="M53.3 110.5l-2.7-2.5v27l2.7-2.8v-21.7z" fill="#CDCBC9"/><path d="M154.2 97.8l-3.5 3.5-97.3 9.1-2.7-2.5 103.5-10.1z" fill="#EFEEEB"/><path d="M53.3 132.2l96.6-7.8 4.2 2.7L50.6 135l2.7-2.8z" fill="#D9D5CF"/><path d="M253.2 158.2l-42.5-33.3-5.3 8.6s4-6.2 7.7-3.3l38.3 29.9 1.8-1.9z" fill="#CBCBCB"/><path d="M154.2 97.8v29.3l-4.2-2.7.7-23 3.5-3.6z" fill="#E8E6E0"/><path d="M150.6 101.4l-.7 23-96.6 7.8v-21.7l97.3-9.1zM210.7 124.9L.2 141.9l.1 1.5 197.1-15.3c8.3-.6 8 5.4 8 5.4l5.3-8.6zM91.9 197.3s.1-.4.6-.7c.8-.5 2.7-1 6.9-1 .9 0 6.6.2 8.2.4 5 .5 9.8 1.7 19.1 4.6 5.3 1.7 12.4 3.9 21.4 7.1 0 0 .95.3 1.55-.7 0 0-28.15-11.9-46.85-13.1-6.5-.4-9.8.4-10.9 1.4v2z" fill="#fff"/><path d="M50.6 135l4.3 2.4-54.7 4.5-.2-6.1v-4.5l50.5-5.2.1 8.9z" fill="#008542"/><path d="M91.9 233v-.1h16.9v.1l-3.1 27.3H95.1L91.9 233z" fill="#DCD1BE"/><path d="M109.2 225.3H94.1c-.4 0-.8.3-.8.7l-1.4 7h16.9l1.2-6.7c.2-.6-.2-1-.8-1z" fill="#E8D7D6"/><path d="M87 258.9s.4.1.9.3c.5.2 1.1.4 1.6.6.8.3 2.4.8 2.4.8l-.1-6.9c.1-1.7 1.4-3 3.1-3h5.8c1.7 0 3.1 1.4 3.1 3.1v10.145s.5.135 2 .435c.169.034 2.4.518 2.4.518V253.3c0-4-3.2-7.2-7.2-7.2h-6.8c-4 0-7.2 3.2-7.2 7.2v5.6z" fill="#C98722"/><path d="M95 246.1h-.8c-4.3 0-7.2 3.4-7.2 7.4v5.3l.8.3v-5.6c-.1-3.9 3.2-7.4 7.2-7.4z" fill="#D3B33A"/><path d="M100.7 249.8h-5.8c-1.7 0-3 1.3-3.1 3v1.2c.1-1.7 1.4-3 3.1-3h5.8c1.7 0 3.1 1.4 3.1 3.1v-1.2c0-1.8-1.4-3.1-3.1-3.1z" fill="#966020"/><path d="M66 116l13.6-1.1.2-3.3-13.5 1.2-.3 3.2z" fill="#FDC82F"/><path d="M69.8 120.1l-1 .1-.4 1.1 1.1-.1c.6-.1.7-.4.8-.5.1-.1.1-.3 0-.4 0-.1 0-.2-.5-.2zM106 115.6c.4-1 0-1.4-1.7-1.2h-.5l-1.8.2-1.6 4.4-.2.7h.2l1.5-.1.6-1.8h.5c.3 0 .5 0 .6.1.2.1.1.3 0 .7v.1c-.1.4-.2.7-.2.8h.1l1.5-.1.1-.2c-.2 0-.1-.2.1-.9.4-1 .1-1.1-.4-1.3.5-.3.9-.8 1.2-1.4zm-1.7.4c-.1.3-.4.5-.8.5h-.1l-.6.1.4-1h.8c.3-.1.5 0 .3.4zM109.5 113.9c-1.3.4-2.3 1.4-2.8 2.7-.6 1.7.1 2.6 1.6 2.5.3 0 .5-.1.8-.1 1.2-.4 2.3-1.3 2.9-2.8.5-1.3.1-2.6-1.7-2.4-.3-.1-.6 0-.8.1zm.7 2.4c-.2.7-.6 1.2-1.1 1.4-.1.1-.3.1-.4.1-.8.1-.7-.7-.4-1.4.2-.5.6-1.1 1.1-1.4.1-.1.2-.1.4-.1.7 0 .7.7.4 1.4zM117.9 114.4c.4-1-.4-1.2-1.6-1.1l-1.1.1-1.3.1-1.9 5 2.4-.2h.3c1.1-.2 2-.6 2.4-1.7.2-.6.1-1-.4-1.1.6-.2 1-.6 1.2-1.1zm-2.1 2.3c-.1.4-.4.5-.8.5h-.1l-.7.1.3-.9h.5c.6-.2 1-.2.8.3zm.5-1.9c-.1.3-.4.5-.7.5h-.7l.3-.8h.5c.4 0 .7-.1.6.3zM128.6 117.1l.1-4.9-1.7.1-.1.2-3.4 4.9-.1.2h.1l1.5-.1.4-.7 1.1-.1h.5l-.1.6 1.7-.2zm-2-1.5h-.5l.6-.9.6-.9-.1 1.8h-.6zM123.7 114.2c0-.1.1-.1 0 0 .2-.5.2-.8.1-1-.2-.3-.7-.4-1.7-.4h-.5l-1.8.2-1.9 5 1.6-.1.7-1.8h.5c.3 0 .5 0 .6.1.2.1.1.3 0 .7v.1c-.1.4-.2.7-.2.8h.1l1.5-.1v-.2c-.2 0-.1-.2.2-.9.4-1 .1-1.1-.4-1.3.6-.1 1-.6 1.2-1.1zm-1.5.2c-.1.3-.4.5-.8.5h-.1l-.6.1.4-1h.8c.2-.1.4.1.3.4zM88 115.8l-.7.1-1.7.2-1.9 5 1.6-.1.6-1.6.8-.1h.3c1.3-.2 2.1-.9 2.5-1.9.4-1.2 0-1.8-1.5-1.6zm0 1.6c-.2.4-.5.6-.8.6l-.8.1.4-1.1h.4c.4-.1.9 0 .8.4zM94.8 116.3l.5-1.2-4.1.4-1.9 5 4.2-.3.4-1.2-2.5.2.3-.8 2-.2.5-1.1-2.1.1.3-.7 2.4-.2zM97.5 119.8l1.4-3.7 1.5-.1.2-.7.3-.6h-.2l-4.4.4-.5 1.3 1.5-.2-1.4 3.8 1.6-.2zM133 112.9c.2 0 .3 0 .4.1.1.1.1.2.1.3l1.6-.1c.2-.9-.2-1.5-1.6-1.4-1.3.1-2.4.7-2.8 1.8-.7 1.9 2.4 1.1 2.1 1.9-.1.2-.4.4-.8.4-.2 0-.3 0-.4-.1-.1-.1-.2-.2-.1-.4l-1.6.1c-.3.9.3 1.6 1.6 1.5 1.4-.1 2.6-.8 3-1.9.7-1.8-2.4-1.1-2.1-1.9 0-.2.2-.3.6-.3zM69.6 118.3l-.3.9 1.2-.1c.4 0 .6-.3.7-.6 0-.2-.2-.4-.4-.3l-1.2.1z" fill="#008542"/><path d="M77.9 117.4c.1.4 0 .9-.2 1.2-.2.3-.6.7-1 .8.2 0 .5.1.5.5 0 .1-.1 1.6-.1 1.6l-1.4.1.1-1.4c0-.2.1-.5-.5-.5l-.8.1-.7 1.9-1.5.1 1.9-5-3.1.3c.4 0 1 0 1.3.4.3.4.2 1 0 1.3 0 .1-.3.5-.7.7 0 0 .3.2.4.5.1.5-.1 1.2-.5 1.5-.3.2-.5.6-1.8.7l-3 .3 1.9-5-2.6.2-.7 8.4 13.5-1.2.7-8.4-2.8.2c.3 0 .9.1 1.1.7z" fill="#008542"/><path d="M76.2 117.7l-1.1.1-.4 1.1 1.1-.1c.6-.1.9-.5.9-.7 0-.1 0-.4-.5-.4z" fill="#008542"/><path d="M66.6 122.5l3-.3c1.3-.1 1.5-.4 1.8-.7.4-.3.6-1 .5-1.5-.1-.3-.4-.5-.4-.5.4-.2.7-.6.7-.7.2-.3.3-.9 0-1.3-.3-.3-.8-.4-1.3-.4l3.2-.3-1.9 5 1.5-.1.7-1.9.8-.1c.6-.1.5.3.5.5l-.1 1.4 1.4-.1s.1-1.5.1-1.6c0-.4-.2-.5-.5-.5.4-.2.9-.6 1-.8.2-.3.4-.8.2-1.2-.2-.6-.8-.7-1.3-.7l2.8-.2.1-1.6L66 116v.2l-.1 1.4 2.6-.2-1.9 5.1zm3.7-1.8c-.1.1-.2.4-.8.5l-1.1.1.4-1.1 1-.1c.5 0 .5.1.5.2.1.1.1.4 0 .4zm.8-2.1c0 .3-.3.6-.7.6l-1.2.1.3-.9 1.1-.1c.3-.1.5 0 .5.3zm4.7.3l-1.1.1.4-1.1 1.1-.1c.5 0 .5.3.5.4-.1.2-.3.6-.9.7z" fill="#fff"/><path d="M135.8 112.3c0-.4.3-.6.7-.7.3 0 .6.2.6.6 0 .4-.3.6-.7.7-.4 0-.6-.2-.6-.6zm.6.5c.3 0 .5-.3.6-.6 0-.3-.2-.5-.5-.5s-.5.3-.6.6c0 .3.2.5.5.5zm-.1-.2h-.1l.1-.7h.3c.2 0 .2 0 .2.2 0 .1-.1.2-.2.2l.2.3h-.1l-.2-.3h-.1l-.1.3zm.1-.4c.1 0 .2 0 .2-.1s-.1-.1-.1-.1h-.1v.2z" fill="#008542"/></g><defs><clipPath id="clip0"><path fill="#fff" d="M0 0h267.4v267.3H0z"/></clipPath></defs></svg>