<svg width="313" height="348" viewBox="0 0 313 348" fill="none" xmlns="http://www.w3.org/2000/svg">
<path d="M151.793 347.167C225.483 347.167 285.293 287.434 285.293 213.617C285.193 139.899 225.483 80.1665 151.793 80.1665C78.0038 80.1665 18.2932 139.899 18.2932 213.716C18.2932 287.434 78.0038 347.167 151.793 347.167Z" fill="#D1E5E3"/>
<mask id="mask0_4932_3462" style="mask-type:alpha" maskUnits="userSpaceOnUse" x="18" y="80" width="268" height="268">
<path d="M151.793 347.167C225.483 347.167 285.293 287.434 285.293 213.617C285.193 139.899 225.483 80.1665 151.793 80.1665C78.0038 80.1665 18.2932 139.899 18.2932 213.716C18.2932 287.434 78.0038 347.167 151.793 347.167Z" fill="#D1E5E3"/>
</mask>
<g mask="url(#mask0_4932_3462)">
<path d="M101.578 158.592C100.298 155.606 99.7498 152.681 99.7498 149.208C99.7498 135.378 110.961 124.167 124.792 124.167C130.336 124.167 135.515 125.994 139.658 129.041C139.658 129.041 119.978 134.159 109.742 146.954C105.965 151.707 101.578 158.592 101.578 158.592Z" fill="#00B2A9"/>
<path d="M157.511 131.112C155.195 126.299 142.644 126.055 125.949 134.098C109.255 142.141 101.578 158.592 101.578 158.592C101.578 158.592 109.803 148.904 116.566 144.456C136.368 131.539 145.69 145.37 145.69 145.37C146.3 144.943 147.031 144.517 147.64 144.09C156.719 137.937 159.217 134.525 157.511 131.112Z" fill="#004165"/>
<path d="M147.64 162.186C146.848 158.104 145.691 149.33 145.691 145.37C145.691 145.37 134.419 128.553 110.595 149.025L106.635 153.169L101.517 158.53L102.492 161.76C102.492 161.76 97.6173 159.749 97.5563 166.695C97.4954 173.641 106.635 173.519 106.635 173.519V191.615V196.733L118.882 213.611L138.745 212.209L137.465 196.185L137.039 191.554C139.78 191.249 141.974 190.275 143.497 188.751C147.397 184.913 150.017 174.372 147.64 162.186Z" fill="#FFBFA0"/>
<path d="M101.578 158.592L102.553 161.821C102.553 161.821 104.441 162.552 104.929 163.954C105.477 165.355 106.574 168.706 108.158 169.315C108.158 169.315 106.757 161.516 109.864 156.764C109.864 156.764 112.728 152.255 109.255 150.488C109.194 150.488 105.721 153.047 101.578 158.592Z" fill="black"/>
<path d="M82.6286 212.453L78.7291 329.742L79.8868 330.839C101.151 351.006 163.482 346.802 163.482 346.802L159.217 214.586C159.217 214.586 144.411 205.081 141.913 202.461L135.089 209.833L98.7749 200.145C98.7749 200.206 90.5494 205.446 82.6286 212.453Z" fill="#BCBDBC"/>
<path d="M64.7763 259.673C64.7763 259.673 58.6224 292.697 59.3536 315.18L78.4245 329.742L87.8685 262.598L64.7763 259.673Z" fill="#FFBFA0"/>
<path d="M159.156 214.647C159.156 214.647 160.496 214.647 163.421 224.578C166.345 234.51 173.596 246.878 173.596 246.878L160.679 261.136L159.156 214.647Z" fill="#00B2A9"/>
<path d="M118.638 150.488C118.638 149.513 119.125 148.66 119.795 148.051C120.466 147.442 121.38 147.076 122.355 146.954C123.268 146.893 124.182 147.076 124.974 147.503C125.34 147.685 125.706 147.99 126.01 148.295C126.315 148.66 126.559 149.026 126.741 149.452C126.254 149.574 125.827 149.635 125.462 149.696C125.096 149.757 124.731 149.757 124.365 149.818C123.695 149.879 123.147 149.94 122.598 149.94L120.892 150.123C120.283 150.244 119.552 150.366 118.638 150.488Z" fill="black"/>
<path d="M136.125 150.549C136.246 149.574 136.856 148.843 137.648 148.294C138.44 147.807 139.354 147.563 140.329 147.624C141.243 147.685 142.157 147.99 142.827 148.538C143.192 148.782 143.497 149.147 143.741 149.513C143.984 149.879 144.167 150.305 144.289 150.792C143.802 150.853 143.375 150.853 143.01 150.853C142.583 150.853 142.278 150.792 141.913 150.792C141.243 150.732 140.694 150.732 140.146 150.671L138.44 150.61C137.77 150.549 137.099 150.549 136.125 150.549Z" fill="black"/>
<path d="M122.476 159.384C123.419 159.384 124.182 158.62 124.182 157.678C124.182 156.735 123.419 155.972 122.476 155.972C121.534 155.972 120.77 156.735 120.77 157.678C120.77 158.62 121.534 159.384 122.476 159.384Z" fill="black"/>
<path d="M140.999 159.384C141.941 159.384 142.705 158.62 142.705 157.678C142.705 156.735 141.941 155.972 140.999 155.972C140.057 155.972 139.293 156.735 139.293 157.678C139.293 158.62 140.057 159.384 140.999 159.384Z" fill="black"/>
<path d="M131.86 154.631C132.042 156.154 132.347 157.678 132.652 159.14C132.834 159.871 133.017 160.602 133.2 161.333L133.322 161.882C133.383 162.065 133.444 162.186 133.505 162.308C133.627 162.613 133.809 162.918 134.053 163.222C134.845 164.441 135.942 165.538 136.673 167C136.734 167.183 136.856 167.426 136.917 167.609C136.978 167.853 136.978 168.157 136.856 168.401C136.734 168.706 136.49 168.889 136.307 169.01C136.125 169.071 135.942 169.193 135.759 169.254C135.393 169.376 135.028 169.498 134.601 169.559C134.236 169.62 133.809 169.62 133.444 169.498C134.236 169.437 134.906 169.071 135.515 168.706C135.698 168.584 135.82 168.523 136.003 168.401C136.125 168.34 136.186 168.218 136.186 168.157C136.186 167.975 136.125 167.67 135.942 167.426C135.576 166.878 135.089 166.269 134.54 165.72C134.053 165.111 133.566 164.502 133.078 163.831C132.834 163.466 132.652 163.1 132.469 162.735C132.408 162.552 132.286 162.308 132.286 162.125L132.164 161.577C132.042 160.785 131.86 160.054 131.799 159.262C131.616 157.739 131.616 156.154 131.86 154.631Z" fill="#CE8A6F"/>
<path d="M119.674 155.423C119.917 154.753 120.344 154.265 120.892 153.839C121.441 153.412 122.172 153.169 122.903 153.23C123.634 153.23 124.365 153.473 124.914 153.9C125.218 154.083 125.401 154.387 125.645 154.57C125.828 154.875 126.01 155.118 126.193 155.423C125.888 155.301 125.584 155.179 125.279 155.057C124.975 154.936 124.731 154.814 124.426 154.753C123.878 154.57 123.39 154.448 122.842 154.448C121.928 154.387 120.892 154.814 119.674 155.423Z" fill="black"/>
<path d="M137.77 155.423C138.013 154.753 138.44 154.265 138.988 153.839C139.537 153.412 140.268 153.169 140.999 153.23C141.73 153.23 142.461 153.473 143.01 153.9C143.314 154.083 143.497 154.387 143.741 154.57C143.924 154.875 144.106 155.118 144.289 155.423C143.985 155.301 143.68 155.179 143.375 155.057C143.071 154.936 142.827 154.814 142.522 154.753C141.974 154.57 141.486 154.448 140.938 154.448C139.963 154.387 138.927 154.814 137.77 155.423Z" fill="black"/>
<path d="M124.853 174.372C126.071 175.103 127.168 175.835 128.265 176.505C128.813 176.87 129.361 177.175 129.91 177.48C130.458 177.784 131.067 178.028 131.738 178.333C131.067 178.576 130.275 178.515 129.605 178.394C128.874 178.211 128.204 177.906 127.655 177.541C127.046 177.175 126.498 176.688 126.071 176.139C125.523 175.652 125.096 175.042 124.853 174.372Z" fill="#CE8A6F"/>
<path d="M137.099 191.494C137.099 191.494 128.387 192.407 122.111 186.863C122.111 186.863 126.071 196.307 137.343 194.235L137.099 191.494Z" fill="#CE8A6F"/>
<path d="M103.223 165.172C102.735 164.928 102.248 164.685 101.76 164.563C101.517 164.502 101.273 164.502 101.09 164.563C100.968 164.563 100.907 164.624 100.846 164.685C100.786 164.746 100.725 164.807 100.664 164.867C100.42 165.172 100.237 165.599 100.237 166.025C100.176 166.452 100.237 166.878 100.359 167.305C100.664 168.097 101.395 168.767 102.248 169.254C103.101 169.742 104.137 169.986 105.233 170.168C104.198 170.473 102.979 170.473 101.882 170.107C100.786 169.742 99.6888 168.95 99.2623 167.67C99.0186 167.061 99.0186 166.391 99.1405 165.781L99.2623 165.355C99.3233 165.233 99.3842 165.05 99.4451 164.928C99.567 164.624 99.8107 164.38 100.054 164.136C100.176 164.014 100.359 163.953 100.542 163.893C100.725 163.832 100.907 163.771 101.09 163.832C101.456 163.832 101.76 163.953 102.004 164.075C102.492 164.319 102.918 164.685 103.223 165.172Z" fill="#CE8A6F"/>
<path d="M113.885 146.406C113.885 146.406 119.735 137.449 128.204 136.048C136.673 134.646 135.637 128.614 137.648 130.442C139.659 132.331 137.648 135.804 137.648 135.804C137.648 135.804 141.852 133.915 145.386 135.195C148.859 136.474 146.117 137.266 145.995 138.911C145.873 140.556 150.016 140.008 145.995 149.513L145.63 145.37C145.63 145.37 141.304 145.857 140.146 142.567C140.146 142.567 135.759 149.757 129.666 143.603C129.666 143.603 121.441 148.112 119.613 143.603C119.552 143.786 116.262 144.517 113.885 146.406Z" fill="black"/>
<path d="M97.8 200.816C97.8 200.816 98.3483 200.572 98.7139 200.206L122.05 220.008L135.028 209.894C135.028 209.894 127.838 222.75 122.172 222.324C116.505 221.897 97.8 200.816 97.8 200.816Z" fill="#004165"/>
<path d="M135.028 209.894C135.028 209.894 141.486 218.363 143.741 216.901C145.995 215.439 141.425 208.432 135.028 209.894Z" fill="#004165"/>
<path d="M135.028 209.894C135.028 209.894 138.135 207.883 137.526 196.185C137.526 196.185 138.135 195.332 139.78 198.683C141.425 202.034 144.289 206.604 144.289 206.604C144.289 206.604 148.006 217.084 144.655 217.632C141.304 218.18 139.841 210.564 135.028 209.894Z" fill="#00B2A9"/>
<path d="M98.7749 200.207C98.7749 200.207 102.187 194.784 106.696 191.615L135.089 209.955C135.089 209.955 127.899 221.532 122.233 221.105C116.505 220.679 98.7749 200.207 98.7749 200.207Z" fill="#00B2A9"/>
<path d="M61.3642 258.881L65.873 260.283C72.758 262.05 79.8258 262.963 86.9545 262.963H90.854C90.854 262.963 95.3019 220.8 82.5676 212.453C82.5676 212.453 73.3673 216.718 69.285 228.234C65.2027 239.749 61.3642 258.881 61.3642 258.881Z" fill="#00B2A9"/>
<path d="M142.705 235.728V233.961L156.17 233.23V234.997L142.705 235.728Z" fill="#8C8C8C"/>
<path d="M155.074 230.976L143.923 231.402C143.253 231.402 142.705 230.915 142.705 230.305C142.705 229.635 143.192 229.087 143.802 229.087L154.952 228.66C155.622 228.66 156.17 229.148 156.17 229.757C156.17 230.366 155.683 230.915 155.074 230.976Z" fill="white"/>
<path d="M61.3642 258.881L64.5325 261.136L64.7762 259.674L61.3642 258.881Z" fill="#004165"/>
<path d="M87.8685 262.963H90.8541L87.6857 264.121L87.8685 262.963Z" fill="#004165"/>
<path d="M200.831 168.34L187.427 201.912C186.635 203.923 187.61 206.238 189.62 207.091L200.771 211.722C202.416 212.392 204.365 211.661 205.157 210.077L221.182 176.931C222.157 174.86 221.243 172.361 219.11 171.508L206.01 166.086C204.061 165.294 201.684 166.269 200.831 168.34Z" fill="#8C8C8C"/>
<path d="M202.172 210.32C201.928 210.32 201.745 210.26 201.502 210.199L190.352 205.568C189.194 205.081 188.646 203.74 189.133 202.643L202.538 169.071C202.903 168.218 203.695 167.609 204.67 167.609C204.975 167.609 205.279 167.67 205.523 167.792L218.623 173.215C219.232 173.458 219.659 173.946 219.902 174.494C220.146 175.103 220.085 175.713 219.842 176.322L203.817 209.467C203.391 209.955 202.781 210.32 202.172 210.32Z" stroke="white" stroke-width="0.25" stroke-miterlimit="10"/>
<path d="M178.836 281.425L161.106 274.601L160.679 261.136L172.438 248.158L178.836 255.652V281.425Z" fill="#FFBFA0"/>
<path d="M174.754 250.839C174.754 250.839 170.732 260.222 172.256 268.203C172.256 268.203 169.331 258.028 174.632 250.656L174.754 250.839Z" fill="#CE8A6F"/>
<path d="M202.964 190.214C201.136 191.25 199.979 193.992 198.821 195.941C197.846 197.587 197.359 199.049 196.567 201.486C193.947 209.711 194.739 213.367 194.739 213.367C194.739 213.367 184.198 232.499 177.617 242.431C171.037 252.423 172.073 276.368 172.073 276.368C175.18 283.619 186.879 283.619 193.703 272.164C201.197 259.491 208.509 222.872 210.337 213.55C210.337 213.55 213.017 208.249 213.87 206.299C218.501 195.698 214.784 195.698 214.784 195.698C214.784 195.698 206.193 188.386 202.964 190.214Z" fill="#FFBFA0"/>
<path d="M201.745 192.469C202.538 190.945 202.964 188.569 202.294 187.046C201.867 186.132 201.197 184.791 200.832 184.06C199.552 181.745 198.212 183.634 198.76 185.401C199.43 187.594 199.613 188.691 199.491 190.702C199.308 194.784 198.212 199.171 198.212 199.171L201.745 192.469Z" fill="#FFBFA0"/>
<path d="M202.659 192.224L203.573 186.923C203.573 186.923 201.624 180.891 202.659 177.54C202.659 177.54 203.391 175.895 204.122 177.175C204.853 178.393 207.107 186.619 207.107 186.619L206.437 194.722" fill="#FFBFA0"/>
<path d="M207.107 191.494L207.656 186.315C207.656 186.315 205.34 179.247 206.437 175.53C206.437 175.53 207.29 173.702 208.082 175.104C208.874 176.505 211.19 185.644 211.19 185.644L210.641 194.601" fill="#FFBFA0"/>
<path d="M210.397 193.383L212.469 184.974C212.469 184.974 209.971 179.247 211.068 175.53C211.068 175.53 211.921 173.702 212.713 175.104C213.505 176.505 216.429 185.584 216.429 185.584L216.186 198.501" fill="#FFBFA0"/>
<path d="M216.186 196.49L219.232 188.447C219.232 188.447 218.44 186.619 216.186 189.3" fill="#CE8A6F"/>
<path d="M216.429 185.583C216.429 185.583 215.028 186.314 213.017 185.583Z" fill="#CE8A6F"/>
<path d="M211.311 185.583C211.311 185.583 210.397 186.314 208.813 185.949Z" fill="#CE8A6F"/>
<path d="M206.803 186.314C206.803 186.314 205.889 187.045 204.304 186.68Z" fill="#CE8A6F"/>
<path d="M202.355 187.594C202.355 187.594 201.441 188.325 199.857 187.96Z" fill="#CE8A6F"/>
<path d="M173.596 246.817V249.559L172.438 248.157L173.596 246.817Z" fill="#004165"/>
<path d="M123.208 132.88C125.218 131.661 131.067 128.432 137.648 127.762C137.648 127.762 135.698 126.299 134.906 126.36C133.931 126.421 126.437 127.518 121.989 130.686C121.745 130.869 121.623 131.235 121.745 131.539L122.172 132.575C122.294 132.941 122.781 133.062 123.208 132.88Z" fill="white"/>
</g>
<path d="M212.793 164.667C218.664 145.667 216.627 115.667 212.793 107.667L224.293 105.167C226.346 147.496 212.793 164.667 212.793 164.667Z" fill="white" stroke="#FDFDFD"/>
<path d="M206.062 36.8631C206.062 36.8631 177.962 42.9984 172.573 47.3249C167.122 51.6207 159.843 53.9256 160.657 71.0111C161.471 88.0966 166.722 103.206 171.632 107.13C176.543 111.054 183.808 114.556 205.303 110.299C226.797 106.042 254.64 105.438 258.849 96.3104C263.058 87.1829 271.737 37.2371 249.099 34.0342C226.461 30.8312 206.062 36.8631 206.062 36.8631Z" fill="white"/>
<path d="M205.065 32.4598C193.05 34.1419 152.357 41.1328 159.134 69.1736C163.521 118.042 187.536 109.234 213.793 103.004M224.939 28.3825C268.873 20.88 263.327 64.4462 261.604 81.8617C259.85 99.3382 241.33 99.2014 232.925 99.7921C229.732 99.9724 226.512 100.404 223.293 100.98" stroke="#FDC82F" stroke-width="1.51691" stroke-miterlimit="10" stroke-linecap="round" stroke-linejoin="round"/>
<path d="M213.293 103.167C216.293 110 221.893 129.567 216.293 153.167C209.293 182.667 227.293 145.167 223.793 100.667" stroke="#FDC82F" stroke-width="1.5"/>
<path d="M190.793 62.1665C199.127 60.6665 218.993 57.3665 231.793 56.1665" stroke="#FDC82F" stroke-width="4" stroke-linecap="round" stroke-linejoin="round"/>
<path d="M190.793 70.6665C199.127 69.1665 218.993 65.8665 231.793 64.6665" stroke="#FDC82F" stroke-width="4" stroke-linecap="round" stroke-linejoin="round"/>
<path d="M190.793 79.6665C199.127 78.1665 218.993 74.8665 231.793 73.6665" stroke="#FDC82F" stroke-width="4" stroke-linecap="round" stroke-linejoin="round"/>
<path d="M49.5821 50.4563C-1.99058 54.0035 -9.8439 119.174 38.3902 131.986C55.8188 135.366 76.5297 136.373 86.3307 116.685C96.1317 96.9958 98.3389 72.2585 77.777 60.8707C57.215 49.4829 49.5821 50.4563 49.5821 50.4563Z" fill="white"/>
<path d="M56.9651 46.784C5.39243 50.3313 -2.46088 115.502 45.7733 128.314C114.68 144.423 119.761 49.7041 56.9651 46.784Z" stroke="#FDC82F" stroke-width="1.51691" stroke-miterlimit="10" stroke-linecap="round" stroke-linejoin="round"/>
<circle cx="56.9011" cy="78.1665" r="10" fill="#FDC82F"/>
<path d="M56.9012 91.1664C49.4012 89.1664 34.9012 104.666 36.4012 109.166C38.961 116.846 62.1943 113.794 67.4011 112.166C75.4011 109.666 64.4012 93.1664 56.9012 91.1664Z" fill="#FDC82F" stroke="#FDC82F" stroke-width="1.5" stroke-linecap="round" stroke-linejoin="round"/>
<path d="M253.875 233.456C202.303 237.004 194.449 302.174 242.683 314.986C260.112 318.366 280.823 319.373 290.624 299.685C300.425 279.996 302.632 255.258 282.07 243.871C261.508 232.483 253.875 233.456 253.875 233.456Z" fill="white"/>
<path d="M261.258 229.784C209.686 233.331 201.832 298.502 250.066 311.314C318.973 327.423 324.054 232.704 261.258 229.784Z" stroke="#FDC82F" stroke-width="1.51691" stroke-miterlimit="10" stroke-linecap="round" stroke-linejoin="round"/>
<rect x="238.586" y="257.167" width="48" height="30" rx="7" fill="#FDC82F"/>
<path d="M237.586 268.667C240.42 268 247.986 266.567 255.586 266.167C263.186 265.767 280.753 266.667 288.586 267.167" stroke="white" stroke-width="1.5" stroke-linecap="round" stroke-linejoin="round"/>
<circle cx="246.086" cy="279.667" r="2.5" fill="white"/>
</svg>
