<svg width="27" height="26" viewBox="0 0 27 26" fill="none" xmlns="http://www.w3.org/2000/svg">
<path d="M26.252 13C26.252 20.1797 20.4317 26 13.252 26C6.07225 26 0.251953 20.1797 0.251953 13C0.251953 5.8203 6.07225 0 13.252 0C20.4317 0 26.252 5.8203 26.252 13Z" fill="#006298"/>
<path d="M13.2627 7.8418C13.5361 7.8418 13.7686 7.93978 13.96 8.13574C14.1559 8.32715 14.2539 8.55957 14.2539 8.83301C14.2539 9.10645 14.1559 9.34115 13.96 9.53711C13.7686 9.72852 13.5361 9.82422 13.2627 9.82422C12.9893 9.82422 12.7546 9.72852 12.5586 9.53711C12.3672 9.34115 12.2715 9.10645 12.2715 8.83301C12.2715 8.55957 12.3672 8.32715 12.5586 8.13574C12.7546 7.93978 12.9893 7.8418 13.2627 7.8418ZM12.3809 18V12.0801H11.4443V10.6787H14.1104V18H12.3809Z" fill="white"/>
</svg>
