<svg width="24" height="25" viewBox="0 0 24 25" fill="none" xmlns="http://www.w3.org/2000/svg">
<circle cx="12" cy="12.5816" r="12" fill="#00B85B" fill-opacity="0.2"/>
<path d="M10.5696 16.6256V15.8336C10.5696 15.2816 10.6116 14.8256 10.6956 14.4656C10.7796 14.0936 10.8996 13.7876 11.0556 13.5476C11.2116 13.2956 11.3856 13.0916 11.5776 12.9356C11.7816 12.7796 12.0036 12.6296 12.2436 12.4856L12.4776 12.3416C12.7056 12.1976 12.8976 12.0716 13.0536 11.9636C13.2096 11.8436 13.3356 11.7176 13.4316 11.5856C13.5276 11.4416 13.5936 11.2796 13.6296 11.0996C13.6776 10.9196 13.7016 10.6916 13.7016 10.4156C13.7016 9.9836 13.6476 9.6296 13.5396 9.3536C13.4436 9.0656 13.2876 8.8376 13.0716 8.6696C12.8556 8.5016 12.5796 8.3816 12.2436 8.3096C11.9076 8.2376 11.5056 8.2016 11.0376 8.2016C10.5576 8.2016 10.0776 8.2316 9.59756 8.2916C9.11756 8.3396 8.68556 8.3936 8.30156 8.4536V7.2656C8.75756 7.1336 9.24356 7.0136 9.75956 6.9056C10.2756 6.7976 10.8576 6.7436 11.5056 6.7436C12.7656 6.7436 13.7316 7.0076 14.4036 7.5356C15.0756 8.0636 15.4116 8.9216 15.4116 10.1096C15.4116 10.5536 15.3636 10.9376 15.2676 11.2616C15.1836 11.5736 15.0576 11.8496 14.8896 12.0896C14.7216 12.3296 14.5176 12.5456 14.2776 12.7376C14.0376 12.9296 13.7616 13.1216 13.4496 13.3136L13.1976 13.4756C12.9816 13.6196 12.8016 13.7576 12.6576 13.8896C12.5136 14.0096 12.3936 14.1536 12.2976 14.3216C12.2136 14.4776 12.1536 14.6696 12.1176 14.8976C12.0816 15.1136 12.0636 15.3836 12.0636 15.7076V16.6256H10.5696ZM11.3256 20.1716C10.9776 20.1716 10.7196 20.0816 10.5516 19.9016C10.3836 19.7096 10.2996 19.4516 10.2996 19.1276C10.2996 18.7796 10.3836 18.5096 10.5516 18.3176C10.7196 18.1256 10.9776 18.0296 11.3256 18.0296C11.6736 18.0296 11.9316 18.1256 12.0996 18.3176C12.2796 18.5096 12.3696 18.7736 12.3696 19.1096C12.3696 19.4456 12.2796 19.7096 12.0996 19.9016C11.9316 20.0816 11.6736 20.1716 11.3256 20.1716Z" fill="#008542"/>
</svg>
