<svg width="170" height="60" viewBox="0 0 170 60" fill="none" xmlns="http://www.w3.org/2000/svg">
<g clip-path="url(#clip0)">
<path d="M169.394 44.8628H0V60.0001H169.394V44.8628Z" fill="#006298"/>
<path d="M2.5744 56.9794L7.10529 48.0549H9.88561L10.7437 56.9794H8.27234L8.16937 55.1259H5.76662L4.97715 56.9794H2.5744ZM6.65907 53.3066H8.16937L8.06639 50.0801L6.65907 53.3066Z" fill="white"/>
<path d="M15.6175 52.8947C15.5145 53.4095 15.4459 53.8558 15.4459 54.1647C15.4459 54.5766 15.5488 54.8855 15.7205 55.0228C15.8921 55.1601 16.1667 55.2288 16.4756 55.2288C16.7159 55.2288 16.9218 55.1944 17.0591 55.1258C17.2307 55.0571 17.368 54.9542 17.471 54.7482C17.574 54.5766 17.677 54.3363 17.7799 54.0274C17.8829 53.7185 17.9859 53.3409 18.0545 52.8603L19.0843 47.9862H21.4527L20.3543 53.3409C20.217 53.9587 20.0454 54.5079 19.8394 54.9885C19.6335 55.469 19.3589 55.8466 19.0156 56.1555C18.6724 56.4645 18.2948 56.7047 17.8486 56.842C17.4024 57.0137 16.8532 57.0823 16.2697 57.0823C15.7205 57.0823 15.2399 57.0137 14.828 56.8764C14.4161 56.7391 14.1072 56.5674 13.8326 56.3272C13.5923 56.0869 13.3864 55.778 13.2834 55.4347C13.1461 55.0915 13.1118 54.7139 13.1118 54.2677C13.1118 53.8558 13.1804 53.4095 13.2834 52.929L14.3131 48.0205H16.6815L15.6175 52.8947Z" fill="white"/>
<path d="M24.4736 56.9794L25.9152 49.9428H23.4438L23.8214 48.0206H31.1326L30.7207 49.9428H28.2493L26.8077 56.9794H24.4736Z" fill="white"/>
<path d="M32.9178 56.3272C32.6089 56.0526 32.3686 55.7437 32.197 55.3318C32.0254 54.9199 31.9567 54.4394 31.9567 53.8558C31.9567 53.6499 31.9567 53.4439 31.9911 53.238C32.0254 53.032 32.0597 52.7918 32.094 52.5515C32.2313 51.865 32.403 51.2128 32.6432 50.6293C32.8835 50.0458 33.1581 49.5652 33.5357 49.1533C33.9132 48.7414 34.3251 48.4325 34.8743 48.2266C35.3892 48.0206 36.0071 47.8833 36.6936 47.8833C37.2084 47.8833 37.689 47.952 38.1009 48.0893C38.5128 48.2266 38.8904 48.3982 39.1993 48.6728C39.5082 48.9474 39.7485 49.2563 39.9201 49.7025C40.0917 50.1144 40.1604 50.6293 40.1604 51.1785C40.1604 51.3844 40.1604 51.5904 40.1261 51.7963C40.0917 52.0023 40.0574 52.2426 40.0231 52.4828C39.8858 53.1693 39.7142 53.8215 39.4739 54.405C39.2336 54.9886 38.959 55.4691 38.5814 55.881C38.2039 56.2929 37.792 56.6018 37.2428 56.8078C36.7279 57.0137 36.11 57.151 35.4235 57.151C34.9087 57.151 34.4281 57.0824 34.0162 56.9451C33.6043 56.8078 33.2268 56.6018 32.9178 56.3272ZM34.6684 54.9199C34.8743 55.1602 35.1833 55.2632 35.6295 55.2632C35.8698 55.2632 36.0757 55.2288 36.2817 55.1602C36.4876 55.0915 36.6592 54.9542 36.8309 54.7483C37.0025 54.5423 37.1398 54.2677 37.2771 53.9245C37.4144 53.5812 37.5174 53.1007 37.6203 52.5515C37.6547 52.2769 37.689 52.0709 37.7233 51.8307C37.7576 51.6247 37.7576 51.4188 37.7576 51.2471C37.7576 50.7323 37.6547 50.3547 37.4487 50.1144C37.2428 49.9085 36.9338 49.8055 36.5219 49.8055C36.2473 49.8055 36.0071 49.8398 35.8011 49.9428C35.5952 50.0458 35.4235 50.1831 35.2519 50.389C35.0803 50.595 34.943 50.8696 34.84 51.2471C34.7027 51.5904 34.5997 52.0366 34.5311 52.5515C34.4968 52.8261 34.4624 53.0664 34.4281 53.2723C34.3938 53.4783 34.3938 53.6842 34.3938 53.8558C34.3595 54.3021 34.4624 54.6796 34.6684 54.9199Z" fill="white"/>
<path d="M41.9794 54.9198C42.3227 54.9884 42.6659 55.0571 43.0435 55.1257C43.4211 55.1944 43.833 55.2287 44.2792 55.2287C44.7597 55.2287 45.103 55.1944 45.3433 55.0914C45.5835 54.9884 45.7552 54.8168 45.8238 54.5422C45.8581 54.4392 45.8581 54.3706 45.8581 54.3019C45.8581 54.1989 45.8238 54.096 45.7895 53.993C45.7208 53.89 45.6522 53.8214 45.5492 53.7184C45.4462 53.6154 45.3089 53.5468 45.1373 53.4438C44.9657 53.3408 44.7597 53.2378 44.5195 53.1349C44.2792 53.0319 44.0732 52.8946 43.833 52.7573C43.5927 52.62 43.3867 52.4827 43.1808 52.2767C42.9748 52.1051 42.8375 51.8648 42.7346 51.6246C42.6316 51.3843 42.5629 51.1097 42.5629 50.7664C42.5629 50.5262 42.5973 50.2859 42.6659 50.0456C42.8375 49.3591 43.2151 48.8443 43.833 48.4667C44.4508 48.0891 45.206 47.9175 46.1671 47.9175C46.7163 47.9175 47.2311 47.9861 47.6773 48.0891C48.1236 48.1921 48.5355 48.3294 48.8787 48.4667L48.5698 50.0113C48.2266 49.9426 47.849 49.874 47.5057 49.8397C47.1625 49.8053 46.8192 49.771 46.4417 49.771C45.9268 49.771 45.5492 49.8053 45.3433 49.9083C45.1373 50.0113 45 50.1829 44.9657 50.3889C44.9657 50.4232 44.9657 50.4919 44.9657 50.5605C44.9657 50.8008 45.0687 50.9724 45.2403 51.1097C45.4462 51.247 45.7208 51.4186 46.0984 51.5902C46.3387 51.6932 46.579 51.8305 46.8192 51.9678C47.0595 52.1051 47.2998 52.2767 47.5057 52.4484C47.7117 52.62 47.8833 52.8603 48.0206 53.1005C48.1579 53.3408 48.2266 53.6497 48.2266 54.0273C48.2266 54.2333 48.1922 54.4392 48.1579 54.6795C48.0549 55.16 47.8833 55.5376 47.643 55.8465C47.4028 56.1555 47.1281 56.3957 46.8192 56.6017C46.5103 56.7733 46.1671 56.9106 45.7895 56.9793C45.4119 57.0479 45.0687 57.0822 44.6911 57.0822C44.1076 57.0822 43.5927 57.0136 43.0778 56.8763C42.5629 56.739 42.1167 56.6017 41.7391 56.4644L41.9794 54.9198Z" fill="white"/>
<path d="M50.1489 56.9794L51.9681 48.0206H57.6318L57.2542 49.9085H53.856L53.5471 51.4875H56.5334L56.1558 53.341H53.1352L52.7919 55.1259H56.3617L55.9842 56.9794H50.1489Z" fill="white"/>
<path d="M58.4553 56.9794L60.2745 48.0549H63.4667C63.9129 48.0549 64.3248 48.1236 64.6681 48.2609C65.0113 48.3982 65.3202 48.5698 65.5262 48.7758C65.7665 48.9817 65.9381 49.2563 66.0411 49.5652C66.144 49.8742 66.2127 50.1831 66.2127 50.5263C66.2127 50.6293 66.2127 50.698 66.2127 50.8009C66.2127 50.9039 66.1784 50.9726 66.1784 51.0755C66.0754 51.6591 65.8694 52.1396 65.5262 52.5172C65.1829 52.8947 64.771 53.1693 64.3248 53.3753L64.5651 54.8169C64.5994 54.9886 64.6337 55.1259 64.6681 55.1945C64.7367 55.2975 64.8054 55.3661 64.874 55.4348C64.977 55.5034 65.08 55.5378 65.2173 55.5378C65.3546 55.5378 65.5262 55.5721 65.7321 55.5721L65.4575 56.9794C65.1486 57.0824 64.8054 57.151 64.3935 57.151C63.81 57.151 63.3637 57.0481 63.0548 56.8078C62.7459 56.5675 62.5399 56.1556 62.4713 55.5378L62.231 53.7529H61.3729L60.6864 57.0481H58.4553V56.9794ZM61.7161 51.968H62.5743C62.7116 51.968 62.8489 51.968 62.9862 51.9337C63.1235 51.8993 63.2608 51.865 63.3637 51.7963C63.4667 51.7277 63.5697 51.6247 63.6727 51.4874C63.7756 51.3501 63.81 51.2128 63.8786 51.0069C63.9129 50.8696 63.9129 50.7666 63.9129 50.6636C63.9129 50.3547 63.81 50.1488 63.604 50.0115C63.3981 49.8742 63.1578 49.8055 62.8489 49.8055H62.1624L61.7161 51.968Z" fill="white"/>
<path d="M69.3363 56.9794L68.4781 48.0206H71.0868L71.1898 54.5424L74.0045 48.0206H76.5102L71.9793 56.9794H69.3363Z" fill="white"/>
<path d="M76.8535 56.9794L78.707 48.0206H81.0411L79.2219 56.9794H76.8535Z" fill="white"/>
<path d="M88.112 56.7391C87.8031 56.8421 87.4598 56.9451 87.1166 57.0137C86.739 57.0824 86.3958 57.1167 86.0182 57.1167C85.4347 57.1167 84.8855 57.0481 84.4736 56.8764C84.0273 56.7391 83.6841 56.4989 83.4095 56.2243C83.1349 55.9497 82.9289 55.6064 82.7916 55.1945C82.6543 54.7826 82.5857 54.3707 82.5857 53.8902C82.5857 53.5812 82.62 53.2723 82.6543 52.9634C82.6887 52.6201 82.7573 52.3112 82.8603 51.9336C83.0319 51.2815 83.2379 50.7323 83.5125 50.2174C83.7871 49.7025 84.096 49.2906 84.4736 48.9474C84.8511 48.6041 85.263 48.3295 85.7779 48.1579C86.2585 47.9863 86.8077 47.8833 87.4255 47.8833C87.9404 47.8833 88.3866 47.952 88.7642 48.0549C89.1418 48.1579 89.485 48.2952 89.8283 48.4325L89.5193 49.9771C89.3134 49.9085 89.0388 49.8741 88.7642 49.8398C88.4896 49.8055 88.1807 49.7712 87.8717 49.7712C87.4942 49.7712 87.1509 49.8055 86.842 49.9085C86.5674 50.0114 86.2928 50.1487 86.0868 50.3547C85.8809 50.5606 85.7093 50.8696 85.5376 51.2128C85.4003 51.5561 85.263 52.0023 85.1601 52.5172C85.1257 52.7231 85.0914 52.9291 85.0571 53.135C85.0228 53.3066 85.0228 53.4783 85.0228 53.6499C85.0228 54.2677 85.1944 54.6796 85.572 54.9199C85.9152 55.1602 86.4644 55.2632 87.2196 55.2632C87.3569 55.2632 87.5628 55.2632 87.8031 55.2632C88.0434 55.2632 88.2836 55.2288 88.4896 55.2288L88.112 56.7391Z" fill="white"/>
<path d="M90.5834 56.9794L92.4026 48.0206H94.771L92.9175 56.9794H90.5834Z" fill="white"/>
<path d="M97.2082 56.3272C96.8993 56.0526 96.659 55.7437 96.4874 55.3318C96.3158 54.9199 96.2471 54.4394 96.2471 53.8558C96.2471 53.6499 96.2471 53.4439 96.2815 53.238C96.3158 53.032 96.3501 52.7918 96.3844 52.5515C96.5217 51.865 96.6934 51.2128 96.9336 50.6293C97.1739 50.0458 97.4485 49.5652 97.8261 49.1533C98.2037 48.7414 98.6156 48.4325 99.1648 48.2266C99.6796 48.0206 100.297 47.8833 100.984 47.8833C101.499 47.8833 101.979 47.952 102.391 48.0893C102.803 48.2266 103.181 48.3982 103.49 48.6728C103.799 48.9474 104.039 49.2563 104.211 49.7025C104.382 50.1144 104.451 50.6293 104.451 51.1785C104.451 51.3844 104.451 51.5904 104.416 51.7963C104.382 52.0023 104.348 52.2426 104.313 52.4828C104.176 53.1693 104.005 53.8215 103.764 54.405C103.524 54.9886 103.249 55.4691 102.872 55.881C102.494 56.2929 102.082 56.6018 101.533 56.8078C101.018 57.0137 100.4 57.151 99.714 57.151C99.1991 57.151 98.7185 57.0824 98.3066 56.9451C97.8604 56.8078 97.5172 56.6018 97.2082 56.3272ZM98.9245 54.9199C99.1304 55.1602 99.4394 55.2632 99.8856 55.2632C100.126 55.2632 100.332 55.2288 100.538 55.1602C100.744 55.0915 100.915 54.9542 101.087 54.7483C101.259 54.5423 101.396 54.2677 101.533 53.9245C101.67 53.5812 101.773 53.1007 101.876 52.5515C101.911 52.2769 101.945 52.0709 101.979 51.8307C102.014 51.6247 102.014 51.4188 102.014 51.2471C102.014 50.7323 101.911 50.3547 101.705 50.1144C101.499 49.9085 101.19 49.8055 100.778 49.8055C100.503 49.8055 100.263 49.8398 100.057 49.9428C99.8513 50.0458 99.6796 50.1831 99.508 50.389C99.3364 50.595 99.1991 50.8696 99.0961 51.2471C98.9588 51.5904 98.8558 52.0366 98.7872 52.5515C98.7529 52.8261 98.7185 53.0664 98.6842 53.2723C98.6499 53.4783 98.6499 53.6842 98.6499 53.8558C98.6499 54.3021 98.7529 54.6796 98.9245 54.9199Z" fill="white"/>
<path d="M110.664 53.3753C110.492 53.2037 110.389 52.9634 110.389 52.6545C110.389 52.2769 110.492 52.0023 110.732 51.7621C110.973 51.5561 111.282 51.4531 111.693 51.4531C112.037 51.4531 112.277 51.5218 112.483 51.6934C112.655 51.865 112.758 52.1053 112.758 52.4142C112.758 52.7918 112.655 53.0664 112.414 53.2723C112.174 53.4783 111.865 53.5813 111.453 53.5813C111.11 53.5813 110.87 53.5126 110.664 53.3753Z" fill="white"/>
<path d="M118.558 56.9794L120.378 48.0549H123.021C123.604 48.0549 124.119 48.1236 124.531 48.2952C124.943 48.4668 125.286 48.7071 125.526 48.9817C125.767 49.2906 125.973 49.6339 126.076 50.0115C126.178 50.4234 126.247 50.8352 126.247 51.2815C126.247 51.4874 126.247 51.7277 126.213 51.9337C126.178 52.1739 126.144 52.3799 126.11 52.6201C125.973 53.3066 125.801 53.9245 125.526 54.4394C125.286 54.9886 124.943 55.4348 124.565 55.778C124.188 56.1556 123.741 56.4302 123.227 56.6362C122.712 56.8421 122.162 56.9451 121.545 56.9451H118.558V56.9794ZM120 55.9497H121.51C122.025 55.9497 122.506 55.881 122.883 55.7437C123.261 55.6064 123.57 55.4005 123.844 55.0915C124.119 54.8169 124.325 54.4737 124.497 54.0275C124.668 53.6156 124.805 53.135 124.874 52.5858C124.943 52.1396 124.977 51.7277 124.977 51.3158C124.977 50.9726 124.943 50.698 124.874 50.389C124.805 50.1144 124.703 49.8742 124.531 49.6682C124.359 49.4623 124.153 49.325 123.879 49.1877C123.604 49.0847 123.261 49.016 122.883 49.016H121.442L120 55.9497Z" fill="white"/>
<path d="M118.558 56.9794L120.378 48.0549H123.021C123.604 48.0549 124.119 48.1236 124.531 48.2952C124.943 48.4668 125.286 48.7071 125.526 48.9817C125.767 49.2906 125.973 49.6339 126.076 50.0115C126.178 50.4234 126.247 50.8352 126.247 51.2815C126.247 51.4874 126.247 51.7277 126.213 51.9337C126.178 52.1739 126.144 52.3799 126.11 52.6201C125.973 53.3066 125.801 53.9245 125.526 54.4394C125.286 54.9886 124.943 55.4348 124.565 55.778C124.188 56.1556 123.741 56.4302 123.227 56.6362C122.712 56.8421 122.162 56.9451 121.545 56.9451H118.558V56.9794ZM120 55.9497H121.51C122.025 55.9497 122.506 55.881 122.883 55.7437C123.261 55.6064 123.57 55.4005 123.844 55.0915C124.119 54.8169 124.325 54.4737 124.497 54.0275C124.668 53.6156 124.805 53.135 124.874 52.5858C124.943 52.1396 124.977 51.7277 124.977 51.3158C124.977 50.9726 124.943 50.698 124.874 50.389C124.805 50.1144 124.703 49.8742 124.531 49.6682C124.359 49.4623 124.153 49.325 123.879 49.1877C123.604 49.0847 123.261 49.016 122.883 49.016H121.442L120 55.9497Z" stroke="white" stroke-width="0.0343249" stroke-miterlimit="10"/>
<path d="M130.503 56.9108C130.297 56.9794 130.091 57.0138 129.851 57.0138C129.405 57.0138 129.062 56.9108 128.856 56.7392C128.65 56.5675 128.512 56.2929 128.512 55.9497C128.512 55.881 128.512 55.8124 128.512 55.7437C128.512 55.6751 128.547 55.6064 128.547 55.5035L129.508 50.8696H130.709L129.748 55.5035C129.714 55.6064 129.714 55.7094 129.714 55.7781C129.714 55.9497 129.782 56.087 129.92 56.1557C130.057 56.2243 130.297 56.2586 130.606 56.2586L130.503 56.9108ZM130.469 49.6339C130.023 49.6339 129.782 49.428 129.782 48.9817C129.782 48.7415 129.851 48.5698 129.988 48.3982C130.126 48.2609 130.332 48.1923 130.606 48.1923C131.052 48.1923 131.293 48.3982 131.293 48.8444C131.293 49.0847 131.224 49.2563 131.087 49.428C130.949 49.5653 130.743 49.6339 130.469 49.6339Z" fill="white"/>
<path d="M130.503 56.9108C130.297 56.9794 130.091 57.0138 129.851 57.0138C129.405 57.0138 129.062 56.9108 128.856 56.7392C128.65 56.5675 128.512 56.2929 128.512 55.9497C128.512 55.881 128.512 55.8124 128.512 55.7437C128.512 55.6751 128.547 55.6064 128.547 55.5035L129.508 50.8696H130.709L129.748 55.5035C129.714 55.6064 129.714 55.7094 129.714 55.7781C129.714 55.9497 129.782 56.087 129.92 56.1557C130.057 56.2243 130.297 56.2586 130.606 56.2586L130.503 56.9108ZM130.469 49.6339C130.023 49.6339 129.782 49.428 129.782 48.9817C129.782 48.7415 129.851 48.5698 129.988 48.3982C130.126 48.2609 130.332 48.1923 130.606 48.1923C131.052 48.1923 131.293 48.3982 131.293 48.8444C131.293 49.0847 131.224 49.2563 131.087 49.428C130.949 49.5653 130.743 49.6339 130.469 49.6339Z" stroke="white" stroke-width="0.0343249" stroke-miterlimit="10"/>
<path d="M133.009 58.6614C133.318 58.73 133.627 58.7643 133.936 58.7987C134.21 58.833 134.485 58.833 134.76 58.833C135.137 58.833 135.48 58.7987 135.721 58.73C135.995 58.6614 136.201 58.5241 136.407 58.3868C136.579 58.2151 136.716 58.0435 136.853 57.7689C136.956 57.5286 137.059 57.254 137.128 56.9108L137.265 56.2243C137.059 56.4646 136.785 56.6705 136.51 56.8078C136.201 56.9451 135.858 57.0481 135.446 57.0481C135.069 57.0481 134.725 56.9794 134.451 56.8765C134.176 56.7735 133.936 56.6019 133.764 56.3959C133.593 56.19 133.455 55.9497 133.387 55.6751C133.318 55.4005 133.284 55.0916 133.284 54.7826C133.284 54.5424 133.318 54.3021 133.352 54.0275C133.387 53.7872 133.455 53.5126 133.524 53.2723C133.627 52.8948 133.764 52.5515 133.936 52.2426C134.108 51.9337 134.313 51.6591 134.554 51.4531C134.794 51.2128 135.069 51.0412 135.378 50.9382C135.686 50.8009 136.03 50.7323 136.407 50.7323C136.682 50.7323 136.922 50.7666 137.128 50.8353C137.334 50.9039 137.506 50.9726 137.677 51.0755C137.815 51.1785 137.952 51.2815 138.055 51.4188C138.158 51.5561 138.226 51.6934 138.295 51.7964L138.604 50.8696H139.565L138.295 57.0138C138.089 57.9749 137.746 58.6614 137.197 59.1076C136.648 59.5538 135.927 59.7598 135.034 59.7598C134.691 59.7598 134.348 59.7254 134.005 59.6911C133.627 59.6225 133.284 59.5538 132.906 59.4508L133.009 58.6614ZM137.78 53.5813C137.78 53.4783 137.815 53.3753 137.815 53.2723C137.815 53.1694 137.849 53.0664 137.849 52.9977C137.849 52.6202 137.746 52.3112 137.54 52.071C137.334 51.7964 136.991 51.6934 136.476 51.6934C135.961 51.6934 135.583 51.865 135.309 52.1739C135.034 52.4829 134.794 52.9291 134.657 53.4783C134.588 53.7186 134.519 53.9245 134.485 54.1305C134.451 54.3364 134.416 54.5424 134.416 54.714C134.416 55.1602 134.519 55.5035 134.725 55.7437C134.931 55.984 135.275 56.1213 135.721 56.1213C136.27 56.1213 136.716 55.9497 137.025 55.5721C137.334 55.1945 137.574 54.6797 137.712 53.9932L137.78 53.5813Z" fill="white"/>
<path d="M133.009 58.6614C133.318 58.73 133.627 58.7643 133.936 58.7987C134.21 58.833 134.485 58.833 134.76 58.833C135.137 58.833 135.48 58.7987 135.721 58.73C135.995 58.6614 136.201 58.5241 136.407 58.3868C136.579 58.2151 136.716 58.0435 136.853 57.7689C136.956 57.5286 137.059 57.254 137.128 56.9108L137.265 56.2243C137.059 56.4646 136.785 56.6705 136.51 56.8078C136.201 56.9451 135.858 57.0481 135.446 57.0481C135.069 57.0481 134.725 56.9794 134.451 56.8765C134.176 56.7735 133.936 56.6019 133.764 56.3959C133.593 56.19 133.455 55.9497 133.387 55.6751C133.318 55.4005 133.284 55.0916 133.284 54.7826C133.284 54.5424 133.318 54.3021 133.352 54.0275C133.387 53.7872 133.455 53.5126 133.524 53.2723C133.627 52.8948 133.764 52.5515 133.936 52.2426C134.108 51.9337 134.313 51.6591 134.554 51.4531C134.794 51.2128 135.069 51.0412 135.378 50.9382C135.686 50.8009 136.03 50.7323 136.407 50.7323C136.682 50.7323 136.922 50.7666 137.128 50.8353C137.334 50.9039 137.506 50.9726 137.677 51.0755C137.815 51.1785 137.952 51.2815 138.055 51.4188C138.158 51.5561 138.226 51.6934 138.295 51.7964L138.604 50.8696H139.565L138.295 57.0138C138.089 57.9749 137.746 58.6614 137.197 59.1076C136.648 59.5538 135.927 59.7598 135.034 59.7598C134.691 59.7598 134.348 59.7254 134.005 59.6911C133.627 59.6225 133.284 59.5538 132.906 59.4508L133.009 58.6614ZM137.78 53.5813C137.78 53.4783 137.815 53.3753 137.815 53.2723C137.815 53.1694 137.849 53.0664 137.849 52.9977C137.849 52.6202 137.746 52.3112 137.54 52.071C137.334 51.7964 136.991 51.6934 136.476 51.6934C135.961 51.6934 135.583 51.865 135.309 52.1739C135.034 52.4829 134.794 52.9291 134.657 53.4783C134.588 53.7186 134.519 53.9245 134.485 54.1305C134.451 54.3364 134.416 54.5424 134.416 54.714C134.416 55.1602 134.519 55.5035 134.725 55.7437C134.931 55.984 135.275 56.1213 135.721 56.1213C136.27 56.1213 136.716 55.9497 137.025 55.5721C137.334 55.1945 137.574 54.6797 137.712 53.9932L137.78 53.5813Z" stroke="white" stroke-width="0.0343249" stroke-miterlimit="10"/>
<path d="M143.719 56.9108C143.513 56.9794 143.307 57.0138 143.066 57.0138C142.62 57.0138 142.277 56.9108 142.071 56.7392C141.865 56.5675 141.728 56.2929 141.728 55.9497C141.728 55.881 141.728 55.8124 141.728 55.7437C141.728 55.6751 141.762 55.6064 141.762 55.5035L142.723 50.8696H143.925L142.963 55.5035C142.929 55.6064 142.929 55.7094 142.929 55.7781C142.929 55.9497 142.998 56.087 143.135 56.1557C143.272 56.2243 143.513 56.2586 143.822 56.2586L143.719 56.9108ZM143.684 49.6339C143.238 49.6339 142.998 49.428 142.998 48.9817C142.998 48.7415 143.066 48.5698 143.204 48.3982C143.341 48.2609 143.547 48.1923 143.822 48.1923C144.268 48.1923 144.508 48.3982 144.508 48.8444C144.508 49.0847 144.439 49.2563 144.302 49.428C144.131 49.5653 143.925 49.6339 143.684 49.6339Z" fill="white"/>
<path d="M143.719 56.9108C143.513 56.9794 143.307 57.0138 143.066 57.0138C142.62 57.0138 142.277 56.9108 142.071 56.7392C141.865 56.5675 141.728 56.2929 141.728 55.9497C141.728 55.881 141.728 55.8124 141.728 55.7437C141.728 55.6751 141.762 55.6064 141.762 55.5035L142.723 50.8696H143.925L142.963 55.5035C142.929 55.6064 142.929 55.7094 142.929 55.7781C142.929 55.9497 142.998 56.087 143.135 56.1557C143.272 56.2243 143.513 56.2586 143.822 56.2586L143.719 56.9108ZM143.684 49.6339C143.238 49.6339 142.998 49.428 142.998 48.9817C142.998 48.7415 143.066 48.5698 143.204 48.3982C143.341 48.2609 143.547 48.1923 143.822 48.1923C144.268 48.1923 144.508 48.3982 144.508 48.8444C144.508 49.0847 144.439 49.2563 144.302 49.428C144.131 49.5653 143.925 49.6339 143.684 49.6339Z" stroke="white" stroke-width="0.0343249" stroke-miterlimit="10"/>
<path d="M149.622 56.9452C149.485 56.9795 149.313 57.0481 149.073 57.0825C148.867 57.1168 148.661 57.1511 148.421 57.1511C147.838 57.1511 147.426 57.0138 147.117 56.7735C146.842 56.5333 146.705 56.1557 146.705 55.6751C146.705 55.5722 146.705 55.5035 146.739 55.4005C146.739 55.2976 146.773 55.1946 146.773 55.0916L147.46 51.7964H146.293L146.43 51.1442L147.632 50.9383L148.009 49.0504H149.211L148.833 50.904H150.686L150.515 51.7964H148.661L148.009 54.9886C147.975 55.0916 147.975 55.1603 147.975 55.2289C147.975 55.2976 147.941 55.4005 147.941 55.4692C147.941 55.7438 148.009 55.9154 148.181 56.0527C148.352 56.19 148.627 56.2587 149.039 56.2587C149.142 56.2587 149.245 56.2587 149.382 56.2587C149.519 56.2587 149.657 56.2243 149.794 56.2243L149.622 56.9452Z" fill="white"/>
<path d="M149.622 56.9452C149.485 56.9795 149.313 57.0481 149.073 57.0825C148.867 57.1168 148.661 57.1511 148.421 57.1511C147.838 57.1511 147.426 57.0138 147.117 56.7735C146.842 56.5333 146.705 56.1557 146.705 55.6751C146.705 55.5722 146.705 55.5035 146.739 55.4005C146.739 55.2976 146.773 55.1946 146.773 55.0916L147.46 51.7964H146.293L146.43 51.1442L147.632 50.9383L148.009 49.0504H149.211L148.833 50.904H150.686L150.515 51.7964H148.661L148.009 54.9886C147.975 55.0916 147.975 55.1603 147.975 55.2289C147.975 55.2976 147.941 55.4005 147.941 55.4692C147.941 55.7438 148.009 55.9154 148.181 56.0527C148.352 56.19 148.627 56.2587 149.039 56.2587C149.142 56.2587 149.245 56.2587 149.382 56.2587C149.519 56.2587 149.657 56.2243 149.794 56.2243L149.622 56.9452Z" stroke="white" stroke-width="0.0343249" stroke-miterlimit="10"/>
<path d="M158.341 56.9108C158.238 56.9451 158.135 56.9451 158.032 56.9795C157.929 56.9795 157.826 57.0138 157.689 57.0138C157.311 57.0138 157.037 56.9451 156.831 56.7735C156.625 56.6019 156.522 56.3616 156.522 56.0527C156.281 56.3616 156.007 56.6019 155.698 56.8078C155.355 57.0138 154.943 57.1168 154.428 57.1168C154.05 57.1168 153.707 57.0481 153.432 56.9451C153.158 56.8078 152.918 56.6705 152.746 56.4646C152.574 56.2586 152.437 56.0184 152.368 55.7438C152.3 55.4692 152.265 55.1602 152.265 54.8513C152.265 54.611 152.3 54.3708 152.334 54.0962C152.368 53.8216 152.437 53.5813 152.506 53.3067C152.609 52.9291 152.746 52.5859 152.918 52.2769C153.089 51.968 153.295 51.6934 153.535 51.4531C153.776 51.2129 154.05 51.0412 154.359 50.9039C154.668 50.7667 155.011 50.698 155.389 50.698C155.664 50.698 155.904 50.7323 156.11 50.801C156.316 50.8696 156.487 50.9383 156.659 51.0412C156.796 51.1442 156.934 51.2472 157.037 51.3845C157.14 51.5218 157.208 51.6591 157.277 51.7964L157.586 50.8353H158.547L157.586 55.4692C157.551 55.5721 157.551 55.6751 157.551 55.7781C157.551 55.984 157.62 56.1213 157.757 56.1557C157.895 56.2243 158.135 56.2243 158.41 56.2586L158.341 56.9108ZM156.865 53.6156C156.865 53.5126 156.899 53.4097 156.899 53.3067C156.899 53.2037 156.934 53.1007 156.934 53.0321C156.934 52.6545 156.831 52.3456 156.625 52.071C156.419 51.7964 156.075 51.6591 155.561 51.6591C155.046 51.6591 154.668 51.8307 154.394 52.1396C154.119 52.4486 153.879 52.8948 153.741 53.4783C153.673 53.7186 153.604 53.9245 153.57 54.1305C153.535 54.3364 153.501 54.5424 153.501 54.714C153.501 55.1602 153.604 55.5035 153.81 55.7781C154.016 56.0527 154.359 56.1557 154.805 56.1557C155.355 56.1557 155.801 55.9497 156.11 55.5721C156.419 55.1946 156.659 54.6454 156.796 53.9589L156.865 53.6156Z" fill="white"/>
<path d="M158.341 56.9108C158.238 56.9451 158.135 56.9451 158.032 56.9795C157.929 56.9795 157.826 57.0138 157.689 57.0138C157.311 57.0138 157.037 56.9451 156.831 56.7735C156.625 56.6019 156.522 56.3616 156.522 56.0527C156.281 56.3616 156.007 56.6019 155.698 56.8078C155.355 57.0138 154.943 57.1168 154.428 57.1168C154.05 57.1168 153.707 57.0481 153.432 56.9451C153.158 56.8078 152.918 56.6705 152.746 56.4646C152.574 56.2586 152.437 56.0184 152.368 55.7438C152.3 55.4692 152.265 55.1602 152.265 54.8513C152.265 54.611 152.3 54.3708 152.334 54.0962C152.368 53.8216 152.437 53.5813 152.506 53.3067C152.609 52.9291 152.746 52.5859 152.918 52.2769C153.089 51.968 153.295 51.6934 153.535 51.4531C153.776 51.2129 154.05 51.0412 154.359 50.9039C154.668 50.7667 155.011 50.698 155.389 50.698C155.664 50.698 155.904 50.7323 156.11 50.801C156.316 50.8696 156.487 50.9383 156.659 51.0412C156.796 51.1442 156.934 51.2472 157.037 51.3845C157.14 51.5218 157.208 51.6591 157.277 51.7964L157.586 50.8353H158.547L157.586 55.4692C157.551 55.5721 157.551 55.6751 157.551 55.7781C157.551 55.984 157.62 56.1213 157.757 56.1557C157.895 56.2243 158.135 56.2243 158.41 56.2586L158.341 56.9108ZM156.865 53.6156C156.865 53.5126 156.899 53.4097 156.899 53.3067C156.899 53.2037 156.934 53.1007 156.934 53.0321C156.934 52.6545 156.831 52.3456 156.625 52.071C156.419 51.7964 156.075 51.6591 155.561 51.6591C155.046 51.6591 154.668 51.8307 154.394 52.1396C154.119 52.4486 153.879 52.8948 153.741 53.4783C153.673 53.7186 153.604 53.9245 153.57 54.1305C153.535 54.3364 153.501 54.5424 153.501 54.714C153.501 55.1602 153.604 55.5035 153.81 55.7781C154.016 56.0527 154.359 56.1557 154.805 56.1557C155.355 56.1557 155.801 55.9497 156.11 55.5721C156.419 55.1946 156.659 54.6454 156.796 53.9589L156.865 53.6156Z" stroke="white" stroke-width="0.0343249" stroke-miterlimit="10"/>
<path d="M163.009 56.9108C162.803 56.9794 162.597 57.0138 162.357 57.0138C161.911 57.0138 161.567 56.9108 161.361 56.7392C161.155 56.5675 161.018 56.2929 161.018 55.9497C161.018 55.881 161.018 55.8124 161.018 55.7437C161.018 55.6751 161.052 55.6064 161.052 55.5035L162.597 48.0206H163.798L162.254 55.5035C162.219 55.6064 162.219 55.7094 162.219 55.7781C162.219 55.9497 162.288 56.087 162.425 56.1556C162.563 56.2243 162.803 56.2586 163.112 56.2586L163.009 56.9108Z" fill="white"/>
<path d="M163.009 56.9108C162.803 56.9794 162.597 57.0138 162.357 57.0138C161.911 57.0138 161.567 56.9108 161.361 56.7392C161.155 56.5675 161.018 56.2929 161.018 55.9497C161.018 55.881 161.018 55.8124 161.018 55.7437C161.018 55.6751 161.052 55.6064 161.052 55.5035L162.597 48.0206H163.798L162.254 55.5035C162.219 55.6064 162.219 55.7094 162.219 55.7781C162.219 55.9497 162.288 56.087 162.425 56.1556C162.563 56.2243 162.803 56.2586 163.112 56.2586L163.009 56.9108Z" stroke="white" stroke-width="0.0343249" stroke-miterlimit="10"/>
<path d="M32.1625 0H0V7.79176H32.1625V0Z" fill="#FDC82F"/>
<path d="M28.6613 13.5584C29.0732 14.6567 28.7643 15.7551 28.3524 16.4416C28.0092 17.0595 27.0824 17.9863 26.0526 18.2609C26.6018 18.2609 27.2197 18.7071 27.254 19.6339C27.254 19.9085 27.4256 23.6156 27.4256 23.6156H24.1991L24.0961 20.286C24.0618 19.9085 24.1991 18.9817 22.7574 18.9817H20.7666L19.4966 23.4783H15.9954L19.4279 11.6018H11.9794C13.0092 11.6362 14.3822 11.8764 15.0687 12.7346C15.9611 13.7986 15.6865 15.1373 15.3089 15.8581C15.2403 15.9954 14.6911 16.9565 13.73 17.4027C13.7986 17.4371 14.5881 17.9176 14.8284 18.7414C15.206 19.8741 14.7597 21.5217 13.9359 22.2082C13.3181 22.7231 12.8032 23.4439 9.74828 23.4439H2.746L6.17849 11.5675H0V31.9565H32.1625V11.7048H25.5721C26.6362 11.7391 28.0778 12.0137 28.6613 13.5584Z" fill="#008542"/>
<path d="M8.92449 14.0731L8.30664 16.2699H11.1899C12.0481 16.2699 12.6316 15.7207 12.6316 14.9656C12.6316 14.4164 12.151 14.0731 11.6018 14.0731H8.92449Z" fill="#008542"/>
<path d="M9.98854 18.5354H7.65444L6.89929 21.1098H9.47366C10.9153 21.1098 11.1556 20.3546 11.2929 20.1143C11.3959 19.9084 11.4645 19.3592 11.3272 19.1189C11.1899 18.8443 11.1213 18.5354 9.98854 18.5354Z" fill="#008542"/>
<path d="M22.1395 14.0731C22.1395 14.1418 21.4186 16.7505 21.4186 16.7505H23.993C25.4347 16.7505 25.9152 15.6864 25.9152 15.1372C25.9152 14.8969 25.8809 14.0731 24.6795 14.0731H22.1395Z" fill="#008542"/>
<path d="M69.0618 14.5194L69.8512 11.7734H60.1373L56.7734 23.6499H66.6933L67.4828 20.8695H61.4416L61.9908 19.016H66.8993L67.6888 16.2357H62.7803L63.2609 14.5194H69.0618Z" fill="#008542"/>
<path d="M95.5947 15.1373C96.2469 12.8375 95.2515 11.7734 91.2698 11.7734H89.9654H85.6748L82.7572 22.0709L82.311 23.6155H82.7572H86.224L87.3911 19.4622H88.5581C89.2789 19.4622 89.7252 19.5309 89.9998 19.7368C90.4117 20.0457 90.343 20.5949 90.0684 21.5217C90.0341 21.5904 90.0341 21.659 89.9998 21.7277C89.7595 22.6544 89.6565 23.3409 89.6908 23.5812H89.9998H93.6382L93.7412 23.2036C93.2606 23.2036 93.4666 22.6888 93.9128 21.1441C94.5993 18.7414 93.9128 18.4668 92.8144 17.9863C94.2561 17.643 95.1828 16.5103 95.5947 15.1373ZM91.819 15.7551C91.613 16.5103 90.9952 16.8192 89.9998 16.8879H89.6565H88.1119L88.7984 14.5194H89.9998H90.6176C91.4757 14.5194 92.0249 14.9313 91.819 15.7551Z" fill="#008542"/>
<path d="M160.709 11.4302C157.723 11.4302 155.183 12.7002 154.462 15.2402C153.158 19.7711 160.366 18.5354 159.851 20.3547C159.714 20.9039 158.959 21.2471 157.998 21.2471C157.62 21.2471 157.243 21.1441 156.968 20.9382C156.693 20.7322 156.556 20.4233 156.59 20.0114H152.849C152.334 22.1396 153.844 23.9931 157.002 23.9931C160.263 23.9931 162.975 22.6544 163.73 19.9084C164.966 15.5835 157.826 16.6819 158.341 14.897C158.444 14.4851 158.89 14.2105 159.783 14.2105C160.16 14.2105 160.503 14.2791 160.709 14.4164C160.95 14.5537 161.087 14.8283 161.018 15.2402H164.725C165 13.1464 163.97 11.4302 160.709 11.4302Z" fill="#008542"/>
<path d="M133.627 11.7734H132.323H127.998L124.634 23.6499H128.513L129.714 19.4965H130.881C131.602 19.4965 132.048 19.5652 132.323 19.7711C132.735 20.0801 132.666 20.6293 132.391 21.556C132.357 21.6247 132.357 21.6933 132.323 21.762C132.082 22.6888 131.98 23.3753 132.014 23.6155H132.323H135.961L136.064 23.238C135.618 23.238 135.824 22.7231 136.27 21.1785C136.957 18.7757 136.27 18.5011 135.172 18.0206C136.579 17.643 137.506 16.6133 137.918 15.3432C137.952 15.2746 137.986 15.2059 137.986 15.103C138.227 14.2105 138.227 13.4897 137.918 12.9405C137.334 12.151 136.03 11.7734 133.627 11.7734ZM134.176 15.7551C133.97 16.5103 133.353 16.8192 132.357 16.8879H132.014H130.435L131.121 14.5194H132.323H132.941C133.833 14.5194 134.382 14.9313 134.176 15.7551Z" fill="#008542"/>
<path d="M72.2885 11.7734L71.4304 14.897H74.9316L72.4258 23.6499H76.3046L78.8103 14.897H82.3114L82.7577 13.3181L83.2039 11.7734H82.7577H72.2885Z" fill="#008542"/>
<path d="M52.6546 11.7734H51.11H46.9567L43.5585 23.6499H47.4716L48.5013 19.9428H50.4578C50.6638 19.9428 50.8697 19.9428 51.11 19.9084C54.1306 19.7025 55.9155 18.1579 56.602 15.7551C57.2885 13.3181 56.0871 11.7734 52.6546 11.7734ZM52.8949 15.7895C52.6203 16.7506 51.9338 17.1281 51.11 17.1625H49.3251L50.0459 14.5194H51.11H51.1443C52.0025 14.5194 53.1695 14.6567 52.8949 15.7895Z" fill="#008542"/>
<path d="M150.103 23.6499L149.21 11.7734H145.229L144.954 12.151L137.814 23.2723L137.574 23.6499H137.814H141.419L142.311 22.1052H144.988H146.19V23.6499H150.103ZM144.988 19.5995H143.787L144.988 17.4371L146.19 15.3432L146.224 19.5995H144.988Z" fill="#008542"/>
<path d="M124.016 14.7597C124.668 12.3913 122.746 11.7734 120.069 11.7734H117.563H114.371L111.007 23.6499H116.808C117.048 23.6499 117.323 23.6499 117.563 23.6155C120.24 23.4782 122.231 22.5171 122.918 20.0801C123.295 18.7757 122.918 17.6773 121.716 17.3341C122.643 16.8535 123.673 15.9611 124.016 14.7597ZM119.382 19.7711C119.142 20.6293 118.456 20.8352 117.563 20.8695H117.391H115.675L116.293 18.7071H117.529H117.563C118.799 18.6728 119.691 18.7414 119.382 19.7711ZM120.172 15.4805C119.966 16.167 119.314 16.5103 118.524 16.5103H117.563H116.911L117.46 14.5194H117.529H118.799C119.691 14.5194 120.446 14.5538 120.172 15.4805Z" fill="#008542"/>
<path d="M103.661 23.7528C106.476 23.1007 108.947 20.9725 109.908 17.6087C110.801 14.4851 109.668 11.4302 105.412 11.4302C104.828 11.4302 104.21 11.4988 103.627 11.6361C100.709 12.2883 98.3065 14.4851 97.414 17.6087C96.2813 21.659 98.1005 23.9588 101.842 23.9588C102.494 23.9588 103.078 23.8901 103.661 23.7528ZM101.361 17.643C101.705 16.4416 102.46 15.0343 103.661 14.5194C103.936 14.4164 104.245 14.3478 104.588 14.3478C106.304 14.3135 106.476 15.9954 106.03 17.643C105.618 19.1876 104.828 20.4233 103.696 20.9039C103.387 21.0068 103.078 21.0755 102.734 21.0755C100.847 21.0412 100.881 19.1533 101.361 17.643Z" fill="#008542"/>
<path d="M32.1625 11.7048V7.79175H0V11.7048H6.17849L2.746 23.5469H9.78261C12.8375 23.5469 13.3524 22.8261 13.9703 22.3112C14.7941 21.6247 15.2403 19.9771 14.8627 18.8444C14.5881 18.0206 13.833 17.54 13.7643 17.5057C14.7254 17.0595 15.2746 16.0984 15.3433 15.9611C15.6865 15.2403 15.9611 13.9016 15.103 12.8375C14.3822 11.9794 13.0092 11.7048 12.0137 11.7048C11.9794 11.7048 11.9794 11.7048 11.9451 11.7048H19.4622L16.0297 23.5812H19.4966L20.7666 19.0847H22.7574C24.1991 19.0847 24.0618 19.9771 24.0961 20.389L24.1991 23.7185H27.4256C27.4256 23.7185 27.2883 20.0114 27.254 19.7368C27.2197 18.7757 26.5675 18.3638 26.0526 18.3638C27.0824 18.0892 27.9748 17.1281 28.3524 16.5446C28.7643 15.8581 29.0732 14.7597 28.6613 13.6613C28.0778 12.1167 26.6362 11.8078 25.5378 11.7734C25.5034 11.7734 25.4691 11.7734 25.4348 11.7734H32.1625V11.7048ZM11.3272 20.1144C11.1899 20.3547 10.9497 21.1098 9.50801 21.1098H6.93364L7.68879 18.5355H10.0229C11.1556 18.5355 11.2243 18.8444 11.3959 19.119C11.4989 19.3936 11.4302 19.9428 11.3272 20.1144ZM12.6316 14.9657C12.6316 15.7208 12.0137 16.27 11.1899 16.27H8.30664L8.92449 14.0732H11.6018C12.151 14.0732 12.6316 14.4165 12.6316 14.9657ZM25.9153 15.1373C25.9153 15.6865 25.4348 16.7506 23.9931 16.7506H21.4188C21.4188 16.7506 22.1396 14.1419 22.1396 14.0732H24.6796C25.8467 14.0732 25.9153 14.897 25.9153 15.1373Z" fill="white"/>
<path d="M166.373 13.4212C166.373 12.563 167.059 11.9452 167.883 11.9452C168.707 11.9452 169.393 12.563 169.393 13.4212C169.393 14.2793 168.707 14.8971 167.883 14.8971C167.059 14.9315 166.373 14.3136 166.373 13.4212ZM167.883 14.6912C168.57 14.6912 169.085 14.1763 169.085 13.4555C169.085 12.7347 168.57 12.2198 167.883 12.2198C167.197 12.2198 166.682 12.7347 166.682 13.4555C166.682 14.142 167.197 14.6912 167.883 14.6912ZM167.574 14.3136H167.3V12.5974H167.952C168.364 12.5974 168.57 12.7347 168.57 13.0779C168.57 13.3868 168.364 13.5241 168.123 13.5585L168.604 14.3136H168.295L167.849 13.5585H167.54V14.3136H167.574ZM167.883 13.3525C168.089 13.3525 168.295 13.3525 168.295 13.0779C168.295 12.872 168.089 12.8376 167.917 12.8376H167.574V13.3525H167.883Z" fill="#008542"/>
</g>
<defs>
<clipPath id="clip0">
<rect width="169.394" height="60" fill="white"/>
</clipPath>
</defs>
</svg>
