<svg width="27" height="20" viewBox="0 0 27 20" fill="none" xmlns="http://www.w3.org/2000/svg">
<rect width="27" height="20" rx="1.54753" fill="#EA2227"/>
<path fill-rule="evenodd" clip-rule="evenodd" d="M15.9158 11.0005C15.8926 10.9535 15.8694 10.9061 15.8462 10.8574C15.8694 10.9061 15.8926 10.9535 15.9158 11.0005Z" fill="#5E2584"/>
<path fill-rule="evenodd" clip-rule="evenodd" d="M5.94528 13.1565H5.07303C4.96352 13.1565 4.86147 13.2195 4.81584 13.3173L3.81858 15.4069L2.80336 13.3149C2.75607 13.2184 2.65568 13.1565 2.54616 13.1565H1.70572C1.55057 13.1565 1.42114 13.2805 1.42114 13.4346V16.3545C1.42114 16.5077 1.55057 16.6326 1.70572 16.6326H2.13963C2.29809 16.6326 2.42586 16.5077 2.42586 16.3545V14.6651L3.32383 16.475C3.37112 16.5707 3.47013 16.6326 3.57826 16.6326H4.04702C4.15653 16.6326 4.25858 16.5707 4.30421 16.4736L5.20716 14.6125V16.3545C5.20716 16.5077 5.33493 16.6326 5.49173 16.6326H5.94528C6.10375 16.6326 6.23013 16.5077 6.23013 16.3545V13.4346C6.23013 13.2805 6.10375 13.1565 5.94528 13.1565Z" fill="#FEFEFE"/>
<path fill-rule="evenodd" clip-rule="evenodd" d="M8.25012 15.3131L8.87734 14.2556L9.49987 15.3131H8.26229H8.25012ZM9.45121 13.2955C9.40087 13.2094 9.30657 13.1565 9.20452 13.1565H8.59417C8.49516 13.1565 8.3992 13.2094 8.34914 13.2931L6.58473 16.2138C6.53302 16.2992 6.53136 16.4055 6.58169 16.4911C6.63202 16.578 6.72771 16.6326 6.82976 16.6326H7.30488C7.40665 16.6326 7.50123 16.5797 7.55129 16.4933L7.86047 15.9718C7.86186 15.9753 7.86351 15.9767 7.8649 15.9802C7.91219 16.0623 8.00207 16.1132 8.09941 16.1132H9.97196L10.1971 16.4933C10.2474 16.5797 10.3417 16.6326 10.4438 16.6326H10.9446C11.0466 16.6326 11.1423 16.5789 11.1927 16.4919C11.243 16.4055 11.2413 16.3 11.1913 16.2146L9.45121 13.2955Z" fill="#FEFEFE"/>
<path fill-rule="evenodd" clip-rule="evenodd" d="M15.662 14.4967H13.7776C13.6208 14.4967 13.4944 14.6213 13.4944 14.7748V15.0711C13.4944 15.2241 13.6208 15.3489 13.7776 15.3489H14.951V15.5259C14.6498 15.7224 14.2264 15.838 13.7958 15.838C12.9783 15.838 12.4271 15.4585 12.4271 14.8942C12.4271 14.325 12.9645 13.957 13.7958 13.957C14.2524 13.957 14.6847 14.1066 14.8719 14.3294C14.9695 14.4471 15.1446 14.4668 15.2676 14.3743L15.5843 14.1336C15.6498 14.084 15.6894 14.0101 15.6971 13.93C15.7032 13.8512 15.6742 13.774 15.6194 13.7163C15.2602 13.3411 14.5431 13.0996 13.7958 13.0996C12.3207 13.0996 11.3281 13.8204 11.3281 14.8942C11.3281 15.9683 12.3207 16.6891 13.7958 16.6891C14.5691 16.6891 15.3105 16.468 15.834 16.0839C15.904 16.0321 15.9482 15.9492 15.9482 15.8631V14.7748C15.9482 14.6213 15.8188 14.4967 15.662 14.4967Z" fill="#FEFEFE"/>
<path fill-rule="evenodd" clip-rule="evenodd" d="M19.9716 13.1565H19.5151C19.3566 13.1565 19.2288 13.2805 19.2288 13.4346V15.3357L17.5391 13.2612C17.4843 13.1944 17.4036 13.1565 17.3153 13.1565H16.7232C16.5648 13.1565 16.437 13.2805 16.437 13.4346V16.3545C16.437 16.5077 16.5648 16.6326 16.7232 16.6326H17.1812C17.338 16.6326 17.4661 16.5077 17.4661 16.3545V14.6818L18.9653 16.5271C19.0203 16.5939 19.1024 16.6326 19.1907 16.6326H19.9716C20.1301 16.6326 20.2579 16.5077 20.2579 16.3545V13.4346C20.2579 13.2805 20.1301 13.1565 19.9716 13.1565Z" fill="#FEFEFE"/>
<path fill-rule="evenodd" clip-rule="evenodd" d="M22.287 15.3131L22.9129 14.2556L23.5368 15.3131H22.2978H22.287ZM25.2282 16.2155V16.2146L23.4867 13.2955C23.4364 13.2099 23.3435 13.1565 23.2414 13.1565H22.6311C22.5307 13.1565 22.4361 13.2086 22.3844 13.2931L20.6203 16.2138C20.5699 16.2983 20.5686 16.4049 20.6186 16.4911C20.6673 16.578 20.7632 16.6326 20.867 16.6326H21.3418C21.4422 16.6326 21.5382 16.5797 21.5885 16.4933L21.8974 15.9718C21.8988 15.9753 21.8988 15.9767 21.9004 15.9802C21.9491 16.0623 22.039 16.1132 22.135 16.1132H24.0089L24.2326 16.4933C24.2827 16.5797 24.3772 16.6326 24.4807 16.6326H24.9799C25.0836 16.6326 25.1795 16.5789 25.2296 16.4919C25.2783 16.4055 25.2769 16.3 25.2282 16.2155Z" fill="#FEFEFE"/>
<path fill-rule="evenodd" clip-rule="evenodd" d="M11.5809 10.7705C11.5427 10.7045 11.4683 10.6669 11.3936 10.6734C11.3176 10.6791 11.252 10.7296 11.2277 10.8007C11.0023 11.4318 10.8577 11.4051 10.8533 11.4059C10.4832 11.3937 9.96579 10.0363 9.50754 8.83929C9.24122 8.1384 9.11318 7.74748 8.77523 7.01252C8.74481 6.94409 8.67484 6.90048 8.59879 6.89966C8.52274 6.89966 8.45249 6.94409 8.42207 7.01197L8.20304 7.48386C8.18009 7.53348 8.1787 7.591 8.20304 7.64062C8.47683 8.25181 8.54984 8.48925 8.7921 9.10972C9.47851 10.8762 10.0205 12.2706 10.8472 12.2884H10.8593C11.2628 12.2884 11.4697 12.142 11.8228 11.3413C11.8472 11.289 11.8397 11.2279 11.8123 11.1783L11.5809 10.7705Z" fill="#FEFEFE"/>
<path fill-rule="evenodd" clip-rule="evenodd" d="M12.1714 8.03578L12.3647 8.40353C12.3998 8.46678 12.4667 8.50631 12.5384 8.50631C12.5475 8.50631 12.5536 8.50631 12.5627 8.50467C12.6418 8.4954 12.7087 8.43679 12.7286 8.35882L13.001 7.23103C13.074 6.93252 13.1504 6.6242 13.2386 6.32814C13.2461 6.30797 13.2521 6.28861 13.2582 6.26926V6.27117C13.2781 6.20738 13.3008 6.14059 13.3268 6.07516C13.3559 6.14059 13.3771 6.20738 13.3984 6.27117V6.26926C13.4045 6.28861 13.4106 6.30797 13.4181 6.32814C13.508 6.6242 13.5826 6.93252 13.6556 7.23103L13.928 8.35882C13.948 8.43679 14.0132 8.4954 14.094 8.50467C14.1017 8.50631 14.1108 8.50631 14.1183 8.50631C14.1899 8.50631 14.2569 8.46678 14.2903 8.40353L14.4853 8.03578C14.5049 7.99707 14.5323 7.94527 14.5401 7.87821C14.5478 7.80951 14.5323 7.74954 14.5218 7.71028C14.368 7.1209 14.3467 7.06801 14.167 6.46608C14.0848 6.18748 13.9845 5.86416 13.8459 5.5512C13.7743 5.39363 13.6905 5.23034 13.5431 5.11012C13.4792 5.05914 13.4045 5.0346 13.3268 5.03542C13.2508 5.0346 13.1778 5.05914 13.1136 5.11012C12.9662 5.23034 12.8791 5.39363 12.8108 5.5512C12.6722 5.86416 12.5718 6.18748 12.488 6.46608C12.3099 7.06801 12.2873 7.1209 12.1349 7.71028C12.1241 7.74954 12.1089 7.80951 12.1166 7.87821C12.1241 7.94527 12.1515 7.99707 12.1714 8.03578Z" fill="#FEFEFE"/>
<path fill-rule="evenodd" clip-rule="evenodd" d="M18.2348 7.01189C18.2044 6.94401 18.1344 6.90039 18.0583 6.90039C17.982 6.90039 17.912 6.94401 17.8816 7.01271C17.5437 7.74739 17.4156 8.13832 17.1479 8.8392C16.6913 10.0354 16.1736 11.3936 15.8053 11.4058C15.7975 11.4053 15.6529 11.4317 15.4291 10.8009C15.4034 10.7295 15.3395 10.6793 15.2632 10.6733C15.1888 10.6668 15.1141 10.7044 15.076 10.7704L14.8448 11.1782C14.8157 11.2278 14.8097 11.2889 14.8326 11.3415C15.1872 12.1427 15.3943 12.2883 15.7975 12.2883H15.8097C16.6349 12.2714 17.1767 10.8762 17.8647 9.10963C18.107 8.48917 18.18 8.25173 18.4541 7.64053C18.4768 7.59119 18.4768 7.53339 18.4541 7.48296L18.2348 7.01189Z" fill="#FEFEFE"/>
<path fill-rule="evenodd" clip-rule="evenodd" d="M21.8212 5.9651C21.8135 5.93102 21.8105 5.9193 21.8074 5.90758C21.7966 5.86723 21.7922 5.84951 21.7875 5.83207C21.7831 5.81544 21.7814 5.80862 21.78 5.80262C21.4573 4.61758 21.0555 3.55849 20.2761 3.55249C19.8148 3.55249 19.5073 3.75586 18.8419 5.02923C18.8146 5.08293 18.8132 5.1459 18.8389 5.20043L19.0521 5.63742C19.0842 5.70421 19.1525 5.74619 19.2272 5.74674C19.3018 5.74674 19.3702 5.70421 19.4036 5.63878C20.0369 4.34606 20.2288 4.42812 20.2698 4.43003C20.506 4.44093 21.3035 4.87193 21.6597 9.9654C21.605 10.5561 21.4617 10.913 21.2775 10.9179C20.9764 10.9179 20.3248 9.22608 19.9335 8.21387C19.145 6.1712 18.3306 4.059 17.3137 4.059C16.3317 4.08354 15.7213 5.58917 15.0758 7.18395C14.5719 8.42324 14.0056 9.82064 13.3983 9.91578C13.3739 9.91851 13.3512 9.92069 13.3266 9.92069C13.3053 9.92069 13.281 9.91851 13.2583 9.91578C12.651 9.82064 12.0846 8.42324 11.5807 7.18395C10.9336 5.58917 10.3233 4.08354 9.36113 4.059C8.32599 4.059 7.51016 6.1712 6.72143 8.21387C6.33176 9.22608 5.67882 10.9179 5.38042 10.9179C5.19319 10.913 5.05021 10.5561 4.99684 9.9654C5.35304 4.87193 6.15062 4.44093 6.38514 4.43003C6.42939 4.42812 6.61966 4.34606 7.25435 5.63878C7.28643 5.70421 7.35473 5.74674 7.42802 5.74674C7.50407 5.74619 7.57266 5.70421 7.60446 5.63742L7.81603 5.20043C7.8434 5.1459 7.84202 5.08293 7.81464 5.02923C7.14787 3.75586 6.84173 3.55249 6.3868 3.55249C5.59973 3.55849 5.19928 4.61758 4.88124 5.78954C4.87516 5.80862 4.8735 5.81544 4.87211 5.82225C4.86437 5.84951 4.85995 5.86723 4.85524 5.8855C4.84612 5.9193 4.84474 5.93102 4.84003 5.94275C4.82482 6.0079 4.8157 6.05206 4.80657 6.09759C4.45645 7.62694 3.91137 10.9403 4.71365 11.9451C4.88262 12.1564 5.11714 12.2638 5.36825 12.2638C6.25267 12.2575 6.86468 10.5949 7.571 8.67104C8.10392 7.21857 8.76903 5.41252 9.34758 5.41252C9.86058 5.42042 10.2411 6.66789 10.6095 7.87393C11.1698 9.70397 11.8045 11.7777 13.3266 11.781C14.8521 11.7777 15.4868 9.70397 16.0454 7.87393C16.4141 6.66789 16.796 5.42042 17.306 5.41252C17.8875 5.41252 18.5513 7.21857 19.0842 8.67104C19.7933 10.5949 20.4022 12.2575 21.2883 12.2638C21.5394 12.2638 21.774 12.1564 21.9413 11.9451C22.7452 10.9403 22.2001 7.62694 21.85 6.09759C21.8409 6.05206 21.8318 6.0079 21.8212 5.9651Z" fill="#FEFEFE"/>
</svg>
