<svg width="27" height="20" viewBox="0 0 27 20" fill="none" xmlns="http://www.w3.org/2000/svg">
<rect width="27" height="20" rx="1.55571" fill="white"/>
<path d="M9.47798 16.2713C13.0557 16.2713 15.956 13.4123 15.956 9.88564C15.956 6.35895 13.0557 3.5 9.47798 3.5C5.90029 3.5 3 6.35895 3 9.88564C3 13.4123 5.90029 16.2713 9.47798 16.2713Z" fill="#EB001B"/>
<path d="M17.5219 16.2713C21.0996 16.2713 23.9999 13.4123 23.9999 9.88564C23.9999 6.35895 21.0996 3.5 17.5219 3.5C13.9442 3.5 11.0439 6.35895 11.0439 9.88564C11.0439 13.4123 13.9442 16.2713 17.5219 16.2713Z" fill="#F79E1B"/>
<path d="M13.5001 4.8855C11.949 6.0943 11.0442 7.9363 11.0442 9.88546C11.0442 11.8346 11.949 13.6766 13.5001 14.8854C15.0513 13.6766 15.9561 11.8346 15.9561 9.88546C15.9561 7.9363 15.0513 6.0943 13.5001 4.8855V4.8855Z" fill="#FF5F00"/>
</svg>
