<svg width="329" height="56" viewBox="0 0 329 56" fill="none" xmlns="http://www.w3.org/2000/svg">
<rect width="329" height="56" rx="4" fill="#F7F7F7"/>
<path d="M55.3926 16.2158V18.998H58.7012V20.1602H55.3926V23.7695H59.9316V25H54.0254V14.9854H60.0068V16.2158H55.3926ZM64.9767 15.8398C64.7124 15.7487 64.4663 15.7031 64.2384 15.7031C63.842 15.7031 63.5138 15.8535 63.2541 16.1543C62.9989 16.4551 62.8713 16.8356 62.8713 17.2959C62.8713 17.4189 62.8826 17.5465 62.9054 17.6787H64.3957V18.7725H62.9054V25H61.6066V18.7725H60.5402V17.6787H61.6066C61.6066 16.7445 61.8367 16.0107 62.297 15.4775C62.7573 14.9443 63.3657 14.6777 64.1222 14.6777C64.5005 14.6777 64.9061 14.7461 65.339 14.8828L64.9767 15.8398ZM71.9564 21.4658H66.679C66.679 22.3226 66.9137 22.9811 67.3831 23.4414C67.7978 23.8424 68.331 24.043 68.9827 24.043C69.7256 24.043 70.3454 23.8265 70.8421 23.3936L71.389 24.3301C71.1885 24.5306 70.8808 24.7038 70.4661 24.8496C69.9466 25.041 69.3678 25.1367 68.7298 25.1367C67.8092 25.1367 67.0277 24.8245 66.3851 24.2002C65.6696 23.512 65.3118 22.5869 65.3118 21.4248C65.3118 20.2171 65.6787 19.2487 66.4124 18.5195C67.0687 17.8678 67.8457 17.542 68.7435 17.542C69.7871 17.542 70.6051 17.8359 71.1976 18.4238C71.7718 18.9889 72.0589 19.7386 72.0589 20.6729C72.0589 20.96 72.0247 21.2243 71.9564 21.4658ZM68.805 18.6357C68.2262 18.6357 67.7409 18.8226 67.3489 19.1963C66.9752 19.5518 66.7633 19.9938 66.7132 20.5225H70.7669C70.7669 19.9984 70.6029 19.5609 70.2747 19.21C69.9147 18.8271 69.4248 18.6357 68.805 18.6357ZM78.5464 18.2734L77.9038 19.1895C77.7716 19.0573 77.5369 18.932 77.1997 18.8135C76.867 18.695 76.5389 18.6357 76.2153 18.6357C75.5089 18.6357 74.9484 18.8841 74.5337 19.3809C74.119 19.873 73.9116 20.5498 73.9116 21.4111C73.9116 22.2679 74.1235 22.9219 74.5473 23.373C74.9712 23.8197 75.5591 24.043 76.311 24.043C76.8943 24.043 77.4822 23.8174 78.0747 23.3662L78.5874 24.46C77.8901 24.9111 77.0265 25.1367 75.9966 25.1367C74.9985 25.1367 74.1736 24.8018 73.522 24.1318C72.8703 23.4619 72.5444 22.555 72.5444 21.4111C72.5444 20.2445 72.8817 19.3079 73.5561 18.6016C74.2352 17.8952 75.1626 17.542 76.3384 17.542C76.7166 17.542 77.1268 17.6217 77.5688 17.7812C78.0109 17.9408 78.3367 18.1048 78.5464 18.2734ZM80.0094 18.7041H79.1618V17.6787H80.0094V16.1475L81.3082 15.6484V17.6787H83.318V18.7041H81.3082V22.3408C81.3082 22.9561 81.4108 23.3936 81.6159 23.6533C81.8255 23.9131 82.1605 24.043 82.6207 24.043C82.9534 24.043 83.2975 23.9587 83.653 23.79L83.8444 24.9316C83.3066 25.0684 82.7164 25.1367 82.0739 25.1367C81.4951 25.1367 81.0052 24.9225 80.6041 24.4941C80.2077 24.0612 80.0094 23.5166 80.0094 22.8604V18.7041ZM86.0252 14.9102C86.2485 14.9102 86.4376 14.9899 86.5926 15.1494C86.7521 15.3044 86.8318 15.4912 86.8318 15.71C86.8318 15.9333 86.7521 16.1247 86.5926 16.2842C86.4376 16.4391 86.2485 16.5166 86.0252 16.5166C85.8064 16.5166 85.6173 16.4391 85.4578 16.2842C85.3029 16.1247 85.2254 15.9333 85.2254 15.71C85.2254 15.4867 85.3029 15.2975 85.4578 15.1426C85.6128 14.9876 85.8019 14.9102 86.0252 14.9102ZM85.3143 25V18.7725H84.3094V17.6787H86.6131V25H85.3143ZM90.9062 25.1367H90.5644L87.4267 17.6582H88.8486L90.7832 22.7852L92.7588 17.6582H94.1191L90.9062 25.1367ZM94.2423 21.3223C94.2423 20.1921 94.5454 19.2806 95.1515 18.5879C95.7622 17.8906 96.5642 17.542 97.5577 17.542C98.6059 17.542 99.4194 17.877 99.9982 18.5469C100.577 19.2122 100.866 20.1374 100.866 21.3223C100.866 22.5026 100.57 23.4346 99.9777 24.1182C99.3852 24.7972 98.5786 25.1367 97.5577 25.1367C96.5141 25.1367 95.7006 24.7926 95.1173 24.1045C94.534 23.4163 94.2423 22.4889 94.2423 21.3223ZM95.6095 21.3223C95.6095 23.1589 96.2589 24.0771 97.5577 24.0771C98.1639 24.0771 98.6378 23.8311 98.9796 23.3389C99.326 22.8467 99.4991 22.1745 99.4991 21.3223C99.4991 19.5085 98.852 18.6016 97.5577 18.6016C96.9653 18.6016 96.4913 18.8431 96.1359 19.3262C95.7849 19.8092 95.6095 20.4746 95.6095 21.3223Z" fill="#757878"/>
<path fill-rule="evenodd" clip-rule="evenodd" d="M291.5 33C291.244 33 290.988 32.902 290.793 32.707C290.402 32.316 290.402 31.684 290.793 31.293L294.098 27.988L290.918 24.695C290.535 24.297 290.546 23.664 290.943 23.281C291.341 22.898 291.974 22.909 292.357 23.305L296.219 27.305C296.598 27.698 296.593 28.321 296.207 28.707L292.207 32.707C292.012 32.902 291.756 33 291.5 33Z" fill="#757878"/>
<path d="M198.518 31.6836L198.025 34.4902H196.912L198.143 27.5996C198.197 27.2988 198.225 27.0039 198.225 26.7148C198.225 26.418 198.195 26.1289 198.137 25.8477L199.256 25.6367C199.275 25.6875 199.311 25.9551 199.361 26.4395C199.545 26.2129 199.809 26.0234 200.152 25.8711C200.496 25.7148 200.816 25.6367 201.113 25.6367C201.895 25.6367 202.479 25.8301 202.865 26.2168C203.256 26.6035 203.451 27.1855 203.451 27.9629C203.451 29.1504 203.121 30.1445 202.461 30.9453C201.805 31.7461 200.941 32.1465 199.871 32.1465C199.641 32.1465 199.375 32.1016 199.074 32.0117C198.777 31.9219 198.592 31.8125 198.518 31.6836ZM198.682 30.7637C198.752 30.8887 198.895 30.9941 199.109 31.0801C199.324 31.166 199.525 31.209 199.713 31.209C200.529 31.209 201.158 30.9336 201.6 30.3828C202.045 29.8281 202.268 29.0723 202.268 28.1152C202.268 27.5996 202.137 27.2148 201.875 26.9609C201.617 26.7031 201.229 26.5742 200.709 26.5742C200.482 26.5742 200.219 26.6543 199.918 26.8145C199.621 26.9707 199.41 27.1348 199.285 27.3066L198.682 30.7637ZM208.174 26.8262C207.94 26.6387 207.666 26.5449 207.354 26.5449C206.959 26.5449 206.582 26.7285 206.223 27.0957C205.863 27.459 205.639 27.8945 205.549 28.4023L204.91 32H203.797L204.904 25.7246H206.018L205.842 26.7266C206.381 25.9805 207.051 25.6074 207.852 25.6074C207.988 25.6074 208.201 25.6348 208.49 25.6895L208.174 26.8262ZM208.303 29.6914C208.303 28.5703 208.631 27.6094 209.287 26.8086C209.944 26.0078 210.778 25.6074 211.789 25.6074C212.551 25.6074 213.133 25.8145 213.535 26.2285C213.938 26.6387 214.139 27.2227 214.139 27.9805C214.139 28.582 214.018 29.207 213.776 29.8555C213.537 30.5039 213.145 31.043 212.598 31.4727C212.055 31.9023 211.403 32.1172 210.641 32.1172C209.887 32.1172 209.309 31.9062 208.907 31.4844C208.504 31.0586 208.303 30.4609 208.303 29.6914ZM209.475 29.6211C209.475 30.6797 209.918 31.209 210.805 31.209C211.465 31.209 211.989 30.8887 212.375 30.248C212.766 29.6074 212.961 28.8672 212.961 28.0273C212.961 27.0195 212.518 26.5156 211.631 26.5156C211.182 26.5156 210.785 26.6758 210.442 26.9961C210.102 27.3164 209.856 27.7266 209.703 28.2266C209.551 28.7266 209.475 29.1914 209.475 29.6211ZM213.248 22.8711L211.924 24.8223H211.104L212.094 22.8711H213.248ZM218.018 32L216.916 29.7969L215.188 32H213.829L216.413 28.7363L214.831 25.7246H216.143L217.18 27.9043L218.774 25.7246H220.239L217.737 28.8301L219.465 32H218.018ZM222.12 23.2637C222.335 23.2637 222.518 23.3398 222.671 23.4922C222.823 23.6406 222.899 23.8242 222.899 24.043C222.899 24.2578 222.823 24.4414 222.671 24.5938C222.518 24.7422 222.335 24.8164 222.12 24.8164C221.905 24.8164 221.721 24.7422 221.569 24.5938C221.417 24.4414 221.34 24.2578 221.34 24.043C221.34 23.8242 221.417 23.6406 221.569 23.4922C221.721 23.3398 221.905 23.2637 222.12 23.2637ZM220.321 32L221.27 26.6621H220.438L220.643 25.7422H222.559L221.452 32H220.321ZM230.393 32L231.096 28.0273C231.124 27.8711 231.138 27.7207 231.138 27.5762C231.138 26.8887 230.792 26.5449 230.1 26.5449C229.846 26.5449 229.589 26.625 229.327 26.7852C229.069 26.9414 228.874 27.1328 228.741 27.3594L227.921 32H226.778L227.569 27.541C227.581 27.4746 227.587 27.4141 227.587 27.3594C227.587 26.8164 227.218 26.5449 226.479 26.5449C226.257 26.5449 226.009 26.6309 225.735 26.8027C225.462 26.9746 225.255 27.1641 225.114 27.3711L224.294 32H223.157L223.966 27.4238C223.989 27.291 224.001 27.1074 224.001 26.873C224.001 26.4395 223.962 26.0879 223.884 25.8184L224.968 25.6133C225.038 25.9141 225.079 26.1875 225.091 26.4336C225.247 26.1797 225.505 25.9785 225.864 25.8301C226.227 25.6816 226.604 25.6074 226.995 25.6074C227.889 25.6074 228.468 25.8867 228.729 26.4453C228.901 26.2031 229.171 26.0039 229.538 25.8477C229.905 25.6875 230.268 25.6074 230.628 25.6074C231.764 25.6074 232.333 26.1504 232.333 27.2363C232.333 27.416 232.315 27.6055 232.28 27.8047L231.536 32H230.393ZM238.497 26.1172L237.729 29.7676C237.698 29.916 237.683 30.0957 237.683 30.3066C237.683 30.916 237.778 31.4805 237.97 32H236.833C236.77 31.875 236.704 31.6641 236.634 31.3672C236.45 31.5898 236.177 31.7715 235.813 31.9121C235.45 32.0488 235.065 32.1172 234.659 32.1172C234.042 32.1172 233.56 31.9355 233.212 31.5723C232.868 31.2051 232.696 30.6797 232.696 29.9961C232.696 28.8477 233.034 27.8301 233.71 26.9434C234.39 26.0527 235.263 25.6074 236.329 25.6074C237.337 25.6074 238.06 25.7773 238.497 26.1172ZM237.267 26.7676C237.161 26.5996 236.806 26.5156 236.2 26.5156C235.583 26.5156 235.04 26.8438 234.571 27.5C234.103 28.1562 233.868 28.9766 233.868 29.9609C233.868 30.793 234.239 31.209 234.981 31.209C235.368 31.209 235.731 31.0098 236.071 30.6113C236.411 30.209 236.647 29.6953 236.78 29.0703L237.267 26.7676ZM245.839 32L246.542 28.0273C246.569 27.8711 246.583 27.7207 246.583 27.5762C246.583 26.8887 246.237 26.5449 245.546 26.5449C245.292 26.5449 245.034 26.625 244.773 26.7852C244.515 26.9414 244.319 27.1328 244.187 27.3594L243.366 32H242.224L243.015 27.541C243.026 27.4746 243.032 27.4141 243.032 27.3594C243.032 26.8164 242.663 26.5449 241.925 26.5449C241.702 26.5449 241.454 26.6309 241.181 26.8027C240.907 26.9746 240.7 27.1641 240.56 27.3711L239.739 32H238.603L239.411 27.4238C239.435 27.291 239.446 27.1074 239.446 26.873C239.446 26.4395 239.407 26.0879 239.329 25.8184L240.413 25.6133C240.484 25.9141 240.525 26.1875 240.536 26.4336C240.693 26.1797 240.95 25.9785 241.31 25.8301C241.673 25.6816 242.05 25.6074 242.441 25.6074C243.335 25.6074 243.913 25.8867 244.175 26.4453C244.347 26.2031 244.616 26.0039 244.984 25.8477C245.351 25.6875 245.714 25.6074 246.073 25.6074C247.21 25.6074 247.778 26.1504 247.778 27.2363C247.778 27.416 247.761 27.6055 247.726 27.8047L246.982 32H245.839ZM249.601 29.0352C249.566 29.2227 249.548 29.4023 249.548 29.5742C249.548 30.0898 249.693 30.4863 249.982 30.7637C250.271 31.041 250.675 31.1797 251.195 31.1797C251.656 31.1797 252.12 31.0098 252.589 30.6699L252.472 31.8066C251.847 32.0137 251.294 32.1172 250.814 32.1172C249.197 32.1172 248.388 31.2109 248.388 29.3984C248.388 28.332 248.728 27.4336 249.408 26.7031C250.087 25.9727 250.943 25.6074 251.974 25.6074C252.595 25.6074 253.091 25.7402 253.462 26.0059C253.833 26.2715 254.019 26.6504 254.019 27.1426C254.019 27.8262 253.73 28.3652 253.152 28.7598C252.574 29.1543 251.865 29.3516 251.025 29.3516C250.462 29.3516 249.988 29.2461 249.601 29.0352ZM249.794 28.2266C250.091 28.3594 250.441 28.4258 250.843 28.4258C251.452 28.4258 251.95 28.3281 252.337 28.1328C252.724 27.9336 252.917 27.6445 252.917 27.2656C252.917 26.7852 252.585 26.5449 251.921 26.5449C250.909 26.5449 250.2 27.1055 249.794 28.2266ZM258.08 32L258.736 28.3496C258.794 28.0254 258.824 27.7559 258.824 27.541C258.824 26.877 258.478 26.5449 257.787 26.5449C257.521 26.5449 257.236 26.623 256.931 26.7793C256.63 26.9355 256.39 27.1211 256.21 27.3359L255.396 32H254.271L255.115 27.2422C255.134 27.1328 255.144 27.0039 255.144 26.8555C255.144 26.457 255.103 26.1113 255.021 25.8184L256.099 25.6074C256.205 26.1777 256.255 26.4883 256.251 26.5391C256.728 25.918 257.415 25.6074 258.314 25.6074C259.447 25.6074 260.013 26.1855 260.013 27.3418C260.013 27.5723 259.988 27.8301 259.937 28.1152L259.263 32H258.08ZM261.847 26.6035H261.121L261.308 25.7246H262.035L262.293 24.4121L263.564 23.9316L263.148 25.7246H264.871L264.683 26.6035H262.961L262.304 29.7207C262.254 29.9629 262.228 30.1504 262.228 30.2832C262.228 30.8809 262.525 31.1797 263.119 31.1797C263.408 31.1797 263.718 31.1074 264.05 30.9629L264.009 31.9414C263.689 32.0586 263.171 32.1172 262.457 32.1172C262.011 32.1172 261.664 31.9805 261.414 31.707C261.168 31.4297 261.045 31.0508 261.045 30.5703C261.045 30.4609 261.062 30.3262 261.097 30.166L261.847 26.6035ZM266.418 29.0352C266.383 29.2227 266.365 29.4023 266.365 29.5742C266.365 30.0898 266.51 30.4863 266.799 30.7637C267.088 31.041 267.492 31.1797 268.011 31.1797C268.472 31.1797 268.937 31.0098 269.406 30.6699L269.289 31.8066C268.664 32.0137 268.111 32.1172 267.631 32.1172C266.013 32.1172 265.205 31.2109 265.205 29.3984C265.205 28.332 265.545 27.4336 266.224 26.7031C266.904 25.9727 267.76 25.6074 268.791 25.6074C269.412 25.6074 269.908 25.7402 270.279 26.0059C270.65 26.2715 270.836 26.6504 270.836 27.1426C270.836 27.8262 270.547 28.3652 269.969 28.7598C269.39 29.1543 268.681 29.3516 267.842 29.3516C267.279 29.3516 266.804 29.2461 266.418 29.0352ZM266.611 28.2266C266.908 28.3594 267.258 28.4258 267.66 28.4258C268.269 28.4258 268.767 28.3281 269.154 28.1328C269.541 27.9336 269.734 27.6445 269.734 27.2656C269.734 26.7852 269.402 26.5449 268.738 26.5449C267.726 26.5449 267.017 27.1055 266.611 28.2266Z" fill="#757878"/>
<path d="M54.5869 38.7119V41.0508H53.6592V33.7705H54.5869V34.2002C54.9385 33.8486 55.3633 33.6729 55.8613 33.6729C56.6035 33.6729 57.1813 33.904 57.5947 34.3662C58.0081 34.8285 58.2148 35.5055 58.2148 36.3975C58.2148 37.1917 58.0065 37.8411 57.5898 38.3457C57.1732 38.847 56.571 39.0977 55.7832 39.0977C55.5618 39.0977 55.3242 39.0586 55.0703 38.9805C54.8197 38.9023 54.6585 38.8128 54.5869 38.7119ZM54.5869 34.8984V37.9453C54.6455 38.0332 54.7692 38.1178 54.958 38.1992C55.1468 38.2773 55.3307 38.3164 55.5098 38.3164C56.6621 38.3164 57.2383 37.6654 57.2383 36.3633C57.2383 35.7025 57.1016 35.2191 56.8281 34.9131C56.5547 34.6071 56.1169 34.4541 55.5146 34.4541C55.3844 34.4541 55.2249 34.4997 55.0361 34.5908C54.8473 34.682 54.6976 34.7845 54.5869 34.8984ZM61.7795 38.3994C61.4084 38.8649 60.8403 39.0977 60.0754 39.0977C59.6652 39.0977 59.3088 38.9495 59.006 38.6533C58.7065 38.3538 58.5568 37.9827 58.5568 37.54C58.5568 37.0094 58.7879 36.5618 59.2502 36.1973C59.7157 35.8294 60.3081 35.6455 61.0275 35.6455C61.2228 35.6455 61.4442 35.6878 61.6916 35.7725C61.6916 34.9261 61.314 34.5029 60.5588 34.5029C59.9793 34.5029 59.5334 34.6592 59.2209 34.9717L58.8302 34.1953C59.006 34.0521 59.2485 33.93 59.5578 33.8291C59.8703 33.7249 60.1681 33.6729 60.4513 33.6729C61.2098 33.6729 61.7599 33.8454 62.1017 34.1904C62.4468 34.5355 62.6193 35.084 62.6193 35.8359V37.7109C62.6193 38.1699 62.756 38.4759 63.0295 38.6289V39.0928C62.6518 39.0928 62.3686 39.0391 62.1798 38.9316C61.9943 38.8242 61.8608 38.6468 61.7795 38.3994ZM61.6916 36.4316C61.3986 36.3665 61.1935 36.334 61.0763 36.334C60.6076 36.334 60.2251 36.4544 59.9289 36.6953C59.6326 36.9362 59.4845 37.221 59.4845 37.5498C59.4845 38.0934 59.8052 38.3652 60.4464 38.3652C60.9152 38.3652 61.3302 38.1423 61.6916 37.6963V36.4316ZM63.4788 40.4307L63.9818 39.6885C64.5221 40.0498 65.0202 40.2305 65.4759 40.2305C65.8958 40.2305 66.2262 40.1572 66.4671 40.0107C66.7113 39.8675 66.8333 39.6885 66.8333 39.4736C66.8333 39.0505 66.5273 38.8389 65.9154 38.8389C65.8112 38.8389 65.6224 38.8649 65.3489 38.917C65.0755 38.9691 64.8623 38.9951 64.7093 38.9951C63.9671 38.9951 63.596 38.7152 63.596 38.1553C63.596 37.9827 63.6823 37.8265 63.8548 37.6865C64.0306 37.5465 64.2471 37.4456 64.5042 37.3838C63.7685 37.0387 63.4007 36.4398 63.4007 35.5869C63.4007 35.04 63.5911 34.5843 63.972 34.2197C64.3529 33.8551 64.8232 33.6729 65.3831 33.6729C65.8974 33.6729 66.2995 33.7786 66.5892 33.9902L67.053 33.4336L67.6585 34.0049L67.1019 34.4248C67.3395 34.734 67.4583 35.1377 67.4583 35.6357C67.4583 36.1631 67.2939 36.6058 66.9652 36.9639C66.6364 37.3219 66.2051 37.527 65.6712 37.5791L64.9046 37.6572C64.8135 37.667 64.6914 37.7028 64.5384 37.7646C64.3854 37.8232 64.3089 37.9014 64.3089 37.999C64.3089 38.1325 64.4684 38.1992 64.7874 38.1992C64.9274 38.1992 65.1455 38.1748 65.4417 38.126C65.7379 38.0739 65.9577 38.0479 66.1009 38.0479C66.6152 38.0479 67.0156 38.1715 67.3021 38.4189C67.5918 38.6631 67.7366 39.0033 67.7366 39.4395C67.7366 39.9212 67.5202 40.3102 67.0872 40.6064C66.6575 40.9027 66.1123 41.0508 65.4515 41.0508C65.1129 41.0508 64.7565 40.9906 64.3821 40.8701C64.0078 40.7497 63.7067 40.6032 63.4788 40.4307ZM65.4466 34.4199C65.1243 34.4199 64.8607 34.5339 64.6556 34.7617C64.4538 34.9896 64.3529 35.2663 64.3529 35.5918C64.3529 35.9564 64.4505 36.2591 64.6458 36.5C64.8444 36.7376 65.1113 36.8564 65.4466 36.8564C65.7754 36.8564 66.0325 36.7409 66.2181 36.5098C66.4036 36.2754 66.4964 35.9694 66.4964 35.5918C66.4964 35.2663 66.3955 34.9896 66.1937 34.7617C65.9951 34.5339 65.7461 34.4199 65.4466 34.4199ZM67.937 36.373C67.937 35.5658 68.1535 34.9147 68.5864 34.4199C69.0226 33.9219 69.5955 33.6729 70.3052 33.6729C71.0539 33.6729 71.6349 33.9121 72.0483 34.3906C72.4617 34.8659 72.6684 35.5267 72.6684 36.373C72.6684 37.2161 72.4568 37.8818 72.0337 38.3701C71.6105 38.8551 71.0343 39.0977 70.3052 39.0977C69.5597 39.0977 68.9787 38.8519 68.562 38.3604C68.1453 37.8688 67.937 37.2064 67.937 36.373ZM68.9136 36.373C68.9136 37.6849 69.3774 38.3408 70.3052 38.3408C70.7381 38.3408 71.0766 38.165 71.3208 37.8135C71.5682 37.4619 71.6919 36.9818 71.6919 36.373C71.6919 35.0775 71.2296 34.4297 70.3052 34.4297C69.882 34.4297 69.5434 34.6022 69.2895 34.9473C69.0389 35.2923 68.9136 35.7676 68.9136 36.373ZM78.8016 38.3994C78.4305 38.8649 77.8624 39.0977 77.0975 39.0977C76.6873 39.0977 76.3309 38.9495 76.0281 38.6533C75.7286 38.3538 75.5789 37.9827 75.5789 37.54C75.5789 37.0094 75.81 36.5618 76.2723 36.1973C76.7378 35.8294 77.3302 35.6455 78.0496 35.6455C78.2449 35.6455 78.4663 35.6878 78.7137 35.7725C78.7137 34.9261 78.3361 34.5029 77.5809 34.5029C77.0014 34.5029 76.5555 34.6592 76.243 34.9717L75.8523 34.1953C76.0281 34.0521 76.2706 33.93 76.5799 33.8291C76.8924 33.7249 77.1902 33.6729 77.4734 33.6729C78.2319 33.6729 78.782 33.8454 79.1238 34.1904C79.4689 34.5355 79.6414 35.084 79.6414 35.8359V37.7109C79.6414 38.1699 79.7781 38.4759 80.0516 38.6289V39.0928C79.674 39.0928 79.3908 39.0391 79.202 38.9316C79.0164 38.8242 78.8829 38.6468 78.8016 38.3994ZM78.7137 36.4316C78.4207 36.3665 78.2156 36.334 78.0984 36.334C77.6297 36.334 77.2472 36.4544 76.951 36.6953C76.6548 36.9362 76.5066 37.221 76.5066 37.5498C76.5066 38.0934 76.8273 38.3652 77.4686 38.3652C77.9373 38.3652 78.3523 38.1423 78.7137 37.6963V36.4316ZM81.0234 34.5029H80.4179V33.7705H81.0234V32.6768L81.9511 32.3203V33.7705H83.3867V34.5029H81.9511V37.1006C81.9511 37.54 82.0244 37.8525 82.1709 38.0381C82.3206 38.2236 82.5599 38.3164 82.8886 38.3164C83.1263 38.3164 83.372 38.2562 83.6259 38.1357L83.7627 38.9512C83.3785 39.0488 82.957 39.0977 82.498 39.0977C82.0846 39.0977 81.7347 38.9447 81.4482 38.6387C81.165 38.3294 81.0234 37.9404 81.0234 37.4717V34.5029ZM88.6505 36.4756H84.881C84.881 37.0876 85.0486 37.5579 85.3839 37.8867C85.6801 38.1732 86.061 38.3164 86.5265 38.3164C87.0571 38.3164 87.4998 38.1618 87.8546 37.8525L88.2452 38.5215C88.102 38.6647 87.8823 38.7884 87.5861 38.8926C87.215 39.0293 86.8015 39.0977 86.3458 39.0977C85.6883 39.0977 85.13 38.8747 84.671 38.4287C84.1599 37.9372 83.9044 37.2764 83.9044 36.4463C83.9044 35.5837 84.1665 34.8919 84.6905 34.3711C85.1593 33.9056 85.7143 33.6729 86.3556 33.6729C87.101 33.6729 87.6853 33.8828 88.1085 34.3027C88.5187 34.7064 88.7237 35.2419 88.7237 35.9092C88.7237 36.1143 88.6993 36.3031 88.6505 36.4756ZM86.3995 34.4541C85.9861 34.4541 85.6394 34.5876 85.3595 34.8545C85.0926 35.1084 84.9412 35.4242 84.9054 35.8018H87.8009C87.8009 35.4274 87.6837 35.1149 87.4493 34.8643C87.1922 34.5908 86.8422 34.4541 86.3995 34.4541ZM92.513 39V35.958C92.513 35.4014 92.4283 35.0124 92.2591 34.791C92.093 34.5664 91.8131 34.4541 91.4192 34.4541C91.2076 34.4541 90.9863 34.5176 90.7552 34.6445C90.524 34.7715 90.3466 34.9277 90.2229 35.1133V39H89.2952V33.7705H89.93L90.2229 34.4443C90.5289 33.93 91.0286 33.6729 91.722 33.6729C92.8678 33.6729 93.4407 34.3695 93.4407 35.7627V39H92.513ZM97.6694 38.9951V38.6094C97.3471 38.9316 96.8784 39.0928 96.2631 39.0928C95.6088 39.0928 95.0782 38.8584 94.6713 38.3896C94.2644 37.9209 94.061 37.2959 94.061 36.5146C94.061 35.7301 94.2954 35.0612 94.7641 34.5078C95.2329 33.9512 95.7911 33.6729 96.4389 33.6729C96.9793 33.6729 97.3894 33.7998 97.6694 34.0537V31.627H98.5971V38.9951H97.6694ZM97.6694 34.9814C97.435 34.6299 97.1144 34.4541 96.7075 34.4541C96.2094 34.4541 95.8058 34.6396 95.4965 35.0107C95.1905 35.3818 95.0375 35.8538 95.0375 36.4268C95.0375 37.6865 95.6105 38.3164 96.7563 38.3164C96.9028 38.3164 97.0786 38.2708 97.2836 38.1797C97.4887 38.0853 97.6173 37.986 97.6694 37.8818V34.9814ZM103.924 36.4756H100.155C100.155 37.0876 100.323 37.5579 100.658 37.8867C100.954 38.1732 101.335 38.3164 101.8 38.3164C102.331 38.3164 102.774 38.1618 103.129 37.8525L103.519 38.5215C103.376 38.6647 103.156 38.7884 102.86 38.8926C102.489 39.0293 102.075 39.0977 101.62 39.0977C100.962 39.0977 100.404 38.8747 99.9449 38.4287C99.4339 37.9372 99.1783 37.2764 99.1783 36.4463C99.1783 35.5837 99.4404 34.8919 99.9645 34.3711C100.433 33.9056 100.988 33.6729 101.629 33.6729C102.375 33.6729 102.959 33.8828 103.382 34.3027C103.793 34.7064 103.998 35.2419 103.998 35.9092C103.998 36.1143 103.973 36.3031 103.924 36.4756ZM101.673 34.4541C101.26 34.4541 100.913 34.5876 100.633 34.8545C100.366 35.1084 100.215 35.4242 100.179 35.8018H103.075C103.075 35.4274 102.958 35.1149 102.723 34.8643C102.466 34.5908 102.116 34.4541 101.673 34.4541ZM107.885 38.9951V38.6094C107.562 38.9316 107.094 39.0928 106.478 39.0928C105.824 39.0928 105.293 38.8584 104.886 38.3896C104.48 37.9209 104.276 37.2959 104.276 36.5146C104.276 35.7301 104.511 35.0612 104.979 34.5078C105.448 33.9512 106.006 33.6729 106.654 33.6729C107.194 33.6729 107.605 33.7998 107.885 34.0537V31.627H108.812V38.9951H107.885ZM107.885 34.9814C107.65 34.6299 107.33 34.4541 106.923 34.4541C106.425 34.4541 106.021 34.6396 105.712 35.0107C105.406 35.3818 105.253 35.8538 105.253 36.4268C105.253 37.6865 105.826 38.3164 106.971 38.3164C107.118 38.3164 107.294 38.2708 107.499 38.1797C107.704 38.0853 107.832 37.986 107.885 37.8818V34.9814ZM109.393 36.373C109.393 35.5658 109.61 34.9147 110.043 34.4199C110.479 33.9219 111.052 33.6729 111.762 33.6729C112.51 33.6729 113.091 33.9121 113.505 34.3906C113.918 34.8659 114.125 35.5267 114.125 36.373C114.125 37.2161 113.913 37.8818 113.49 38.3701C113.067 38.8551 112.491 39.0977 111.762 39.0977C111.016 39.0977 110.435 38.8519 110.018 38.3604C109.602 37.8688 109.393 37.2064 109.393 36.373ZM110.37 36.373C110.37 37.6849 110.834 38.3408 111.762 38.3408C112.195 38.3408 112.533 38.165 112.777 37.8135C113.025 37.4619 113.148 36.9818 113.148 36.373C113.148 35.0775 112.686 34.4297 111.762 34.4297C111.338 34.4297 111 34.6022 110.746 34.9473C110.495 35.2923 110.37 35.7676 110.37 36.373ZM117.538 34.6641C117.336 34.5241 117.133 34.4541 116.928 34.4541C116.599 34.4541 116.311 34.6055 116.064 34.9082C115.819 35.2109 115.697 35.5755 115.697 36.002V39H114.77V33.7705H115.697V34.6055C116.036 33.9837 116.539 33.6729 117.206 33.6729C117.372 33.6729 117.611 33.7021 117.924 33.7607L117.538 34.6641Z" fill="#757878"/>
<path d="M36.5972 20C38.0611 19.9993 39.481 20.5006 40.6201 21.4204C41.7592 22.3401 42.5486 23.6227 42.8567 25.0542C43.1647 26.4857 42.9729 27.9795 42.313 29.2866C41.882 30.1404 41.2683 30.8808 40.5225 31.4594C39.7531 32.0564 39.0497 32.759 38.452 33.5279C38.1297 33.9426 37.7563 34.3175 37.3395 34.6432C36.5238 35.2806 35.5657 35.7106 34.5474 35.8962C33.5291 36.0819 32.481 36.0177 31.4929 35.7093C30.5049 35.4008 29.6063 34.8572 28.8744 34.1251C28.1425 33.393 27.5991 32.4943 27.2907 31.506C26.9823 30.5177 26.9181 29.4693 27.1038 28.4508C27.2894 27.4322 27.7192 26.4739 28.3564 25.658C28.6825 25.2406 29.0578 24.8667 29.473 24.544C30.241 23.9472 30.9429 23.245 31.5392 22.4767C31.9799 21.909 32.5151 21.4167 33.1248 21.0231C34.1598 20.355 35.3655 19.9998 36.5972 20ZM33.3974 24.801C32.767 24.801 32.1429 24.9251 31.5606 25.1664C30.9782 25.4077 30.4491 25.7613 30.0034 26.2071C29.5577 26.6529 29.2041 27.1822 28.9629 27.7647C28.7217 28.3471 28.5976 28.9714 28.5976 29.6019C28.5976 30.2324 28.7217 30.8567 28.9629 31.4391C29.2041 32.0216 29.5577 32.5509 30.0034 32.9967C30.4491 33.4425 30.9782 33.7961 31.5606 34.0374C32.1429 34.2787 32.767 34.4029 33.3974 34.4029C34.6703 34.4029 35.8912 33.897 36.7913 32.9967C37.6915 32.0963 38.1971 30.8752 38.1971 29.6019C38.1971 28.3286 37.6915 27.1075 36.7913 26.2071C35.8912 25.3068 34.6703 24.801 33.3974 24.801ZM33.7972 25.6011C34.0182 25.6011 34.1973 25.7802 34.1973 26.0012V26.0012C34.1973 26.2221 34.3764 26.4013 34.5974 26.4013H34.9973C35.4391 26.4013 35.7972 26.7595 35.7972 27.2013V27.2013C35.7972 27.6432 35.439 28.0016 34.9971 28.0016H32.5974C32.4974 28.0014 32.401 28.0387 32.3272 28.106C32.2533 28.1734 32.2073 28.2659 32.1983 28.3655C32.1893 28.4651 32.2178 28.5644 32.2784 28.644C32.3389 28.7235 32.427 28.7775 32.5254 28.7953L32.5974 28.8017H34.1973C34.7277 28.8017 35.2364 29.0125 35.6115 29.3876C35.9865 29.7628 36.1972 30.2716 36.1972 30.8021C36.1972 31.3327 35.9865 31.8415 35.6115 32.2166C35.3315 32.4967 34.9771 32.6851 34.5947 32.7626C34.3782 32.8066 34.1973 32.9817 34.1973 33.2026V33.2026C34.1973 33.4236 34.0182 33.6027 33.7972 33.6027H32.9975C32.7765 33.6027 32.5974 33.4236 32.5974 33.2026V33.2026C32.5974 32.9817 32.4183 32.8025 32.1973 32.8025H31.7974C31.3556 32.8025 30.9975 32.4443 30.9975 32.0025V32.0025C30.9975 31.5606 31.3557 31.2022 31.7976 31.2022H34.1973C34.2973 31.2024 34.3937 31.1652 34.4675 31.0978C34.5414 31.0304 34.5874 30.9379 34.5964 30.8383C34.6054 30.7387 34.5769 30.6394 34.5163 30.5598C34.4558 30.4803 34.3677 30.4263 34.2693 30.4085L34.1973 30.4021H32.5974C32.067 30.4021 31.5583 30.1913 31.1832 29.8162C30.8082 29.441 30.5975 28.9322 30.5975 28.4017C30.5975 27.8711 30.8082 27.3623 31.1832 26.9872C31.4632 26.7071 31.8176 26.5187 32.2 26.4412C32.4165 26.3972 32.5974 26.2221 32.5974 26.0012V26.0012C32.5974 25.7802 32.7765 25.6011 32.9975 25.6011H33.7972ZM36.5972 21.6003C35.9194 21.5995 35.2491 21.7427 34.6308 22.0204V22.0204C33.9492 22.3264 34.2954 23.2186 35.0181 23.4078C35.2374 23.4652 35.454 23.5343 35.6669 23.6151C36.5139 23.9363 37.283 24.4337 37.9235 25.0744C38.564 25.7151 39.0612 26.4846 39.3822 27.3318V27.3318C39.7357 28.2645 40.9341 28.6863 41.2096 27.7278C41.2271 27.667 41.2434 27.6058 41.2585 27.5441C41.4901 26.5986 41.429 25.605 41.0831 24.6951C40.7373 23.7852 40.123 23.0019 39.3218 22.4492C38.5207 21.8965 37.5705 21.6004 36.5972 21.6003Z" fill="#72757D"/>
</svg>
