<svg width="329" height="56" viewBox="0 0 329 56" fill="none" xmlns="http://www.w3.org/2000/svg">
<rect width="329" height="56" rx="4" fill="#F7F7F7"/>
<path d="M56.042 27H54.0254V16.9854C55.3105 16.9398 56.1331 16.917 56.4932 16.917C57.8923 16.917 58.9997 17.3431 59.8154 18.1953C60.6312 19.043 61.0391 20.1732 61.0391 21.5859C61.0391 25.1953 59.3734 27 56.042 27ZM55.3926 18.2158V25.7012C55.6979 25.7467 56.0762 25.7695 56.5273 25.7695C57.4844 25.7695 58.2363 25.4118 58.7832 24.6963C59.3301 23.9762 59.6035 22.9782 59.6035 21.7021C59.6035 19.3324 58.5394 18.1475 56.4111 18.1475C56.2835 18.1475 55.944 18.1702 55.3926 18.2158ZM68.2648 23.4658H62.9875C62.9875 24.3226 63.2222 24.9811 63.6916 25.4414C64.1063 25.8424 64.6395 26.043 65.2912 26.043C66.034 26.043 66.6538 25.8265 67.1505 25.3936L67.6974 26.3301C67.4969 26.5306 67.1893 26.7038 66.7746 26.8496C66.255 27.041 65.6763 27.1367 65.0382 27.1367C64.1177 27.1367 63.3361 26.8245 62.6935 26.2002C61.978 25.512 61.6203 24.5869 61.6203 23.4248C61.6203 22.2171 61.9871 21.2487 62.7209 20.5195C63.3771 19.8678 64.1541 19.542 65.0519 19.542C66.0955 19.542 66.9136 19.8359 67.506 20.4238C68.0802 20.9889 68.3673 21.7386 68.3673 22.6729C68.3673 22.96 68.3332 23.2243 68.2648 23.4658ZM65.1134 20.6357C64.5347 20.6357 64.0493 20.8226 63.6574 21.1963C63.2837 21.5518 63.0718 21.9938 63.0216 22.5225H67.0754C67.0754 21.9984 66.9113 21.5609 66.5832 21.21C66.2231 20.8271 65.7332 20.6357 65.1134 20.6357ZM66.8088 15.9395L65.2638 18.2158H64.3068L65.4621 15.9395H66.8088ZM70.4388 26.4736L69.9808 27.1367H69.3314V16.6777H70.6302V20.2188C70.7532 20.0501 70.9834 19.8952 71.3206 19.7539C71.6624 19.6126 71.9974 19.542 72.3255 19.542C73.3281 19.542 74.1393 19.8883 74.7591 20.5811C75.3835 21.2738 75.6956 22.1488 75.6956 23.2061C75.6956 24.4274 75.3835 25.389 74.7591 26.0908C74.1348 26.7881 73.2894 27.1367 72.223 27.1367C71.8766 27.1367 71.5348 27.0729 71.1976 26.9453C70.8649 26.8132 70.612 26.6559 70.4388 26.4736ZM70.6302 21.21V25.4346C70.6302 25.5075 70.792 25.6283 71.1155 25.7969C71.4391 25.9609 71.6852 26.043 71.8538 26.043C72.7379 26.043 73.3714 25.8311 73.7542 25.4072C74.137 24.9834 74.3284 24.2725 74.3284 23.2744C74.3284 22.445 74.1051 21.7979 73.6585 21.333C73.2119 20.8682 72.6103 20.6357 71.8538 20.6357C71.6943 20.6357 71.471 20.7041 71.1839 20.8408C70.9014 20.9775 70.7168 21.1006 70.6302 21.21ZM78.0679 16.9102C78.2912 16.9102 78.4803 16.9899 78.6352 17.1494C78.7947 17.3044 78.8745 17.4912 78.8745 17.71C78.8745 17.9333 78.7947 18.1247 78.6352 18.2842C78.4803 18.4391 78.2912 18.5166 78.0679 18.5166C77.8491 18.5166 77.66 18.4391 77.5005 18.2842C77.3455 18.1247 77.268 17.9333 77.268 17.71C77.268 17.4867 77.3455 17.2975 77.5005 17.1426C77.6554 16.9876 77.8445 16.9102 78.0679 16.9102ZM77.3569 27V20.7725H76.352V19.6787H78.6557V27H77.3569ZM80.775 20.7041H79.9274V19.6787H80.775V18.1475L82.0739 17.6484V19.6787H84.0836V20.7041H82.0739V24.3408C82.0739 24.9561 82.1764 25.3936 82.3815 25.6533C82.5911 25.9131 82.9261 26.043 83.3864 26.043C83.7191 26.043 84.0631 25.9587 84.4186 25.79L84.61 26.9316C84.0722 27.0684 83.4821 27.1367 82.8395 27.1367C82.2607 27.1367 81.7708 26.9225 81.3698 26.4941C80.9733 26.0612 80.775 25.5166 80.775 24.8604V20.7041ZM84.9725 23.3223C84.9725 22.1921 85.2755 21.2806 85.8816 20.5879C86.4923 19.8906 87.2944 19.542 88.2879 19.542C89.3361 19.542 90.1495 19.877 90.7283 20.5469C91.3071 21.2122 91.5965 22.1374 91.5965 23.3223C91.5965 24.5026 91.3003 25.4346 90.7078 26.1182C90.1154 26.7972 89.3087 27.1367 88.2879 27.1367C87.2443 27.1367 86.4308 26.7926 85.8475 26.1045C85.2641 25.4163 84.9725 24.4889 84.9725 23.3223ZM86.3396 23.3223C86.3396 25.1589 86.9891 26.0771 88.2879 26.0771C88.894 26.0771 89.368 25.8311 89.7098 25.3389C90.0561 24.8467 90.2293 24.1745 90.2293 23.3223C90.2293 21.5085 89.5822 20.6016 88.2879 20.6016C87.6954 20.6016 87.2215 20.8431 86.866 21.3262C86.5151 21.8092 86.3396 22.4746 86.3396 23.3223ZM97.8448 27H96.7443L100.374 16.9443H101.461L97.8448 27ZM113.616 17.3545L113.158 18.5234C112.72 18.2044 112.032 18.0449 111.093 18.0449C110.214 18.0449 109.507 18.4232 108.974 19.1797C108.445 19.9362 108.181 20.9115 108.181 22.1055C108.181 23.2448 108.452 24.1699 108.995 24.8809C109.541 25.5872 110.246 25.9404 111.107 25.9404C112.046 25.9404 112.768 25.6077 113.274 24.9424L114.026 25.9883C113.233 26.7767 112.212 27.1709 110.963 27.1709C109.655 27.1709 108.625 26.6992 107.873 25.7559C107.122 24.8125 106.746 23.5684 106.746 22.0234C106.746 20.5286 107.147 19.2868 107.949 18.2979C108.751 17.3089 109.788 16.8145 111.059 16.8145C112.148 16.8145 113 16.9945 113.616 17.3545ZM119.071 20.9297C118.788 20.7337 118.504 20.6357 118.216 20.6357C117.756 20.6357 117.353 20.8477 117.006 21.2715C116.665 21.6953 116.494 22.2057 116.494 22.8027V27H115.195V19.6787H116.494V20.8477C116.968 19.9772 117.672 19.542 118.606 19.542C118.838 19.542 119.173 19.583 119.611 19.665L119.071 20.9297ZM126.29 23.4658H121.012C121.012 24.3226 121.247 24.9811 121.717 25.4414C122.131 25.8424 122.664 26.043 123.316 26.043C124.059 26.043 124.679 25.8265 125.176 25.3936L125.722 26.3301C125.522 26.5306 125.214 26.7038 124.8 26.8496C124.28 27.041 123.701 27.1367 123.063 27.1367C122.143 27.1367 121.361 26.8245 120.719 26.2002C120.003 25.512 119.645 24.5869 119.645 23.4248C119.645 22.2171 120.012 21.2487 120.746 20.5195C121.402 19.8678 122.179 19.542 123.077 19.542C124.121 19.542 124.939 19.8359 125.531 20.4238C126.105 20.9889 126.392 21.7386 126.392 22.6729C126.392 22.96 126.358 23.2243 126.29 23.4658ZM123.138 20.6357C122.56 20.6357 122.074 20.8226 121.682 21.1963C121.309 21.5518 121.097 21.9938 121.047 22.5225H125.1C125.1 21.9984 124.936 21.5609 124.608 21.21C124.248 20.8271 123.758 20.6357 123.138 20.6357ZM124.834 15.9395L123.289 18.2158H122.332L123.487 15.9395H124.834ZM131.998 26.9932V26.4531C131.547 26.9043 130.891 27.1299 130.029 27.1299C129.113 27.1299 128.37 26.8018 127.801 26.1455C127.231 25.4893 126.946 24.6143 126.946 23.5205C126.946 22.4222 127.274 21.4857 127.931 20.7109C128.587 19.9316 129.368 19.542 130.275 19.542C131.032 19.542 131.606 19.7197 131.998 20.0752V16.6777H133.297V26.9932H131.998ZM131.998 21.374C131.67 20.8818 131.221 20.6357 130.651 20.6357C129.954 20.6357 129.389 20.8955 128.956 21.415C128.528 21.9346 128.313 22.5954 128.313 23.3975C128.313 25.1611 129.115 26.043 130.72 26.043C130.925 26.043 131.171 25.9792 131.458 25.8516C131.745 25.7194 131.925 25.5804 131.998 25.4346V21.374ZM136.093 16.9102C136.316 16.9102 136.505 16.9899 136.66 17.1494C136.82 17.3044 136.899 17.4912 136.899 17.71C136.899 17.9333 136.82 18.1247 136.66 18.2842C136.505 18.4391 136.316 18.5166 136.093 18.5166C135.874 18.5166 135.685 18.4391 135.525 18.2842C135.371 18.1247 135.293 17.9333 135.293 17.71C135.293 17.4867 135.371 17.2975 135.525 17.1426C135.68 16.9876 135.87 16.9102 136.093 16.9102ZM135.382 27V20.7725H134.377V19.6787H136.681V27H135.382ZM138.8 20.7041H137.952V19.6787H138.8V18.1475L140.099 17.6484V19.6787H142.109V20.7041H140.099V24.3408C140.099 24.9561 140.201 25.3936 140.406 25.6533C140.616 25.9131 140.951 26.043 141.411 26.043C141.744 26.043 142.088 25.9587 142.444 25.79L142.635 26.9316C142.097 27.0684 141.507 27.1367 140.864 27.1367C140.286 27.1367 139.796 26.9225 139.395 26.4941C138.998 26.0612 138.8 25.5166 138.8 24.8604V20.7041ZM142.997 23.3223C142.997 22.1921 143.301 21.2806 143.907 20.5879C144.517 19.8906 145.319 19.542 146.313 19.542C147.361 19.542 148.175 19.877 148.753 20.5469C149.332 21.2122 149.621 22.1374 149.621 23.3223C149.621 24.5026 149.325 25.4346 148.733 26.1182C148.14 26.7972 147.334 27.1367 146.313 27.1367C145.269 27.1367 144.456 26.7926 143.872 26.1045C143.289 25.4163 142.997 24.4889 142.997 23.3223ZM144.365 23.3223C144.365 25.1589 145.014 26.0771 146.313 26.0771C146.919 26.0771 147.393 25.8311 147.735 25.3389C148.081 24.8467 148.254 24.1745 148.254 23.3223C148.254 21.5085 147.607 20.6016 146.313 20.6016C145.72 20.6016 145.246 20.8431 144.891 21.3262C144.54 21.8092 144.365 22.4746 144.365 23.3223Z" fill="#757878"/>
<path fill-rule="evenodd" clip-rule="evenodd" d="M291.5 33C291.244 33 290.988 32.902 290.793 32.707C290.402 32.316 290.402 31.684 290.793 31.293L294.098 27.988L290.918 24.695C290.535 24.297 290.546 23.664 290.943 23.281C291.341 22.898 291.974 22.909 292.357 23.305L296.219 27.305C296.598 27.698 296.593 28.321 296.207 28.707L292.207 32.707C292.012 32.902 291.756 33 291.5 33Z" fill="#757878"/>
<path d="M198.518 31.6836L198.025 34.4902H196.912L198.143 27.5996C198.197 27.2988 198.225 27.0039 198.225 26.7148C198.225 26.418 198.195 26.1289 198.137 25.8477L199.256 25.6367C199.275 25.6875 199.311 25.9551 199.361 26.4395C199.545 26.2129 199.809 26.0234 200.152 25.8711C200.496 25.7148 200.816 25.6367 201.113 25.6367C201.895 25.6367 202.479 25.8301 202.865 26.2168C203.256 26.6035 203.451 27.1855 203.451 27.9629C203.451 29.1504 203.121 30.1445 202.461 30.9453C201.805 31.7461 200.941 32.1465 199.871 32.1465C199.641 32.1465 199.375 32.1016 199.074 32.0117C198.777 31.9219 198.592 31.8125 198.518 31.6836ZM198.682 30.7637C198.752 30.8887 198.895 30.9941 199.109 31.0801C199.324 31.166 199.525 31.209 199.713 31.209C200.529 31.209 201.158 30.9336 201.6 30.3828C202.045 29.8281 202.268 29.0723 202.268 28.1152C202.268 27.5996 202.137 27.2148 201.875 26.9609C201.617 26.7031 201.229 26.5742 200.709 26.5742C200.482 26.5742 200.219 26.6543 199.918 26.8145C199.621 26.9707 199.41 27.1348 199.285 27.3066L198.682 30.7637ZM208.174 26.8262C207.94 26.6387 207.666 26.5449 207.354 26.5449C206.959 26.5449 206.582 26.7285 206.223 27.0957C205.863 27.459 205.639 27.8945 205.549 28.4023L204.91 32H203.797L204.904 25.7246H206.018L205.842 26.7266C206.381 25.9805 207.051 25.6074 207.852 25.6074C207.988 25.6074 208.201 25.6348 208.49 25.6895L208.174 26.8262ZM208.303 29.6914C208.303 28.5703 208.631 27.6094 209.287 26.8086C209.944 26.0078 210.778 25.6074 211.789 25.6074C212.551 25.6074 213.133 25.8145 213.535 26.2285C213.938 26.6387 214.139 27.2227 214.139 27.9805C214.139 28.582 214.018 29.207 213.776 29.8555C213.537 30.5039 213.145 31.043 212.598 31.4727C212.055 31.9023 211.403 32.1172 210.641 32.1172C209.887 32.1172 209.309 31.9062 208.907 31.4844C208.504 31.0586 208.303 30.4609 208.303 29.6914ZM209.475 29.6211C209.475 30.6797 209.918 31.209 210.805 31.209C211.465 31.209 211.989 30.8887 212.375 30.248C212.766 29.6074 212.961 28.8672 212.961 28.0273C212.961 27.0195 212.518 26.5156 211.631 26.5156C211.182 26.5156 210.785 26.6758 210.442 26.9961C210.102 27.3164 209.856 27.7266 209.703 28.2266C209.551 28.7266 209.475 29.1914 209.475 29.6211ZM213.248 22.8711L211.924 24.8223H211.104L212.094 22.8711H213.248ZM218.018 32L216.916 29.7969L215.188 32H213.829L216.413 28.7363L214.831 25.7246H216.143L217.18 27.9043L218.774 25.7246H220.239L217.737 28.8301L219.465 32H218.018ZM222.12 23.2637C222.335 23.2637 222.518 23.3398 222.671 23.4922C222.823 23.6406 222.899 23.8242 222.899 24.043C222.899 24.2578 222.823 24.4414 222.671 24.5938C222.518 24.7422 222.335 24.8164 222.12 24.8164C221.905 24.8164 221.721 24.7422 221.569 24.5938C221.417 24.4414 221.34 24.2578 221.34 24.043C221.34 23.8242 221.417 23.6406 221.569 23.4922C221.721 23.3398 221.905 23.2637 222.12 23.2637ZM220.321 32L221.27 26.6621H220.438L220.643 25.7422H222.559L221.452 32H220.321ZM230.393 32L231.096 28.0273C231.124 27.8711 231.138 27.7207 231.138 27.5762C231.138 26.8887 230.792 26.5449 230.1 26.5449C229.846 26.5449 229.589 26.625 229.327 26.7852C229.069 26.9414 228.874 27.1328 228.741 27.3594L227.921 32H226.778L227.569 27.541C227.581 27.4746 227.587 27.4141 227.587 27.3594C227.587 26.8164 227.218 26.5449 226.479 26.5449C226.257 26.5449 226.009 26.6309 225.735 26.8027C225.462 26.9746 225.255 27.1641 225.114 27.3711L224.294 32H223.157L223.966 27.4238C223.989 27.291 224.001 27.1074 224.001 26.873C224.001 26.4395 223.962 26.0879 223.884 25.8184L224.968 25.6133C225.038 25.9141 225.079 26.1875 225.091 26.4336C225.247 26.1797 225.505 25.9785 225.864 25.8301C226.227 25.6816 226.604 25.6074 226.995 25.6074C227.889 25.6074 228.468 25.8867 228.729 26.4453C228.901 26.2031 229.171 26.0039 229.538 25.8477C229.905 25.6875 230.268 25.6074 230.628 25.6074C231.764 25.6074 232.333 26.1504 232.333 27.2363C232.333 27.416 232.315 27.6055 232.28 27.8047L231.536 32H230.393ZM238.497 26.1172L237.729 29.7676C237.698 29.916 237.683 30.0957 237.683 30.3066C237.683 30.916 237.778 31.4805 237.97 32H236.833C236.77 31.875 236.704 31.6641 236.634 31.3672C236.45 31.5898 236.177 31.7715 235.813 31.9121C235.45 32.0488 235.065 32.1172 234.659 32.1172C234.042 32.1172 233.56 31.9355 233.212 31.5723C232.868 31.2051 232.696 30.6797 232.696 29.9961C232.696 28.8477 233.034 27.8301 233.71 26.9434C234.39 26.0527 235.263 25.6074 236.329 25.6074C237.337 25.6074 238.06 25.7773 238.497 26.1172ZM237.267 26.7676C237.161 26.5996 236.806 26.5156 236.2 26.5156C235.583 26.5156 235.04 26.8438 234.571 27.5C234.103 28.1562 233.868 28.9766 233.868 29.9609C233.868 30.793 234.239 31.209 234.981 31.209C235.368 31.209 235.731 31.0098 236.071 30.6113C236.411 30.209 236.647 29.6953 236.78 29.0703L237.267 26.7676ZM245.839 32L246.542 28.0273C246.569 27.8711 246.583 27.7207 246.583 27.5762C246.583 26.8887 246.237 26.5449 245.546 26.5449C245.292 26.5449 245.034 26.625 244.773 26.7852C244.515 26.9414 244.319 27.1328 244.187 27.3594L243.366 32H242.224L243.015 27.541C243.026 27.4746 243.032 27.4141 243.032 27.3594C243.032 26.8164 242.663 26.5449 241.925 26.5449C241.702 26.5449 241.454 26.6309 241.181 26.8027C240.907 26.9746 240.7 27.1641 240.56 27.3711L239.739 32H238.603L239.411 27.4238C239.435 27.291 239.446 27.1074 239.446 26.873C239.446 26.4395 239.407 26.0879 239.329 25.8184L240.413 25.6133C240.484 25.9141 240.525 26.1875 240.536 26.4336C240.693 26.1797 240.95 25.9785 241.31 25.8301C241.673 25.6816 242.05 25.6074 242.441 25.6074C243.335 25.6074 243.913 25.8867 244.175 26.4453C244.347 26.2031 244.616 26.0039 244.984 25.8477C245.351 25.6875 245.714 25.6074 246.073 25.6074C247.21 25.6074 247.778 26.1504 247.778 27.2363C247.778 27.416 247.761 27.6055 247.726 27.8047L246.982 32H245.839ZM249.601 29.0352C249.566 29.2227 249.548 29.4023 249.548 29.5742C249.548 30.0898 249.693 30.4863 249.982 30.7637C250.271 31.041 250.675 31.1797 251.195 31.1797C251.656 31.1797 252.12 31.0098 252.589 30.6699L252.472 31.8066C251.847 32.0137 251.294 32.1172 250.814 32.1172C249.197 32.1172 248.388 31.2109 248.388 29.3984C248.388 28.332 248.728 27.4336 249.408 26.7031C250.087 25.9727 250.943 25.6074 251.974 25.6074C252.595 25.6074 253.091 25.7402 253.462 26.0059C253.833 26.2715 254.019 26.6504 254.019 27.1426C254.019 27.8262 253.73 28.3652 253.152 28.7598C252.574 29.1543 251.865 29.3516 251.025 29.3516C250.462 29.3516 249.988 29.2461 249.601 29.0352ZM249.794 28.2266C250.091 28.3594 250.441 28.4258 250.843 28.4258C251.452 28.4258 251.95 28.3281 252.337 28.1328C252.724 27.9336 252.917 27.6445 252.917 27.2656C252.917 26.7852 252.585 26.5449 251.921 26.5449C250.909 26.5449 250.2 27.1055 249.794 28.2266ZM258.08 32L258.736 28.3496C258.794 28.0254 258.824 27.7559 258.824 27.541C258.824 26.877 258.478 26.5449 257.787 26.5449C257.521 26.5449 257.236 26.623 256.931 26.7793C256.63 26.9355 256.39 27.1211 256.21 27.3359L255.396 32H254.271L255.115 27.2422C255.134 27.1328 255.144 27.0039 255.144 26.8555C255.144 26.457 255.103 26.1113 255.021 25.8184L256.099 25.6074C256.205 26.1777 256.255 26.4883 256.251 26.5391C256.728 25.918 257.415 25.6074 258.314 25.6074C259.447 25.6074 260.013 26.1855 260.013 27.3418C260.013 27.5723 259.988 27.8301 259.937 28.1152L259.263 32H258.08ZM261.847 26.6035H261.121L261.308 25.7246H262.035L262.293 24.4121L263.564 23.9316L263.148 25.7246H264.871L264.683 26.6035H262.961L262.304 29.7207C262.254 29.9629 262.228 30.1504 262.228 30.2832C262.228 30.8809 262.525 31.1797 263.119 31.1797C263.408 31.1797 263.718 31.1074 264.05 30.9629L264.009 31.9414C263.689 32.0586 263.171 32.1172 262.457 32.1172C262.011 32.1172 261.664 31.9805 261.414 31.707C261.168 31.4297 261.045 31.0508 261.045 30.5703C261.045 30.4609 261.062 30.3262 261.097 30.166L261.847 26.6035ZM266.418 29.0352C266.383 29.2227 266.365 29.4023 266.365 29.5742C266.365 30.0898 266.51 30.4863 266.799 30.7637C267.088 31.041 267.492 31.1797 268.011 31.1797C268.472 31.1797 268.937 31.0098 269.406 30.6699L269.289 31.8066C268.664 32.0137 268.111 32.1172 267.631 32.1172C266.013 32.1172 265.205 31.2109 265.205 29.3984C265.205 28.332 265.545 27.4336 266.224 26.7031C266.904 25.9727 267.76 25.6074 268.791 25.6074C269.412 25.6074 269.908 25.7402 270.279 26.0059C270.65 26.2715 270.836 26.6504 270.836 27.1426C270.836 27.8262 270.547 28.3652 269.969 28.7598C269.39 29.1543 268.681 29.3516 267.842 29.3516C267.279 29.3516 266.804 29.2461 266.418 29.0352ZM266.611 28.2266C266.908 28.3594 267.258 28.4258 267.66 28.4258C268.269 28.4258 268.767 28.3281 269.154 28.1328C269.541 27.9336 269.734 27.6445 269.734 27.2656C269.734 26.7852 269.402 26.5449 268.738 26.5449C267.726 26.5449 267.017 27.1055 266.611 28.2266Z" fill="#757878"/>
<path d="M54.5869 40.7119V43.0508H53.6592V35.7705H54.5869V36.2002C54.9385 35.8486 55.3633 35.6729 55.8613 35.6729C56.6035 35.6729 57.1813 35.904 57.5947 36.3662C58.0081 36.8285 58.2148 37.5055 58.2148 38.3975C58.2148 39.1917 58.0065 39.8411 57.5898 40.3457C57.1732 40.847 56.571 41.0977 55.7832 41.0977C55.5618 41.0977 55.3242 41.0586 55.0703 40.9805C54.8197 40.9023 54.6585 40.8128 54.5869 40.7119ZM54.5869 36.8984V39.9453C54.6455 40.0332 54.7692 40.1178 54.958 40.1992C55.1468 40.2773 55.3307 40.3164 55.5098 40.3164C56.6621 40.3164 57.2383 39.6654 57.2383 38.3633C57.2383 37.7025 57.1016 37.2191 56.8281 36.9131C56.5547 36.6071 56.1169 36.4541 55.5146 36.4541C55.3844 36.4541 55.2249 36.4997 55.0361 36.5908C54.8473 36.682 54.6976 36.7845 54.5869 36.8984ZM61.7795 40.3994C61.4084 40.8649 60.8403 41.0977 60.0754 41.0977C59.6652 41.0977 59.3088 40.9495 59.006 40.6533C58.7065 40.3538 58.5568 39.9827 58.5568 39.54C58.5568 39.0094 58.7879 38.5618 59.2502 38.1973C59.7157 37.8294 60.3081 37.6455 61.0275 37.6455C61.2228 37.6455 61.4442 37.6878 61.6916 37.7725C61.6916 36.9261 61.314 36.5029 60.5588 36.5029C59.9793 36.5029 59.5334 36.6592 59.2209 36.9717L58.8302 36.1953C59.006 36.0521 59.2485 35.93 59.5578 35.8291C59.8703 35.7249 60.1681 35.6729 60.4513 35.6729C61.2098 35.6729 61.7599 35.8454 62.1017 36.1904C62.4468 36.5355 62.6193 37.084 62.6193 37.8359V39.7109C62.6193 40.1699 62.756 40.4759 63.0295 40.6289V41.0928C62.6518 41.0928 62.3686 41.0391 62.1798 40.9316C61.9943 40.8242 61.8608 40.6468 61.7795 40.3994ZM61.6916 38.4316C61.3986 38.3665 61.1935 38.334 61.0763 38.334C60.6076 38.334 60.2251 38.4544 59.9289 38.6953C59.6326 38.9362 59.4845 39.221 59.4845 39.5498C59.4845 40.0934 59.8052 40.3652 60.4464 40.3652C60.9152 40.3652 61.3302 40.1423 61.6916 39.6963V38.4316ZM63.4788 42.4307L63.9818 41.6885C64.5221 42.0498 65.0202 42.2305 65.4759 42.2305C65.8958 42.2305 66.2262 42.1572 66.4671 42.0107C66.7113 41.8675 66.8333 41.6885 66.8333 41.4736C66.8333 41.0505 66.5273 40.8389 65.9154 40.8389C65.8112 40.8389 65.6224 40.8649 65.3489 40.917C65.0755 40.9691 64.8623 40.9951 64.7093 40.9951C63.9671 40.9951 63.596 40.7152 63.596 40.1553C63.596 39.9827 63.6823 39.8265 63.8548 39.6865C64.0306 39.5465 64.2471 39.4456 64.5042 39.3838C63.7685 39.0387 63.4007 38.4398 63.4007 37.5869C63.4007 37.04 63.5911 36.5843 63.972 36.2197C64.3529 35.8551 64.8232 35.6729 65.3831 35.6729C65.8974 35.6729 66.2995 35.7786 66.5892 35.9902L67.053 35.4336L67.6585 36.0049L67.1019 36.4248C67.3395 36.734 67.4583 37.1377 67.4583 37.6357C67.4583 38.1631 67.2939 38.6058 66.9652 38.9639C66.6364 39.3219 66.2051 39.527 65.6712 39.5791L64.9046 39.6572C64.8135 39.667 64.6914 39.7028 64.5384 39.7646C64.3854 39.8232 64.3089 39.9014 64.3089 39.999C64.3089 40.1325 64.4684 40.1992 64.7874 40.1992C64.9274 40.1992 65.1455 40.1748 65.4417 40.126C65.7379 40.0739 65.9577 40.0479 66.1009 40.0479C66.6152 40.0479 67.0156 40.1715 67.3021 40.4189C67.5918 40.6631 67.7366 41.0033 67.7366 41.4395C67.7366 41.9212 67.5202 42.3102 67.0872 42.6064C66.6575 42.9027 66.1123 43.0508 65.4515 43.0508C65.1129 43.0508 64.7565 42.9906 64.3821 42.8701C64.0078 42.7497 63.7067 42.6032 63.4788 42.4307ZM65.4466 36.4199C65.1243 36.4199 64.8607 36.5339 64.6556 36.7617C64.4538 36.9896 64.3529 37.2663 64.3529 37.5918C64.3529 37.9564 64.4505 38.2591 64.6458 38.5C64.8444 38.7376 65.1113 38.8564 65.4466 38.8564C65.7754 38.8564 66.0325 38.7409 66.2181 38.5098C66.4036 38.2754 66.4964 37.9694 66.4964 37.5918C66.4964 37.2663 66.3955 36.9896 66.1937 36.7617C65.9951 36.5339 65.7461 36.4199 65.4466 36.4199ZM67.937 38.373C67.937 37.5658 68.1535 36.9147 68.5864 36.4199C69.0226 35.9219 69.5955 35.6729 70.3052 35.6729C71.0539 35.6729 71.6349 35.9121 72.0483 36.3906C72.4617 36.8659 72.6684 37.5267 72.6684 38.373C72.6684 39.2161 72.4568 39.8818 72.0337 40.3701C71.6105 40.8551 71.0343 41.0977 70.3052 41.0977C69.5597 41.0977 68.9787 40.8519 68.562 40.3604C68.1453 39.8688 67.937 39.2064 67.937 38.373ZM68.9136 38.373C68.9136 39.6849 69.3774 40.3408 70.3052 40.3408C70.7381 40.3408 71.0766 40.165 71.3208 39.8135C71.5682 39.4619 71.6919 38.9818 71.6919 38.373C71.6919 37.0775 71.2296 36.4297 70.3052 36.4297C69.882 36.4297 69.5434 36.6022 69.2895 36.9473C69.0389 37.2923 68.9136 37.7676 68.9136 38.373ZM78.8016 40.3994C78.4305 40.8649 77.8624 41.0977 77.0975 41.0977C76.6873 41.0977 76.3309 40.9495 76.0281 40.6533C75.7286 40.3538 75.5789 39.9827 75.5789 39.54C75.5789 39.0094 75.81 38.5618 76.2723 38.1973C76.7378 37.8294 77.3302 37.6455 78.0496 37.6455C78.2449 37.6455 78.4663 37.6878 78.7137 37.7725C78.7137 36.9261 78.3361 36.5029 77.5809 36.5029C77.0014 36.5029 76.5555 36.6592 76.243 36.9717L75.8523 36.1953C76.0281 36.0521 76.2706 35.93 76.5799 35.8291C76.8924 35.7249 77.1902 35.6729 77.4734 35.6729C78.2319 35.6729 78.782 35.8454 79.1238 36.1904C79.4689 36.5355 79.6414 37.084 79.6414 37.8359V39.7109C79.6414 40.1699 79.7781 40.4759 80.0516 40.6289V41.0928C79.674 41.0928 79.3908 41.0391 79.202 40.9316C79.0164 40.8242 78.8829 40.6468 78.8016 40.3994ZM78.7137 38.4316C78.4207 38.3665 78.2156 38.334 78.0984 38.334C77.6297 38.334 77.2472 38.4544 76.951 38.6953C76.6548 38.9362 76.5066 39.221 76.5066 39.5498C76.5066 40.0934 76.8273 40.3652 77.4686 40.3652C77.9373 40.3652 78.3523 40.1423 78.7137 39.6963V38.4316ZM81.0234 36.5029H80.4179V35.7705H81.0234V34.6768L81.9511 34.3203V35.7705H83.3867V36.5029H81.9511V39.1006C81.9511 39.54 82.0244 39.8525 82.1709 40.0381C82.3206 40.2236 82.5599 40.3164 82.8886 40.3164C83.1263 40.3164 83.372 40.2562 83.6259 40.1357L83.7627 40.9512C83.3785 41.0488 82.957 41.0977 82.498 41.0977C82.0846 41.0977 81.7347 40.9447 81.4482 40.6387C81.165 40.3294 81.0234 39.9404 81.0234 39.4717V36.5029ZM88.6505 38.4756H84.881C84.881 39.0876 85.0486 39.5579 85.3839 39.8867C85.6801 40.1732 86.061 40.3164 86.5265 40.3164C87.0571 40.3164 87.4998 40.1618 87.8546 39.8525L88.2452 40.5215C88.102 40.6647 87.8823 40.7884 87.5861 40.8926C87.215 41.0293 86.8015 41.0977 86.3458 41.0977C85.6883 41.0977 85.13 40.8747 84.671 40.4287C84.1599 39.9372 83.9044 39.2764 83.9044 38.4463C83.9044 37.5837 84.1665 36.8919 84.6905 36.3711C85.1593 35.9056 85.7143 35.6729 86.3556 35.6729C87.101 35.6729 87.6853 35.8828 88.1085 36.3027C88.5187 36.7064 88.7237 37.2419 88.7237 37.9092C88.7237 38.1143 88.6993 38.3031 88.6505 38.4756ZM86.3995 36.4541C85.9861 36.4541 85.6394 36.5876 85.3595 36.8545C85.0926 37.1084 84.9412 37.4242 84.9054 37.8018H87.8009C87.8009 37.4274 87.6837 37.1149 87.4493 36.8643C87.1922 36.5908 86.8422 36.4541 86.3995 36.4541ZM92.513 41V37.958C92.513 37.4014 92.4283 37.0124 92.2591 36.791C92.093 36.5664 91.8131 36.4541 91.4192 36.4541C91.2076 36.4541 90.9863 36.5176 90.7552 36.6445C90.524 36.7715 90.3466 36.9277 90.2229 37.1133V41H89.2952V35.7705H89.93L90.2229 36.4443C90.5289 35.93 91.0286 35.6729 91.722 35.6729C92.8678 35.6729 93.4407 36.3695 93.4407 37.7627V41H92.513ZM97.6694 40.9951V40.6094C97.3471 40.9316 96.8784 41.0928 96.2631 41.0928C95.6088 41.0928 95.0782 40.8584 94.6713 40.3896C94.2644 39.9209 94.061 39.2959 94.061 38.5146C94.061 37.7301 94.2954 37.0612 94.7641 36.5078C95.2329 35.9512 95.7911 35.6729 96.4389 35.6729C96.9793 35.6729 97.3894 35.7998 97.6694 36.0537V33.627H98.5971V40.9951H97.6694ZM97.6694 36.9814C97.435 36.6299 97.1144 36.4541 96.7075 36.4541C96.2094 36.4541 95.8058 36.6396 95.4965 37.0107C95.1905 37.3818 95.0375 37.8538 95.0375 38.4268C95.0375 39.6865 95.6105 40.3164 96.7563 40.3164C96.9028 40.3164 97.0786 40.2708 97.2836 40.1797C97.4887 40.0853 97.6173 39.986 97.6694 39.8818V36.9814ZM103.924 38.4756H100.155C100.155 39.0876 100.323 39.5579 100.658 39.8867C100.954 40.1732 101.335 40.3164 101.8 40.3164C102.331 40.3164 102.774 40.1618 103.129 39.8525L103.519 40.5215C103.376 40.6647 103.156 40.7884 102.86 40.8926C102.489 41.0293 102.075 41.0977 101.62 41.0977C100.962 41.0977 100.404 40.8747 99.9449 40.4287C99.4339 39.9372 99.1783 39.2764 99.1783 38.4463C99.1783 37.5837 99.4404 36.8919 99.9645 36.3711C100.433 35.9056 100.988 35.6729 101.629 35.6729C102.375 35.6729 102.959 35.8828 103.382 36.3027C103.793 36.7064 103.998 37.2419 103.998 37.9092C103.998 38.1143 103.973 38.3031 103.924 38.4756ZM101.673 36.4541C101.26 36.4541 100.913 36.5876 100.633 36.8545C100.366 37.1084 100.215 37.4242 100.179 37.8018H103.075C103.075 37.4274 102.958 37.1149 102.723 36.8643C102.466 36.5908 102.116 36.4541 101.673 36.4541ZM107.885 40.9951V40.6094C107.562 40.9316 107.094 41.0928 106.478 41.0928C105.824 41.0928 105.293 40.8584 104.886 40.3896C104.48 39.9209 104.276 39.2959 104.276 38.5146C104.276 37.7301 104.511 37.0612 104.979 36.5078C105.448 35.9512 106.006 35.6729 106.654 35.6729C107.194 35.6729 107.605 35.7998 107.885 36.0537V33.627H108.812V40.9951H107.885ZM107.885 36.9814C107.65 36.6299 107.33 36.4541 106.923 36.4541C106.425 36.4541 106.021 36.6396 105.712 37.0107C105.406 37.3818 105.253 37.8538 105.253 38.4268C105.253 39.6865 105.826 40.3164 106.971 40.3164C107.118 40.3164 107.294 40.2708 107.499 40.1797C107.704 40.0853 107.832 39.986 107.885 39.8818V36.9814ZM109.393 38.373C109.393 37.5658 109.61 36.9147 110.043 36.4199C110.479 35.9219 111.052 35.6729 111.762 35.6729C112.51 35.6729 113.091 35.9121 113.505 36.3906C113.918 36.8659 114.125 37.5267 114.125 38.373C114.125 39.2161 113.913 39.8818 113.49 40.3701C113.067 40.8551 112.491 41.0977 111.762 41.0977C111.016 41.0977 110.435 40.8519 110.018 40.3604C109.602 39.8688 109.393 39.2064 109.393 38.373ZM110.37 38.373C110.37 39.6849 110.834 40.3408 111.762 40.3408C112.195 40.3408 112.533 40.165 112.777 39.8135C113.025 39.4619 113.148 38.9818 113.148 38.373C113.148 37.0775 112.686 36.4297 111.762 36.4297C111.338 36.4297 111 36.6022 110.746 36.9473C110.495 37.2923 110.37 37.7676 110.37 38.373ZM117.538 36.6641C117.336 36.5241 117.133 36.4541 116.928 36.4541C116.599 36.4541 116.311 36.6055 116.064 36.9082C115.819 37.2109 115.697 37.5755 115.697 38.002V41H114.77V35.7705H115.697V36.6055C116.036 35.9837 116.539 35.6729 117.206 35.6729C117.372 35.6729 117.611 35.7021 117.924 35.7607L117.538 36.6641Z" fill="#757878"/>
<path d="M27.1429 23H40.8571C41.4857 23 42 23.5684 42 24.2632V33.7368C42 34.4316 41.4857 35 40.8571 35H27.1429C26.5143 35 26 34.4316 26 33.7368V24.2632C26 23.5684 26.5143 23 27.1429 23Z" stroke="#757878" stroke-width="1.8" stroke-linecap="round" stroke-linejoin="round"/>
<path d="M26 26.1578H42" stroke="#757878" stroke-width="1.8" stroke-linecap="round" stroke-linejoin="round"/>
<path d="M28.2854 29.5781H31.1425" stroke="#757878" stroke-width="1.8" stroke-linecap="round" stroke-linejoin="round"/>
<path d="M28.2852 32H32.8566" stroke="#757878" stroke-width="1.8" stroke-linecap="round" stroke-linejoin="round"/>
</svg>
