<svg width="94" height="24" viewBox="0 0 94 24" fill="none" xmlns="http://www.w3.org/2000/svg">
<path d="M77.7909 5.36453C77.6542 5.20714 77.4417 5.1041 77.1817 5.1041C76.9216 5.1041 76.7027 5.20714 76.5653 5.36453C76.3808 5.56986 76.3328 5.79556 76.3328 6.7335C76.3328 7.67142 76.3808 7.8975 76.5653 8.10283C76.7027 8.26022 76.9216 8.36288 77.1817 8.36288C77.4417 8.36288 77.6542 8.26022 77.7909 8.10283C77.9758 7.8975 78.0305 7.67142 78.0305 6.7335C78.0305 5.79556 77.9758 5.56986 77.7909 5.36453ZM78.4959 8.67765C78.1536 9.01999 77.7362 9.21173 77.1817 9.21173C76.6272 9.21173 76.2026 9.01999 75.8603 8.67765C75.3674 8.18472 75.3813 7.57555 75.3813 6.7335C75.3813 5.89143 75.3674 5.28225 75.8603 4.78932C76.2026 4.44736 76.6272 4.25525 77.1817 4.25525C77.7362 4.25525 78.1536 4.44736 78.4959 4.78932C78.9889 5.28225 78.9821 5.89143 78.9821 6.7335C78.9821 7.57555 78.9889 8.18472 78.4959 8.67765Z" fill="#D6006D"/>
<path d="M82.5625 9.1707L80.6319 6.17915V9.1707H79.6804V4.29651H80.5297L82.4599 7.28127V4.29651H83.4118V9.1707H82.5625Z" fill="#D6006D"/>
<path d="M84.4115 9.1707V4.29651H87.6223V5.14536H85.363V6.28861H87.2868V7.13746H85.363V8.32185H87.6223V9.1707H84.4115Z" fill="#D6006D"/>
<path d="M77.1747 15.3686C76.6406 15.3686 76.2028 15.1772 75.8604 14.8345C75.3671 14.342 75.3815 13.7324 75.3815 12.8907C75.3815 12.0487 75.3671 11.4391 75.8604 10.9462C76.2028 10.6038 76.6406 10.4125 77.1747 10.4125C78.085 10.4125 78.7972 10.9326 78.9682 11.9528H78.0031C77.9073 11.5625 77.6608 11.2613 77.1818 11.2613C76.9214 11.2613 76.7093 11.3572 76.5723 11.5146C76.3873 11.7199 76.3326 11.9528 76.3326 12.8907C76.3326 13.8283 76.3873 14.0611 76.5723 14.2665C76.7093 14.4239 76.9214 14.5197 77.1818 14.5197C77.6608 14.5197 77.9073 14.2185 78.0031 13.8283H78.9682C78.7972 14.8485 78.0786 15.3686 77.1747 15.3686Z" fill="#D6006D"/>
<path d="M79.5164 15.3277V10.4535H80.4679V14.4785H82.2101V15.3277H79.5164Z" fill="#D6006D"/>
<path d="M83.8357 10.4532H82.8842V15.3275H83.8357V10.4532Z" fill="#D6006D"/>
<path d="M86.6093 15.3686C86.0752 15.3686 85.6374 15.1772 85.295 14.8345C84.8021 14.342 84.8157 13.7324 84.8157 12.8907C84.8157 12.0487 84.8021 11.4391 85.295 10.9462C85.6374 10.6038 86.0752 10.4125 86.6093 10.4125C87.5197 10.4125 88.2319 10.9326 88.4028 11.9528H87.4377C87.3419 11.5625 87.0954 11.2613 86.6161 11.2613C86.356 11.2613 86.1439 11.3572 86.0069 11.5146C85.8219 11.7199 85.7672 11.9528 85.7672 12.8907C85.7672 13.8283 85.8219 14.0611 86.0069 14.2665C86.1439 14.4239 86.356 14.5197 86.6161 14.5197C87.0954 14.5197 87.3419 14.2185 87.4377 13.8283H88.4028C88.2319 14.8485 87.5132 15.3686 86.6093 15.3686Z" fill="#D6006D"/>
<path d="M91.7975 15.3277L90.5448 13.1099L89.9148 13.8625V15.3277H88.9633V10.4535H89.9148V12.5754L91.6333 10.4535H92.7901L91.1744 12.3909L92.9064 15.3277H91.7975Z" fill="#D6006D"/>
<path d="M3.92075 20.6303C4.12115 20.6303 4.28347 20.4669 4.28347 20.2654C4.28347 20.0642 4.12115 19.9004 3.92075 19.9004C3.72107 19.9004 3.55878 20.0642 3.55878 20.2654C3.55878 20.4669 3.72107 20.6303 3.92075 20.6303Z" fill="#009FE3"/>
<path d="M31.98 23.491C32.1804 23.491 32.3427 23.3275 32.3427 23.126C32.3427 22.9244 32.1804 22.7606 31.98 22.7606C31.7799 22.7606 31.618 22.9244 31.618 23.126C31.618 23.3275 31.7799 23.491 31.98 23.491Z" fill="#69246F"/>
<path d="M14.8158 21.2795V21.2783C14.8146 20.8711 14.6735 20.528 14.4172 20.2963L14.3991 20.2804L14.3949 20.2766H14.3942C14.153 20.069 13.8261 19.96 13.4389 19.9566C13.4373 19.9562 13.4343 19.9558 13.4306 19.9558C13.4268 19.9558 13.4234 19.9562 13.4196 19.9566H13.417C13.4053 19.9566 13.3973 19.9569 13.3917 19.9569C13.3871 19.9569 13.38 19.9566 13.3713 19.9566H13.3656C13.3626 19.9566 13.3588 19.9558 13.3543 19.9558H13.3528H13.3509C13.349 19.9558 13.346 19.9558 13.3434 19.9566C12.9569 19.9607 12.6315 20.0694 12.3911 20.2766H12.39L12.3677 20.2963C12.1122 20.5269 11.9714 20.8688 11.9695 21.2734L11.9691 21.2738V21.2757L11.9669 23.3709C11.9669 23.3984 11.9789 23.426 11.9997 23.4456C12.0205 23.4656 12.0495 23.4769 12.0793 23.4769H12.4522C12.4813 23.4769 12.5104 23.4656 12.5315 23.4456C12.5526 23.426 12.5643 23.3984 12.5643 23.3709L12.5651 21.3463C12.5674 21.0496 12.6432 20.8394 12.7802 20.7005C12.9127 20.5657 13.1154 20.4899 13.3939 20.4846C13.6702 20.4899 13.8722 20.5657 14.005 20.7005C14.1417 20.8394 14.2175 21.0496 14.2198 21.3467L14.2194 23.3709C14.2194 23.3984 14.2315 23.426 14.2519 23.4456C14.2734 23.4656 14.3024 23.4769 14.3315 23.4769H14.7052C14.7346 23.4769 14.7637 23.4656 14.7844 23.4456C14.8059 23.426 14.8176 23.3984 14.8176 23.3709L14.8158 21.2795Z" fill="#D6006D"/>
<path d="M27.8175 21.2795V21.2783C27.8168 20.8711 27.6756 20.528 27.4189 20.2963L27.4008 20.2804L27.3971 20.2766H27.3959C27.1547 20.069 26.8283 19.96 26.441 19.9566C26.4395 19.9562 26.4361 19.9558 26.4327 19.9558C26.4289 19.9558 26.4255 19.9562 26.4217 19.9566H26.4187C26.4074 19.9566 26.3995 19.9569 26.3938 19.9569C26.3889 19.9569 26.3821 19.9566 26.3734 19.9566H26.3674C26.3648 19.9566 26.361 19.9558 26.3561 19.9558H26.355H26.3531C26.3508 19.9558 26.3482 19.9558 26.3451 19.9566C25.959 19.9607 25.6337 20.0694 25.3929 20.2766H25.3917L25.3698 20.2963C25.1143 20.5269 24.9732 20.8688 24.9713 21.2734V21.2738L24.9709 21.2757L24.9686 23.3709C24.9686 23.3984 24.9807 23.426 25.0015 23.4456C25.0226 23.4656 25.0517 23.4769 25.0811 23.4769H25.454C25.4831 23.4769 25.5121 23.4656 25.5333 23.4456C25.5544 23.426 25.5661 23.3984 25.5661 23.3709L25.5669 21.3463C25.5695 21.0496 25.6454 20.8394 25.782 20.7005C25.9149 20.5657 26.1172 20.4899 26.3961 20.4846C26.672 20.4899 26.8739 20.5657 27.0068 20.7005C27.1438 20.8394 27.2193 21.0496 27.2219 21.3467L27.2212 23.3709C27.2212 23.3984 27.2332 23.426 27.254 23.4456C27.2751 23.4656 27.3042 23.4769 27.3336 23.4769H27.7073C27.7367 23.4769 27.7654 23.4656 27.7866 23.4456C27.8077 23.426 27.8194 23.3984 27.8194 23.3709L27.8175 21.2795Z" fill="#D6006D"/>
<path d="M20.9559 20.3137C20.9541 20.3111 20.9522 20.3088 20.9495 20.3061C20.737 20.1106 20.3973 19.9891 20.004 19.9887C19.9988 19.988 19.9904 19.988 19.9825 19.988C19.6591 19.988 19.3401 20.0555 19.0623 20.2929V20.085H19.0627V19.0289C19.0627 19.001 19.051 18.9738 19.0302 18.9542C19.0091 18.9345 18.98 18.9229 18.9506 18.9229H18.583C18.5539 18.9229 18.5249 18.9345 18.5033 18.9542C18.4822 18.9738 18.4709 19.001 18.4709 19.0289V20.085V22.3262V23.3762C18.4709 23.4038 18.483 23.4313 18.5033 23.4506C18.5245 23.4706 18.5539 23.4819 18.5834 23.4819H18.9506C18.98 23.4819 19.0091 23.4706 19.0302 23.4506C19.0514 23.4313 19.0627 23.4038 19.0627 23.3762V23.1588C19.308 23.4332 19.6602 23.5276 19.9825 23.5272H20.0056C20.3981 23.5264 20.7378 23.4049 20.9495 23.2094C21.3454 22.8346 21.4357 22.2601 21.4372 21.7261C21.436 21.195 21.3454 20.687 20.9559 20.3137ZM20.8457 21.7261V21.7336V21.734V21.7419C20.845 22.0756 20.8095 22.4017 20.6827 22.6349C20.5577 22.8591 20.3573 23.009 19.9678 23.0154C19.9652 23.015 19.961 23.015 19.9531 23.0154H19.9467C19.5549 23.0112 19.3514 22.861 19.2261 22.6345C19.0982 22.4005 19.0623 22.0718 19.0623 21.7359V21.7159C19.0623 21.3818 19.0982 21.1146 19.2261 20.881C19.3514 20.6545 19.5549 20.5043 19.9467 20.5005H19.9493H19.9561H19.9618C20.3539 20.5043 20.5566 20.6545 20.683 20.8817C20.8102 21.1146 20.8457 21.3818 20.8457 21.7159V21.7261Z" fill="#D6006D"/>
<path d="M11.5514 21.1242V21.1219C11.5514 20.7664 11.4336 20.4618 11.186 20.2584C10.9358 20.0534 10.578 19.9572 10.1168 19.9568H10.1002H10.0938C9.60989 19.9553 9.22526 20.061 8.93237 20.3724L8.93164 20.3716L8.91464 20.3912C8.89275 20.4158 8.87123 20.441 8.85048 20.4675C8.85048 20.4675 8.84972 20.4682 8.84972 20.4686L8.81954 20.5041C8.8018 20.5252 8.79272 20.5535 8.7965 20.5826C8.79991 20.6116 8.81463 20.6392 8.83652 20.6585L8.8535 20.6728C8.85992 20.6807 8.86709 20.6879 8.87501 20.6947L8.94069 20.7483L9.11506 20.8989C9.13696 20.9185 9.16638 20.9291 9.19509 20.9276C9.22338 20.9264 9.25019 20.9136 9.26754 20.8921L9.37963 20.7592C9.44909 20.6837 9.5208 20.6301 9.60761 20.592C9.72952 20.5384 9.88654 20.5135 10.113 20.5113H10.1156L10.1232 20.5109C10.4455 20.512 10.6459 20.5769 10.7607 20.6781C10.875 20.777 10.9332 20.9268 10.9343 21.1597C10.9343 21.1612 10.9343 21.1654 10.9347 21.1706V21.3899H9.97788C9.59215 21.3911 9.26906 21.4782 9.03618 21.6602C8.80482 21.8376 8.67572 22.1112 8.67572 22.4298V22.4418C8.67648 22.7072 8.77611 22.9676 8.9573 23.1488C9.20262 23.39 9.52836 23.4779 10.0213 23.4779H10.0269H10.2764C10.7278 23.4779 11.0517 23.3666 11.26 23.1416C11.468 22.917 11.5514 22.5917 11.5514 22.1871V21.1303V21.1242ZM10.9347 22.204C10.9335 22.4845 10.8724 22.6392 10.7897 22.7117C10.5912 22.8948 10.3451 22.9223 10.0454 22.9231H10.042H10.0368C9.74802 22.9234 9.55854 22.8732 9.45061 22.7955C9.3487 22.7215 9.29624 22.6162 9.2932 22.4343V22.426C9.29548 22.246 9.34982 22.1335 9.45324 22.0542C9.56158 21.9719 9.7435 21.9183 10.0156 21.9183H10.0183H10.9347V22.204Z" fill="#D6006D"/>
<path d="M24.5568 21.1289V21.1263C24.5572 20.7715 24.4391 20.4673 24.1911 20.2639C23.942 20.0589 23.5838 19.9627 23.1226 19.9623H23.106H23.0996C22.6153 19.9612 22.2311 20.0665 21.9382 20.3778L21.9374 20.3767L21.9204 20.3967C21.8982 20.4209 21.8767 20.4462 21.8559 20.473C21.8559 20.473 21.8555 20.4733 21.8555 20.4737L21.8253 20.5092C21.8072 20.5303 21.7985 20.559 21.8023 20.5877C21.8053 20.6164 21.82 20.6443 21.8423 20.6636L21.8593 20.6783C21.8657 20.6858 21.8729 20.693 21.8808 20.6998L21.9461 20.7538L22.1205 20.9044C22.1428 20.9236 22.1722 20.9338 22.2005 20.9327C22.2288 20.9316 22.2556 20.9183 22.2733 20.8972L22.3854 20.7643C22.4549 20.6889 22.5266 20.6353 22.613 20.5971C22.7353 20.5435 22.8923 20.5186 23.1184 20.5168L23.1211 20.5164H23.129C23.4513 20.5168 23.6514 20.5824 23.7661 20.6832C23.8808 20.7821 23.939 20.9319 23.9397 21.1644C23.9397 21.1659 23.9397 21.1705 23.9405 21.1754V21.395H22.9837C22.5979 21.3958 22.2749 21.483 22.042 21.6645C21.8106 21.8419 21.6815 22.1156 21.6812 22.4341L21.6815 22.4462C21.6823 22.7115 21.7819 22.9716 21.9631 23.1524C22.208 23.3936 22.5342 23.4811 23.0271 23.4811H23.0324H23.2822C23.7333 23.4815 24.0575 23.3702 24.2658 23.1452C24.4738 22.9206 24.5572 22.5957 24.5572 22.1918V21.135L24.5568 21.1289ZM22.299 22.4383V22.43C22.3009 22.2499 22.3556 22.1378 22.459 22.0586C22.567 21.9759 22.7489 21.9227 23.0214 21.9227H23.0237H23.9405V22.2084C23.9393 22.4885 23.8782 22.6428 23.7955 22.7153C23.5966 22.8987 23.3509 22.9259 23.0509 22.9267H23.0478H23.0422C22.7534 22.9271 22.564 22.8772 22.4564 22.7991C22.3541 22.7255 22.3016 22.6198 22.299 22.4383Z" fill="#D6006D"/>
<path d="M5.80414 19.969H5.17381V19.3304H5.17344V19.0213C5.17344 18.9658 5.12474 18.9205 5.06473 18.9205H4.6858C4.65712 18.9205 4.62917 18.9315 4.60918 18.95C4.58879 18.9688 4.57709 18.9949 4.57709 19.0213V19.5909H4.57748V22.5847C4.57748 22.8277 4.64767 23.047 4.80167 23.2127C4.94812 23.3731 5.1859 23.4735 5.46067 23.4735H5.46179H5.64448V23.4709H5.80414C5.8317 23.4709 5.85886 23.4592 5.87812 23.4377C5.89811 23.4169 5.90905 23.3879 5.90905 23.358V22.9878C5.90905 22.9583 5.89811 22.9289 5.87812 22.9078C5.85886 22.8862 5.8317 22.8746 5.80414 22.8746H5.51125C5.45198 22.8723 5.40404 22.8655 5.36292 22.8508C5.3365 22.8413 5.31989 22.8311 5.30478 22.8217C5.28819 22.81 5.27874 22.8044 5.2625 22.787C5.20627 22.7281 5.17494 22.6345 5.17381 22.4956V20.5658H5.80414C5.8317 20.5658 5.85886 20.5533 5.87812 20.5326C5.89811 20.5114 5.90905 20.482 5.90905 20.4522V20.0823C5.90905 20.0528 5.89811 20.0234 5.87812 20.0023C5.85886 19.9807 5.8317 19.969 5.80414 19.969Z" fill="#D6006D"/>
<path d="M8.52116 20.4063L8.48606 20.3675C8.48454 20.3629 8.48191 20.3588 8.47813 20.3543L8.45698 20.3327L8.42754 20.3025L8.40377 20.2761L8.40301 20.2769C8.18863 20.0512 7.92179 19.9564 7.63759 19.9561C7.63192 19.9561 7.62475 19.9561 7.61531 19.9564C7.41376 19.9564 7.17561 20.047 7.03255 20.2188L6.93441 20.3358V20.2871V20.0746C6.93441 20.0466 6.92234 20.0195 6.90119 19.9998C6.88043 19.9802 6.85138 19.9685 6.82194 19.9685H6.45432C6.42488 19.9685 6.39581 19.9802 6.37505 19.9998C6.35393 20.0195 6.34222 20.0466 6.34222 20.0746V20.2871V23.3722C6.34222 23.4002 6.35393 23.4273 6.37505 23.447C6.39581 23.4666 6.42488 23.4783 6.45432 23.4783H6.51772C6.52 23.4783 6.52187 23.4787 6.52375 23.4787H6.75551C6.75739 23.4787 6.75965 23.4783 6.76154 23.4783H6.82194C6.85138 23.4783 6.88007 23.4666 6.90119 23.447C6.92271 23.4273 6.93441 23.4002 6.93441 23.3722V23.3152V23.313V21.3567V21.3492V21.1906C6.94535 21.0087 7.00311 20.8453 7.09746 20.726C7.19938 20.5992 7.34771 20.5166 7.54813 20.5162C7.65417 20.5162 7.724 20.5286 7.7844 20.5539C7.84252 20.5792 7.90177 20.623 7.97991 20.7034L7.99728 20.7211L8.07729 20.8102C8.09616 20.8313 8.12334 20.8438 8.15239 20.8442C8.18146 20.8445 8.2109 20.8332 8.23279 20.8132L8.50794 20.5626C8.53022 20.5422 8.54418 20.5143 8.54644 20.4848C8.54945 20.4558 8.54003 20.4275 8.52116 20.4063Z" fill="#D6006D"/>
<path d="M17.7767 21.6742C17.7755 21.6731 17.7736 21.6723 17.7721 21.6712H17.7718C17.5574 21.5213 17.2856 21.4693 16.9931 21.4444L16.4451 21.3983C16.2167 21.3791 16.0756 21.3315 15.9933 21.267C15.9235 21.2137 15.8804 21.1281 15.8793 20.9967V20.9937H15.8789L15.8793 20.9865C15.8804 20.831 15.9412 20.7178 16.0484 20.6408C16.1631 20.5581 16.3469 20.5053 16.607 20.5053H16.6093H16.6096C16.941 20.5057 17.2154 20.583 17.4445 20.7302L17.4441 20.7306L17.5831 20.8284C17.6053 20.8439 17.634 20.8495 17.6612 20.8431C17.6887 20.8374 17.7136 20.8201 17.7302 20.7963L17.9352 20.4977C17.9514 20.4736 17.9586 20.4438 17.9548 20.4155C17.9525 20.4 17.9469 20.3856 17.9382 20.3728C17.9307 20.3585 17.9197 20.3453 17.9054 20.3354L17.882 20.3185C17.5555 20.0856 17.0996 19.9546 16.6077 19.9539C16.2145 19.9539 15.8789 20.0486 15.6351 20.2298C15.3935 20.4079 15.2516 20.6774 15.2512 20.9839L15.2516 20.988V20.9903L15.2512 20.9982C15.2512 21.2692 15.352 21.5089 15.5525 21.6723C15.7551 21.838 16.0401 21.9263 16.3994 21.9554L16.9629 22.0011C17.1698 22.0199 17.2985 22.0656 17.3747 22.1294C17.4408 22.183 17.4834 22.2683 17.4838 22.4046V22.4121V22.4132C17.4823 22.5846 17.4132 22.7031 17.2841 22.785C17.1456 22.8729 16.9207 22.9265 16.6077 22.9265H16.6059C16.6047 22.9265 16.6028 22.9265 16.5998 22.9269H16.5972C16.1847 22.925 15.8914 22.8322 15.6627 22.6438L15.5438 22.5431C15.5226 22.525 15.4943 22.5163 15.4656 22.5204C15.4373 22.5238 15.4102 22.5393 15.3913 22.5619L15.1554 22.8473C15.1361 22.8699 15.1263 22.9001 15.1278 22.9292C15.129 22.9579 15.1426 22.9847 15.1637 23.0028L15.2758 23.0975L15.2754 23.0979C15.2777 23.0998 15.2799 23.1013 15.2818 23.1028L15.2965 23.1149L15.2977 23.1138C15.6442 23.3647 16.0767 23.4848 16.6059 23.4848H16.6153C17.0516 23.4844 17.42 23.3897 17.6887 23.2043C17.9544 23.0209 18.113 22.739 18.1126 22.4132V22.397C18.113 22.0686 17.9858 21.8206 17.7767 21.6742Z" fill="#D6006D"/>
<path d="M31.3036 23.3305L30.8439 22.6817L29.9226 21.3369L30.6386 20.5768L31.0553 20.1363L31.0806 20.108C31.1289 20.0593 31.1051 20.0091 31.0843 19.9899C31.0632 19.9702 31.0341 19.9585 31.0047 19.9585H30.5261C30.4978 19.9585 30.4608 19.9804 30.4397 19.9989C30.4393 19.9989 30.4404 19.9989 30.4397 19.9989L28.8329 21.7129V20.2805V19.0168C28.8329 18.9889 28.8209 18.9613 28.8001 18.9421C28.7793 18.9221 28.7499 18.9108 28.7204 18.9108H28.3532C28.3234 18.9108 28.2947 18.9221 28.2739 18.9421C28.2524 18.9613 28.2407 18.9889 28.2407 19.0168V20.2805V23.3717C28.2407 23.3996 28.2528 23.4272 28.2736 23.4468C28.2943 23.4664 28.3234 23.4781 28.3532 23.4781H28.7204C28.7499 23.4781 28.779 23.4664 28.8001 23.4468C28.8212 23.4272 28.8329 23.3996 28.8329 23.3717V22.4926L29.5289 21.7381L29.9977 22.4394H29.9954L30.6541 23.4238C30.6695 23.4453 30.6941 23.48 30.7492 23.48H31.2277C31.2572 23.48 31.2863 23.4687 31.307 23.4487C31.3278 23.4294 31.3417 23.3789 31.3036 23.3305Z" fill="#D6006D"/>
<path d="M27.1891 18.9441H27.254L27.3506 19.2279L27.4472 18.9441H27.511V19.28H27.468V19.0811C27.468 19.0743 27.468 19.0637 27.468 19.0471C27.468 19.0313 27.4691 19.0151 27.4691 18.9966L27.3729 19.28H27.3276L27.2314 18.9966V19.0068V19.0437C27.2321 19.0619 27.2321 19.0739 27.2321 19.0811V19.28H27.1891V18.9441Z" fill="#D6006D"/>
<path d="M27.7056 18.944H27.8592C27.8845 18.944 27.9057 18.9477 27.9211 18.9553C27.9525 18.9689 27.9676 18.9953 27.9676 19.0342C27.9676 19.0542 27.9642 19.0708 27.9555 19.0836C27.9464 19.0961 27.9351 19.1074 27.9196 19.1149C27.9328 19.1206 27.9438 19.127 27.9502 19.1357C27.9562 19.1444 27.96 19.1591 27.96 19.1784L27.9626 19.2229C27.9626 19.2361 27.9642 19.2455 27.9657 19.252C27.9687 19.2621 27.9736 19.2689 27.9804 19.2716V19.2799H27.9249C27.9234 19.2765 27.9226 19.2731 27.9211 19.2689C27.9196 19.264 27.9196 19.2554 27.9192 19.2421L27.9162 19.1859C27.9143 19.1636 27.9075 19.1489 27.8925 19.1417C27.8845 19.1376 27.8698 19.1357 27.8521 19.1357H27.7509V19.2799H27.7056V18.944ZM27.854 19.0976C27.8747 19.0976 27.8909 19.0938 27.9038 19.0847C27.9147 19.0772 27.9215 19.0617 27.9215 19.0383C27.9215 19.0149 27.9136 18.9983 27.8958 18.9896C27.8868 18.9851 27.8747 18.9828 27.86 18.9828H27.7509V19.0976H27.854Z" fill="#D6006D"/>
<path d="M27.6107 19.2794C27.5972 19.2794 27.5883 19.2694 27.5883 19.2544C27.5883 19.2393 27.598 19.2289 27.6123 19.2289C27.6257 19.2289 27.635 19.2393 27.635 19.2544C27.635 19.2694 27.6257 19.2794 27.6107 19.2794Z" fill="#D6006D"/>
<path d="M28.0707 19.2794C28.0572 19.2794 28.0468 19.2694 28.0468 19.2544C28.0468 19.2393 28.0572 19.2289 28.0711 19.2289C28.0858 19.2289 28.0951 19.2393 28.0951 19.2544C28.0951 19.2694 28.0858 19.2794 28.0711 19.2794H28.0707Z" fill="#D6006D"/>
<path d="M39.1273 4.98893C39.1205 4.98101 39.1141 4.97308 39.1054 4.96516C38.4158 4.3288 37.313 3.93475 36.0346 3.93362C36.0173 3.93136 35.9908 3.93136 35.9659 3.93136C34.9151 3.93098 33.878 4.15026 32.9774 4.92174L32.9759 4.9225V4.24538H32.9778V0.816751C32.9778 0.72617 32.9393 0.637098 32.8713 0.574069C32.8038 0.5099 32.7094 0.472534 32.6132 0.472534H31.4193C31.3246 0.472534 31.2306 0.5099 31.1615 0.574069C31.0932 0.637098 31.0551 0.72617 31.0551 0.816751V4.24538H31.0562V11.525H31.0551V14.9355C31.0551 15.0257 31.0944 15.1148 31.1615 15.1774C31.2302 15.242 31.3246 15.279 31.4208 15.279H32.6132C32.7094 15.279 32.8034 15.242 32.8713 15.1774C32.9408 15.1148 32.9785 15.0257 32.9785 14.9355V14.2301C33.7749 15.1204 34.9174 15.4273 35.9659 15.4269H36.0395C37.3149 15.4228 38.4177 15.0291 39.1054 14.3935C40.391 13.1763 40.6846 11.3106 40.6891 9.57628C40.6858 7.85141 40.391 6.20126 39.1273 4.98893ZM38.7688 9.5759V9.59969V9.60271V9.62799C38.7657 10.7112 38.6506 11.7703 38.2385 12.5278C37.8335 13.257 37.182 13.7439 35.9169 13.7632C35.9086 13.7624 35.8953 13.7624 35.8697 13.7632H35.8485C34.5751 13.7507 33.9153 13.2627 33.5081 12.5267C33.0925 11.7662 32.9759 10.6984 32.9759 9.60799V9.54231C32.9774 8.45908 33.0925 7.58984 33.5081 6.83233C33.9153 6.09632 34.5751 5.60793 35.8485 5.5966H35.8572H35.878H35.8976C37.1718 5.60793 37.8293 6.09558 38.2404 6.83384C38.6525 7.58984 38.7688 8.45908 38.7688 9.54231V9.5759Z" fill="#6B1A6B"/>
<path d="M50.1208 14.3613C51.3848 13.149 51.6792 11.4989 51.6826 9.77361C51.6785 8.03966 51.3848 6.174 50.0989 4.95676C49.4112 4.32117 48.3083 3.92712 47.0334 3.92297H46.9598C45.9113 3.92259 44.7684 4.22944 43.9724 5.1202V4.41478C43.9724 4.32456 43.9342 4.23549 43.8652 4.17283C43.7969 4.10791 43.7029 4.07131 43.607 4.07131H42.4143C42.3181 4.07131 42.2237 4.10791 42.1554 4.17283C42.0878 4.23549 42.0486 4.32456 42.0486 4.41478V7.82528H42.0497V15.1045H42.0486V18.5335C42.0486 18.6241 42.0867 18.7128 42.1554 18.7762C42.2241 18.8404 42.3181 18.8774 42.4128 18.8774H43.6066C43.7029 18.8774 43.7972 18.8404 43.8652 18.7762C43.9327 18.7128 43.9716 18.6241 43.9716 18.5335V15.1045H43.9694V14.4278L43.9708 14.4285C44.8714 15.1996 45.9086 15.4193 46.9598 15.4189C46.9847 15.4189 47.0111 15.4189 47.0281 15.4163C48.3065 15.4151 49.4093 15.0215 50.0989 14.3851C50.1076 14.3772 50.1144 14.3693 50.1208 14.3613ZM49.7622 9.80794C49.7622 10.8912 49.6464 11.7604 49.2338 12.5161C48.8232 13.2547 48.1657 13.7423 46.8911 13.754H46.8718H46.8511H46.8424C45.5689 13.7423 44.9088 13.2539 44.5015 12.5179C44.086 11.7604 43.9708 10.8912 43.9694 9.80794V9.74228C43.9694 8.65186 44.086 7.58409 44.5015 6.82319C44.9088 6.08756 45.5689 5.59954 46.8424 5.58671H46.8631C46.8888 5.58784 46.9024 5.58784 46.9107 5.58671C48.1755 5.60633 48.8269 6.09285 49.2319 6.82206C49.6445 7.57995 49.7592 8.63865 49.7622 9.72227V9.74756V9.7502V9.77436V9.80794Z" fill="#6B1A6B"/>
<path d="M67.2439 16.3202C67.139 16.6044 66.951 17.0634 66.8253 17.3389C66.8253 17.3389 66.5981 17.8386 66.2765 18.1609C65.9821 18.4549 65.6462 18.658 65.2676 18.7705C64.8898 18.8822 64.6411 18.8996 64.6411 18.8996C64.3388 18.9207 63.8972 18.9384 63.6605 18.9384C63.4239 18.9384 63.2299 18.6901 63.2299 18.3874V17.5774C63.2299 17.2743 63.3529 17.0264 63.5031 17.0264C63.6537 17.0264 64.0228 17.0007 64.3244 16.9697C64.3244 16.9697 64.5539 16.9456 64.7637 16.7844C64.974 16.6229 65.08 16.3911 65.08 16.3911C65.2065 16.1156 65.3926 15.6563 65.4937 15.3705L65.7141 14.7474C65.8153 14.4617 65.8126 13.9952 65.7089 13.7106L62.3685 4.58155C62.2648 4.29735 62.4274 4.06409 62.7309 4.06409H63.8979C64.2006 4.06409 64.5286 4.29922 64.6256 4.58608L66.8132 11.0425C66.911 11.3297 67.0684 11.329 67.1635 11.0414L69.2964 4.58759C69.3919 4.2996 69.7176 4.06409 70.0211 4.06409H71.2085C71.5119 4.06409 71.6739 4.29697 71.5689 4.58117L67.2439 16.3202Z" fill="#6B1A6B"/>
<path d="M61.7757 7.78254V7.77461C61.7761 6.63513 61.3964 5.65795 60.6007 5.00499C59.8006 4.34749 58.6505 4.03876 57.171 4.03799H57.1174H57.0974C55.5423 4.03423 54.3089 4.37203 53.3694 5.37072L53.3653 5.3677L53.3117 5.43224C53.2411 5.50999 53.1717 5.59115 53.1041 5.67682C53.1037 5.67757 53.1034 5.67871 53.103 5.67946L53.0067 5.79345C52.949 5.86176 52.9207 5.95349 52.9327 6.04558C52.9426 6.13805 52.9897 6.22675 53.0615 6.28865L53.1154 6.33583C53.1362 6.36074 53.1596 6.38376 53.1849 6.40452L53.3951 6.57738L53.9545 7.0605C54.0254 7.12278 54.1202 7.15675 54.2115 7.15184C54.3025 7.14844 54.3874 7.10693 54.4451 7.03823L54.8037 6.61249V6.61211C55.0279 6.3698 55.2578 6.19731 55.5352 6.07578C55.9273 5.90366 56.4308 5.82327 57.1578 5.81685L57.1664 5.81609L57.191 5.81535C58.2252 5.81798 58.8687 6.02822 59.2371 6.3513C59.6043 6.6691 59.7908 7.14995 59.7934 7.89653C59.7934 7.90106 59.7934 7.91464 59.7953 7.93163V8.63592H56.7245C55.4853 8.63894 54.4497 8.91862 53.702 9.50138C52.9595 10.0717 52.5451 10.9492 52.5447 11.9717L52.5451 12.0098C52.547 12.8617 52.8671 13.6966 53.4491 14.2771C54.2349 15.0512 55.2819 15.3324 56.8637 15.3324H56.8815H57.6828C59.1318 15.3339 60.1708 14.9757 60.8404 14.2544C61.5081 13.5339 61.7761 12.4903 61.7761 11.1934V7.80217L61.7757 7.78254ZM54.5274 11.9849V11.9589C54.5335 11.381 54.7094 11.0198 55.0407 10.7658C55.3876 10.5016 55.9719 10.3306 56.8464 10.3306H56.8539H59.7953V11.247C59.7923 12.1461 59.5952 12.6428 59.331 12.8745C58.6932 13.4626 57.9032 13.5509 56.9407 13.5532H56.9302H56.9128C55.9858 13.5543 55.3774 13.3939 55.0324 13.1433C54.7044 12.9066 54.5357 12.5684 54.5274 11.9849Z" fill="#6B1A6B"/>
<path d="M18.7272 4.08569C18.4101 4.08569 18.081 4.33518 17.9942 4.63978L15.9081 11.9971C15.8217 12.3021 15.67 12.3051 15.5711 12.0039L13.1449 4.6326C13.046 4.33216 12.706 4.08569 12.3893 4.08569H11.9541C11.6374 4.08569 11.2981 4.33216 11.2 4.63298L8.7927 12.0039C8.69419 12.3047 8.54247 12.3025 8.45565 11.9975L6.3507 4.63978C6.26351 4.33518 5.93325 4.08569 5.61622 4.08569H4.72999C4.41332 4.08569 4.23253 4.33293 4.32802 4.63487L7.54716 14.7875C7.64304 15.0891 7.98007 15.3367 8.29713 15.3367H8.90592C9.18863 15.3367 9.49322 15.1174 9.58305 14.849L11.9896 7.66795C12.0904 7.3675 12.2553 7.3675 12.3568 7.66719L14.7622 14.7909C14.8638 15.0906 15.2057 15.3367 15.5224 15.3367H16.1115C16.4048 15.3367 16.7166 15.1076 16.8053 14.8279L20.0165 4.63525C20.1113 4.33293 19.9305 4.08569 19.6138 4.08569H18.7272Z" fill="#6B1A6B"/>
<path d="M22.4113 8.70713C22.4506 8.00699 22.5012 7.69371 22.7155 7.16794C23.1088 6.23606 24.0105 5.65745 25.0677 5.65745C26.1249 5.65745 27.0259 6.23568 27.4192 7.16607C27.6339 7.69371 27.6845 8.00699 27.7241 8.70713H22.4113ZM29.6913 9.35594C29.6913 6.01677 27.9196 3.94238 25.0677 3.94238C22.1728 3.94238 20.4442 6.08094 20.4442 9.66355C20.4442 13.3526 22.1875 15.3847 25.3531 15.3847C27.3191 15.3847 28.3741 14.7253 29.4384 13.6614L29.5804 13.5198L28.2216 12.3271L28.097 12.4509C27.2297 13.3186 26.5227 13.6259 25.3972 13.6259C23.5225 13.6259 22.4608 12.4343 22.4034 10.2682H29.6913V9.35594Z" fill="#6B1A6B"/>
<path d="M1.9244 6.4157C2.5566 6.4157 3.06954 5.89976 3.06954 5.26378C3.06954 4.62742 2.5566 4.11108 1.9244 4.11108C1.29407 4.11108 0.780762 4.62742 0.780762 5.26378C0.780762 5.89976 1.29407 6.4157 1.9244 6.4157Z" fill="#D6006D"/>
<path d="M71.5109 15.3299C72.1431 15.3299 72.6561 14.814 72.6561 14.1783C72.6561 13.5416 72.1431 13.0249 71.5109 13.0249C70.8798 13.0249 70.368 13.5416 70.368 14.1783C70.368 14.814 70.8798 15.3299 71.5109 15.3299Z" fill="#D6006D"/>
</svg>
