<svg width="97" height="24" viewBox="0 0 97 24" fill="none" xmlns="http://www.w3.org/2000/svg">
<g clip-path="url(#clip0)">
<path d="M3.90964 20.4759C4.10732 20.4759 4.26802 20.3144 4.26802 20.1153C4.26802 19.9165 4.10732 19.7546 3.90964 19.7546C3.71237 19.7546 3.55164 19.9165 3.55164 20.1153C3.55164 20.3144 3.71237 20.4759 3.90964 20.4759Z" fill="#009FE3"/>
<path d="M31.6336 23.3023C31.8317 23.3023 31.992 23.1409 31.992 22.9417C31.992 22.7426 31.8317 22.5807 31.6336 22.5807C31.4364 22.5807 31.276 22.7426 31.276 22.9417C31.276 23.1409 31.4364 23.3023 31.6336 23.3023Z" fill="#69246F"/>
<path d="M14.6745 21.1172V21.1161C14.6737 20.7137 14.5339 20.3747 14.2806 20.1457L14.2628 20.1301L14.2587 20.1263H14.2579C14.0196 19.9212 13.6966 19.8135 13.3144 19.8101C13.3129 19.8097 13.3095 19.8093 13.3058 19.8093C13.3021 19.8093 13.2987 19.8097 13.2953 19.8101H13.2924C13.2808 19.8101 13.273 19.8105 13.2674 19.8105C13.2629 19.8105 13.2558 19.8101 13.2473 19.8101H13.2416C13.2387 19.8101 13.2349 19.8093 13.2305 19.8093H13.229H13.2271C13.2249 19.8093 13.2222 19.8093 13.2197 19.8101C12.8378 19.8142 12.5163 19.9216 12.2787 20.1263H12.2776L12.256 20.1457C12.0035 20.3736 11.8637 20.7115 11.8618 21.1112V21.1116L11.8614 21.1135L11.8596 23.1836C11.8596 23.2109 11.8711 23.2381 11.892 23.2575C11.9125 23.2773 11.9416 23.2884 11.9707 23.2884H12.3392C12.3679 23.2884 12.3966 23.2773 12.4175 23.2575C12.4383 23.2381 12.4499 23.2109 12.4499 23.1836L12.4507 21.1832C12.4529 20.8901 12.5279 20.6824 12.6632 20.5451C12.7945 20.412 12.9944 20.337 13.2696 20.3318C13.5422 20.337 13.7421 20.412 13.8734 20.5451C14.0084 20.6824 14.0834 20.8901 14.0856 21.1836L14.0852 23.1836C14.0852 23.2109 14.0972 23.2381 14.1177 23.2575C14.1385 23.2773 14.1673 23.2884 14.1964 23.2884H14.5652C14.5943 23.2884 14.623 23.2773 14.6435 23.2575C14.6648 23.2381 14.6763 23.2109 14.6763 23.1836L14.6745 21.1172Z" fill="#D6006D"/>
<path d="M27.5211 21.1172V21.1161C27.5204 20.7137 27.3805 20.3747 27.127 20.1457L27.1094 20.1301L27.1053 20.1263H27.1046C26.8663 19.9212 26.5433 19.8135 26.1607 19.8101C26.1596 19.8097 26.1562 19.8093 26.1525 19.8093C26.1487 19.8093 26.1454 19.8097 26.142 19.8101H26.139C26.1275 19.8101 26.1197 19.8105 26.1141 19.8105C26.1096 19.8105 26.1025 19.8101 26.0939 19.8101H26.0883C26.0854 19.8101 26.0816 19.8093 26.0771 19.8093H26.0756H26.0738C26.0715 19.8093 26.0689 19.8093 26.0663 19.8101C25.6844 19.8142 25.363 19.9216 25.1254 20.1263H25.1243L25.1027 20.1457C24.8502 20.3736 24.7103 20.7115 24.7085 21.1112V21.1116V21.1135L24.7062 23.1836C24.7062 23.2109 24.7178 23.2381 24.7387 23.2575C24.7595 23.2773 24.7879 23.2884 24.8174 23.2884H25.1858C25.2145 23.2884 25.2433 23.2773 25.2641 23.2575C25.285 23.2381 25.2966 23.2109 25.2966 23.1836L25.2973 21.1832C25.2996 20.8901 25.3745 20.6824 25.5099 20.5451C25.6408 20.412 25.8411 20.337 26.1163 20.3318C26.3889 20.337 26.5888 20.412 26.7201 20.5451C26.8551 20.6824 26.93 20.8901 26.9323 21.1836L26.9319 23.1836C26.9319 23.2109 26.9438 23.2381 26.9643 23.2575C26.9852 23.2773 27.0139 23.2884 27.043 23.2884H27.4119C27.4409 23.2884 27.4697 23.2773 27.4902 23.2575C27.5114 23.2381 27.523 23.2109 27.523 23.1836L27.5211 21.1172Z" fill="#D6006D"/>
<path d="M20.7415 20.163C20.7397 20.1604 20.7374 20.1581 20.7348 20.1555C20.5252 19.9623 20.1896 19.8422 19.801 19.8419C19.7954 19.8411 19.7875 19.8411 19.7797 19.8411C19.4601 19.8411 19.1446 19.9079 18.8705 20.1424V19.937H18.8709V18.8935C18.8709 18.8659 18.8593 18.839 18.8385 18.8196C18.8179 18.8002 18.7892 18.7887 18.7598 18.7887H18.3969C18.3678 18.7887 18.3395 18.8002 18.3182 18.8196C18.2973 18.839 18.2861 18.8659 18.2861 18.8935V19.937V22.1515V23.1889C18.2861 23.2162 18.2977 23.2434 18.3182 23.2624C18.3391 23.2822 18.3678 23.2934 18.3969 23.2934H18.7601C18.7892 23.2934 18.8176 23.2822 18.8385 23.2624C18.8597 23.2434 18.8709 23.2162 18.8709 23.1889V22.9742C19.1133 23.2453 19.4609 23.3385 19.7797 23.3381H19.8025C20.19 23.3374 20.5256 23.2173 20.7348 23.0241C21.126 22.6538 21.2155 22.0862 21.2166 21.5585C21.2155 21.0338 21.126 20.5318 20.7415 20.163ZM20.6326 21.5585V21.566V21.5663V21.5742C20.6315 21.9038 20.5965 22.226 20.4712 22.4565C20.3481 22.678 20.1501 22.8261 19.7648 22.8324C19.7626 22.8321 19.7585 22.8321 19.7506 22.8324H19.7443C19.3568 22.8283 19.1562 22.6799 19.032 22.4561C18.9059 22.2249 18.8705 21.9001 18.8705 21.5682V21.5484C18.8705 21.2184 18.9059 20.9543 19.032 20.7235C19.1562 20.4997 19.3568 20.3513 19.7443 20.3476H19.7469H19.7532H19.7592C20.1467 20.3513 20.347 20.4997 20.4715 20.7242C20.5972 20.9543 20.6326 21.2184 20.6326 21.5484V21.5585Z" fill="#D6006D"/>
<path d="M11.4491 20.9638V20.9615C11.4491 20.6103 11.3324 20.3093 11.0877 20.1083C10.8409 19.9058 10.4873 19.8107 10.0312 19.8103H10.0152H10.0088C9.53035 19.8088 9.1507 19.9132 8.8613 20.2209L8.86021 20.2202L8.84339 20.2396C8.82177 20.2638 8.80054 20.2888 8.78002 20.3149C8.78002 20.3149 8.77963 20.3156 8.77927 20.316L8.74981 20.3511C8.7319 20.3719 8.72332 20.3999 8.72706 20.4286C8.73042 20.4573 8.74458 20.4846 8.76659 20.5036L8.78337 20.5178C8.78973 20.5256 8.7968 20.5327 8.80464 20.5394L8.86953 20.5923L9.04143 20.7411C9.06344 20.7605 9.09252 20.771 9.12088 20.7695C9.14883 20.7684 9.17532 20.7557 9.19249 20.7344L9.30324 20.6032H9.30285C9.37184 20.5286 9.44271 20.4756 9.52813 20.438C9.64894 20.385 9.80371 20.3604 10.0275 20.3581H10.0305L10.0379 20.3578C10.356 20.3589 10.554 20.423 10.6678 20.523C10.7808 20.6207 10.8382 20.7688 10.839 20.9988C10.839 21.0003 10.839 21.0044 10.8394 21.0097V21.2263H9.89432C9.51283 21.2274 9.19397 21.3136 8.96386 21.4933C8.73526 21.6686 8.60773 21.939 8.60773 22.2538V22.2657C8.60847 22.5279 8.70692 22.7852 8.88592 22.9642C9.12795 23.2025 9.45019 23.2894 9.93724 23.2894H9.94244H10.1893C10.6354 23.2894 10.955 23.1794 11.1612 22.9571C11.3667 22.7352 11.4491 22.4137 11.4491 22.014V20.9698V20.9638ZM10.8394 22.0307C10.8386 22.3078 10.7778 22.4608 10.6965 22.5323C10.5 22.7132 10.2572 22.7404 9.96109 22.7412H9.95773H9.95215C9.66685 22.7416 9.47962 22.692 9.37336 22.6151C9.27229 22.5421 9.22047 22.438 9.21782 22.2582V22.25C9.21969 22.0721 9.27378 21.961 9.37597 21.8827C9.48263 21.8014 9.66276 21.7484 9.93163 21.7484H9.93424H10.8394V22.0307Z" fill="#D6006D"/>
<path d="M24.2995 20.9685V20.9659C24.2999 20.6154 24.1828 20.3148 23.9382 20.1138C23.692 19.9113 23.3377 19.8162 22.8824 19.8158H22.8656H22.8596C22.3811 19.8147 22.0011 19.9187 21.7121 20.2264L21.711 20.2253L21.6942 20.2451C21.6726 20.2689 21.6513 20.2939 21.6304 20.3204C21.6304 20.3204 21.6301 20.3208 21.6301 20.3211L21.6006 20.3562C21.5827 20.3771 21.5741 20.4054 21.5778 20.4338C21.5808 20.4621 21.595 20.4897 21.6174 20.5087L21.6338 20.5233C21.6405 20.5307 21.6476 20.5378 21.6554 20.5445L21.7199 20.5979L21.8919 20.7467C21.9142 20.7657 21.9433 20.7757 21.9713 20.7746C21.9993 20.7735 22.0254 20.7605 22.0433 20.7396L22.1537 20.6083C22.2227 20.5337 22.2935 20.4808 22.3789 20.4431C22.4997 20.3901 22.6545 20.3655 22.8783 20.3636L22.8809 20.3633H22.8887C23.2068 20.3636 23.4048 20.4285 23.5182 20.5281C23.6312 20.6258 23.6886 20.7739 23.6898 21.0036C23.6898 21.0051 23.6898 21.0096 23.6902 21.0144V21.2315H22.7448C22.3636 21.2322 22.0448 21.3184 21.8143 21.4977C21.586 21.673 21.4585 21.9434 21.4581 22.2582L21.4585 22.2701C21.4589 22.5323 21.5574 22.7892 21.7364 22.9679C21.9784 23.2062 22.301 23.2927 22.7876 23.2927H22.7933H23.0397C23.4858 23.2931 23.8058 23.183 24.0116 22.9608C24.2175 22.7389 24.2999 22.4178 24.2999 22.0187V20.9745L24.2995 20.9685ZM22.0686 22.2623V22.2541C22.0705 22.0762 22.1246 21.9654 22.2264 21.8871C22.333 21.8054 22.5132 21.7528 22.7824 21.7528H22.7847H23.6902V22.0352C23.6894 22.3119 23.6286 22.4644 23.5473 22.536C23.3508 22.7172 23.108 22.7441 22.8115 22.7448H22.8082H22.8029C22.5176 22.7452 22.3304 22.696 22.2241 22.6188C22.1231 22.5461 22.0709 22.4417 22.0686 22.2623Z" fill="#D6006D"/>
<path d="M5.77027 19.8224H5.14785L5.14711 19.1914L5.14672 18.886C5.14672 18.8311 5.09899 18.7864 5.03971 18.7864H4.66529C4.63731 18.7864 4.60933 18.7972 4.58958 18.8155C4.56945 18.8341 4.55786 18.8599 4.55786 18.886V19.4487H4.55825V22.4069C4.55825 22.647 4.6276 22.8637 4.77978 23.0274C4.92483 23.1859 5.15979 23.2851 5.43128 23.2851H5.43202H5.61253V23.2825H5.77027C5.7975 23.2825 5.82435 23.2709 5.84336 23.2497C5.86314 23.2291 5.87395 23.2004 5.87395 23.171V22.8051C5.87395 22.7761 5.86314 22.7469 5.84336 22.7261C5.82435 22.7048 5.7975 22.6932 5.77027 22.6932H5.48087C5.42234 22.691 5.37535 22.6843 5.3343 22.6698C5.3082 22.6604 5.29216 22.6504 5.27686 22.641C5.26047 22.6295 5.25153 22.6239 5.23511 22.6067C5.17954 22.5485 5.14859 22.4561 5.14785 22.3188V20.412H5.77027C5.7975 20.412 5.82435 20.3997 5.84336 20.3792C5.86314 20.3583 5.87395 20.3292 5.87395 20.2998V19.9343C5.87395 19.9052 5.86314 19.8761 5.84336 19.8552C5.82435 19.834 5.7975 19.8224 5.77027 19.8224Z" fill="#D6006D"/>
<path d="M8.45488 20.2545L8.42058 20.2161C8.41906 20.2116 8.41645 20.2075 8.412 20.203L8.39147 20.1818L8.36275 20.1519L8.33891 20.1258L8.33816 20.1266C8.12631 19.9036 7.86267 19.81 7.58186 19.8096C7.57624 19.8096 7.56953 19.8096 7.5602 19.81C7.36068 19.81 7.12537 19.8994 6.98438 20.0691L6.8867 20.1848V20.1367V19.9267C6.8867 19.8991 6.87512 19.8722 6.85424 19.8528C6.83375 19.8335 6.80503 19.8219 6.77592 19.8219H6.41308C6.38362 19.8219 6.35525 19.8335 6.33437 19.8528C6.31349 19.8722 6.30194 19.8991 6.30194 19.9267V20.1367V23.185C6.30194 23.2126 6.31349 23.2395 6.33437 23.2589C6.3549 23.2782 6.38362 23.2898 6.41308 23.2898H6.47536C6.4772 23.2898 6.47981 23.2902 6.48168 23.2902H6.71028C6.71215 23.2902 6.71438 23.2898 6.71625 23.2898H6.77592C6.80503 23.2898 6.83336 23.2782 6.85424 23.2589C6.8755 23.2395 6.8867 23.2126 6.8867 23.185V23.1287C6.8867 23.128 6.88706 23.1272 6.88706 23.1265V21.1935C6.88706 21.1909 6.8867 21.1883 6.8867 21.1861V21.0294C6.89787 20.8497 6.95495 20.6882 7.04853 20.5704C7.14847 20.4451 7.29543 20.3634 7.49347 20.363C7.59825 20.363 7.66724 20.3753 7.72655 20.4003C7.78435 20.4253 7.84289 20.4686 7.92008 20.548L7.93763 20.5655L8.0163 20.6535C8.03496 20.6744 8.06219 20.6867 8.09053 20.6871C8.11925 20.6875 8.14832 20.6763 8.16997 20.6565L8.4422 20.4089C8.46382 20.3887 8.47763 20.3612 8.48025 20.3321C8.48286 20.3034 8.47315 20.2754 8.45488 20.2545Z" fill="#D6006D"/>
<path d="M17.6001 21.5072C17.5986 21.5061 17.5971 21.5053 17.596 21.5042H17.5953C17.3834 21.3562 17.1149 21.3047 16.8259 21.2801L16.2844 21.2346C16.0588 21.2156 15.9193 21.1686 15.838 21.1048C15.7694 21.0522 15.7269 20.9676 15.7254 20.8378V20.8348H15.725L15.7254 20.8277C15.7269 20.6741 15.7865 20.5622 15.8924 20.4861C16.0062 20.4045 16.1874 20.3522 16.4444 20.3522H16.4466H16.447C16.7748 20.3526 17.0459 20.429 17.2719 20.5745L17.2716 20.5749L17.4088 20.6715C17.4308 20.6868 17.4588 20.6923 17.4856 20.686C17.5132 20.6804 17.5382 20.6633 17.5542 20.6398L17.7568 20.3448C17.7732 20.3209 17.7799 20.2915 17.7762 20.2635C17.7739 20.2482 17.7683 20.234 17.7597 20.2213C17.7523 20.2072 17.7415 20.1941 17.7277 20.1844L17.7042 20.1676C17.3812 19.9375 16.9311 19.8081 16.4455 19.8074C16.0565 19.8074 15.725 19.901 15.4844 20.08C15.2458 20.256 15.1052 20.5223 15.1052 20.8251V20.8292V20.8315V20.8393C15.1052 21.1071 15.204 21.3439 15.4024 21.5053C15.6027 21.6691 15.8842 21.7563 16.2393 21.7851L16.7961 21.8302C17.0005 21.8488 17.1276 21.8939 17.2029 21.957C17.2682 22.0099 17.3103 22.0942 17.3107 22.2289V22.2363V22.2374C17.3092 22.4067 17.241 22.5238 17.1134 22.6048C16.9769 22.6916 16.7543 22.7446 16.4455 22.7446H16.4433C16.4422 22.7446 16.4403 22.7446 16.4377 22.745H16.4347C16.0271 22.7431 15.7369 22.6514 15.5117 22.4653L15.3942 22.3657C15.373 22.3478 15.345 22.3392 15.317 22.3433C15.2887 22.3467 15.2618 22.362 15.2432 22.3844L15.0101 22.6663C14.9911 22.6887 14.9814 22.7185 14.9829 22.7472C14.9844 22.7755 14.9974 22.802 15.0183 22.82L15.1291 22.9136L15.1287 22.9139C15.1305 22.9158 15.1332 22.9173 15.135 22.9188L15.1496 22.9307L15.1507 22.9296C15.493 23.1776 15.9201 23.2962 16.4433 23.2962H16.4526C16.8841 23.2958 17.2481 23.2022 17.5136 23.0191C17.7758 22.8379 17.9324 22.5593 17.932 22.2374V22.2214C17.9324 21.8969 17.8067 21.6519 17.6001 21.5072Z" fill="#D6006D"/>
<path d="M30.9654 23.1436L30.5111 22.5026L29.6011 21.1738L30.3086 20.4227L30.7203 19.9875L30.7453 19.9596C30.7927 19.9114 30.7695 19.8618 30.749 19.8428C30.7281 19.8234 30.6994 19.8119 30.6703 19.8119H30.1971C30.1695 19.8119 30.133 19.8335 30.1121 19.8518C30.1117 19.8518 30.1124 19.8518 30.1121 19.8518L28.5245 21.5453V20.13V18.8814C28.5245 18.8538 28.5122 18.8266 28.492 18.8076C28.4712 18.7878 28.4421 18.7766 28.413 18.7766H28.0501C28.021 18.7766 27.9927 18.7878 27.9718 18.8076C27.9505 18.8266 27.939 18.8538 27.939 18.8814V20.13V23.1843C27.939 23.2119 27.9509 23.2391 27.9714 23.2585C27.9923 23.2779 28.021 23.2895 28.0505 23.2895H28.4134C28.4421 23.2895 28.4708 23.2779 28.492 23.2585C28.5129 23.2391 28.5245 23.2119 28.5245 23.1843V22.3158L29.2122 21.5703L29.6754 22.2632H29.6731L30.3239 23.2358C30.3392 23.257 30.363 23.2913 30.4179 23.2913H30.8904C30.9195 23.2913 30.9486 23.2802 30.9691 23.2604C30.9896 23.2414 31.0034 23.1914 30.9654 23.1436Z" fill="#D6006D"/>
<path d="M26.9005 18.8096H26.9646L27.0597 19.09L27.1552 18.8096H27.2186V19.1415H27.176V18.9449C27.176 18.9382 27.176 18.9278 27.176 18.9114C27.176 18.8957 27.1772 18.8797 27.1772 18.8614L27.0821 19.1415H27.0373L26.9422 18.8614V18.8715V18.908C26.943 18.9259 26.943 18.9379 26.943 18.9449V19.1415H26.9005V18.8096Z" fill="#D6006D"/>
<path d="M27.4107 18.8094H27.5621C27.5871 18.8094 27.608 18.8132 27.6233 18.8206C27.6542 18.8341 27.6692 18.8602 27.6692 18.8986C27.6692 18.9184 27.6662 18.9348 27.6576 18.9474C27.6486 18.9597 27.6371 18.9709 27.6222 18.9784C27.6352 18.984 27.646 18.9903 27.6524 18.9989C27.6583 19.0075 27.6621 19.022 27.6621 19.041L27.6647 19.085C27.6647 19.0981 27.6662 19.1074 27.6673 19.1138C27.6706 19.1238 27.6751 19.1305 27.6822 19.1332V19.1413H27.627C27.6255 19.138 27.6251 19.1347 27.6233 19.1305C27.6222 19.1257 27.6218 19.1171 27.6214 19.1041L27.6188 19.0485C27.6169 19.0265 27.6098 19.0119 27.5949 19.0049C27.5871 19.0008 27.5729 18.9989 27.5554 18.9989H27.4555V19.1413H27.4107V18.8094ZM27.5573 18.9612C27.5774 18.9612 27.5938 18.9575 27.6061 18.9486C27.6173 18.9411 27.624 18.9258 27.624 18.9027C27.624 18.8796 27.6158 18.8631 27.5987 18.8546C27.5893 18.8501 27.5774 18.8478 27.5629 18.8478H27.4555V18.9612H27.5573Z" fill="#D6006D"/>
<path d="M27.3165 19.1403C27.3037 19.1403 27.2947 19.1306 27.2947 19.1159C27.2947 19.1012 27.3037 19.0911 27.3176 19.0911C27.3312 19.0911 27.3406 19.1012 27.3406 19.1159C27.3406 19.1306 27.3312 19.1403 27.3165 19.1403Z" fill="#D6006D"/>
<path d="M27.7711 19.1403C27.7575 19.1403 27.7477 19.1306 27.7477 19.1159C27.7477 19.1012 27.7575 19.0911 27.7714 19.0911C27.7857 19.0911 27.7944 19.1012 27.7944 19.1159C27.7944 19.1306 27.7857 19.1403 27.7711 19.1403Z" fill="#D6006D"/>
<path d="M38.6959 5.12388C38.6896 5.11642 38.6833 5.10823 38.6747 5.10077C37.993 4.472 36.9033 4.08266 35.6401 4.08153C35.6233 4.07931 35.5972 4.07931 35.5726 4.07931C34.534 4.07856 33.5096 4.29561 32.6194 5.05789L32.6182 5.05863V4.38958H32.6201V1.00148C32.6201 0.91235 32.5821 0.824351 32.515 0.76207C32.4482 0.69866 32.355 0.661743 32.2595 0.661743H31.0803C30.9867 0.661743 30.8938 0.69866 30.8256 0.76207C30.7581 0.82435 30.7204 0.91235 30.7204 1.00148V4.38958H30.7211V11.5824H30.7204V14.9518C30.7204 15.0413 30.7592 15.1293 30.8256 15.1912C30.8934 15.255 30.9867 15.2916 31.0814 15.2916H32.2599C32.355 15.2916 32.4478 15.255 32.515 15.1912C32.5836 15.1293 32.6209 15.0413 32.6209 14.9518V14.2552C33.4074 15.1349 34.5366 15.4381 35.5726 15.4378H35.6453C36.9051 15.4337 37.9948 15.0443 38.6747 14.4167C39.9449 13.2139 40.235 11.3705 40.2391 9.65691C40.2358 7.95261 39.9449 6.32212 38.6959 5.12388ZM38.342 9.65652V9.68002V9.68263V9.70764C38.3387 10.7783 38.2253 11.8248 37.8181 12.5733C37.4175 13.2937 36.7739 13.7749 35.5241 13.7939C35.5159 13.7927 35.5025 13.7927 35.4775 13.7939H35.4566C34.1984 13.7816 33.5465 13.2994 33.1441 12.5721C32.7331 11.8207 32.6182 10.7656 32.6182 9.68824V9.62335C32.6194 8.55303 32.7331 7.69378 33.1441 6.94567C33.5465 6.21844 34.1984 5.73588 35.4566 5.72432H35.4652H35.4857H35.5051C36.7641 5.73588 37.4138 6.21734 37.8196 6.94715C38.2272 7.69378 38.342 8.55303 38.342 9.62335V9.65652Z" fill="#6B1A6B"/>
<path d="M49.5586 14.3848C50.8072 13.1869 51.0984 11.5561 51.1014 9.85176C51.0973 8.1385 50.8072 6.2947 49.5369 5.09236C48.8575 4.46436 47.7678 4.07499 46.5076 4.07092H46.4349C45.3989 4.07054 44.27 4.37371 43.4831 5.25387V4.55684C43.4831 4.46733 43.4458 4.37971 43.3772 4.3174C43.3101 4.25363 43.2172 4.21711 43.1221 4.21711H41.944C41.8489 4.21711 41.7557 4.25363 41.6882 4.3174C41.6214 4.37971 41.5826 4.46733 41.5826 4.55684V7.92668H41.5834V15.1191H41.5826V18.5072C41.5826 18.5963 41.6203 18.6843 41.6882 18.7466C41.7561 18.8104 41.8489 18.8469 41.9425 18.8469H43.1217C43.2172 18.8469 43.3105 18.8104 43.3772 18.7466C43.4444 18.6843 43.4824 18.5963 43.4824 18.5072V15.1191H43.4805V14.4504L43.4816 14.4511C44.3718 15.2131 45.3966 15.4297 46.4349 15.4294C46.4595 15.4294 46.4856 15.4294 46.5024 15.4271C47.7655 15.426 48.8556 15.037 49.5369 14.4083C49.5455 14.4004 49.5519 14.3926 49.5586 14.3848ZM49.2043 9.88568C49.2043 10.956 49.0894 11.8149 48.6818 12.5615C48.2761 13.2913 47.6264 13.7732 46.3674 13.7847H46.348H46.3275H46.3189C45.0606 13.7732 44.4087 13.2902 44.0064 12.563C43.5954 11.8149 43.4816 10.956 43.4805 9.88568V9.82082C43.4805 8.74339 43.5954 7.68836 44.0064 6.93654C44.4087 6.20967 45.0606 5.72746 46.3189 5.71481H46.3398C46.3652 5.71591 46.3782 5.71591 46.3864 5.71481C47.6365 5.73382 48.2802 6.2149 48.6803 6.93541C49.0876 7.68427 49.2013 8.73036 49.2043 9.80103V9.82601V9.82863V9.85251V9.88568Z" fill="#6B1A6B"/>
<path d="M66.4775 16.3201C66.3738 16.6009 66.1877 17.0544 66.0636 17.3266C66.0636 17.3266 65.8394 17.8204 65.5217 18.1389C65.2308 18.4294 64.8989 18.63 64.5244 18.7408C64.1511 18.8516 63.9057 18.8687 63.9057 18.8687C63.6067 18.8896 63.1707 18.9072 62.9369 18.9072C62.7027 18.9072 62.511 18.6618 62.511 18.3627V17.5623C62.511 17.2629 62.6329 17.0179 62.781 17.0179C62.9298 17.0179 63.2949 16.9925 63.5925 16.9619C63.5925 16.9619 63.8192 16.938 64.0266 16.7788C64.2347 16.6192 64.3395 16.3899 64.3395 16.3899C64.4644 16.118 64.6483 15.6641 64.7482 15.3814L64.966 14.7661C65.066 14.4838 65.0634 14.0228 64.9608 13.7416L61.6603 4.72149C61.5574 4.44029 61.7185 4.21021 62.018 4.21021H63.1711C63.4705 4.21021 63.7942 4.44216 63.8905 4.72597L66.052 11.1054C66.1486 11.3892 66.3037 11.3884 66.3977 11.1043L68.5055 4.72746C68.5995 4.4429 68.9217 4.21021 69.2212 4.21021H70.3944C70.6943 4.21021 70.8543 4.43993 70.751 4.7211L66.4775 16.3201Z" fill="#6B1A6B"/>
<path d="M61.0741 7.8845V7.87666C61.0745 6.75076 60.6997 5.78525 59.9135 5.14008C59.1225 4.49043 57.9862 4.18538 56.5243 4.18461H56.4713H56.4516C54.9155 4.18051 53.6967 4.51466 52.7685 5.50144L52.7644 5.49847L52.711 5.56224C52.6417 5.63907 52.5731 5.71926 52.5059 5.8039C52.5059 5.80465 52.5052 5.80578 52.5048 5.80652L52.4101 5.91914C52.353 5.98626 52.3251 6.07687 52.3366 6.16826C52.3467 6.25926 52.3929 6.34726 52.4642 6.4088L52.5175 6.45504C52.538 6.47928 52.5607 6.50242 52.5861 6.52291L52.7935 6.69371L53.3461 7.17108C53.4166 7.23262 53.5099 7.26618 53.6001 7.26134C53.6904 7.25798 53.7739 7.21658 53.8313 7.14907L54.1856 6.7284V6.72766C54.4068 6.48861 54.6343 6.3178 54.9084 6.19772C55.2959 6.02841 55.793 5.9486 56.5116 5.94189L56.5202 5.9415L56.5441 5.94076C57.5663 5.94337 58.2018 6.1511 58.5658 6.47034C58.929 6.78436 59.1132 7.25947 59.1158 7.99712C59.1158 8.00196 59.1158 8.01503 59.1177 8.03181V8.72771H56.0835C54.8592 8.73068 53.8354 9.00665 53.097 9.58282C52.3635 10.1464 51.954 11.0131 51.9536 12.0233L51.954 12.0614C51.9559 12.9031 52.2721 13.7284 52.8472 14.3012C53.6236 15.0665 54.6581 15.3443 56.2207 15.3443H56.2383H57.0304C58.4617 15.3458 59.4887 14.9919 60.1499 14.2792C60.8101 13.5673 61.0745 12.5357 61.0745 11.2547V7.90351L61.0741 7.8845ZM53.9123 12.0367V12.011C53.9182 11.44 54.0924 11.0831 54.4198 10.8322C54.7626 10.5711 55.3395 10.4022 56.2036 10.4022H56.211H59.1177V11.3076C59.1147 12.196 58.9197 12.6868 58.659 12.9157C58.0283 13.4968 57.2481 13.584 56.2972 13.5863H56.2867H56.2696C55.3537 13.587 54.7525 13.4289 54.4116 13.1813C54.0872 12.9475 53.9205 12.6129 53.9123 12.0367Z" fill="#6B1A6B"/>
<path d="M18.5395 4.23169C18.2262 4.23169 17.9006 4.4782 17.8152 4.77879L15.754 12.0484C15.6686 12.3501 15.5187 12.3527 15.421 12.0555L13.0234 4.77208C12.9261 4.47484 12.5901 4.23169 12.2772 4.23169H11.8472C11.5343 4.23169 11.1986 4.47484 11.1017 4.77243L8.72347 12.0555C8.62615 12.3527 8.47622 12.3505 8.39006 12.0491L6.3106 4.77918C6.22444 4.4782 5.89774 4.23169 5.58485 4.23169H4.70885C4.39632 4.23169 4.21768 4.47597 4.31203 4.77431L7.4928 14.8059C7.58751 15.1038 7.92054 15.3485 8.23381 15.3485H8.83535C9.11468 15.3485 9.41563 15.1318 9.5044 14.867L11.8818 7.77084C11.9814 7.47435 12.1448 7.47435 12.2451 7.77046L14.6218 14.8092C14.7221 15.1053 15.06 15.3485 15.3725 15.3485H15.9546C16.2448 15.3485 16.5528 15.1221 16.6401 14.8458L19.813 4.77469C19.907 4.47597 19.728 4.23169 19.4155 4.23169H18.5395V4.23169Z" fill="#6B1A6B"/>
<path d="M22.179 8.79813C22.2185 8.10637 22.2685 7.79683 22.48 7.27732C22.8686 6.35654 23.7592 5.78485 24.8041 5.78485C25.8487 5.78485 26.7389 6.35618 27.1279 7.27545C27.3397 7.79683 27.3896 8.10637 27.4288 8.79813H22.179ZM29.3726 9.4392C29.3726 6.13988 27.622 4.08984 24.8041 4.08984C21.9437 4.08984 20.2357 6.20364 20.2357 9.74315C20.2357 13.3882 21.9586 15.3961 25.086 15.3961C27.0287 15.3961 28.071 14.7446 29.123 13.6929L29.2629 13.5534L27.92 12.3746L27.7973 12.4973C26.9403 13.3543 26.2418 13.6582 25.1297 13.6582C23.2773 13.6582 22.2283 12.4809 22.1716 10.3406H29.3726V9.4392Z" fill="#6B1A6B"/>
<path d="M1.93676 6.53395C2.56105 6.53395 3.06824 6.02416 3.06824 5.39541C3.06824 4.76702 2.56105 4.25684 1.93676 4.25684C1.31396 4.25684 0.806763 4.76702 0.806763 5.39541C0.806763 6.02416 1.31396 6.53395 1.93676 6.53395Z" fill="#D6006D"/>
<path d="M70.6935 15.3417C71.3181 15.3417 71.8249 14.8319 71.8249 14.2039C71.8249 13.5748 71.3181 13.0642 70.6935 13.0642C70.0703 13.0642 69.5642 13.5748 69.5642 14.2039C69.5642 14.8319 70.0703 15.3417 70.6935 15.3417Z" fill="#D6006D"/>
<path d="M77.1094 5.45636H75.8567V7.3352H77.1094C77.7165 7.3352 78.1021 6.95965 78.1021 6.40064C78.1021 5.8416 77.7165 5.45636 77.1094 5.45636ZM77.1769 8.53977H75.8567V11.122H74.5175V4.26147H77.1769C78.5933 4.26147 79.4413 5.23447 79.4413 6.40064C79.4413 7.56642 78.5933 8.53977 77.1769 8.53977Z" fill="#D6006D"/>
<path d="M80.2183 11.1221V4.2616H81.5575V9.92723H84.6696V11.1221H80.2183Z" fill="#D6006D"/>
<path d="M87.5397 11.1799C86.133 11.1799 85.0153 10.226 85.0153 8.77114V4.2616H86.3548V8.72302C86.3548 9.51289 86.8173 9.98503 87.5397 9.98503C88.2624 9.98503 88.7349 9.51289 88.7349 8.72302V4.2616H90.0644V8.77114C90.0644 10.226 88.9467 11.1799 87.5397 11.1799Z" fill="#D6006D"/>
<path d="M93.4623 11.1919C92.4233 11.1919 91.6341 10.9707 90.9606 10.2875L91.8266 9.42154C92.2595 9.85451 92.8465 9.99885 93.4813 9.99885C94.2704 9.99885 94.6941 9.70048 94.6941 9.15228C94.6941 8.91136 94.6265 8.70961 94.4822 8.57462C94.3476 8.44967 94.1936 8.38217 93.8758 8.33405L93.0483 8.21885C92.4617 8.13195 92.0287 7.9492 91.7206 7.65084C91.3936 7.32378 91.2299 6.88111 91.2299 6.3038C91.2299 5.08171 92.1343 4.22546 93.6163 4.22546C94.5591 4.22546 95.2422 4.45632 95.8293 5.02392L94.9827 5.86115C94.5497 5.44755 94.0299 5.38976 93.5779 5.38976C92.8655 5.38976 92.5195 5.78432 92.5195 6.25572C92.5195 6.42913 92.5769 6.61188 92.7216 6.74648C92.8563 6.87181 93.0774 6.97733 93.3563 7.01573L94.1645 7.13136C94.7903 7.21787 95.1848 7.39129 95.4735 7.66055C95.839 8.007 96.0027 8.50747 96.0027 9.1135C96.0027 10.4415 94.8958 11.1919 93.4623 11.1919Z" fill="#D6006D"/>
</g>
<defs>
<clipPath id="clip0">
<rect width="96.8093" height="24" fill="white"/>
</clipPath>
</defs>
</svg>
