<svg width="19" height="25" viewBox="0 0 19 25" fill="none" xmlns="http://www.w3.org/2000/svg">
<path d="M11.0184 24.054H1.85322C0.832057 24.054 0 23.2219 0 22.2008V1.85322C0 0.832057 0.832057 0 1.85322 0H11.0184C12.0396 0 12.8717 0.832057 12.8717 1.85322V22.2134C12.8717 23.2346 12.0396 24.054 11.0184 24.054Z" fill="white"/>
<path d="M11.4597 3.35352H1.41199V19.213H11.4597V3.35352Z" fill="#008542"/>
<path d="M6.42947 22.5538C7.02826 22.5538 7.51367 22.0684 7.51367 21.4696C7.51367 20.8708 7.02826 20.3854 6.42947 20.3854C5.83069 20.3854 5.34528 20.8708 5.34528 21.4696C5.34528 22.0684 5.83069 22.5538 6.42947 22.5538Z" fill="#008542"/>
<path d="M6.34665 17.2963H16.6758C17.6262 17.2963 18.4022 16.5203 18.4022 15.5699V8.5646C18.4022 7.61412 17.6262 6.83812 16.6758 6.83812H6.34665C5.39616 6.83812 4.62016 7.61412 4.62016 8.5646V15.5699C4.62016 16.5203 5.39616 17.2963 6.34665 17.2963Z" fill="#008542" stroke="white" stroke-width="0.804479"/>
<path d="M18 9.80933H5.0224V11.1733H18V9.80933Z" fill="white"/>
</svg>
