<svg width="85" height="55" viewBox="0 0 85 55" fill="none" xmlns="http://www.w3.org/2000/svg">
<path d="M83.4474 53.9995C83.4474 53.9995 73.3581 52.9284 66.0433 49.6493C58.7285 46.3703 53.8517 38.9632 53.8517 38.9632C53.7146 38.7713 53.7694 38.4971 53.9614 38.3874L57.4713 36.084C57.6632 35.9469 57.9375 36.0017 58.0471 36.1937C58.0471 36.1937 60.7463 41.8301 68.3134 45.3614C75.8804 48.8926 83.4474 48.8926 83.4474 48.8926V53.9995Z" stroke="white" stroke-width="1.5" stroke-miterlimit="10"/>
<path d="M21.6043 5.39972C21.3849 5.34488 21.1381 5.45456 21.0832 5.67393L19.438 9.81455C19.3831 10.0339 19.6025 10.2807 19.8219 10.3356L22.8656 11.4598L24.9771 6.49657L21.6043 5.39972Z" fill="white"/>
<path d="M42.1428 21.9078L52.3161 37.8944C52.4258 38.059 52.6726 38.1138 52.8371 38.0041L57.6633 34.9055C57.8552 34.7958 57.8826 34.549 57.773 34.3571L46.6125 18.4527M46.6125 18.4527L47.3529 16.1219C47.819 15.4364 47.6819 14.5041 46.9964 13.9831L36.1375 5.83893C34.5471 4.65981 32.2986 4.9066 31.0372 6.4422L30.8727 6.63415C30.5984 6.9632 30.1871 7.10031 29.7758 7.01804L26.211 6.30509C25.361 6.14056 24.5383 6.60672 24.2641 7.42936L22.8931 11.4877C22.7011 12.0636 22.8108 12.6943 23.1947 13.133L24.2367 14.367C24.5658 14.7509 24.7303 15.2444 24.7029 15.738L24.4286 20.0432C24.3738 20.8384 24.5932 21.6336 25.0319 22.3191L27.5273 26.213C28.3225 27.4743 29.9678 27.8582 31.2566 27.1179L42.1428 21.9078L46.6125 18.4527Z" stroke="white" stroke-width="1.5" stroke-miterlimit="10"/>
<path d="M20.5896 9.32125L11.8696 6.14038C10.005 5.45485 8.05807 4.96127 6.08373 4.65963L1.86085 3.9741C1.25758 3.89184 0.873684 3.28857 1.03821 2.6853L1.285 1.75297C1.42211 1.25939 1.91569 0.930334 2.40928 1.0126L6.76927 1.69813C8.7436 1.99977 10.6905 2.52077 12.5552 3.17888L21.3574 6.38717L20.5896 9.32125Z" stroke="white" stroke-width="1.5" stroke-miterlimit="10"/>
<path d="M32.134 28.21L30.7903 29.0874C30.1322 29.5262 29.9403 30.4037 30.3516 31.0892L38.578 44.1692C38.9893 44.8273 39.8394 45.0741 40.5523 44.6902L51.3289 39.014C51.7128 38.7946 51.8499 38.3284 51.6305 37.9445L50.7805 36.5186C50.5611 36.1347 50.0401 36.025 49.6836 36.2718L42.0057 41.5641C41.0733 42.1948 39.8394 41.9755 39.1813 41.0706L32.0792 31.3908C31.7775 30.8972 31.6953 30.3214 31.8049 29.773L32.134 28.21Z" fill="white"/>
<path d="M34.2158 27.6563L36.0966 25.7755C36.4068 25.4653 36.8528 25.2908 37.2987 25.3489L38.7142 25.4847C38.9856 25.5234 39.2571 25.601 39.4704 25.7755L48.3509 32.4844C48.4866 32.5813 48.4866 32.7752 48.3897 32.8722L47.9437 33.3181C47.8468 33.4151 47.7111 33.4345 47.6141 33.3375L41.6227 28.936C41.6227 28.936 40.0521 26.1633 37.8223 27.8502C37.8223 27.8502 36.9691 28.8973 35.9027 28.7615C35.224 28.7034 34.6036 28.3543 34.2545 28.1217C34.1188 28.0247 34.08 27.792 34.2158 27.6563Z" fill="white"/>
<path d="M42.9898 24.2753L42.9899 24.2753C44.8443 23.7798 46.1576 23.4093 47.7012 22.9738C48.0497 22.8754 48.41 22.7738 48.7909 22.6666C48.069 22.5028 47.217 22.3759 46.6067 22.3209L46.6067 22.3209L46.5975 22.32C46.1639 22.2755 45.7517 22.1213 45.4246 21.8293C45.0931 21.5335 44.8959 21.1374 44.832 20.6981L44.8308 20.69L44.8298 20.6818C44.755 20.0742 44.8997 19.4731 45.3116 19.0304C45.7247 18.5866 46.315 18.4003 46.9334 18.4433C47.5826 18.4812 48.229 18.52 48.8736 18.5587C50.5275 18.6579 52.1699 18.7565 53.8192 18.8373L53.8201 18.8374C54.3914 18.866 55.0128 19.0866 55.6107 19.4111C56.2185 19.741 56.8483 20.2035 57.4441 20.7716C58.6329 21.905 59.7314 23.5025 60.2372 25.4033C60.7235 27.2308 60.7803 28.812 60.3205 30.1826C59.8561 31.5669 58.8985 32.6367 57.5517 33.4975L57.4688 33.5505L57.375 33.5803L48.5214 36.3953L48.4819 36.4079L48.4413 36.416C47.9083 36.5226 47.3649 36.4403 46.9327 36.1096C46.5053 35.7827 46.2857 35.2887 46.2429 34.764C46.2063 34.4107 46.2662 34.0697 46.411 33.7729C46.3605 33.7848 46.3085 33.7967 46.2548 33.8089C45.7449 33.9252 45.2437 33.8263 44.8404 33.5387C44.4467 33.258 44.1939 32.8331 44.0822 32.3675L44.0821 32.3675L44.0803 32.3596C43.9737 31.8932 44.0385 31.4483 44.2332 31.0771C43.1953 31.2948 42.3694 30.5902 42.1176 29.6903L42.1175 29.6903L42.1157 29.6835C42.0006 29.2567 41.9788 28.793 42.1756 28.3677C41.8591 28.4528 41.5657 28.5319 41.2721 28.6111L41.2718 28.6112C40.4639 28.8291 39.6549 29.0473 38.363 29.3894L38.3369 29.3963L38.3103 29.4014C38.2841 29.4063 38.2619 29.4125 38.2169 29.4251C38.1911 29.4323 38.158 29.4415 38.1124 29.4538C38.0251 29.4774 37.8827 29.5142 37.7241 29.5255C37.1537 29.5944 36.6096 29.4303 36.2088 29.0616C35.8035 28.6886 35.5964 28.1539 35.6145 27.5862L35.6149 27.5735L35.6158 27.5608C35.6422 27.1597 35.7825 26.7754 36.0586 26.4601C36.3312 26.1489 36.6966 25.9499 37.1027 25.8442C38.4029 25.4967 39.2245 25.2783 40.0457 25.0599L40.046 25.0599L40.047 25.0596C40.8683 24.8412 41.6896 24.6229 42.9898 24.2753ZM46.7673 29.7791C46.7673 29.7791 46.7666 29.7794 46.7653 29.7799L46.7673 29.7791ZM46.9448 30.3561C46.9449 30.3561 46.9436 30.3562 46.9409 30.3567C46.9435 30.3565 46.9448 30.3562 46.9448 30.3561ZM45.2883 26.9028C45.2883 26.9027 45.2873 26.9032 45.2854 26.9041L45.2883 26.9028ZM49.7217 23.1893C49.6807 23.1982 49.6458 23.2058 49.6197 23.2128L45.5742 20.5901C45.6563 21.1541 46.0582 21.5107 46.6741 21.5739C48.0191 21.6952 50.4459 22.1427 50.5007 22.6057C50.5485 23.009 49.998 23.129 49.7217 23.1893Z" fill="#006298" stroke="white" stroke-width="1.5" stroke-miterlimit="10"/>
</svg>

