<svg width="88" height="48" viewBox="0 0 88 48" fill="none" xmlns="http://www.w3.org/2000/svg">
<path d="M20.485 1H7.55621C4.85303 1 2.66357 3.18946 2.66357 5.88041V42.2939H25.3654V5.88041C25.3654 3.18946 23.176 1 20.485 1Z" stroke="white" stroke-width="1.23704" stroke-miterlimit="10"/>
<path d="M27.0411 45.9997H1V44.2261C1 43.1497 1.86844 42.2812 2.94482 42.2812H25.0962C26.1726 42.2812 27.0411 43.1497 27.0411 44.2261V45.9997Z" stroke="white" stroke-width="1.23704" stroke-miterlimit="10"/>
<path d="M19.0537 15.6171H8.98714C7.69059 15.6171 6.63867 14.5652 6.63867 13.2686V7.32405C6.63867 6.0275 7.69059 4.97559 8.98714 4.97559H19.0537C20.3503 4.97559 21.4022 6.0275 21.4022 7.32405V13.2808C21.39 14.5774 20.3381 15.6171 19.0537 15.6171Z" stroke="white" stroke-width="1.23704" stroke-miterlimit="10"/>
<path d="M31.9258 17.4941C32.5104 18.9976 35.2245 23.4235 35.2245 29.0398C35.2245 30.6892 35.6369 37.2867 30.0719 34.3321C28.4216 33.4559 26.5653 32.3386 25.311 32.5781" stroke="white" stroke-width="1.23704"/>
<path d="M29.4544 11.4269L29.0287 11.679L25.8052 8.98747C25.6502 8.88758 25.3533 8.87174 25.2534 9.02674L25.1535 9.18175C24.9826 9.37879 24.9957 9.56273 25.1928 9.73358L28.1772 12.1833L27.7514 12.4355C27.5386 12.5616 27.4807 12.7875 27.6068 13.0004L27.7749 13.2842C27.7039 13.3263 27.562 13.4103 27.491 13.4523C26.5266 13.9277 26.3344 15.3834 27.0068 16.5187C27.6792 17.6541 29.0481 18.1852 29.9705 17.6389C30.0415 17.5968 30.1834 17.5128 30.2544 17.4708L30.6746 18.1804C30.8007 18.3932 31.0266 18.4511 31.2395 18.325L33.0135 17.2744C33.2263 17.1483 33.2842 16.9224 33.1581 16.7095L30.0903 11.5295C29.8933 11.3587 29.6673 11.3008 29.4544 11.4269ZM29.5661 16.6324C28.9984 16.9686 28.2785 16.724 27.8583 16.0144C27.438 15.3048 27.5696 14.556 28.1373 14.2198L29.5661 16.6324Z" fill="white"/>
<path d="M59.0141 32.5376H59.7118V31.8399V25.3276V24.6299H59.0141H54.2041C53.4635 24.6299 52.7344 25.2101 52.7344 26.0331V31.1344C52.7344 31.9574 53.4635 32.5376 54.2041 32.5376H59.0141Z" fill="#006298" stroke="white" stroke-width="1.39548"/>
<path d="M70.6282 2.30226H70.2778L70.0685 2.58332L64.1194 10.5737H56.4399C55.4749 10.5737 54.595 11.3454 54.595 12.4186V13.445C54.595 15.017 55.6462 16.4067 57.1964 16.7229L59.215 17.1978C58.1941 18.625 57.6138 20.315 57.6138 22.0787V39.0443C57.6138 43.0003 60.5844 46.4809 64.6126 46.6842C67.7644 46.8719 70.5608 45.0892 71.8098 42.459H85.9032H86.601V41.7612V3V2.30226H85.9032H70.6282Z" fill="#006298" stroke="white" stroke-width="1.39548"/>
<path d="M85.1534 7.55396V17.0423H66.7158L72.8687 7.66368C72.9231 7.59888 73.0067 7.55396 73.1037 7.55396H85.1534Z" stroke="white" stroke-width="1.5"/>
<path d="M73.6214 26.2445V26.2912L73.6272 26.3375C73.6305 26.3642 73.6226 26.3796 73.6151 26.3882C73.6111 26.3929 73.6071 26.3956 73.6039 26.3971C73.6015 26.3982 73.5966 26.4001 73.5865 26.4001H68.6961C66.7557 26.4001 65.1594 24.8039 65.1594 22.8634V22.5616C65.1594 22.5126 65.1754 22.494 65.1813 22.4881C65.1871 22.4823 65.2057 22.4663 65.2547 22.4663H69.8432C71.9583 22.4663 73.6214 24.1768 73.6214 26.2445Z" stroke="white" stroke-width="1.5"/>
</svg>
