<?xml version="1.0" encoding="utf-8"?>
<!-- Generator: Adobe Illustrator 24.3.0, SVG Export Plug-In . SVG Version: 6.00 Build 0)  -->
<svg version="1.1" xmlns="http://www.w3.org/2000/svg" xmlns:xlink="http://www.w3.org/1999/xlink" x="0px" y="0px"
	 viewBox="0 0 34 56" style="enable-background:new 0 0 34 56;" xml:space="preserve">
<style type="text/css">
	.st0{fill:none;stroke:#FFFFFF;stroke-width:1.2;stroke-miterlimit:10;}
	.st1{fill:none;stroke:#FFFFFF;stroke-width:1.2;stroke-linecap:round;stroke-miterlimit:10;}
	.st2{fill:none;stroke:#FFFFFF;stroke-width:1.2;stroke-linecap:round;stroke-linejoin:round;stroke-miterlimit:10;}
	.st3{fill:none;stroke:#FFFFFF;stroke-linejoin:round;stroke-miterlimit:10;}
</style>
<g id="Capa_1">
	<g>
		<path class="st0" d="M10.4,15.8c-1.6-1-2.7-2.9-2.7-5c0-3.2,2.4-5.7,5.4-5.7c3,0,5.4,2.6,5.4,5.7c0,2-1,3.8-2.5,4.8"/>
		<path class="st1" d="M6.7,1.4c-3,1.8-4.9,5.1-4.9,8.8c0,3.7,2,7,4.9,8.8"/>
		<path class="st1" d="M7.3,4.3c-1.6,1.5-2.6,3.6-2.6,5.9c0,2.3,1,4.4,2.6,5.9"/>
		<path class="st2" d="M19.9,19.1c3-1.8,4.9-5.1,4.9-8.8s-2-7-4.9-8.8"/>
		<path class="st2" d="M19.4,16.1c1.6-1.5,2.6-3.6,2.6-5.9c0-2.3-1-4.4-2.6-5.9"/>
		<path class="st3" d="M32.2,30.5c0-1.6-1.3-3-3-3c-0.8,0-1.7,0.2-2.2,0.8l0,4.9c0-0.1,0-4.8,0-5c0-0.5-0.4-1.4-0.4-1.4
			c-0.5-1-1.5-1.6-2.7-1.6c-0.9,0-1.8,0.4-2.3,0.9l0,5.7c0-0.1,0-5.6,0-5.7c0-1.7-1.4-3.1-3.1-3.1c-0.9,0-2,0.4-2.6,1l0,6.4l0-14.6
			c-0.1-1.4-1.3-2.5-2.7-2.5c-1.4,0-2.6,1.1-2.7,2.5l0,22.7l-2.2-4.8c-0.5-1.4-1.9-2.4-3.5-2.1c-1.1,0.2-2.1,1-2.5,2.1
			c-0.3,0.9-0.2,1.8,0.1,2.5L5.7,46c0,0,0.4,8.5,13.8,8.5c3,0,9.8-0.1,11.9-7.6c0-0.2,0.1-0.3,0.1-0.5L32,33.6
			C32,33.6,32.2,30.8,32.2,30.5z"/>
	</g>
</g>
<g id="Capa_2">
</g>
</svg>
