<svg width="44" height="57" viewBox="0 0 44 57" fill="none" xmlns="http://www.w3.org/2000/svg">
<path d="M24.6269 1H8.94978C5.67197 1 3.01709 3.65488 3.01709 6.91786V51.0719H30.5448V6.91786C30.5448 3.65488 27.8899 1 24.6269 1Z" stroke="white" stroke-width="1.5" stroke-miterlimit="10"/>
<path d="M32.5767 55.5655H1V53.4149C1 52.1097 2.05305 51.0566 3.35824 51.0566H30.2185C31.5237 51.0566 32.5767 52.1097 32.5767 53.4149V55.5655Z" stroke="white" stroke-width="1.5" stroke-miterlimit="10"/>
<path d="M22.8916 18.7239H10.6851C9.11293 18.7239 7.8374 17.4484 7.8374 15.8762V8.668C7.8374 7.09584 9.11293 5.82031 10.6851 5.82031H22.8916C24.4638 5.82031 25.7393 7.09584 25.7393 8.668V15.891C25.7245 17.4632 24.4489 18.7239 22.8916 18.7239Z" stroke="white" stroke-width="1.5" stroke-miterlimit="10"/>
<path d="M38.4999 21C39.2088 22.823 42.4999 28.1898 42.4999 35C42.4999 37 42.9999 45 36.2519 41.4173C34.2508 40.3548 31.9999 39 30.479 39.2904" stroke="white" stroke-width="1.5"/>
<path d="M35.5032 13.6431L34.9869 13.9489L31.0782 10.6851C30.8902 10.564 30.5302 10.5448 30.4091 10.7328L30.2879 10.9207C30.0808 11.1596 30.0966 11.3827 30.3356 11.5899L33.9544 14.5604L33.4382 14.8661C33.18 15.019 33.1099 15.293 33.2627 15.5511L33.4666 15.8953C33.3805 15.9463 33.2084 16.0482 33.1224 16.0991C31.9529 16.6755 31.7198 18.4407 32.5352 19.8174C33.3505 21.194 35.0104 21.8381 36.1289 21.1756C36.215 21.1247 36.3871 21.0227 36.4731 20.9718L36.9827 21.8322C37.1356 22.0903 37.4096 22.1605 37.6677 22.0076L39.8188 20.7337C40.0769 20.5808 40.147 20.3068 39.9942 20.0487L36.2742 13.7676C36.0353 13.5604 35.7613 13.4902 35.5032 13.6431ZM35.6386 19.9551C34.9502 20.3628 34.0773 20.0663 33.5677 19.2058C33.0581 18.3454 33.2176 17.4374 33.906 17.0297L35.6386 19.9551Z" fill="white"/>
</svg>
