<svg width="87" height="55" viewBox="0 0 87 55" fill="none" xmlns="http://www.w3.org/2000/svg">
<path d="M85.4999 53.9995C85.4999 53.9995 75.3579 52.9284 68.0431 49.6493C60.7283 46.3703 55.8516 38.9632 55.8516 38.9632C55.7144 38.7713 55.7693 38.4971 55.9612 38.3874L59.4712 36.084C59.6631 35.9469 59.9373 36.0017 60.047 36.1937C60.047 36.1937 62.7462 41.8301 70.3132 45.3614C77.8803 48.8926 85.4473 48.8926 85.4473 48.8926L85.4999 53.9995Z" stroke="white" stroke-width="1.5" stroke-miterlimit="10"/>
<path d="M23.6043 5.39972C23.3849 5.34488 23.1381 5.45456 23.0832 5.67393L21.438 9.81455C21.3831 10.0339 21.6025 10.2807 21.8219 10.3356L24.8656 11.4598L26.9771 6.49657L23.6043 5.39972Z" fill="white"/>
<path d="M22.5896 9.32125L13.8696 6.14038C12.005 5.45485 10.0581 4.96127 8.08373 4.65963L3.86085 3.9741C3.25758 3.89184 2.87368 3.28857 3.03821 2.6853L3.285 1.75297C3.42211 1.25939 3.91569 0.930334 4.40928 1.0126L8.76927 1.69813C10.7436 1.99977 12.6905 2.52077 14.5552 3.17888L23.3574 6.38717L22.5896 9.32125Z" stroke="white" stroke-width="1.09685" stroke-miterlimit="10"/>
<path d="M34.134 28.21L32.7903 29.0874C32.1322 29.5262 31.9403 30.4037 32.3516 31.0892L40.578 44.1692C40.9893 44.8273 41.8394 45.0741 42.5523 44.6902L53.3289 39.014C53.7128 38.7946 53.8499 38.3284 53.6305 37.9445L52.7805 36.5186C52.5611 36.1347 52.0401 36.025 51.6836 36.2718L44.0057 41.5641C43.0733 42.1948 41.8394 41.9755 41.1813 41.0706L34.0792 31.3908C33.7775 30.8972 33.6953 30.3214 33.8049 29.773L34.134 28.21Z" fill="white"/>
<path d="M37.3149 25.9932H39.9748C40.4135 25.9932 40.8522 26.1851 41.1265 26.5416L42.0314 27.6384C42.1959 27.8578 42.333 28.1046 42.3604 28.3788L43.896 39.4022C43.9234 39.5667 43.7863 39.7038 43.6492 39.7038H43.0185C42.8814 39.7038 42.7717 39.6216 42.7717 39.4845L41.6475 32.1355C41.6475 32.1355 42.4975 29.0644 39.728 28.6805C39.728 28.6805 38.3843 28.8176 37.7262 27.9675C37.2875 27.4465 37.0955 26.761 37.0133 26.3496C36.9858 26.1851 37.1229 25.9932 37.3149 25.9932Z" fill="white"/>
<path d="M44.1428 21.9078L54.3161 37.8944C54.4258 38.059 54.6726 38.1138 54.8371 38.0041L59.6633 34.9055C59.8552 34.7958 59.8826 34.549 59.773 34.3571L48.6125 18.4527M48.6125 18.4527L49.3529 16.1219C49.819 15.4364 49.6819 14.5041 48.9964 13.9831L38.1375 5.83893C36.5471 4.65981 34.2986 4.9066 33.0372 6.4422L32.8727 6.63415C32.5984 6.9632 32.1871 7.10031 31.7758 7.01804L28.211 6.30509C27.361 6.14056 26.5383 6.60672 26.2641 7.42936L24.8931 11.4877C24.7011 12.0636 24.8108 12.6943 25.1947 13.133L26.2367 14.367C26.5658 14.7509 26.7303 15.2444 26.7029 15.738L26.4286 20.0432C26.3738 20.8384 26.5932 21.6336 27.0319 22.3191L29.5273 26.213C30.3225 27.4743 31.9678 27.8582 33.2566 27.1179L44.1428 21.9078L48.6125 18.4527Z" stroke="white" stroke-width="1.5" stroke-miterlimit="10"/>
<path d="M3.22497 8C1.54595 10.6667 -0.804663 16 3.22497 16C7.2546 16 4.90398 10.6667 3.22497 8Z" stroke="white"/>
</svg>
