<svg width="329" height="56" viewBox="0 0 329 56" fill="none" xmlns="http://www.w3.org/2000/svg">
<rect x="0.5" y="0.5" width="328" height="55" rx="3.5" fill="white" stroke="#BCBDBC"/>
<path d="M0 4C0 1.79086 1.79086 0 4 0H108.341L133.19 56H4C1.79086 56 0 54.2091 0 52V4Z" fill="#6AA842"/>
<path d="M206.776 23.4844L205.925 25.1172C205.685 24.9036 205.315 24.6927 204.815 24.4844C204.315 24.2708 203.886 24.1641 203.526 24.1641C202.401 24.1641 201.513 24.5469 200.862 25.3125C200.211 26.0729 199.886 27.0938 199.886 28.375C199.886 29.5938 200.203 30.5677 200.839 31.2969C201.479 32.026 202.349 32.3906 203.448 32.3906C204.172 32.3906 204.768 32.1927 205.237 31.7969V29.5469H203.651V27.8125H207.268V32.9375C206.784 33.3333 206.159 33.6432 205.393 33.8672C204.633 34.0859 203.875 34.1953 203.12 34.1953C201.479 34.1953 200.177 33.6589 199.214 32.5859C198.255 31.5078 197.776 30.0859 197.776 28.3203C197.776 26.5547 198.3 25.1198 199.347 24.0156C200.393 22.9115 201.802 22.3594 203.573 22.3594C204.828 22.3594 205.896 22.7344 206.776 23.4844ZM213.202 33.1641C213.025 33.4557 212.715 33.6953 212.272 33.8828C211.835 34.0651 211.377 34.1562 210.897 34.1562C209.996 34.1562 209.288 33.9323 208.772 33.4844C208.257 33.0312 207.999 32.3906 207.999 31.5625C207.999 30.5938 208.361 29.8359 209.085 29.2891C209.814 28.7422 210.848 28.4688 212.187 28.4688C212.416 28.4688 212.687 28.5078 212.999 28.5859C212.999 27.6016 212.377 27.1094 211.132 27.1094C210.397 27.1094 209.783 27.2318 209.288 27.4766L208.866 25.9609C209.538 25.638 210.338 25.4766 211.265 25.4766C212.541 25.4766 213.476 25.7682 214.069 26.3516C214.663 26.9297 214.96 28.0286 214.96 29.6484V31.4375C214.96 32.5521 215.184 33.2526 215.632 33.5391C215.47 33.8203 215.291 33.9922 215.093 34.0547C214.895 34.1224 214.668 34.1562 214.413 34.1562C214.132 34.1562 213.879 34.0521 213.655 33.8438C213.431 33.6354 213.28 33.4089 213.202 33.1641ZM213.015 30.0625C212.681 29.9948 212.431 29.9609 212.265 29.9609C210.723 29.9609 209.952 30.4661 209.952 31.4766C209.952 32.2266 210.387 32.6016 211.257 32.6016C212.429 32.6016 213.015 32.0156 213.015 30.8438V30.0625ZM216.152 33.4609L216.847 31.9062C217.43 32.3698 218.089 32.6016 218.823 32.6016C219.584 32.6016 219.964 32.3307 219.964 31.7891C219.964 31.4714 219.849 31.2109 219.62 31.0078C219.391 30.8047 218.946 30.5651 218.284 30.2891C216.842 29.6901 216.12 28.8516 216.12 27.7734C216.12 27.0495 216.396 26.487 216.948 26.0859C217.501 25.6797 218.206 25.4766 219.066 25.4766C219.935 25.4766 220.753 25.6719 221.519 26.0625L220.956 27.5781C220.529 27.2135 219.935 27.0312 219.175 27.0312C218.493 27.0312 218.152 27.3021 218.152 27.8438C218.152 28.0573 218.264 28.25 218.487 28.4219C218.711 28.5938 219.191 28.8255 219.925 29.1172C220.659 29.4036 221.188 29.7526 221.511 30.1641C221.834 30.5755 221.995 31.0729 221.995 31.6562C221.995 32.4323 221.706 33.0443 221.128 33.4922C220.555 33.9349 219.774 34.1562 218.784 34.1562C218.227 34.1562 217.779 34.1094 217.441 34.0156C217.107 33.9271 216.678 33.7422 216.152 33.4609ZM222.601 29.7969C222.601 28.5208 222.968 27.4818 223.702 26.6797C224.442 25.8776 225.416 25.4766 226.624 25.4766C227.895 25.4766 228.882 25.862 229.585 26.6328C230.288 27.4036 230.64 28.4583 230.64 29.7969C230.64 31.1302 230.281 32.1901 229.562 32.9766C228.848 33.763 227.869 34.1562 226.624 34.1562C225.354 34.1562 224.364 33.7604 223.656 32.9688C222.952 32.1719 222.601 31.1146 222.601 29.7969ZM224.632 29.7969C224.632 31.6406 225.296 32.5625 226.624 32.5625C227.234 32.5625 227.716 32.3229 228.07 31.8438C228.429 31.3646 228.609 30.6823 228.609 29.7969C228.609 27.9792 227.947 27.0703 226.624 27.0703C226.015 27.0703 225.531 27.3099 225.171 27.7891C224.812 28.2682 224.632 28.9375 224.632 29.7969ZM232.136 22.5156L234.089 22.0469V31.4531C234.089 32.4844 234.397 33.099 235.011 33.2969C234.709 33.8698 234.194 34.1562 233.464 34.1562C232.579 34.1562 232.136 33.5417 232.136 32.3125V22.5156ZM237.64 22.3906C237.953 22.3906 238.218 22.5026 238.437 22.7266C238.661 22.9453 238.773 23.2109 238.773 23.5234C238.773 23.8359 238.661 24.1042 238.437 24.3281C238.218 24.5469 237.953 24.6562 237.64 24.6562C237.328 24.6562 237.06 24.5469 236.836 24.3281C236.617 24.1042 236.507 23.8359 236.507 23.5234C236.507 23.2109 236.617 22.9453 236.836 22.7266C237.06 22.5026 237.328 22.3906 237.64 22.3906ZM236.632 34V27.2344H235.562V25.6328H238.609V34H236.632ZM245.863 34V29.1641C245.863 28.4505 245.725 27.9297 245.449 27.6016C245.178 27.2734 244.733 27.1094 244.113 27.1094C243.827 27.1094 243.519 27.1901 243.191 27.3516C242.868 27.513 242.616 27.7135 242.433 27.9531V34H240.48V25.6328H241.887L242.246 26.4141C242.777 25.7891 243.561 25.4766 244.597 25.4766C245.592 25.4766 246.376 25.776 246.949 26.375C247.527 26.9688 247.816 27.7995 247.816 28.8672V34H245.863ZM254.18 33.1641C254.003 33.4557 253.693 33.6953 253.25 33.8828C252.812 34.0651 252.354 34.1562 251.875 34.1562C250.974 34.1562 250.266 33.9323 249.75 33.4844C249.234 33.0312 248.977 32.3906 248.977 31.5625C248.977 30.5938 249.339 29.8359 250.062 29.2891C250.792 28.7422 251.826 28.4688 253.164 28.4688C253.393 28.4688 253.664 28.5078 253.977 28.5859C253.977 27.6016 253.354 27.1094 252.109 27.1094C251.375 27.1094 250.76 27.2318 250.266 27.4766L249.844 25.9609C250.516 25.638 251.315 25.4766 252.242 25.4766C253.518 25.4766 254.453 25.7682 255.047 26.3516C255.641 26.9297 255.938 28.0286 255.938 29.6484V31.4375C255.938 32.5521 256.161 33.2526 256.609 33.5391C256.448 33.8203 256.268 33.9922 256.07 34.0547C255.872 34.1224 255.646 34.1562 255.391 34.1562C255.109 34.1562 254.857 34.0521 254.633 33.8438C254.409 33.6354 254.258 33.4089 254.18 33.1641ZM253.992 30.0625C253.659 29.9948 253.409 29.9609 253.242 29.9609C251.701 29.9609 250.93 30.4661 250.93 31.4766C250.93 32.2266 251.365 32.6016 252.234 32.6016C253.406 32.6016 253.992 32.0156 253.992 30.8438V30.0625Z" fill="#757878"/>
<path fill-rule="evenodd" clip-rule="evenodd" d="M291.5 33C291.244 33 290.988 32.902 290.793 32.707C290.402 32.316 290.402 31.684 290.793 31.293L294.098 27.988L290.918 24.695C290.535 24.297 290.546 23.664 290.943 23.281C291.341 22.898 291.974 22.909 292.357 23.305L296.219 27.305C296.598 27.698 296.593 28.321 296.207 28.707L292.207 32.707C292.012 32.902 291.756 33 291.5 33Z" fill="#757878"/>
<path d="M111.323 0H121.263L146.112 56H136.172L111.323 0Z" fill="#FDC82F"/>
<path d="M74.0908 38.1094C73.6377 37.7773 73.1768 37.6113 72.708 37.6113C71.7666 37.6113 71.2959 37.9668 71.2959 38.6777C71.2959 38.9785 71.5459 39.3379 72.0459 39.7559L72.9307 40.5059C73.2041 40.7402 73.3936 40.9121 73.499 41.0215C73.6045 41.127 73.7158 41.2754 73.833 41.4668C73.9502 41.6582 74.0381 41.8516 74.0967 42.0469C74.1553 42.2422 74.1846 42.4414 74.1846 42.6445C74.1846 43.4297 73.8896 44.043 73.2998 44.4844C72.7139 44.9258 71.9521 45.1465 71.0146 45.1465C70.2451 45.1465 69.5186 44.9805 68.835 44.6484L69.3271 43.1426C69.8506 43.5371 70.458 43.7344 71.1494 43.7344C71.5674 43.7344 71.9131 43.6465 72.1865 43.4707C72.4639 43.291 72.6025 43.0371 72.6025 42.709C72.6025 42.3848 72.3525 42.0273 71.8525 41.6367L70.9326 40.9043C70.6514 40.6777 70.46 40.5137 70.3584 40.4121C70.2607 40.3105 70.1572 40.1699 70.0479 39.9902C69.9385 39.8066 69.8564 39.6191 69.8018 39.4277C69.7471 39.2363 69.7197 39.0391 69.7197 38.8359C69.7197 38.0469 69.9814 37.4219 70.5049 36.9609C71.0283 36.5 71.7139 36.2695 72.5615 36.2695C72.8428 36.2695 73.2021 36.3027 73.6396 36.3691C74.0771 36.4316 74.3838 36.5039 74.5596 36.5859L74.0908 38.1094ZM79.6339 45.0059H78.1691L78.257 44.5488C77.7336 44.9277 77.0773 45.1172 76.2882 45.1172C75.7492 45.1172 75.3254 44.9629 75.0168 44.6543C74.7121 44.3457 74.5597 43.918 74.5597 43.3711C74.5597 43.1992 74.5812 42.998 74.6242 42.7676L75.38 38.7246H76.8683L76.1242 42.709C76.0929 42.877 76.0773 43.0195 76.0773 43.1367C76.0773 43.6445 76.3625 43.8984 76.9328 43.8984C77.3976 43.8984 77.7863 43.748 78.0988 43.4473C78.4152 43.1426 78.6125 42.7773 78.6906 42.3516L79.3351 38.7246H80.8058L79.6339 45.0059ZM82.265 44.8301L81.7962 47.4609H80.3314L81.597 40.6641C81.6439 40.4141 81.6673 40.1621 81.6673 39.9082C81.6673 39.5645 81.6321 39.2188 81.5618 38.8711L82.9915 38.6133C83.0462 38.7617 83.0911 38.9609 83.1263 39.2109C83.6693 38.8086 84.2083 38.6074 84.7435 38.6074C86.4193 38.6074 87.2571 39.4199 87.2571 41.0449C87.2571 42.2363 86.9134 43.2129 86.2259 43.9746C85.5384 44.7363 84.6302 45.1172 83.5013 45.1172C83.0521 45.1172 82.64 45.0215 82.265 44.8301ZM82.4935 43.582C82.6849 43.7812 82.9681 43.8809 83.3431 43.8809C84.1126 43.8809 84.7005 43.6484 85.1068 43.1836C85.5169 42.7148 85.722 42.0508 85.722 41.1914C85.722 40.793 85.5989 40.4746 85.3529 40.2363C85.1068 39.9941 84.7689 39.873 84.3392 39.873C84.1478 39.873 83.9212 39.9375 83.6595 40.0664C83.4017 40.1914 83.2083 40.3301 83.0794 40.4824L82.4935 43.582ZM89.2612 42.2754C89.2534 42.377 89.2495 42.4648 89.2495 42.5391C89.2495 42.9766 89.3784 43.3125 89.6362 43.5469C89.8979 43.7812 90.2593 43.8984 90.7202 43.8984C90.9663 43.8984 91.2495 43.832 91.5698 43.6992C91.8901 43.5625 92.1421 43.4102 92.3257 43.2422L92.1557 44.7832C91.6596 45.0059 91.0542 45.1172 90.3393 45.1172C89.5659 45.1172 88.9389 44.873 88.4585 44.3848C87.978 43.8965 87.7378 43.2266 87.7378 42.375C87.7378 41.2969 88.0835 40.4004 88.7749 39.6855C89.4702 38.9668 90.3784 38.6074 91.4995 38.6074C92.1596 38.6074 92.6948 38.748 93.105 39.0293C93.5151 39.3066 93.7202 39.7051 93.7202 40.2246C93.7202 40.9316 93.4136 41.4863 92.8003 41.8887C92.1909 42.291 91.4389 42.4922 90.5444 42.4922C90.1069 42.4922 89.6792 42.4199 89.2612 42.2754ZM89.5425 41.168C89.7964 41.2422 90.0718 41.2793 90.3686 41.2793C90.8999 41.2793 91.3491 41.1992 91.7163 41.0391C92.0835 40.875 92.2671 40.6406 92.2671 40.3359C92.2671 39.9961 91.896 39.8262 91.1538 39.8262C90.8608 39.8262 90.562 39.9551 90.2573 40.2129C89.9526 40.4668 89.7143 40.7852 89.5425 41.168ZM98.5543 40.2129C98.2067 39.9551 97.9 39.8262 97.6344 39.8262C97.2555 39.8262 96.9079 39.9922 96.5914 40.3242C96.2789 40.6523 96.0817 41.0293 95.9996 41.4551L95.3375 45H93.8668L95.0387 38.7246H96.5094L96.4098 39.2695C96.9293 38.8281 97.5036 38.6074 98.1325 38.6074C98.2926 38.6074 98.5797 38.6445 98.9938 38.7188L98.5543 40.2129Z" fill="white"/>
<rect x="0.5" y="0.5" width="328" height="55" rx="3.5" stroke="#BCBDBC"/>
<path d="M16.635 38.3154C17.5619 38.444 18.5767 38.5244 19.6795 38.5566C20.7822 38.5887 21.8929 38.6048 23.0117 38.6048C23.8427 38.6048 24.6258 38.5485 25.361 38.436C26.0961 38.3234 26.7354 38.026 27.2788 37.5436C27.8221 37.0612 28.2536 36.3457 28.5733 35.3971C28.8929 34.4484 29.0687 33.138 29.1007 31.4658C28.4934 31.7874 27.7902 32.0446 26.9911 32.2376C26.192 32.4305 25.345 32.527 24.45 32.527C21.4454 32.527 19.1041 31.6025 17.4261 29.7534C15.748 27.9043 14.9089 25.3237 14.9089 22.0114C14.9089 20.3392 15.0927 18.7716 15.4603 17.3084C15.8279 15.8452 16.4272 14.575 17.2582 13.4977C18.0893 12.4204 19.176 11.5682 20.5185 10.9412C21.861 10.3141 23.5231 10.0005 25.5048 10.0005C27.7103 10.0005 29.5562 10.3221 31.0424 10.9653C32.5287 11.6084 33.7274 12.5732 34.6383 13.8595C35.5493 15.1458 36.1965 16.7617 36.5801 18.7072C36.9637 20.6528 37.1554 22.9279 37.1554 25.5327C37.1554 28.8771 36.9717 31.7954 36.6041 34.2876C36.2365 36.7799 35.5733 38.854 34.6144 40.5101C33.6555 42.1663 32.3529 43.4124 30.7068 44.2485C29.0607 45.0846 26.9591 45.5026 24.4021 45.5026C22.8359 45.5026 21.4774 45.3981 20.3267 45.1891C19.176 44.9801 17.9455 44.6504 16.635 44.2002V38.3154ZM23.3473 25.0503C23.8906 25.8543 24.7537 26.2563 25.9363 26.2563C27.3427 26.2563 28.2536 25.8704 28.6692 25.0986C29.0847 24.3268 29.2925 23.2817 29.2925 21.9632C29.2925 19.8408 28.9888 18.3937 28.3815 17.6219C27.7742 16.8501 26.9591 16.4642 25.9363 16.4642C25.3929 16.4642 24.9135 16.5446 24.4979 16.7054C24.0824 16.8662 23.7308 17.1396 23.4432 17.5254C23.1555 17.9113 22.9397 18.4419 22.7959 19.1173C22.6521 19.7926 22.5801 20.6447 22.5801 21.6738C22.5801 23.1209 22.8359 24.2464 23.3473 25.0503Z" fill="white"/>
<path d="M41.519 38.0266C42.5419 38.1874 43.5647 38.308 44.5875 38.3884C45.6104 38.4688 46.8569 38.509 48.3272 38.509C50.5966 38.509 52.1469 38.1874 52.9779 37.5442C53.809 36.9011 54.2245 35.8399 54.2245 34.3606C54.2245 32.9457 53.785 31.8925 52.906 31.2011C52.027 30.5097 50.4848 30.164 48.2793 30.164C47.6081 30.164 46.7291 30.1721 45.6423 30.1882C44.5556 30.2042 43.325 30.2605 41.9505 30.357L43.2451 10.58H60.4573V17.5261H49.7176L49.3341 24.0862C49.7177 24.0541 50.2371 24.03 50.8923 24.0139C51.5476 23.9978 52.051 23.9898 52.4026 23.9898C54.1286 23.9898 55.6069 24.239 56.8375 24.7374C58.0681 25.2359 59.0749 25.9433 59.858 26.8598C60.6411 27.7763 61.2165 28.8697 61.5841 30.1399C61.9516 31.4102 62.1354 32.8171 62.1354 34.3606C62.1354 36.0007 61.9516 37.504 61.5841 38.8707C61.2165 40.2374 60.5692 41.4192 59.6423 42.4161C58.7153 43.413 57.4688 44.1928 55.9026 44.7556C54.3364 45.3183 52.3706 45.5997 50.0053 45.5997C48.6309 45.5997 47.2804 45.4791 45.954 45.238C44.6275 44.9968 43.1492 44.6672 41.519 44.2491V38.0266Z" fill="white"/>
</svg>
