<svg width="329" height="56" viewBox="0 0 329 56" fill="none" xmlns="http://www.w3.org/2000/svg">
<rect width="329" height="56" rx="4" fill="white"/>
<path d="M0 4C0 1.79086 1.79086 0 4 0H108.341L133.19 56H4C1.79086 56 0 54.2091 0 52V4Z" fill="#4D8C3F"/>
<path d="M206.776 23.4844L205.925 25.1172C205.685 24.9036 205.315 24.6927 204.815 24.4844C204.315 24.2708 203.886 24.1641 203.526 24.1641C202.401 24.1641 201.513 24.5469 200.862 25.3125C200.211 26.0729 199.886 27.0938 199.886 28.375C199.886 29.5938 200.203 30.5677 200.839 31.2969C201.479 32.026 202.349 32.3906 203.448 32.3906C204.172 32.3906 204.768 32.1927 205.237 31.7969V29.5469H203.651V27.8125H207.268V32.9375C206.784 33.3333 206.159 33.6432 205.393 33.8672C204.633 34.0859 203.875 34.1953 203.12 34.1953C201.479 34.1953 200.177 33.6589 199.214 32.5859C198.255 31.5078 197.776 30.0859 197.776 28.3203C197.776 26.5547 198.3 25.1198 199.347 24.0156C200.393 22.9115 201.802 22.3594 203.573 22.3594C204.828 22.3594 205.896 22.7344 206.776 23.4844ZM213.202 33.1641C213.025 33.4557 212.715 33.6953 212.272 33.8828C211.835 34.0651 211.377 34.1562 210.897 34.1562C209.996 34.1562 209.288 33.9323 208.772 33.4844C208.257 33.0312 207.999 32.3906 207.999 31.5625C207.999 30.5938 208.361 29.8359 209.085 29.2891C209.814 28.7422 210.848 28.4688 212.187 28.4688C212.416 28.4688 212.687 28.5078 212.999 28.5859C212.999 27.6016 212.377 27.1094 211.132 27.1094C210.397 27.1094 209.783 27.2318 209.288 27.4766L208.866 25.9609C209.538 25.638 210.338 25.4766 211.265 25.4766C212.541 25.4766 213.476 25.7682 214.069 26.3516C214.663 26.9297 214.96 28.0286 214.96 29.6484V31.4375C214.96 32.5521 215.184 33.2526 215.632 33.5391C215.47 33.8203 215.291 33.9922 215.093 34.0547C214.895 34.1224 214.668 34.1562 214.413 34.1562C214.132 34.1562 213.879 34.0521 213.655 33.8438C213.431 33.6354 213.28 33.4089 213.202 33.1641ZM213.015 30.0625C212.681 29.9948 212.431 29.9609 212.265 29.9609C210.723 29.9609 209.952 30.4661 209.952 31.4766C209.952 32.2266 210.387 32.6016 211.257 32.6016C212.429 32.6016 213.015 32.0156 213.015 30.8438V30.0625ZM216.152 33.4609L216.847 31.9062C217.43 32.3698 218.089 32.6016 218.823 32.6016C219.584 32.6016 219.964 32.3307 219.964 31.7891C219.964 31.4714 219.849 31.2109 219.62 31.0078C219.391 30.8047 218.946 30.5651 218.284 30.2891C216.842 29.6901 216.12 28.8516 216.12 27.7734C216.12 27.0495 216.396 26.487 216.948 26.0859C217.501 25.6797 218.206 25.4766 219.066 25.4766C219.935 25.4766 220.753 25.6719 221.519 26.0625L220.956 27.5781C220.529 27.2135 219.935 27.0312 219.175 27.0312C218.493 27.0312 218.152 27.3021 218.152 27.8438C218.152 28.0573 218.264 28.25 218.487 28.4219C218.711 28.5938 219.191 28.8255 219.925 29.1172C220.659 29.4036 221.188 29.7526 221.511 30.1641C221.834 30.5755 221.995 31.0729 221.995 31.6562C221.995 32.4323 221.706 33.0443 221.128 33.4922C220.555 33.9349 219.774 34.1562 218.784 34.1562C218.227 34.1562 217.779 34.1094 217.441 34.0156C217.107 33.9271 216.678 33.7422 216.152 33.4609ZM222.601 29.7969C222.601 28.5208 222.968 27.4818 223.702 26.6797C224.442 25.8776 225.416 25.4766 226.624 25.4766C227.895 25.4766 228.882 25.862 229.585 26.6328C230.288 27.4036 230.64 28.4583 230.64 29.7969C230.64 31.1302 230.281 32.1901 229.562 32.9766C228.848 33.763 227.869 34.1562 226.624 34.1562C225.354 34.1562 224.364 33.7604 223.656 32.9688C222.952 32.1719 222.601 31.1146 222.601 29.7969ZM224.632 29.7969C224.632 31.6406 225.296 32.5625 226.624 32.5625C227.234 32.5625 227.716 32.3229 228.07 31.8438C228.429 31.3646 228.609 30.6823 228.609 29.7969C228.609 27.9792 227.947 27.0703 226.624 27.0703C226.015 27.0703 225.531 27.3099 225.171 27.7891C224.812 28.2682 224.632 28.9375 224.632 29.7969ZM232.136 22.5156L234.089 22.0469V31.4531C234.089 32.4844 234.397 33.099 235.011 33.2969C234.709 33.8698 234.194 34.1562 233.464 34.1562C232.579 34.1562 232.136 33.5417 232.136 32.3125V22.5156ZM237.64 22.3906C237.953 22.3906 238.218 22.5026 238.437 22.7266C238.661 22.9453 238.773 23.2109 238.773 23.5234C238.773 23.8359 238.661 24.1042 238.437 24.3281C238.218 24.5469 237.953 24.6562 237.64 24.6562C237.328 24.6562 237.06 24.5469 236.836 24.3281C236.617 24.1042 236.507 23.8359 236.507 23.5234C236.507 23.2109 236.617 22.9453 236.836 22.7266C237.06 22.5026 237.328 22.3906 237.64 22.3906ZM236.632 34V27.2344H235.562V25.6328H238.609V34H236.632ZM245.863 34V29.1641C245.863 28.4505 245.725 27.9297 245.449 27.6016C245.178 27.2734 244.733 27.1094 244.113 27.1094C243.827 27.1094 243.519 27.1901 243.191 27.3516C242.868 27.513 242.616 27.7135 242.433 27.9531V34H240.48V25.6328H241.887L242.246 26.4141C242.777 25.7891 243.561 25.4766 244.597 25.4766C245.592 25.4766 246.376 25.776 246.949 26.375C247.527 26.9688 247.816 27.7995 247.816 28.8672V34H245.863ZM254.18 33.1641C254.003 33.4557 253.693 33.6953 253.25 33.8828C252.812 34.0651 252.354 34.1562 251.875 34.1562C250.974 34.1562 250.266 33.9323 249.75 33.4844C249.234 33.0312 248.977 32.3906 248.977 31.5625C248.977 30.5938 249.339 29.8359 250.062 29.2891C250.792 28.7422 251.826 28.4688 253.164 28.4688C253.393 28.4688 253.664 28.5078 253.977 28.5859C253.977 27.6016 253.354 27.1094 252.109 27.1094C251.375 27.1094 250.76 27.2318 250.266 27.4766L249.844 25.9609C250.516 25.638 251.315 25.4766 252.242 25.4766C253.518 25.4766 254.453 25.7682 255.047 26.3516C255.641 26.9297 255.938 28.0286 255.938 29.6484V31.4375C255.938 32.5521 256.161 33.2526 256.609 33.5391C256.448 33.8203 256.268 33.9922 256.07 34.0547C255.872 34.1224 255.646 34.1562 255.391 34.1562C255.109 34.1562 254.857 34.0521 254.633 33.8438C254.409 33.6354 254.258 33.4089 254.18 33.1641ZM253.992 30.0625C253.659 29.9948 253.409 29.9609 253.242 29.9609C251.701 29.9609 250.93 30.4661 250.93 31.4766C250.93 32.2266 251.365 32.6016 252.234 32.6016C253.406 32.6016 253.992 32.0156 253.992 30.8438V30.0625Z" fill="#757878"/>
<path fill-rule="evenodd" clip-rule="evenodd" d="M291.5 33C291.244 33 290.988 32.902 290.793 32.707C290.402 32.316 290.402 31.684 290.793 31.293L294.098 27.988L290.918 24.695C290.535 24.297 290.546 23.664 290.943 23.281C291.341 22.898 291.974 22.909 292.357 23.305L296.219 27.305C296.598 27.698 296.593 28.321 296.207 28.707L292.207 32.707C292.012 32.902 291.756 33 291.5 33Z" fill="#757878"/>
<path d="M111.323 0H121.263L146.112 56H136.172L111.323 0Z" fill="#FDC82F"/>
<path d="M75.6846 37.752H71.7296L71.3721 39.7266H74.2081L73.9678 41.0039H71.1319L70.6514 43.6641H74.5421L74.2901 45H68.8292L70.4112 36.416H75.9366L75.6846 37.752ZM79.9328 40.4414C79.4641 40.0312 79.0344 39.8262 78.6438 39.8262C78.4016 39.8262 78.1906 39.8828 78.011 39.9961C77.8352 40.1055 77.7473 40.2539 77.7473 40.4414C77.7473 40.6719 77.9582 40.8945 78.3801 41.1094C78.8059 41.3242 79.1321 41.4961 79.3586 41.625C79.5852 41.75 79.7707 41.9219 79.9153 42.1406C80.0598 42.3555 80.1321 42.6035 80.1321 42.8848C80.1321 43.5762 79.8723 44.1211 79.3528 44.5195C78.8371 44.918 78.177 45.1172 77.3723 45.1172C76.6848 45.1172 76.0129 44.9238 75.3567 44.5371L76.1301 43.207C76.6184 43.668 77.0969 43.8984 77.5656 43.8984C77.8625 43.8984 78.1067 43.8242 78.2981 43.6758C78.4934 43.5273 78.591 43.3262 78.591 43.0723C78.591 42.8613 78.4074 42.6602 78.0403 42.4688C77.6731 42.2773 77.3489 42.1035 77.0676 41.9473C76.7864 41.7871 76.5715 41.5938 76.4231 41.3672C76.2785 41.1367 76.2063 40.8828 76.2063 40.6055C76.2063 39.9961 76.4485 39.5117 76.9328 39.1523C77.4211 38.7891 78.0188 38.6074 78.7258 38.6074C79.2102 38.6074 79.8391 38.7715 80.6125 39.0996L79.9328 40.4414ZM82.183 44.8301L81.7142 47.4609H80.2494L81.515 40.6641C81.5619 40.4141 81.5853 40.1621 81.5853 39.9082C81.5853 39.5645 81.5502 39.2188 81.4799 38.8711L82.9096 38.6133C82.9642 38.7617 83.0092 38.9609 83.0443 39.2109C83.5873 38.8086 84.1264 38.6074 84.6615 38.6074C86.3373 38.6074 87.1752 39.4199 87.1752 41.0449C87.1752 42.2363 86.8314 43.2129 86.1439 43.9746C85.4564 44.7363 84.5482 45.1172 83.4193 45.1172C82.9701 45.1172 82.558 45.0215 82.183 44.8301ZM82.4115 43.582C82.6029 43.7812 82.8861 43.8809 83.2611 43.8809C84.0306 43.8809 84.6185 43.6484 85.0248 43.1836C85.4349 42.7148 85.64 42.0508 85.64 41.1914C85.64 40.793 85.517 40.4746 85.2709 40.2363C85.0248 39.9941 84.6869 39.873 84.2572 39.873C84.0658 39.873 83.8392 39.9375 83.5775 40.0664C83.3197 40.1914 83.1264 40.3301 82.9974 40.4824L82.4115 43.582ZM89.1792 42.2754C89.1714 42.377 89.1675 42.4648 89.1675 42.5391C89.1675 42.9766 89.2964 43.3125 89.5542 43.5469C89.816 43.7812 90.1773 43.8984 90.6382 43.8984C90.8843 43.8984 91.1675 43.832 91.4878 43.6992C91.8081 43.5625 92.0601 43.4102 92.2437 43.2422L92.0738 44.7832C91.5777 45.0059 90.9722 45.1172 90.2574 45.1172C89.4839 45.1172 88.857 44.873 88.3765 44.3848C87.896 43.8965 87.6558 43.2266 87.6558 42.375C87.6558 41.2969 88.0015 40.4004 88.6929 39.6855C89.3882 38.9668 90.2964 38.6074 91.4175 38.6074C92.0777 38.6074 92.6128 38.748 93.023 39.0293C93.4331 39.3066 93.6382 39.7051 93.6382 40.2246C93.6382 40.9316 93.3316 41.4863 92.7183 41.8887C92.1089 42.291 91.357 42.4922 90.4624 42.4922C90.0249 42.4922 89.5972 42.4199 89.1792 42.2754ZM89.4605 41.168C89.7144 41.2422 89.9898 41.2793 90.2867 41.2793C90.8179 41.2793 91.2671 41.1992 91.6343 41.0391C92.0015 40.875 92.1851 40.6406 92.1851 40.3359C92.1851 39.9961 91.814 39.8262 91.0718 39.8262C90.7789 39.8262 90.48 39.9551 90.1753 40.2129C89.8706 40.4668 89.6324 40.7852 89.4605 41.168ZM98.8122 40.2773C98.4021 39.9766 97.988 39.8262 97.57 39.8262C96.8981 39.8262 96.3571 40.0781 95.947 40.582C95.5407 41.082 95.3376 41.709 95.3376 42.4629C95.3376 42.8535 95.4528 43.1875 95.6833 43.4648C95.9138 43.7422 96.2106 43.8809 96.5739 43.8809C97.0974 43.8809 97.7126 43.6582 98.4196 43.2129L98.2439 44.7422C97.6462 44.9922 97.031 45.1172 96.3981 45.1172C95.6052 45.1172 94.9763 44.8984 94.5114 44.4609C94.0505 44.0195 93.82 43.4141 93.82 42.6445C93.82 41.4766 94.1579 40.5117 94.8337 39.75C95.5095 38.9883 96.3942 38.6074 97.488 38.6074C98.113 38.6074 98.654 38.7363 99.111 38.9941L98.8122 40.2773ZM100.781 36.709C100.781 36.4473 100.873 36.2305 101.057 36.0586C101.244 35.8828 101.471 35.7949 101.736 35.7949C101.998 35.7949 102.223 35.8828 102.41 36.0586C102.598 36.2305 102.691 36.4473 102.691 36.709C102.691 36.9668 102.598 37.1836 102.41 37.3594C102.223 37.5352 101.998 37.623 101.736 37.623C101.474 37.623 101.25 37.5371 101.062 37.3652C100.875 37.1895 100.781 36.9707 100.781 36.709ZM101.215 45H99.7264L100.676 39.9023H99.8729L100.119 38.7246H102.387L101.215 45ZM108.193 42.75C108.166 42.8945 108.152 43.0547 108.152 43.2305C108.152 44.0898 108.219 44.6797 108.352 45H107.438C107.164 45 106.961 44.791 106.828 44.373C106.328 44.8691 105.705 45.1172 104.959 45.1172C104.279 45.1172 103.752 44.9258 103.377 44.543C103.006 44.1602 102.82 43.627 102.82 42.9434C102.82 41.752 103.18 40.7324 103.898 39.8848C104.621 39.0332 105.531 38.6074 106.629 38.6074C107.688 38.6074 108.451 38.7051 108.92 38.9004L108.193 42.75ZM106.5 39.8027C105.844 39.8027 105.32 40.1172 104.93 40.7461C104.539 41.3711 104.344 42.0918 104.344 42.9082C104.344 43.584 104.676 43.9219 105.34 43.9219C105.762 43.9219 106.129 43.6621 106.441 43.1426C106.758 42.623 107.039 41.5488 107.285 39.9199C107.008 39.8418 106.746 39.8027 106.5 39.8027ZM111.903 44.5078C111.672 44.875 111.322 45.0586 110.854 45.0586C110.502 45.0586 110.225 44.9434 110.022 44.7129C109.819 44.4824 109.717 44.1836 109.717 43.8164C109.717 43.3398 109.811 42.6543 109.998 41.7598L111.176 36.1523H112.629L111.422 41.9941C111.25 42.8262 111.164 43.4199 111.164 43.7754C111.164 44.002 111.235 44.1816 111.375 44.3145C111.516 44.4434 111.692 44.5078 111.903 44.5078Z" fill="white"/>
<rect x="0.5" y="0.5" width="328" height="55" rx="3.5" stroke="#BCBDBC"/>
<path d="M16.6354 38.3154C17.5624 38.444 18.5772 38.5244 19.68 38.5566C20.7827 38.5887 21.8934 38.6048 23.0121 38.6048C23.8432 38.6048 24.6263 38.5485 25.3614 38.436C26.0966 38.3234 26.7359 38.026 27.2792 37.5436C27.8226 37.0612 28.2541 36.3457 28.5738 35.3971C28.8934 34.4484 29.0692 33.138 29.1012 31.4658C28.4939 31.7874 27.7907 32.0446 26.9916 32.2376C26.1925 32.4305 25.3455 32.527 24.4505 32.527C21.4459 32.527 19.1046 31.6025 17.4265 29.7534C15.7485 27.9043 14.9094 25.3237 14.9094 22.0114C14.9094 20.3392 15.0932 18.7716 15.4608 17.3084C15.8284 15.8452 16.4277 14.575 17.2587 13.4977C18.0898 12.4204 19.1765 11.5682 20.519 10.9412C21.8615 10.3141 23.5236 10.0005 25.5053 10.0005C27.7108 10.0005 29.5566 10.3221 31.0429 10.9653C32.5292 11.6084 33.7279 12.5732 34.6388 13.8595C35.5498 15.1458 36.197 16.7617 36.5806 18.7072C36.9641 20.6528 37.1559 22.9279 37.1559 25.5327C37.1559 28.8771 36.9721 31.7954 36.6046 34.2876C36.237 36.7799 35.5737 38.854 34.6148 40.5101C33.6559 42.1663 32.3534 43.4124 30.7073 44.2485C29.0612 45.0846 26.9596 45.5026 24.4025 45.5026C22.8363 45.5026 21.4779 45.3981 20.3272 45.1891C19.1765 44.9801 17.9459 44.6504 16.6354 44.2002V38.3154ZM23.3478 25.0503C23.8911 25.8543 24.7541 26.2563 25.9368 26.2563C27.3432 26.2563 28.2541 25.8704 28.6697 25.0986C29.0852 24.3268 29.2929 23.2817 29.2929 21.9632C29.2929 19.8408 28.9893 18.3937 28.382 17.6219C27.7747 16.8501 26.9596 16.4642 25.9368 16.4642C25.3934 16.4642 24.914 16.5446 24.4984 16.7054C24.0829 16.8662 23.7313 17.1396 23.4436 17.5254C23.156 17.9113 22.9402 18.4419 22.7964 19.1173C22.6526 19.7926 22.5806 20.6447 22.5806 21.6738C22.5806 23.1209 22.8363 24.2464 23.3478 25.0503Z" fill="white"/>
<path d="M40.177 38.0748C41.1679 38.2356 42.3505 38.3562 43.7249 38.4366C45.0994 38.517 46.5058 38.5572 47.9441 38.5572C49.1907 38.5572 50.2135 38.4929 51.0126 38.3642C51.8117 38.2356 52.4429 38.0186 52.9064 37.7131C53.3699 37.4076 53.6895 36.9975 53.8653 36.483C54.0411 35.9685 54.129 35.3253 54.129 34.5536C54.129 33.3316 53.7774 32.399 53.0742 31.7558C52.371 31.1127 51.0126 30.7911 48.9989 30.7911H44.9715V25.3886L51.9715 17.4778H40.4167V10.58H60.8893V16.4166L52.7386 25.0027C55.7751 25.1314 58.0605 26.0237 59.5948 27.6799C61.129 29.336 61.8961 31.6755 61.8961 34.6983C61.8961 36.4026 61.6804 37.9301 61.2489 39.2807C60.8174 40.6314 60.1142 41.773 59.1393 42.7055C58.1644 43.6381 56.8699 44.3536 55.2557 44.8521C53.6416 45.3505 51.6519 45.5997 49.2866 45.5997C47.9441 45.5997 46.4978 45.4791 44.9475 45.238C43.3973 44.9968 41.8071 44.6672 40.177 44.2491V38.0748Z" fill="white"/>
</svg>
