<svg width="329" height="56" viewBox="0 0 329 56" fill="none" xmlns="http://www.w3.org/2000/svg">
<rect x="0.5" y="0.5" width="328" height="55" rx="3.5" fill="white" stroke="#BCBDBC"/>
<path d="M0 4C0 1.79086 1.79086 0 4 0H108.341L133.19 56H4C1.79086 56 0 54.2091 0 52V4Z" fill="#A2C037"/>
<path d="M206.776 23.4844L205.925 25.1172C205.685 24.9036 205.315 24.6927 204.815 24.4844C204.315 24.2708 203.886 24.1641 203.526 24.1641C202.401 24.1641 201.513 24.5469 200.862 25.3125C200.211 26.0729 199.886 27.0938 199.886 28.375C199.886 29.5938 200.203 30.5677 200.839 31.2969C201.479 32.026 202.349 32.3906 203.448 32.3906C204.172 32.3906 204.768 32.1927 205.237 31.7969V29.5469H203.651V27.8125H207.268V32.9375C206.784 33.3333 206.159 33.6432 205.393 33.8672C204.633 34.0859 203.875 34.1953 203.12 34.1953C201.479 34.1953 200.177 33.6589 199.214 32.5859C198.255 31.5078 197.776 30.0859 197.776 28.3203C197.776 26.5547 198.3 25.1198 199.347 24.0156C200.393 22.9115 201.802 22.3594 203.573 22.3594C204.828 22.3594 205.896 22.7344 206.776 23.4844ZM213.202 33.1641C213.025 33.4557 212.715 33.6953 212.272 33.8828C211.835 34.0651 211.377 34.1562 210.897 34.1562C209.996 34.1562 209.288 33.9323 208.772 33.4844C208.257 33.0312 207.999 32.3906 207.999 31.5625C207.999 30.5938 208.361 29.8359 209.085 29.2891C209.814 28.7422 210.848 28.4688 212.187 28.4688C212.416 28.4688 212.687 28.5078 212.999 28.5859C212.999 27.6016 212.377 27.1094 211.132 27.1094C210.397 27.1094 209.783 27.2318 209.288 27.4766L208.866 25.9609C209.538 25.638 210.338 25.4766 211.265 25.4766C212.541 25.4766 213.476 25.7682 214.069 26.3516C214.663 26.9297 214.96 28.0286 214.96 29.6484V31.4375C214.96 32.5521 215.184 33.2526 215.632 33.5391C215.47 33.8203 215.291 33.9922 215.093 34.0547C214.895 34.1224 214.668 34.1562 214.413 34.1562C214.132 34.1562 213.879 34.0521 213.655 33.8438C213.431 33.6354 213.28 33.4089 213.202 33.1641ZM213.015 30.0625C212.681 29.9948 212.431 29.9609 212.265 29.9609C210.723 29.9609 209.952 30.4661 209.952 31.4766C209.952 32.2266 210.387 32.6016 211.257 32.6016C212.429 32.6016 213.015 32.0156 213.015 30.8438V30.0625ZM216.152 33.4609L216.847 31.9062C217.43 32.3698 218.089 32.6016 218.823 32.6016C219.584 32.6016 219.964 32.3307 219.964 31.7891C219.964 31.4714 219.849 31.2109 219.62 31.0078C219.391 30.8047 218.946 30.5651 218.284 30.2891C216.842 29.6901 216.12 28.8516 216.12 27.7734C216.12 27.0495 216.396 26.487 216.948 26.0859C217.501 25.6797 218.206 25.4766 219.066 25.4766C219.935 25.4766 220.753 25.6719 221.519 26.0625L220.956 27.5781C220.529 27.2135 219.935 27.0312 219.175 27.0312C218.493 27.0312 218.152 27.3021 218.152 27.8438C218.152 28.0573 218.264 28.25 218.487 28.4219C218.711 28.5938 219.191 28.8255 219.925 29.1172C220.659 29.4036 221.188 29.7526 221.511 30.1641C221.834 30.5755 221.995 31.0729 221.995 31.6562C221.995 32.4323 221.706 33.0443 221.128 33.4922C220.555 33.9349 219.774 34.1562 218.784 34.1562C218.227 34.1562 217.779 34.1094 217.441 34.0156C217.107 33.9271 216.678 33.7422 216.152 33.4609ZM222.601 29.7969C222.601 28.5208 222.968 27.4818 223.702 26.6797C224.442 25.8776 225.416 25.4766 226.624 25.4766C227.895 25.4766 228.882 25.862 229.585 26.6328C230.288 27.4036 230.64 28.4583 230.64 29.7969C230.64 31.1302 230.281 32.1901 229.562 32.9766C228.848 33.763 227.869 34.1562 226.624 34.1562C225.354 34.1562 224.364 33.7604 223.656 32.9688C222.952 32.1719 222.601 31.1146 222.601 29.7969ZM224.632 29.7969C224.632 31.6406 225.296 32.5625 226.624 32.5625C227.234 32.5625 227.716 32.3229 228.07 31.8438C228.429 31.3646 228.609 30.6823 228.609 29.7969C228.609 27.9792 227.947 27.0703 226.624 27.0703C226.015 27.0703 225.531 27.3099 225.171 27.7891C224.812 28.2682 224.632 28.9375 224.632 29.7969ZM232.136 22.5156L234.089 22.0469V31.4531C234.089 32.4844 234.397 33.099 235.011 33.2969C234.709 33.8698 234.194 34.1562 233.464 34.1562C232.579 34.1562 232.136 33.5417 232.136 32.3125V22.5156ZM237.64 22.3906C237.953 22.3906 238.218 22.5026 238.437 22.7266C238.661 22.9453 238.773 23.2109 238.773 23.5234C238.773 23.8359 238.661 24.1042 238.437 24.3281C238.218 24.5469 237.953 24.6562 237.64 24.6562C237.328 24.6562 237.06 24.5469 236.836 24.3281C236.617 24.1042 236.507 23.8359 236.507 23.5234C236.507 23.2109 236.617 22.9453 236.836 22.7266C237.06 22.5026 237.328 22.3906 237.64 22.3906ZM236.632 34V27.2344H235.562V25.6328H238.609V34H236.632ZM245.863 34V29.1641C245.863 28.4505 245.725 27.9297 245.449 27.6016C245.178 27.2734 244.733 27.1094 244.113 27.1094C243.827 27.1094 243.519 27.1901 243.191 27.3516C242.868 27.513 242.616 27.7135 242.433 27.9531V34H240.48V25.6328H241.887L242.246 26.4141C242.777 25.7891 243.561 25.4766 244.597 25.4766C245.592 25.4766 246.376 25.776 246.949 26.375C247.527 26.9688 247.816 27.7995 247.816 28.8672V34H245.863ZM254.18 33.1641C254.003 33.4557 253.693 33.6953 253.25 33.8828C252.812 34.0651 252.354 34.1562 251.875 34.1562C250.974 34.1562 250.266 33.9323 249.75 33.4844C249.234 33.0312 248.977 32.3906 248.977 31.5625C248.977 30.5938 249.339 29.8359 250.062 29.2891C250.792 28.7422 251.826 28.4688 253.164 28.4688C253.393 28.4688 253.664 28.5078 253.977 28.5859C253.977 27.6016 253.354 27.1094 252.109 27.1094C251.375 27.1094 250.76 27.2318 250.266 27.4766L249.844 25.9609C250.516 25.638 251.315 25.4766 252.242 25.4766C253.518 25.4766 254.453 25.7682 255.047 26.3516C255.641 26.9297 255.938 28.0286 255.938 29.6484V31.4375C255.938 32.5521 256.161 33.2526 256.609 33.5391C256.448 33.8203 256.268 33.9922 256.07 34.0547C255.872 34.1224 255.646 34.1562 255.391 34.1562C255.109 34.1562 254.857 34.0521 254.633 33.8438C254.409 33.6354 254.258 33.4089 254.18 33.1641ZM253.992 30.0625C253.659 29.9948 253.409 29.9609 253.242 29.9609C251.701 29.9609 250.93 30.4661 250.93 31.4766C250.93 32.2266 251.365 32.6016 252.234 32.6016C253.406 32.6016 253.992 32.0156 253.992 30.8438V30.0625Z" fill="#757878"/>
<path fill-rule="evenodd" clip-rule="evenodd" d="M291.5 33C291.244 33 290.988 32.902 290.793 32.707C290.402 32.316 290.402 31.684 290.793 31.293L294.098 27.988L290.918 24.695C290.535 24.297 290.546 23.664 290.943 23.281C291.341 22.898 291.974 22.909 292.357 23.305L296.219 27.305C296.598 27.698 296.593 28.321 296.207 28.707L292.207 32.707C292.012 32.902 291.756 33 291.5 33Z" fill="#757878"/>
<path d="M111.323 0H121.263L146.112 56H136.172L111.323 0Z" fill="#FDC82F"/>
<path d="M71.0088 41.8477L70.4287 45H68.8701L70.4873 36.4277C71.3037 36.3418 71.9268 36.2988 72.3564 36.2988C74.626 36.2988 75.7607 37.1523 75.7607 38.8594C75.7607 39.8203 75.415 40.5762 74.7236 41.127C74.0361 41.6738 73.1436 41.9473 72.0459 41.9473C71.6943 41.9473 71.3486 41.9141 71.0088 41.8477ZM71.7588 37.7168L71.249 40.5469C71.4482 40.6016 71.7021 40.6289 72.0107 40.6289C72.6748 40.6289 73.2021 40.4863 73.5928 40.2012C73.9834 39.916 74.1787 39.5059 74.1787 38.9707C74.1787 38.0684 73.667 37.6172 72.6436 37.6172C72.3701 37.6172 72.0752 37.6504 71.7588 37.7168ZM80.2726 40.2129C79.925 39.9551 79.6183 39.8262 79.3527 39.8262C78.9738 39.8262 78.6261 39.9922 78.3097 40.3242C77.9972 40.6523 77.8 41.0293 77.7179 41.4551L77.0558 45H75.5851L76.757 38.7246H78.2277L78.1281 39.2695C78.6476 38.8281 79.2218 38.6074 79.8507 38.6074C80.0109 38.6074 80.298 38.6445 80.7121 38.7188L80.2726 40.2129ZM82.1478 42.2754C82.14 42.377 82.1361 42.4648 82.1361 42.5391C82.1361 42.9766 82.265 43.3125 82.5228 43.5469C82.7845 43.7812 83.1458 43.8984 83.6068 43.8984C83.8529 43.8984 84.1361 43.832 84.4564 43.6992C84.7767 43.5625 85.0286 43.4102 85.2122 43.2422L85.0423 44.7832C84.5462 45.0059 83.9407 45.1172 83.2259 45.1172C82.4525 45.1172 81.8255 44.873 81.345 44.3848C80.8646 43.8965 80.6243 43.2266 80.6243 42.375C80.6243 41.2969 80.97 40.4004 81.6614 39.6855C82.3568 38.9668 83.265 38.6074 84.3861 38.6074C85.0462 38.6074 85.5814 38.748 85.9915 39.0293C86.4017 39.3066 86.6068 39.7051 86.6068 40.2246C86.6068 40.9316 86.3001 41.4863 85.6868 41.8887C85.0775 42.291 84.3255 42.4922 83.431 42.4922C82.9935 42.4922 82.5657 42.4199 82.1478 42.2754ZM82.429 41.168C82.6829 41.2422 82.9583 41.2793 83.2552 41.2793C83.7864 41.2793 84.2357 41.1992 84.6029 41.0391C84.97 40.875 85.1536 40.6406 85.1536 40.3359C85.1536 39.9961 84.7825 39.8262 84.0404 39.8262C83.7474 39.8262 83.4486 39.9551 83.1439 40.2129C82.8392 40.4668 82.6009 40.7852 82.429 41.168ZM96.0171 40.8867L95.2495 45H93.7495L94.4936 41.0391C94.5171 40.9141 94.5288 40.7812 94.5288 40.6406C94.5288 40.0977 94.2417 39.8262 93.6675 39.8262C93.4643 39.8262 93.2436 39.8965 93.0054 40.0371C92.7671 40.1777 92.5893 40.3301 92.4721 40.4941L91.6343 45H90.1343L90.9663 40.5762C90.9741 40.5332 90.978 40.4863 90.978 40.4355C90.978 40.0293 90.6675 39.8262 90.0464 39.8262C89.8589 39.8262 89.646 39.8965 89.4077 40.0371C89.1733 40.1738 88.9858 40.332 88.8452 40.5117L88.0073 45H86.5132L87.3628 40.4648C87.3823 40.3594 87.3921 40.1953 87.3921 39.9727C87.3921 39.5859 87.3374 39.209 87.228 38.8418L88.6636 38.5898C88.7143 38.7891 88.7573 38.9785 88.7925 39.1582C89.2651 38.791 89.855 38.6074 90.562 38.6074C91.3901 38.6074 91.9761 38.832 92.3198 39.2812C92.8159 38.832 93.4409 38.6074 94.1948 38.6074C95.4487 38.6074 96.0757 39.1777 96.0757 40.3184C96.0757 40.4863 96.0561 40.6758 96.0171 40.8867ZM97.7926 36.709C97.7926 36.4473 97.8844 36.2305 98.068 36.0586C98.2555 35.8828 98.4821 35.7949 98.7477 35.7949C99.0094 35.7949 99.234 35.8828 99.4215 36.0586C99.609 36.2305 99.7028 36.4473 99.7028 36.709C99.7028 36.9668 99.609 37.1836 99.4215 37.3594C99.234 37.5352 99.0094 37.623 98.7477 37.623C98.486 37.623 98.2614 37.5371 98.0739 37.3652C97.8864 37.1895 97.7926 36.9707 97.7926 36.709ZM98.2262 45H96.7379L97.6871 39.9023H96.8844L97.1305 38.7246H99.3981L98.2262 45ZM104.853 45.0059H103.388L103.476 44.5488C102.953 44.9277 102.297 45.1172 101.508 45.1172C100.969 45.1172 100.545 44.9629 100.236 44.6543C99.9314 44.3457 99.7791 43.918 99.7791 43.3711C99.7791 43.1992 99.8006 42.998 99.8436 42.7676L100.599 38.7246H102.088L101.344 42.709C101.312 42.877 101.297 43.0195 101.297 43.1367C101.297 43.6445 101.582 43.8984 102.152 43.8984C102.617 43.8984 103.006 43.748 103.318 43.4473C103.635 43.1426 103.832 42.7773 103.91 42.3516L104.554 38.7246H106.025L104.853 45.0059ZM115.365 40.8867L114.598 45H113.098L113.842 41.0391C113.865 40.9141 113.877 40.7812 113.877 40.6406C113.877 40.0977 113.59 39.8262 113.016 39.8262C112.812 39.8262 112.592 39.8965 112.353 40.0371C112.115 40.1777 111.937 40.3301 111.82 40.4941L110.982 45H109.482L110.314 40.5762C110.322 40.5332 110.326 40.4863 110.326 40.4355C110.326 40.0293 110.016 39.8262 109.394 39.8262C109.207 39.8262 108.994 39.8965 108.756 40.0371C108.521 40.1738 108.334 40.332 108.193 40.5117L107.355 45H105.861L106.711 40.4648C106.73 40.3594 106.74 40.1953 106.74 39.9727C106.74 39.5859 106.686 39.209 106.576 38.8418L108.012 38.5898C108.062 38.7891 108.105 38.9785 108.141 39.1582C108.613 38.791 109.203 38.6074 109.91 38.6074C110.738 38.6074 111.324 38.832 111.668 39.2812C112.164 38.832 112.789 38.6074 113.543 38.6074C114.797 38.6074 115.424 39.1777 115.424 40.3184C115.424 40.4863 115.404 40.6758 115.365 40.8867Z" fill="white"/>
<rect x="0.5" y="0.5" width="328" height="55" rx="3.5" stroke="#BCBDBC"/>
<path d="M16.6352 38.3154C17.5621 38.444 18.577 38.5244 19.6797 38.5566C20.7824 38.5887 21.8932 38.6048 23.0119 38.6048C23.8429 38.6048 24.626 38.5485 25.3612 38.436C26.0964 38.3234 26.7356 38.026 27.279 37.5436C27.8224 37.0612 28.2539 36.3457 28.5735 35.3971C28.8932 34.4484 29.069 33.138 29.1009 31.4658C28.4936 31.7874 27.7904 32.0446 26.9913 32.2376C26.1922 32.4305 25.3452 32.527 24.4502 32.527C21.4457 32.527 19.1044 31.6025 17.4263 29.7534C15.7482 27.9043 14.9092 25.3237 14.9092 22.0114C14.9092 20.3392 15.093 18.7716 15.4605 17.3084C15.8281 15.8452 16.4274 14.575 17.2585 13.4977C18.0895 12.4204 19.1763 11.5682 20.5188 10.9412C21.8612 10.3141 23.5233 10.0005 25.505 10.0005C27.7105 10.0005 29.5564 10.3221 31.0427 10.9653C32.529 11.6084 33.7276 12.5732 34.6386 13.8595C35.5495 15.1458 36.1968 16.7617 36.5803 18.7072C36.9639 20.6528 37.1557 22.9279 37.1557 25.5327C37.1557 28.8771 36.9719 31.7954 36.6043 34.2876C36.2367 36.7799 35.5735 38.854 34.6146 40.5101C33.6557 42.1663 32.3532 43.4124 30.7071 44.2485C29.061 45.0846 26.9594 45.5026 24.4023 45.5026C22.8361 45.5026 21.4777 45.3981 20.327 45.1891C19.1763 44.9801 17.9457 44.6504 16.6352 44.2002V38.3154ZM23.3475 25.0503C23.8909 25.8543 24.7539 26.2563 25.9365 26.2563C27.3429 26.2563 28.2539 25.8704 28.6694 25.0986C29.0849 24.3268 29.2927 23.2817 29.2927 21.9632C29.2927 19.8408 28.989 18.3937 28.3817 17.6219C27.7744 16.8501 26.9594 16.4642 25.9365 16.4642C25.3932 16.4642 24.9137 16.5446 24.4982 16.7054C24.0827 16.8662 23.7311 17.1396 23.4434 17.5254C23.1557 17.9113 22.94 18.4419 22.7961 19.1173C22.6523 19.7926 22.5804 20.6447 22.5804 21.6738C22.5804 23.1209 22.8361 24.2464 23.3475 25.0503Z" fill="white"/>
<path d="M43.6283 45.1174L53.8886 17.7673H40.416V10.58H62.0392V17.0437L52.1146 45.1174H43.6283Z" fill="white"/>
</svg>
