<svg width="329" height="56" viewBox="0 0 329 56" fill="none" xmlns="http://www.w3.org/2000/svg">
<rect x="0.5" y="0.5" width="328" height="55" rx="3.5" fill="white" stroke="#BCBDBC"/>
<path d="M0 4C0 1.79086 1.79086 0 4 0H108.341L133.19 56H4C1.79086 56 0 54.2091 0 52V4Z" fill="black"/>
<path d="M217.683 34H215.144V22.5625C216.764 22.5052 217.782 22.4766 218.198 22.4766C219.865 22.4766 221.185 22.9661 222.159 23.9453C223.139 24.9193 223.628 26.2135 223.628 27.8281C223.628 31.9427 221.646 34 217.683 34ZM217.175 24.3359V32.1484C217.503 32.1797 217.857 32.1953 218.237 32.1953C219.264 32.1953 220.066 31.8229 220.644 31.0781C221.227 30.3333 221.519 29.2917 221.519 27.9531C221.519 25.5052 220.381 24.2812 218.105 24.2812C217.886 24.2812 217.576 24.2995 217.175 24.3359ZM226.429 22.3906C226.742 22.3906 227.007 22.5026 227.226 22.7266C227.45 22.9453 227.562 23.2109 227.562 23.5234C227.562 23.8359 227.45 24.1042 227.226 24.3281C227.007 24.5469 226.742 24.6562 226.429 24.6562C226.117 24.6562 225.848 24.5469 225.624 24.3281C225.406 24.1042 225.296 23.8359 225.296 23.5234C225.296 23.2109 225.406 22.9453 225.624 22.7266C225.848 22.5026 226.117 22.3906 226.429 22.3906ZM225.421 34V27.2344H224.351V25.6328H227.398V34H225.421ZM236.738 30.4141H230.761C230.798 31.0807 231.027 31.599 231.449 31.9688C231.871 32.3385 232.438 32.5234 233.152 32.5234C234.042 32.5234 234.72 32.2917 235.183 31.8281L235.941 33.3203C235.253 33.8776 234.227 34.1562 232.863 34.1562C231.587 34.1562 230.576 33.7839 229.832 33.0391C229.092 32.2891 228.722 31.2448 228.722 29.9062C228.722 28.5885 229.128 27.5208 229.941 26.7031C230.759 25.8854 231.738 25.4766 232.878 25.4766C234.092 25.4766 235.066 25.8385 235.8 26.5625C236.535 27.2865 236.902 28.2083 236.902 29.3281C236.902 29.5677 236.847 29.9297 236.738 30.4141ZM230.832 28.9453H234.941C234.806 27.7214 234.128 27.1094 232.91 27.1094C231.795 27.1094 231.102 27.7214 230.832 28.9453ZM237.547 33.4609L238.242 31.9062C238.825 32.3698 239.484 32.6016 240.218 32.6016C240.979 32.6016 241.359 32.3307 241.359 31.7891C241.359 31.4714 241.244 31.2109 241.015 31.0078C240.786 30.8047 240.341 30.5651 239.679 30.2891C238.237 29.6901 237.515 28.8516 237.515 27.7734C237.515 27.0495 237.791 26.487 238.343 26.0859C238.896 25.6797 239.601 25.4766 240.461 25.4766C241.33 25.4766 242.148 25.6719 242.914 26.0625L242.351 27.5781C241.924 27.2135 241.33 27.0312 240.57 27.0312C239.888 27.0312 239.547 27.3021 239.547 27.8438C239.547 28.0573 239.659 28.25 239.882 28.4219C240.106 28.5938 240.586 28.8255 241.32 29.1172C242.054 29.4036 242.583 29.7526 242.906 30.1641C243.229 30.5755 243.39 31.0729 243.39 31.6562C243.39 32.4323 243.101 33.0443 242.523 33.4922C241.95 33.9349 241.169 34.1562 240.179 34.1562C239.622 34.1562 239.174 34.1094 238.836 34.0156C238.502 33.9271 238.073 33.7422 237.547 33.4609ZM252.012 30.4141H246.035C246.071 31.0807 246.301 31.599 246.722 31.9688C247.144 32.3385 247.712 32.5234 248.426 32.5234C249.316 32.5234 249.993 32.2917 250.457 31.8281L251.215 33.3203C250.527 33.8776 249.501 34.1562 248.137 34.1562C246.861 34.1562 245.85 33.7839 245.105 33.0391C244.366 32.2891 243.996 31.2448 243.996 29.9062C243.996 28.5885 244.402 27.5208 245.215 26.7031C246.032 25.8854 247.012 25.4766 248.152 25.4766C249.366 25.4766 250.34 25.8385 251.074 26.5625C251.808 27.2865 252.176 28.2083 252.176 29.3281C252.176 29.5677 252.121 29.9297 252.012 30.4141ZM246.105 28.9453H250.215C250.079 27.7214 249.402 27.1094 248.183 27.1094C247.069 27.1094 246.376 27.7214 246.105 28.9453ZM253.672 22.5156L255.625 22.0469V31.4531C255.625 32.4844 255.932 33.099 256.547 33.2969C256.245 33.8698 255.729 34.1562 255 34.1562C254.115 34.1562 253.672 33.5417 253.672 32.3125V22.5156Z" fill="#757878"/>
<path fill-rule="evenodd" clip-rule="evenodd" d="M291.5 33C291.244 33 290.988 32.902 290.793 32.707C290.402 32.316 290.402 31.684 290.793 31.293L294.098 27.988L290.918 24.695C290.535 24.297 290.546 23.664 290.943 23.281C291.341 22.898 291.974 22.909 292.357 23.305L296.219 27.305C296.598 27.698 296.593 28.321 296.207 28.707L292.207 32.707C292.012 32.902 291.756 33 291.5 33Z" fill="#757878"/>
<path d="M111.323 0H121.263L146.112 56H136.172L111.323 0Z" fill="#FDC82F"/>
<rect x="0.5" y="0.5" width="328" height="55" rx="3.5" stroke="#BCBDBC"/>
<path d="M71.3262 45H69.252L70.8164 36.4336C71.3867 36.332 71.9219 36.2812 72.4219 36.2812C73.7305 36.2812 74.7422 36.5801 75.457 37.1777C76.1719 37.7754 76.5293 38.6406 76.5293 39.7734C76.5293 41.3633 76.0566 42.6328 75.1113 43.582C74.166 44.5273 72.9043 45 71.3262 45ZM72.0879 37.6699L71.0449 43.6348C71.2168 43.6504 71.373 43.6582 71.5137 43.6582C72.5605 43.6582 73.3926 43.2891 74.0098 42.5508C74.627 41.8125 74.9355 40.8652 74.9355 39.709C74.9355 39.0762 74.7227 38.5684 74.2969 38.1855C73.8711 37.8027 73.3242 37.6113 72.6562 37.6113C72.4688 37.6113 72.2793 37.6309 72.0879 37.6699ZM78.0763 36.709C78.0763 36.4473 78.1681 36.2305 78.3517 36.0586C78.5392 35.8828 78.7658 35.7949 79.0314 35.7949C79.2931 35.7949 79.5177 35.8828 79.7052 36.0586C79.8927 36.2305 79.9865 36.4473 79.9865 36.709C79.9865 36.9668 79.8927 37.1836 79.7052 37.3594C79.5177 37.5352 79.2931 37.623 79.0314 37.623C78.7697 37.623 78.5451 37.5371 78.3576 37.3652C78.1701 37.1895 78.0763 36.9707 78.0763 36.709ZM78.5099 45H77.0216L77.9709 39.9023H77.1681L77.4142 38.7246H79.6818L78.5099 45ZM81.7093 42.2754C81.7015 42.377 81.6976 42.4648 81.6976 42.5391C81.6976 42.9766 81.8265 43.3125 82.0843 43.5469C82.346 43.7812 82.7073 43.8984 83.1683 43.8984C83.4144 43.8984 83.6976 43.832 84.0179 43.6992C84.3382 43.5625 84.5902 43.4102 84.7738 43.2422L84.6038 44.7832C84.1077 45.0059 83.5023 45.1172 82.7874 45.1172C82.014 45.1172 81.387 44.873 80.9066 44.3848C80.4261 43.8965 80.1859 43.2266 80.1859 42.375C80.1859 41.2969 80.5316 40.4004 81.223 39.6855C81.9183 38.9668 82.8265 38.6074 83.9476 38.6074C84.6077 38.6074 85.1429 38.748 85.553 39.0293C85.9632 39.3066 86.1683 39.7051 86.1683 40.2246C86.1683 40.9316 85.8616 41.4863 85.2484 41.8887C84.639 42.291 83.887 42.4922 82.9925 42.4922C82.555 42.4922 82.1273 42.4199 81.7093 42.2754ZM81.9905 41.168C82.2445 41.2422 82.5198 41.2793 82.8167 41.2793C83.348 41.2793 83.7972 41.1992 84.1644 41.0391C84.5316 40.875 84.7152 40.6406 84.7152 40.3359C84.7152 39.9961 84.3441 39.8262 83.6019 39.8262C83.3089 39.8262 83.0101 39.9551 82.7054 40.2129C82.4007 40.4668 82.1624 40.7852 81.9905 41.168ZM90.5454 40.4414C90.0766 40.0312 89.647 39.8262 89.2563 39.8262C89.0141 39.8262 88.8032 39.8828 88.6235 39.9961C88.4477 40.1055 88.3598 40.2539 88.3598 40.4414C88.3598 40.6719 88.5708 40.8945 88.9927 41.1094C89.4184 41.3242 89.7446 41.4961 89.9712 41.625C90.1977 41.75 90.3833 41.9219 90.5278 42.1406C90.6723 42.3555 90.7446 42.6035 90.7446 42.8848C90.7446 43.5762 90.4848 44.1211 89.9653 44.5195C89.4497 44.918 88.7895 45.1172 87.9848 45.1172C87.2973 45.1172 86.6255 44.9238 85.9692 44.5371L86.7427 43.207C87.2309 43.668 87.7095 43.8984 88.1782 43.8984C88.4751 43.8984 88.7192 43.8242 88.9106 43.6758C89.1059 43.5273 89.2036 43.3262 89.2036 43.0723C89.2036 42.8613 89.02 42.6602 88.6528 42.4688C88.2856 42.2773 87.9614 42.1035 87.6802 41.9473C87.3989 41.7871 87.1841 41.5938 87.0356 41.3672C86.8911 41.1367 86.8188 40.8828 86.8188 40.6055C86.8188 39.9961 87.061 39.5117 87.5454 39.1523C88.0337 38.7891 88.6313 38.6074 89.3384 38.6074C89.8227 38.6074 90.4516 38.7715 91.2251 39.0996L90.5454 40.4414ZM93.0182 42.2754C93.0104 42.377 93.0065 42.4648 93.0065 42.5391C93.0065 42.9766 93.1354 43.3125 93.3932 43.5469C93.6549 43.7812 94.0163 43.8984 94.4772 43.8984C94.7233 43.8984 95.0065 43.832 95.3268 43.6992C95.6471 43.5625 95.8991 43.4102 96.0827 43.2422L95.9127 44.7832C95.4166 45.0059 94.8112 45.1172 94.0963 45.1172C93.3229 45.1172 92.6959 44.873 92.2155 44.3848C91.735 43.8965 91.4948 43.2266 91.4948 42.375C91.4948 41.2969 91.8405 40.4004 92.5319 39.6855C93.2272 38.9668 94.1354 38.6074 95.2565 38.6074C95.9166 38.6074 96.4518 38.748 96.862 39.0293C97.2721 39.3066 97.4772 39.7051 97.4772 40.2246C97.4772 40.9316 97.1705 41.4863 96.5573 41.8887C95.9479 42.291 95.1959 42.4922 94.3014 42.4922C93.8639 42.4922 93.4362 42.4199 93.0182 42.2754ZM93.2995 41.168C93.5534 41.2422 93.8288 41.2793 94.1256 41.2793C94.6569 41.2793 95.1061 41.1992 95.4733 41.0391C95.8405 40.875 96.0241 40.6406 96.0241 40.3359C96.0241 39.9961 95.653 39.8262 94.9108 39.8262C94.6178 39.8262 94.319 39.9551 94.0143 40.2129C93.7096 40.4668 93.4713 40.7852 93.2995 41.168ZM100.014 44.5078C99.784 44.875 99.4344 45.0586 98.9656 45.0586C98.6141 45.0586 98.3367 44.9434 98.1336 44.7129C97.9305 44.4824 97.8289 44.1836 97.8289 43.8164C97.8289 43.3398 97.9227 42.6543 98.1102 41.7598L99.2879 36.1523H100.741L99.534 41.9941C99.3621 42.8262 99.2762 43.4199 99.2762 43.7754C99.2762 44.002 99.3465 44.1816 99.4871 44.3145C99.6277 44.4434 99.8035 44.5078 100.014 44.5078Z" fill="white"/>
<path d="M16 45V10H28.4767C31.2815 10 33.6672 10.3596 35.6339 11.0788C37.6005 11.7979 39.2044 12.8767 40.4456 14.3151C41.6868 15.7534 42.5895 17.5594 43.1537 19.7329C43.7179 21.9064 44 24.4475 44 27.3562C44 30.3288 43.7098 32.9178 43.1295 35.1233C42.5492 37.3288 41.6223 39.1667 40.3489 40.637C39.0754 42.1073 37.4473 43.2021 35.4646 43.9212C33.4819 44.6404 31.0881 45 28.2832 45H16ZM24.3661 37.4726H27.6062C28.8958 37.4726 30.0161 37.3368 30.9672 37.0651C31.9182 36.7934 32.692 36.29 33.2884 35.5548C33.8849 34.8196 34.3282 33.8048 34.6183 32.5103C34.9085 31.2158 35.0535 29.5457 35.0535 27.5C35.0535 25.4543 34.9165 23.7922 34.6425 22.5137C34.3685 21.2352 33.9332 20.2283 33.3368 19.4932C32.7404 18.758 31.9827 18.2546 31.0639 17.9829C30.1451 17.7112 29.0409 17.5753 27.7513 17.5753H24.3661V37.4726Z" fill="white"/>
</svg>
