<svg width="27" height="20" viewBox="0 0 27 20" fill="none" xmlns="http://www.w3.org/2000/svg">
<rect width="27" height="20" rx="1.55571" fill="white"/>
<path fill-rule="evenodd" clip-rule="evenodd" d="M1.0083 7.30005V12.7768H11.7988L13.2252 7.30005H1.0083Z" fill="#A4233B"/>
<path fill-rule="evenodd" clip-rule="evenodd" d="M13.2242 7.30005L11.7976 12.7768H24.5735L26 7.30005H13.2242Z" fill="#0A5296"/>
<path fill-rule="evenodd" clip-rule="evenodd" d="M23.2346 10.0875C23.3178 10.071 23.3799 10.0503 23.4199 10.0256C23.4916 9.9826 23.5385 9.91578 23.5608 9.82494C23.5876 9.7144 23.5827 9.63839 23.545 9.5971C23.5092 9.55431 23.4463 9.53291 23.3561 9.53291C23.2544 9.53291 23.1727 9.5742 23.1103 9.65659C23.0653 9.71759 23.025 9.80017 22.9898 9.90415H22.5753C22.6421 9.66823 22.7295 9.47417 22.8378 9.32233C23.009 9.08454 23.2325 8.96574 23.509 8.96574C23.6891 8.96574 23.8342 9.02448 23.9454 9.1416C24.0565 9.2589 24.0723 9.48017 23.9933 9.80505L23.6921 11.0432C23.6712 11.129 23.647 11.2331 23.6192 11.3553C23.5996 11.4476 23.5931 11.5103 23.5988 11.5434C23.6045 11.5764 23.6194 11.6036 23.6424 11.625L23.6173 11.7288H23.1499C23.1505 11.6745 23.1535 11.6233 23.16 11.5754C23.1666 11.5276 23.1758 11.4732 23.188 11.4122C23.1029 11.5178 23.0124 11.6075 22.9172 11.6819C22.8036 11.7695 22.6886 11.8131 22.5717 11.8131C22.4231 11.8131 22.3171 11.7438 22.2533 11.6053C22.1909 11.4649 22.1909 11.2669 22.2533 11.0109C22.3342 10.6791 22.4704 10.439 22.6621 10.2904C22.7672 10.2095 22.9069 10.1519 23.0813 10.1172L23.2346 10.0875ZM23.4149 10.4168C23.3814 10.4448 23.3481 10.468 23.3153 10.486C23.2839 10.5026 23.2426 10.5181 23.191 10.5332L23.0872 10.5628C22.9903 10.5893 22.9174 10.6216 22.869 10.6597C22.7872 10.7238 22.7298 10.8237 22.6969 10.9592C22.6674 11.0795 22.6664 11.1671 22.6931 11.2214C22.7215 11.2743 22.7649 11.3008 22.8229 11.3008C22.9155 11.3008 23.0116 11.2563 23.1103 11.1671C23.2102 11.0778 23.2907 10.9153 23.3511 10.6792L23.4149 10.4168ZM22.6087 8.96837C22.615 8.96837 22.6272 8.9693 22.6457 8.97081L22.4696 9.69376C22.4439 9.68869 22.4208 9.6855 22.3999 9.684C22.3795 9.68231 22.3622 9.68156 22.3492 9.68137C22.1764 9.68137 22.0379 9.7739 21.9338 9.95876C21.8752 10.0627 21.8194 10.2228 21.767 10.439L21.453 11.7288H21.0205L21.6773 9.0303H22.0874L21.973 9.50063C22.0831 9.32064 22.1706 9.19771 22.236 9.13184C22.343 9.02129 22.4612 8.96593 22.5897 8.96574C22.5979 8.96574 22.604 8.96668 22.6087 8.96837ZM21.1368 9.31999C21.2137 9.55252 21.1973 9.89429 21.0879 10.3449C20.9719 10.8201 20.8185 11.1825 20.6271 11.4316C20.4369 11.681 20.2395 11.8056 20.0344 11.8056C19.9036 11.8056 19.8084 11.752 19.7481 11.6446C19.7155 11.5853 19.6904 11.4988 19.6728 11.3849L19.384 12.5695H18.9596L19.821 9.03021H20.2324L20.1353 9.42865C20.21 9.31173 20.2817 9.2192 20.3508 9.15145C20.4756 9.03115 20.6035 8.97071 20.7351 8.97071C20.927 8.97071 21.061 9.08707 21.1368 9.31999ZM20.6835 9.82763C20.665 9.66735 20.5911 9.58758 20.4615 9.58739C20.3059 9.58739 20.1692 9.70864 20.0517 9.95112C19.9902 10.0802 19.9354 10.2435 19.8872 10.4415C19.8113 10.7551 19.8078 10.9755 19.8787 11.1025C19.9209 11.1769 19.9828 11.214 20.0652 11.214C20.1848 11.214 20.2945 11.1382 20.3937 10.9864C20.4938 10.8343 20.5745 10.6322 20.6364 10.3798C20.6873 10.1718 20.7025 9.98772 20.6835 9.82763ZM19.1721 9.03997C19.2311 9.08632 19.2751 9.16703 19.3044 9.28264C19.3277 9.37685 19.3307 9.49228 19.3134 9.62929C19.3014 9.71994 19.2738 9.85281 19.2315 10.0279L18.8144 11.7287H18.3745L18.7928 10.0105C18.8176 9.90818 18.8277 9.82429 18.8241 9.75822C18.8163 9.63266 18.7612 9.56998 18.659 9.56979C18.5404 9.56979 18.4389 9.65068 18.3542 9.81246C18.3104 9.89842 18.2734 10.0015 18.2441 10.1221L17.8527 11.7287H17.4205L17.8117 10.1221C17.851 9.96186 17.8689 9.8455 17.8666 9.77286C17.862 9.64242 17.807 9.5773 17.7017 9.5773C17.5795 9.5773 17.4808 9.64242 17.407 9.77286C17.3656 9.84718 17.3272 9.95773 17.2918 10.1045L16.8959 11.7287H16.4607L17.1162 9.03527H17.5339L17.4378 9.42865C17.5254 9.28846 17.5998 9.18861 17.6617 9.1293C17.7708 9.02345 17.8915 8.97071 18.0242 8.97071C18.1499 8.97071 18.2403 9.01613 18.2955 9.10697C18.3372 9.19124 18.3582 9.29915 18.3582 9.43109C18.4532 9.27269 18.551 9.15652 18.6527 9.08219C18.759 9.00787 18.8667 8.97071 18.9751 8.97071C19.0472 8.97071 19.1129 8.9938 19.1721 9.03997ZM16.0685 11.4022C15.8615 11.6828 15.6167 11.823 15.3347 11.823C15.0519 11.823 14.8762 11.6828 14.8056 11.4022C14.7357 11.1199 14.7492 10.7806 14.8452 10.3846C14.9404 9.99494 15.0916 9.65749 15.2998 9.37184C15.5083 9.08637 15.7534 8.94373 16.0357 8.94336C16.3177 8.94336 16.4936 9.08637 16.5627 9.37184C16.6319 9.65749 16.6191 9.99494 16.5243 10.3846C16.4277 10.7806 16.2758 11.1199 16.0685 11.4022ZM15.8205 11.011C15.9233 10.8645 16.0076 10.6554 16.0737 10.3848C16.1396 10.1141 16.1563 9.90616 16.1247 9.76071C16.0931 9.61394 16.0147 9.54037 15.8886 9.54037C15.7635 9.54037 15.6483 9.61394 15.5444 9.76071C15.4418 9.90616 15.3576 10.1141 15.2917 10.3848C15.2259 10.6554 15.2087 10.8645 15.2403 11.011C15.2725 11.1578 15.3517 11.2314 15.4772 11.2314C15.6028 11.2314 15.7171 11.1578 15.8205 11.011ZM14.3412 9.99885C14.3574 9.89844 14.3591 9.80761 14.3458 9.72653C14.3241 9.61767 14.2626 9.56324 14.1611 9.56324C14.0162 9.56324 13.8884 9.68148 13.778 9.91721C13.7192 10.0428 13.6647 10.2094 13.6141 10.4174C13.5659 10.6156 13.541 10.7749 13.54 10.8954C13.5362 11.1197 13.6057 11.2319 13.7474 11.2319C13.8475 11.2319 13.9298 11.1873 13.9941 11.0983C14.0577 11.0091 14.1114 10.8937 14.155 10.7516H14.5935C14.531 10.9662 14.4343 11.1694 14.3035 11.3607C14.0935 11.6696 13.8568 11.8237 13.5926 11.8237C13.3287 11.8237 13.1653 11.6949 13.1034 11.4374C13.0414 11.1801 13.0606 10.8457 13.1606 10.435C13.2738 9.97089 13.4302 9.61016 13.6306 9.35285C13.8306 9.09535 14.052 8.96642 14.2942 8.96642C14.5004 8.96642 14.6498 9.04262 14.7433 9.19426C14.8383 9.3461 14.8509 9.61448 14.7812 9.99885H14.3412Z" fill="#FFFFFE"/>
<path fill-rule="evenodd" clip-rule="evenodd" d="M11.0723 10.4091C11.0062 10.6452 10.9159 10.8374 10.8006 10.9858C10.6854 11.1345 10.5578 11.2088 10.4165 11.2088C10.2756 11.2088 10.1911 11.1345 10.1629 10.9858C10.1361 10.8357 10.158 10.636 10.2279 10.3868C10.2922 10.1557 10.38 9.96261 10.4914 9.80721C10.6041 9.6505 10.733 9.57205 10.8786 9.57205C10.974 9.57205 11.0458 9.61502 11.0942 9.70079C11.1718 9.84268 11.1646 10.079 11.0723 10.4091ZM11.7123 8.07397L11.3516 9.36166C11.3311 9.2346 11.286 9.13531 11.2165 9.06456C11.1473 8.99174 11.0548 8.95551 10.9396 8.95551C10.6889 8.95551 10.4518 9.08745 10.2275 9.35152C10.0044 9.61578 9.82848 9.97819 9.69958 10.4386C9.58782 10.838 9.57145 11.166 9.65141 11.4218C9.73252 11.676 9.88465 11.8032 10.107 11.8032C10.2424 11.8028 10.3652 11.7666 10.4766 11.6943C10.5878 11.6213 10.7013 11.5052 10.8172 11.3449L10.7123 11.7189H11.1965L12.217 8.07397H11.7123Z" fill="#FFFFFE"/>
<path fill-rule="evenodd" clip-rule="evenodd" d="M7.01782 9.21298C6.96032 9.41774 6.86855 9.55456 6.74194 9.624C6.67035 9.6636 6.57363 9.68349 6.45292 9.68349H5.84308L6.11763 8.70286H6.74289C6.8596 8.70286 6.94071 8.72444 6.98717 8.76723C7.06942 8.84324 7.0797 8.9917 7.01782 9.21298ZM7.64537 8.72517C7.64404 8.61294 7.62861 8.51065 7.59853 8.41812C7.56217 8.30589 7.50352 8.22087 7.42204 8.16306C7.34131 8.10545 7.21146 8.07392 7.03249 8.06885H5.76959L5.47524 9.1193H1V9.55528H5.35282L5.27609 9.82986H1V10.2657H5.15405L5.07713 10.54H1V10.9762H4.95508L4.86921 11.2831H1V11.7193H4.77935L5.27285 11.7189L5.67364 10.2876H6.2294C6.38781 10.2876 6.48453 10.3265 6.51994 10.404C6.55631 10.4815 6.54317 10.6369 6.48072 10.8694L6.38876 11.2088C6.35982 11.3159 6.3385 11.4208 6.32364 11.5231C6.31641 11.5727 6.30994 11.6378 6.30384 11.7189H6.89616L6.92149 11.6271C6.88303 11.5826 6.86951 11.5134 6.88188 11.4191C6.88931 11.3598 6.91635 11.2467 6.96318 11.0798L7.03173 10.8349C7.10331 10.5791 7.13149 10.3892 7.11626 10.2653C7.10236 10.1399 7.04562 10.0433 6.94548 9.9755C7.10712 9.90625 7.24192 9.78838 7.35045 9.62154C7.45935 9.45319 7.53799 9.2824 7.58654 9.10898C7.6269 8.9654 7.64651 8.8374 7.64537 8.72517Z" fill="#FFFFFE"/>
<path fill-rule="evenodd" clip-rule="evenodd" d="M8.96688 10.0994H8.19311C8.25823 9.92432 8.33648 9.78581 8.42825 9.68352C8.52078 9.58105 8.62493 9.53 8.74069 9.53C8.84636 9.53 8.92118 9.57861 8.96497 9.67583C9.01048 9.77173 9.01086 9.91287 8.96688 10.0994ZM9.29606 9.0745C9.19267 8.99023 9.06168 8.948 8.90327 8.948C8.63653 8.94819 8.38444 9.07281 8.14702 9.32205C7.91055 9.57129 7.7272 9.92957 7.5964 10.3967C7.45646 10.8952 7.44827 11.255 7.57146 11.4763C7.69483 11.6975 7.87742 11.8081 8.11979 11.8081C8.41338 11.8081 8.67822 11.6767 8.91489 11.4143C9.06606 11.2493 9.17021 11.0866 9.22809 10.9267H8.71973C8.67042 11.0059 8.62225 11.0675 8.57484 11.1123C8.48783 11.1951 8.39282 11.2362 8.29039 11.2362C8.19405 11.2362 8.12056 11.2024 8.07067 11.1347C7.98823 11.0258 7.98138 10.8359 8.05049 10.5651H9.35375C9.42115 10.3321 9.46589 10.154 9.48779 10.0304C9.52491 9.81903 9.52834 9.63322 9.49883 9.47294C9.46684 9.29146 9.39925 9.15858 9.29606 9.0745Z" fill="#FFFFFE"/>
</svg>
