<svg width="16" height="16" viewBox="0 0 16 16" fill="none" xmlns="http://www.w3.org/2000/svg">
<path d="M15.294 9.725C14.8328 8.56072 14.5483 7.54513 14.3177 6.73114C14.1102 5.99527 13.9283 5.36021 13.6797 4.8436C13.69 4.8436 13.7054 4.8436 13.7156 4.8436L14.3331 5.31989C14.3869 5.36273 14.451 5.3829 14.515 5.3829C14.6047 5.3829 14.6918 5.34509 14.7508 5.27201C14.8507 5.14601 14.8302 4.96204 14.6995 4.86124L12.6164 3.25091C12.5626 3.21058 12.4986 3.1879 12.4319 3.1879H11.9349V0.705623C11.9349 0.31753 11.612 0 11.2174 0H0.717425C0.322841 0 0 0.31753 0 0.705623V15.2969C0 15.685 0.322841 16 0.717425 16H11.22C11.6146 16 11.9374 15.685 11.9374 15.2969V9.75902C12.332 10.2656 12.6702 11.5319 12.4857 12.9809C12.3218 14.2813 12.8803 15.06 13.4568 15.3599C13.6772 15.4733 13.9129 15.5287 14.1486 15.5287C14.5176 15.5287 14.8866 15.3901 15.194 15.1205C15.5809 14.7778 16.7391 13.3791 15.294 9.725ZM10.5538 3.1879V3.77256V5.19625C10.5538 5.58434 10.231 5.89935 9.8364 5.89935H2.09847C1.70388 5.89935 1.38104 5.58182 1.38104 5.19625V2.15467C1.38104 1.76658 1.70388 1.45157 2.09847 1.45157H9.83897C10.2335 1.45157 10.5564 1.7691 10.5564 2.15467V3.1879H10.5538ZM12.1834 4.41518C12.2065 4.42526 12.2321 4.43534 12.2551 4.44794C12.2218 4.44794 12.1937 4.43786 12.1629 4.43534C12.168 4.42526 12.1757 4.42022 12.1834 4.41518ZM14.6303 14.5031C14.392 14.7148 14.1051 14.7576 13.8463 14.6266C13.5183 14.4577 13.2083 13.9638 13.3185 13.0843C13.6311 10.6272 12.6369 9.01796 11.9349 8.53914V4.79572C12.0476 4.82344 12.1629 4.8436 12.2936 4.8436C12.2961 4.8436 12.2987 4.8436 12.3038 4.8436C12.4473 4.8436 12.578 4.84108 12.7061 4.84108C13.011 5.25437 13.216 5.91715 13.5081 6.95039C13.7438 7.78453 14.0359 8.82029 14.5125 10.0249C15.5015 12.5324 15.2248 13.9839 14.6303 14.5031Z" fill="#FFFFFF"/>
</svg>
