<svg width="16" height="16" viewBox="0 0 16 16" fill="none" xmlns="http://www.w3.org/2000/svg">
<circle cx="8" cy="8" r="8" fill="#FFFFFF"/>
<path d="M8.87914 4V4.86154H10.6374V6.58462H8.87914H7.1209C7.01106 6.58442 6.90512 6.62453 6.82395 6.69705C6.74277 6.76958 6.69225 6.86926 6.68233 6.97646C6.6724 7.08367 6.70379 7.19063 6.77032 7.27629C6.83685 7.36194 6.93369 7.42008 7.04178 7.43926L7.1209 7.44615H8.87914C9.46203 7.44615 10.0211 7.67308 10.4332 8.077C10.8454 8.48093 11.0769 9.02876 11.0769 9.6C11.0769 10.1712 10.8454 10.7191 10.4332 11.123C10.0211 11.5269 9.46203 11.7538 8.87914 11.7538V12.6154H7.1209V11.7538H5.36266V10.0308H8.87914C8.98898 10.031 9.09492 9.99085 9.17609 9.91833C9.25726 9.84581 9.30779 9.74613 9.31771 9.63892C9.32764 9.53172 9.29624 9.42476 9.22971 9.3391C9.16319 9.25344 9.06635 9.1953 8.95826 9.17612L8.87914 9.16923H7.1209C6.538 9.16923 5.97898 8.94231 5.56682 8.53838C5.15465 8.13446 4.9231 7.58662 4.9231 7.01539C4.9231 6.44415 5.15465 5.89631 5.56682 5.49239C5.97898 5.08846 6.538 4.86154 7.1209 4.86154V4H8.87914Z" fill="#008542"/>
</svg>
