<svg width="147" height="83" viewBox="0 0 147 83" fill="none" xmlns="http://www.w3.org/2000/svg">
<g clip-path="url(#clip0)">
<path d="M115.245 73.6309H115.288V8.70223C115.288 3.8822 111.384 0 106.586 0H83.5327C78.7127 0 74.8305 3.90401 74.8305 8.70223V73.6309H74.8741C73.1729 73.849 71.8425 75.3102 71.8425 77.055V80.2175H118.276V77.055C118.276 75.3102 116.946 73.849 115.245 73.6309ZM81.9188 11.2758C81.9188 8.96395 83.7945 7.08828 86.1063 7.08828H104.034C106.346 7.08828 108.222 8.96395 108.222 11.2758V21.8973C108.222 24.2092 106.346 26.0849 104.034 26.0849H86.0845C83.7727 26.0849 81.897 24.2092 81.897 21.8973V11.2758H81.9188Z" fill="#005F95"/>
<path d="M123.532 14.4164C123.445 14.3946 123.358 14.4383 123.314 14.5255L122.66 16.1831C122.638 16.2703 122.725 16.3575 122.813 16.4012L124.034 16.8374L124.885 14.8526L123.532 14.4164Z" fill="#005F95"/>
<path d="M123.14 15.965L119.65 14.7C118.909 14.4165 118.124 14.2202 117.338 14.1111L115.659 13.8494C115.419 13.8058 115.266 13.5659 115.332 13.3478L115.441 12.977C115.506 12.7807 115.681 12.6498 115.899 12.6935L117.644 12.977C118.429 13.1079 119.214 13.3041 119.956 13.5659L123.467 14.8527L123.14 15.965Z" fill="#005F95"/>
<path d="M127.742 23.4459L127.218 23.7949C126.957 23.9694 126.869 24.3183 127.044 24.6019L130.337 29.8363C130.512 30.098 130.839 30.1852 131.122 30.0544L135.441 27.7861C135.593 27.6989 135.659 27.5026 135.572 27.3499L135.223 26.7829C135.135 26.6302 134.939 26.5866 134.786 26.6956L131.711 28.8112C131.34 29.0729 130.839 28.9857 130.577 28.6149L127.764 24.7327C127.655 24.5364 127.611 24.2965 127.655 24.0784L127.742 23.4459Z" fill="#005F95"/>
<path d="M129.029 22.6389H130.097C130.272 22.6389 130.446 22.7262 130.555 22.857L130.926 23.2932C130.991 23.3805 131.035 23.4895 131.057 23.5986L131.668 28.0042C131.668 28.0696 131.624 28.1132 131.559 28.1132H131.297C131.253 28.1132 131.21 28.0696 131.188 28.026L130.752 25.0816C130.752 25.0816 131.101 23.8603 129.988 23.7076C129.988 23.7076 129.443 23.7512 129.181 23.4241C129.007 23.206 128.941 22.9443 128.898 22.7916C128.898 22.7262 128.941 22.6389 129.029 22.6389Z" fill="#005F95"/>
<path d="M133.543 19.6292L133.827 18.6913C134.023 18.4078 133.957 18.037 133.696 17.8407L129.356 14.591C128.723 14.1112 127.829 14.2203 127.305 14.8309L127.24 14.9182C127.131 15.049 126.956 15.1145 126.804 15.0709L125.386 14.7873C125.059 14.7219 124.71 14.9182 124.601 15.2453L124.056 16.8593C123.968 17.0774 124.034 17.3391 124.187 17.5136L124.601 17.9934C124.732 18.1461 124.797 18.3424 124.775 18.5387L124.666 20.2617C124.645 20.5888 124.732 20.8941 124.906 21.1777L125.91 22.7262C126.237 23.2278 126.891 23.3805 127.393 23.097L131.755 21.0032L133.543 19.6292ZM131.755 21.0032L135.833 27.3936C135.877 27.459 135.964 27.4808 136.051 27.4372L137.992 26.194C138.058 26.1504 138.08 26.0413 138.036 25.9759L133.543 19.6292" fill="#005F95"/>
<path d="M139.018 61.788C136.422 61.788 133.587 60.1523 130.664 58.4729C126.477 56.052 121.112 53.4566 115.899 54.4817L115.114 54.6998V53.6965L115.703 53.5874C121.264 52.4751 126.804 55.1796 131.122 57.6877C135.79 60.3922 139.497 62.5078 142.573 59.1926C147.829 53.5438 146.106 45.3432 143.75 39.4763C141.155 33.0205 136.597 26.9791 136.553 26.9355L137.316 26.3903C137.36 26.4339 141.984 32.5625 144.645 39.1274C148.2 47.9168 147.72 55.0705 143.292 59.8251C141.984 61.221 140.544 61.788 139.018 61.788Z" fill="#005F95"/>
<path d="M74.4597 81.5262C70.3158 81.5262 66.5863 79.1707 64.776 75.4848H25.9323C24.122 79.1707 20.4143 81.5262 16.2486 81.5262C16.0305 81.5262 15.7906 81.5262 15.5725 81.5044C9.90185 81.1554 5.4744 76.2917 5.4744 70.4684V46.1938C5.4744 43.7511 6.25957 41.3084 7.65541 39.3018L4.90734 38.6693C2.6609 38.1677 1.09058 36.183 1.09058 33.8711V32.3662C1.09058 30.8613 2.31194 29.64 3.81684 29.64H14.7873L23.5768 17.7753H67.1097L75.8992 29.64H86.8697C88.3745 29.64 89.5959 30.8613 89.5959 32.3662V33.8711C89.5959 36.183 88.0256 38.1459 85.7792 38.6693L83.0311 39.3018C84.4487 41.3084 85.2121 43.7511 85.2121 46.1938V70.4466C85.2121 76.2917 80.7846 81.1336 75.114 81.4825C74.9177 81.5043 74.6778 81.5262 74.4597 81.5262Z" fill="#005F95"/>
<path d="M66.5644 18.8876L75.3539 30.7522H86.8914C87.7856 30.7522 88.5271 31.4938 88.5271 32.388V33.8929C88.5271 35.6813 87.284 37.2298 85.561 37.6224L81.199 38.6257L82.0277 39.7598C83.4018 41.6355 84.1651 43.8819 84.1651 46.2156V70.4466C84.1651 75.6156 80.2393 80.0867 75.0921 80.392C74.874 80.4138 74.6777 80.4138 74.4814 80.4138C70.4248 80.4138 66.957 77.9275 65.5175 74.3724H46.0193H44.7543H25.2561C23.8166 77.9056 20.3488 80.4138 16.2921 80.4138C16.0958 80.4138 15.8777 80.4138 15.6815 80.392C10.5343 80.0648 6.60846 75.5938 6.60846 70.4466V46.1938C6.60846 43.8601 7.35 41.6137 8.74584 39.738L9.57463 38.6039L5.21261 37.6006C3.4678 37.208 2.24644 35.6595 2.24644 33.8711V32.3662C2.24644 31.472 2.98798 30.7304 3.8822 30.7304H15.4197L24.2092 18.8657H44.7979H46.0629H66.5644V18.8876ZM67.6767 16.7065H66.5862H45.9975H44.7325H24.1438H23.0533L22.399 17.5789L14.242 28.5712H3.81677C1.70119 28.5712 0 30.2724 0 32.388V33.8929C0 36.7064 1.91929 39.1273 4.66736 39.738L5.93234 40.0215C4.92908 41.919 4.38383 44.0346 4.38383 46.1938V70.4466C4.38383 76.8588 9.26929 82.1804 15.507 82.573C15.7469 82.5948 16.0086 82.5948 16.2703 82.5948C20.6105 82.5948 24.5145 80.2611 26.6083 76.5534H44.7543H46.0193H64.1217C66.2154 80.2611 70.1194 82.5948 74.4596 82.5948C74.6995 82.5948 74.9613 82.5948 75.223 82.573C81.4607 82.1804 86.3461 76.8588 86.3461 70.4466V46.1938C86.3461 44.0564 85.8009 41.919 84.7976 40.0215L86.0626 39.738C88.8107 39.1055 90.73 36.7064 90.73 33.8929V32.388C90.73 30.2942 89.0288 28.5712 86.9132 28.5712H76.488L68.3528 17.5789L67.6767 16.7065Z" fill="white"/>
<path d="M73.8271 39.978L64.8631 26.4557C64.6014 26.0632 64.1434 25.8232 63.6636 25.8232H45.9974H45.3649H27.6987C27.2189 25.8232 26.7609 26.0632 26.4992 26.4557L17.5352 39.978C17.099 40.6323 17.5788 41.5047 18.3422 41.5047H45.3649H45.9974H73.0201C73.7834 41.5047 74.2415 40.6323 73.8271 39.978Z" fill="white"/>
<path d="M29.2474 63.0094H20.9595C17.8189 63.0094 15.2671 60.4576 15.2671 57.3169V55.6158C15.2671 55.4413 15.398 55.3104 15.5724 55.3104H23.7512C26.9573 55.3104 29.5527 57.9058 29.5527 61.1119V62.704C29.5527 62.8785 29.4218 63.0094 29.2474 63.0094Z" fill="white"/>
<path d="M61.3735 63.0094H69.6614C72.802 63.0094 75.332 60.4794 75.332 57.3388V55.6158C75.332 55.4413 75.2011 55.3104 75.0267 55.3104H66.8261C63.6418 55.3104 61.0464 57.9058 61.0464 61.0901V62.704C61.0682 62.8785 61.2209 63.0094 61.3735 63.0094Z" fill="white"/>
</g>
<defs>
<clipPath id="clip0">
<rect width="147" height="82.6166" fill="white"/>
</clipPath>
</defs>
</svg>
