<svg width="31" height="32" viewBox="0 0 31 32" fill="none" xmlns="http://www.w3.org/2000/svg">
<rect opacity="0.05" y="1" width="31" height="31" rx="7.56098" fill="#008542"/>
<rect opacity="0.05" y="0.5" width="31" height="31" rx="7.56098" fill="#008542"/>
<path d="M12.155 23.0325L26.447 17.5296C27.7125 17.0424 28.348 15.611 27.8608 14.3456L24.1287 4.65266C23.6415 3.38719 22.2101 2.75165 20.9447 3.23889L6.65265 8.74172C5.38718 9.22896 4.75164 10.6603 5.23888 11.9258L8.97093 21.6187C9.45817 22.8842 10.8895 23.5197 12.155 23.0325Z" fill="#008542" stroke="white"/>
<path d="M24.3253 6.5547L6.36865 13.4685L7.09531 15.3558L25.0519 8.44197L24.3253 6.5547Z" fill="white"/>
<path d="M11.1337 17.7564L14.4868 16.4653C14.7067 16.3807 14.9421 16.5004 15.0197 16.702C15.1044 16.9218 14.9847 17.1573 14.7831 17.2349L11.43 18.526C11.2101 18.6106 10.9747 18.4909 10.8971 18.2893C10.8195 18.0878 10.9138 17.841 11.1337 17.7564Z" fill="white"/>
<path d="M17.8337 17.6173L11.952 19.8819C11.7321 19.9666 11.4967 19.8468 11.4191 19.6453C11.3415 19.4437 11.4542 19.1899 11.6557 19.1123L17.5374 16.8477C17.7573 16.7631 17.9928 16.8828 18.0704 17.0844C18.148 17.2859 18.0353 17.5397 17.8337 17.6173Z" fill="white"/>
<path d="M7.14019 28.2121H22.455C23.811 28.2121 24.9184 27.1047 24.9184 25.7487V15.3621C24.9184 14.0061 23.811 12.8987 22.455 12.8987H7.14019C5.78416 12.8987 4.67676 14.0061 4.67676 15.3621V25.7487C4.67676 27.1047 5.78416 28.2121 7.14019 28.2121Z" fill="#008542" stroke="white"/>
<path d="M24.4184 17.2078H5.17676V19.2301H24.4184V17.2078Z" fill="white"/>
<path d="M8.08285 22.9214H11.6759C11.9115 22.9214 12.0883 23.1177 12.0883 23.3337C12.0883 23.5693 11.8919 23.746 11.6759 23.746H8.08285C7.84724 23.746 7.67053 23.5497 7.67053 23.3337C7.67053 23.1177 7.84724 22.9214 8.08285 22.9214Z" fill="white"/>
<path d="M14.3855 25.1989H8.08285C7.84724 25.1989 7.67053 25.0026 7.67053 24.7866C7.67053 24.5706 7.86688 24.3743 8.08285 24.3743H14.3855C14.6211 24.3743 14.7978 24.5706 14.7978 24.7866C14.7978 25.0026 14.6015 25.1989 14.3855 25.1989Z" fill="white"/>
</svg>
