<svg width="31" height="31" viewBox="0 0 31 31" fill="none" xmlns="http://www.w3.org/2000/svg">
<rect opacity="0.05" width="31" height="31" rx="7.56098" fill="#BCBDBC"/>
<path d="M12.155 22.5325L26.447 17.0296C27.7125 16.5424 28.348 15.111 27.8608 13.8456L24.1287 4.15266C23.6415 2.88719 22.2101 2.25165 20.9447 2.73889L6.65265 8.24172C5.38718 8.72896 4.75164 10.1603 5.23888 11.4258L8.97093 21.1187C9.45817 22.3842 10.8895 23.0197 12.155 22.5325Z" fill="#BCBDBC" stroke="white"/>
<path d="M24.3253 6.05457L6.36865 12.9684L7.09531 14.8557L25.0519 7.94185L24.3253 6.05457Z" fill="white"/>
<path d="M11.1337 17.2564L14.4868 15.9653C14.7067 15.8807 14.9421 16.0004 15.0197 16.202C15.1044 16.4218 14.9847 16.6573 14.7831 16.7349L11.43 18.026C11.2101 18.1106 10.9747 17.9909 10.8971 17.7893C10.8195 17.5878 10.9138 17.341 11.1337 17.2564Z" fill="white"/>
<path d="M17.8337 17.1172L11.952 19.3818C11.7321 19.4665 11.4967 19.3467 11.4191 19.1452C11.3415 18.9436 11.4542 18.6898 11.6557 18.6122L17.5374 16.3476C17.7573 16.2629 17.9928 16.3827 18.0704 16.5842C18.148 16.7858 18.0353 17.0396 17.8337 17.1172Z" fill="white"/>
<path d="M7.14019 27.7121H22.455C23.811 27.7121 24.9184 26.6047 24.9184 25.2487V14.8621C24.9184 13.5061 23.811 12.3987 22.455 12.3987H7.14019C5.78416 12.3987 4.67676 13.5061 4.67676 14.8621V25.2487C4.67676 26.6047 5.78416 27.7121 7.14019 27.7121Z" fill="#BCBDBC" stroke="white"/>
<path d="M24.4184 16.7076H5.17676V18.73H24.4184V16.7076Z" fill="white"/>
<path d="M8.08285 22.4215H11.6759C11.9115 22.4215 12.0883 22.6179 12.0883 22.8338C12.0883 23.0694 11.8919 23.2462 11.6759 23.2462H8.08285C7.84724 23.2462 7.67053 23.0498 7.67053 22.8338C7.67053 22.6179 7.84724 22.4215 8.08285 22.4215Z" fill="white"/>
<path d="M14.3855 24.699H8.08285C7.84724 24.699 7.67053 24.5027 7.67053 24.2867C7.67053 24.0707 7.86688 23.8744 8.08285 23.8744H14.3855C14.6211 23.8744 14.7978 24.0707 14.7978 24.2867C14.7978 24.5027 14.6015 24.699 14.3855 24.699Z" fill="white"/>
</svg>
