<svg width="64" height="64" viewBox="0 0 64 64" fill="none" xmlns="http://www.w3.org/2000/svg">
<path d="M32.0002 60.6666C16.1868 60.6666 3.3335 47.8132 3.3335 31.9999C3.3335 16.1866 16.1868 3.33325 32.0002 3.33325C47.8135 3.33325 60.6668 16.1866 60.6668 31.9999C60.6668 47.8132 47.8135 60.6666 32.0002 60.6666ZM32.0002 6.33325C18.4002 6.33325 6.3335 18.3999 6.3335 31.9999C6.3335 45.5999 18.4002 57.6666 32.0002 57.6666C45.6002 57.6666 57.6668 45.5999 57.6668 31.9999C57.6668 18.3999 45.6002 6.33325 32.0002 6.33325Z" fill="#008542"/>
<path d="M28.2133 41.5467C27.68 41.5467 27.1733 41.3333 26.8 40.96L19.2533 33.4133C18.48 32.64 18.48 31.36 19.2533 30.5867C20.0267 29.8133 21.3067 29.8133 22.08 30.5867L28.2133 36.72L41.92 23.0133C42.6933 22.24 43.9733 22.24 44.7467 23.0133C45.52 23.7867 45.52 25.0667 44.7467 25.84L29.6267 40.96C29.2533 41.3333 28.7467 41.5467 28.2133 41.5467Z" fill="#008542"/>
</svg>
