<svg width="48" height="48" viewBox="0 0 48 48" fill="none" xmlns="http://www.w3.org/2000/svg">
<path d="M41.5111 17.4039V30.5953C41.5111 32.7553 40.354 34.7611 38.4833 35.8604L27.0276 42.4754C25.1569 43.5554 22.8426 43.5554 20.9526 42.4754L9.49685 35.8604C7.62614 34.7804 6.46899 32.7746 6.46899 30.5953V17.4039C6.46899 15.2439 7.62614 13.2381 9.49685 12.1389L20.9526 5.52387C22.8233 4.44387 25.1376 4.44387 27.0276 5.52387L38.4833 12.1389C40.354 13.2381 41.5111 15.2246 41.5111 17.4039Z" stroke="white" stroke-width="1.5" stroke-linecap="round" stroke-linejoin="round"/>
<path d="M23.9997 22.0711C26.4814 22.0711 28.4932 20.0592 28.4932 17.5775C28.4932 15.0957 26.4814 13.084 23.9997 13.084C21.5179 13.084 19.5061 15.0957 19.5061 17.5775C19.5061 20.0592 21.5179 22.0711 23.9997 22.0711Z" stroke="white" stroke-width="1.5" stroke-linecap="round" stroke-linejoin="round"/>
<path d="M31.714 32.9868C31.714 29.5153 28.2618 26.6997 23.9997 26.6997C19.7375 26.6997 16.2854 29.5153 16.2854 32.9868" stroke="white" stroke-width="1.5" stroke-linecap="round" stroke-linejoin="round"/>
</svg>
