<svg width="27" height="20" viewBox="0 0 27 20" fill="none" xmlns="http://www.w3.org/2000/svg">
<rect width="27" height="20" rx="1.55571" fill="white"/>
<path d="M11.9667 13.5335H10.1035L11.2689 6.5271H13.1319L11.9667 13.5335Z" fill="#18206F"/>
<path d="M18.7208 6.69819C18.3533 6.55643 17.7704 6.3999 17.0497 6.3999C15.2098 6.3999 13.9141 7.35391 13.9062 8.71786C13.8909 9.72418 14.8338 10.2831 15.5391 10.6186C16.2599 10.9615 16.5049 11.1853 16.5049 11.4909C16.4976 11.9603 15.9224 12.1767 15.386 12.1767C14.6422 12.1767 14.2436 12.0651 13.6379 11.804L13.3926 11.692L13.1318 13.2648C13.5688 13.4584 14.3739 13.6302 15.2098 13.6377C17.1647 13.6377 18.4375 12.6985 18.4525 11.2449C18.46 10.4474 17.9621 9.83622 16.8886 9.33683C16.237 9.01625 15.8379 8.80009 15.8379 8.47208C15.8455 8.17389 16.1754 7.86846 16.911 7.86846C17.5167 7.85351 17.9618 7.99507 18.2989 8.13674L18.4674 8.21114L18.7208 6.69819Z" fill="#18206F"/>
<path d="M21.1971 11.0514C21.3505 10.6489 21.9409 9.09104 21.9409 9.09104C21.9332 9.106 22.094 8.6811 22.186 8.42026L22.3163 9.02397C22.3163 9.02397 22.6691 10.7011 22.7457 11.0514C22.4545 11.0514 21.5651 11.0514 21.1971 11.0514ZM23.4969 6.5271H22.0557C21.6113 6.5271 21.2737 6.65371 21.0819 7.10842L18.3145 13.5334H20.2694C20.2694 13.5334 20.5913 12.6686 20.6604 12.4824C20.8749 12.4824 22.7767 12.4824 23.0526 12.4824C23.1061 12.7284 23.2749 13.5334 23.2749 13.5334H25L23.4969 6.5271Z" fill="#18206F"/>
<path d="M8.54723 6.5271L6.72259 11.3048L6.5232 10.3358C6.18586 9.21775 5.1279 8.00299 3.94727 7.39898L5.61857 13.526H7.58881L10.5174 6.5271H8.54723Z" fill="#18206F"/>
<path d="M5.0283 6.5271H2.03067L2 6.66867C4.33834 7.25009 5.88698 8.65158 6.52324 10.3361L5.87159 7.11605C5.76431 6.66857 5.43461 6.54186 5.0283 6.5271Z" fill="#FAA61A"/>
</svg>
