<svg width="115" height="30" viewBox="0 0 115 30" fill="none" xmlns="http://www.w3.org/2000/svg">
<path d="M95.8897 6.68937C95.7202 6.49225 95.4566 6.3632 95.134 6.3632C94.8114 6.3632 94.5399 6.49225 94.3694 6.68937C94.1405 6.94654 94.081 7.22922 94.081 8.40393C94.081 9.57863 94.1405 9.86179 94.3694 10.119C94.5399 10.3161 94.8114 10.4447 95.134 10.4447C95.4566 10.4447 95.7202 10.3161 95.8897 10.119C96.1191 9.86179 96.187 9.57863 96.187 8.40393C96.187 7.22922 96.1191 6.94654 95.8897 6.68937ZM96.7643 10.8389C96.3396 11.2677 95.8218 11.5078 95.134 11.5078C94.4462 11.5078 93.9195 11.2677 93.4948 10.8389C92.8834 10.2215 92.9007 9.45856 92.9007 8.40393C92.9007 7.34929 92.8834 6.58633 93.4948 5.96895C93.9195 5.54067 94.4462 5.30005 95.134 5.30005C95.8218 5.30005 96.3396 5.54067 96.7643 5.96895C97.3758 6.58633 97.3674 7.34929 97.3674 8.40393C97.3674 9.45856 97.3758 10.2215 96.7643 10.8389Z" fill="#666666"/>
<path d="M101.809 11.4565L99.4142 7.70971V11.4565H98.2339V5.35181H99.2874L101.682 9.09006V5.35181H102.863V11.4565H101.809Z" fill="#666666"/>
<path d="M104.103 11.4565V5.35181H108.086V6.41494H105.283V7.8468H107.669V8.90995H105.283V10.3933H108.086V11.4565H104.103Z" fill="#666666"/>
<path d="M95.1254 19.219C94.4629 19.219 93.9198 18.9793 93.4951 18.5501C92.8832 17.9332 92.9009 17.1697 92.9009 16.1156C92.9009 15.061 92.8832 14.2975 93.4951 13.6801C93.9198 13.2514 94.4629 13.0117 95.1254 13.0117C96.2547 13.0117 97.1382 13.6631 97.3503 14.9409H96.1531C96.0342 14.4521 95.7284 14.0749 95.1343 14.0749C94.8112 14.0749 94.5481 14.1949 94.3781 14.3921C94.1487 14.6492 94.0808 14.9409 94.0808 16.1156C94.0808 17.2898 94.1487 17.5815 94.3781 17.8386C94.5481 18.0358 94.8112 18.1558 95.1343 18.1558C95.7284 18.1558 96.0342 17.7786 96.1531 17.2898H97.3503C97.1382 18.5676 96.2467 19.219 95.1254 19.219Z" fill="#666666"/>
<path d="M98.0303 19.1677V13.063H99.2106V18.104H101.372V19.1677H98.0303Z" fill="#666666"/>
<path d="M103.388 13.0627H102.208V19.1674H103.388V13.0627Z" fill="#666666"/>
<path d="M106.829 19.219C106.166 19.219 105.623 18.9793 105.199 18.5501C104.587 17.9332 104.604 17.1697 104.604 16.1156C104.604 15.061 104.587 14.2975 105.199 13.6801C105.623 13.2514 106.166 13.0117 106.829 13.0117C107.958 13.0117 108.842 13.6631 109.054 14.9409H107.857C107.738 14.4521 107.432 14.0749 106.837 14.0749C106.515 14.0749 106.252 14.1949 106.082 14.3921C105.852 14.6492 105.784 14.9409 105.784 16.1156C105.784 17.2898 105.852 17.5815 106.082 17.8386C106.252 18.0358 106.515 18.1558 106.837 18.1558C107.432 18.1558 107.738 17.7786 107.857 17.2898H109.054C108.842 18.5676 107.95 19.219 106.829 19.219Z" fill="#666666"/>
<path d="M113.265 19.1677L111.711 16.39L110.93 17.3326V19.1677H109.749V13.063H110.93V15.7206L113.061 13.063H114.496L112.492 15.4895L114.641 19.1677H113.265Z" fill="#666666"/>
<path d="M4.2547 25.809C4.50328 25.809 4.70463 25.6043 4.70463 25.3519C4.70463 25.0999 4.50328 24.8948 4.2547 24.8948C4.00699 24.8948 3.80566 25.0999 3.80566 25.3519C3.80566 25.6043 4.00699 25.809 4.2547 25.809Z" fill="#666666"/>
<path d="M39.0616 29.3918C39.3102 29.3918 39.5115 29.1871 39.5115 28.9347C39.5115 28.6822 39.3102 28.4771 39.0616 28.4771C38.8134 28.4771 38.6125 28.6822 38.6125 28.9347C38.6125 29.1871 38.8134 29.3918 39.0616 29.3918Z" fill="#666666"/>
<path d="M17.7699 26.6219V26.6205C17.7685 26.1105 17.5933 25.6808 17.2754 25.3905L17.253 25.3707L17.2478 25.3659H17.2469C16.9477 25.1059 16.5422 24.9693 16.0619 24.9651C16.06 24.9646 16.0562 24.9641 16.0515 24.9641C16.0469 24.9641 16.0426 24.9646 16.038 24.9651H16.0347C16.0202 24.9651 16.0103 24.9655 16.0033 24.9655C15.9977 24.9655 15.9888 24.9651 15.978 24.9651H15.971C15.9673 24.9651 15.9626 24.9641 15.957 24.9641H15.9551H15.9527C15.9504 24.9641 15.9467 24.9641 15.9434 24.9651C15.4639 24.9703 15.0603 25.1064 14.7621 25.3659H14.7607L14.7331 25.3905C14.4161 25.6793 14.2415 26.1076 14.2391 26.6144L14.2386 26.6149V26.6172L14.2358 29.2413C14.2358 29.2758 14.2508 29.3103 14.2766 29.3349C14.3023 29.3599 14.3384 29.3741 14.3754 29.3741H14.838C14.874 29.3741 14.9101 29.3599 14.9363 29.3349C14.9625 29.3103 14.977 29.2758 14.977 29.2413L14.978 26.7056C14.9808 26.3341 15.0749 26.0708 15.2448 25.8968C15.4092 25.728 15.6606 25.633 16.0061 25.6264C16.3488 25.633 16.5994 25.728 16.7642 25.8968C16.9337 26.0708 17.0278 26.3341 17.0306 26.7061L17.0301 29.2413C17.0301 29.2758 17.0451 29.3103 17.0704 29.3349C17.0971 29.3599 17.1331 29.3741 17.1692 29.3741H17.6327C17.6692 29.3741 17.7053 29.3599 17.731 29.3349C17.7577 29.3103 17.7722 29.2758 17.7722 29.2413L17.7699 26.6219Z" fill="#666666"/>
<path d="M33.8983 26.6219V26.6205C33.8973 26.1105 33.7222 25.6808 33.4039 25.3905L33.3814 25.3707L33.3767 25.3659H33.3753C33.0761 25.1059 32.6711 24.9693 32.1907 24.9651C32.1889 24.9646 32.1846 24.9641 32.1804 24.9641C32.1758 24.9641 32.1715 24.9646 32.1668 24.9651H32.1631C32.1491 24.9651 32.1392 24.9655 32.1322 24.9655C32.1261 24.9655 32.1177 24.9651 32.1069 24.9651H32.0994C32.0961 24.9651 32.0915 24.9641 32.0854 24.9641H32.084H32.0817C32.0788 24.9641 32.0756 24.9641 32.0718 24.9651C31.5928 24.9703 31.1893 25.1064 30.8905 25.3659H30.8891L30.8619 25.3905C30.545 25.6793 30.3699 26.1076 30.3676 26.6144V26.6149L30.3671 26.6172L30.3643 29.2413C30.3643 29.2758 30.3792 29.3103 30.405 29.3349C30.4312 29.3599 30.4673 29.3741 30.5038 29.3741H30.9664C31.0024 29.3741 31.0385 29.3599 31.0647 29.3349C31.0909 29.3103 31.1054 29.2758 31.1054 29.2413L31.1064 26.7056C31.1096 26.3341 31.2038 26.0708 31.3733 25.8968C31.5381 25.728 31.789 25.633 32.135 25.6264C32.4773 25.633 32.7278 25.728 32.8926 25.8968C33.0625 26.0708 33.1562 26.3341 33.1595 26.7061L33.1585 29.2413C33.1585 29.2758 33.1735 29.3103 33.1992 29.3349C33.2255 29.3599 33.2615 29.3741 33.298 29.3741H33.7616C33.7981 29.3741 33.8337 29.3599 33.8599 29.3349C33.8861 29.3103 33.9006 29.2758 33.9006 29.2413L33.8983 26.6219Z" fill="#666666"/>
<path d="M25.3866 25.4126C25.3843 25.4093 25.382 25.4065 25.3787 25.4032C25.1151 25.1583 24.6937 25.0061 24.2058 25.0056C24.1993 25.0047 24.1889 25.0047 24.1791 25.0047C23.7779 25.0047 23.3823 25.0893 23.0376 25.3866V25.1261H23.0381V23.8035C23.0381 23.7685 23.0236 23.7345 22.9978 23.7099C22.9716 23.6853 22.9356 23.6707 22.899 23.6707H22.443C22.407 23.6707 22.3709 23.6853 22.3442 23.7099C22.318 23.7345 22.304 23.7685 22.304 23.8035V25.1261V27.9332V29.2483C22.304 29.2828 22.319 29.3173 22.3442 29.3414C22.3705 29.3664 22.407 29.3806 22.4435 29.3806H22.899C22.9356 29.3806 22.9716 29.3664 22.9978 29.3414C23.0241 29.3173 23.0381 29.2828 23.0381 29.2483V28.976C23.3424 29.3196 23.7793 29.4378 24.1791 29.4373H24.2077C24.6946 29.4364 25.116 29.2842 25.3787 29.0393C25.8698 28.5699 25.9817 27.8504 25.9836 27.1815C25.9822 26.5164 25.8698 25.8801 25.3866 25.4126ZM25.2499 27.1815V27.191V27.1915V27.2014C25.249 27.6193 25.205 28.0277 25.0477 28.3198C24.8927 28.6006 24.6441 28.7883 24.1609 28.7963C24.1576 28.7959 24.1524 28.7959 24.1426 28.7963H24.1347C23.6487 28.7911 23.3963 28.603 23.2408 28.3194C23.0821 28.0263 23.0376 27.6145 23.0376 27.1938V27.1688C23.0376 26.7504 23.0821 26.4157 23.2408 26.1231C23.3963 25.8395 23.6487 25.6513 24.1347 25.6466H24.1379H24.1463H24.1534C24.6398 25.6513 24.8913 25.8395 25.0481 26.1241C25.2059 26.4157 25.2499 26.7504 25.2499 27.1688V27.1815Z" fill="#666666"/>
<path d="M13.7201 26.4275V26.4246C13.7201 25.9793 13.574 25.5978 13.2669 25.343C12.9565 25.0864 12.5126 24.9658 11.9404 24.9654H11.9198H11.9119C11.3117 24.9635 10.8345 25.0958 10.4712 25.4858L10.4703 25.4849L10.4492 25.5095C10.4221 25.5402 10.3954 25.5718 10.3696 25.6049C10.3696 25.6049 10.3687 25.6059 10.3687 25.6064L10.3312 25.6508C10.3092 25.6773 10.298 25.7127 10.3027 25.7491C10.3069 25.7855 10.3252 25.82 10.3523 25.8441L10.3734 25.8621C10.3813 25.872 10.3902 25.881 10.4001 25.8895L10.4815 25.9566L10.6978 26.1453C10.725 26.1698 10.7615 26.1831 10.7971 26.1812C10.8322 26.1798 10.8655 26.1637 10.887 26.1367L11.026 25.9704C11.1122 25.8758 11.2012 25.8087 11.3088 25.7609C11.4601 25.6938 11.6548 25.6626 11.9358 25.6598H11.939L11.9484 25.6593C12.3483 25.6607 12.5969 25.742 12.7392 25.8687C12.8811 25.9926 12.9532 26.1802 12.9546 26.4719C12.9546 26.4738 12.9546 26.479 12.9551 26.4856V26.7603H11.7682C11.2897 26.7617 10.8889 26.8709 10.6 27.0987C10.313 27.3209 10.1528 27.6636 10.1528 28.0626V28.0777C10.1538 28.41 10.2774 28.7362 10.5021 28.9631C10.8064 29.2652 11.2105 29.3753 11.822 29.3753H11.829H12.1385C12.6985 29.3753 13.1002 29.2359 13.3587 28.9541C13.6166 28.6729 13.7201 28.2654 13.7201 27.7586V26.435V26.4275ZM12.9551 27.7799C12.9536 28.1311 12.8778 28.325 12.7753 28.4157C12.529 28.645 12.2237 28.6795 11.852 28.6805H11.8477H11.8412C11.483 28.6809 11.248 28.618 11.1141 28.5207C10.9877 28.428 10.9226 28.2961 10.9188 28.0683V28.0579C10.9216 27.8324 10.9891 27.6915 11.1173 27.5922C11.2517 27.4892 11.4774 27.4221 11.815 27.4221H11.8182H12.9551V27.7799Z" fill="#666666"/>
<path d="M29.8534 26.4336V26.4303C29.8539 25.9859 29.7073 25.6049 29.3997 25.3501C29.0907 25.0935 28.6464 24.9729 28.0742 24.9724H28.0536H28.0456C27.4449 24.971 26.9683 25.1029 26.605 25.4929L26.604 25.4915L26.583 25.5165C26.5554 25.5468 26.5287 25.5785 26.5029 25.612C26.5029 25.612 26.5024 25.6125 26.5024 25.613L26.465 25.6574C26.4425 25.6839 26.4317 25.7198 26.4364 25.7557C26.4402 25.7916 26.4584 25.8266 26.4861 25.8507L26.5071 25.8692C26.5151 25.8786 26.524 25.8876 26.5338 25.8961L26.6148 25.9637L26.8311 26.1523C26.8588 26.1765 26.8953 26.1892 26.9304 26.1878C26.9655 26.1864 26.9987 26.1698 27.0207 26.1434L27.1598 25.9769C27.246 25.8824 27.3349 25.8153 27.4421 25.7675C27.5938 25.7004 27.7886 25.6692 28.069 25.6669L28.0723 25.6664H28.0822C28.482 25.6669 28.7302 25.7491 28.8725 25.8753C29.0148 25.9992 29.0869 26.1868 29.0879 26.478C29.0879 26.4799 29.0879 26.4856 29.0888 26.4917V26.7669H27.9019C27.4234 26.7678 27.0226 26.877 26.7337 27.1044C26.4467 27.3266 26.2866 27.6693 26.2861 28.0683L26.2866 28.0834C26.2875 28.4157 26.4111 28.7414 26.6359 28.9679C26.9397 29.2699 27.3443 29.3796 27.9557 29.3796H27.9623H28.2723C28.8318 29.3801 29.234 29.2406 29.4924 28.9589C29.7504 28.6776 29.8539 28.2706 29.8539 27.7648V26.4412L29.8534 26.4336ZM27.0526 28.0735V28.0631C27.0549 27.8376 27.1228 27.6972 27.2511 27.5979C27.385 27.4944 27.6107 27.4277 27.9487 27.4277H27.9515H29.0888V27.7856C29.0874 28.1363 29.0115 28.3297 28.909 28.4204C28.6623 28.6502 28.3575 28.6842 27.9852 28.6852H27.9815H27.9745C27.6163 28.6856 27.3813 28.6232 27.2478 28.5254C27.121 28.4332 27.0559 28.3008 27.0526 28.0735Z" fill="#666666"/>
<path d="M6.591 24.9809H5.80907V24.1811H5.80863V23.7939C5.80863 23.7245 5.74821 23.6677 5.67376 23.6677H5.2037C5.16812 23.6677 5.13346 23.6814 5.10865 23.7046C5.08337 23.7282 5.06885 23.7608 5.06885 23.7939V24.5073H5.06934V28.2569C5.06934 28.5613 5.15641 28.836 5.34745 29.0435C5.52911 29.2444 5.82408 29.3701 6.16493 29.3701H6.16632H6.39294V29.3668H6.591C6.62519 29.3668 6.65888 29.3522 6.68276 29.3252C6.70757 29.2992 6.72114 29.2628 6.72114 29.2255V28.7617C6.72114 28.7249 6.70757 28.688 6.68276 28.6615C6.65888 28.6346 6.62519 28.6199 6.591 28.6199H6.22767C6.15415 28.6171 6.09468 28.6086 6.04367 28.5901C6.01088 28.5783 5.99029 28.5656 5.97154 28.5537C5.95097 28.5391 5.93925 28.532 5.9191 28.5103C5.84934 28.4365 5.81048 28.3193 5.80907 28.1453V25.7283H6.591C6.62519 25.7283 6.65888 25.7127 6.68276 25.6867C6.70757 25.6602 6.72114 25.6234 6.72114 25.586V25.1228C6.72114 25.0859 6.70757 25.049 6.68276 25.0225C6.65888 24.9956 6.62519 24.9809 6.591 24.9809Z" fill="#666666"/>
<path d="M9.96126 25.5283L9.9177 25.4796C9.91582 25.474 9.91256 25.4688 9.90787 25.4631L9.88164 25.4361L9.84513 25.3983L9.81563 25.3652L9.81469 25.3662C9.54876 25.0835 9.21774 24.9648 8.86518 24.9644C8.85815 24.9644 8.84927 24.9644 8.83755 24.9648C8.58753 24.9648 8.29211 25.0783 8.11463 25.2934L7.99291 25.4399V25.3789V25.1128C7.99291 25.0778 7.97793 25.0438 7.95169 25.0192C7.92595 24.9946 7.88991 24.98 7.85338 24.98H7.39735C7.36084 24.98 7.32477 24.9946 7.29902 25.0192C7.27282 25.0438 7.2583 25.0778 7.2583 25.1128V25.3789V29.2429C7.2583 29.2779 7.27282 29.312 7.29902 29.3365C7.32477 29.3611 7.36084 29.3758 7.39735 29.3758H7.476C7.47883 29.3758 7.48114 29.3762 7.48348 29.3762H7.77097C7.77331 29.3762 7.77612 29.3758 7.77846 29.3758H7.85338C7.88991 29.3758 7.92549 29.3611 7.95169 29.3365C7.97839 29.312 7.99291 29.2779 7.99291 29.2429V29.1716V29.1687V26.7186V26.7092V26.5106C8.00648 26.2828 8.07812 26.0781 8.19518 25.9287C8.32159 25.7699 8.50561 25.6664 8.75422 25.6659C8.88577 25.6659 8.97238 25.6815 9.04731 25.7132C9.1194 25.7448 9.1929 25.7997 9.28985 25.9003L9.3114 25.9226L9.41064 26.0341C9.43404 26.0606 9.46777 26.0762 9.5038 26.0767C9.53986 26.0771 9.57638 26.063 9.60354 26.0379L9.94486 25.724C9.97249 25.6985 9.98981 25.6635 9.99261 25.6266C9.99635 25.5902 9.98466 25.5548 9.96126 25.5283Z" fill="#666666"/>
<path d="M21.4428 27.1163C21.4414 27.1149 21.439 27.114 21.4372 27.1125C21.1712 26.9249 20.8337 26.8596 20.4708 26.8284L19.791 26.7708C19.5077 26.7467 19.3326 26.6871 19.2305 26.6063C19.1439 26.5396 19.0905 26.4323 19.0891 26.2678V26.264V26.255C19.0905 26.0603 19.1659 25.9184 19.2989 25.822C19.4412 25.7185 19.6692 25.6523 19.9918 25.6523H19.9946C20.4057 25.6528 20.7466 25.7497 21.0308 25.9341L21.2026 26.057C21.2302 26.0764 21.2658 26.0834 21.2995 26.0754C21.3337 26.0683 21.3646 26.0466 21.3852 26.0168L21.6394 25.6429C21.6596 25.6126 21.6685 25.5753 21.6638 25.5398C21.661 25.5204 21.654 25.5025 21.6432 25.4864C21.6338 25.4684 21.6202 25.4519 21.6024 25.4396L21.5734 25.4183C21.1684 25.1267 20.6028 24.9626 19.9927 24.9617C19.5049 24.9617 19.0887 25.0803 18.7862 25.3072C18.4865 25.5304 18.3105 25.8679 18.31 26.2517L18.3105 26.2569V26.2598L18.31 26.2697C18.31 26.6091 18.435 26.9093 18.6837 27.114C18.9351 27.3215 19.2886 27.4321 19.7343 27.4685L20.4334 27.5257C20.6899 27.5493 20.8496 27.6065 20.9442 27.6864C21.0261 27.7536 21.079 27.8604 21.0795 28.031V28.0405V28.0419C21.0776 28.2565 20.9919 28.405 20.8318 28.5075C20.6599 28.6177 20.3809 28.6848 19.9927 28.6848H19.9904C19.9904 28.6848 19.9867 28.6848 19.9829 28.6853H19.9797C19.4679 28.6829 19.1041 28.5666 18.8204 28.3307L18.6729 28.2045C18.6467 28.1818 18.6115 28.171 18.576 28.1762C18.5408 28.1804 18.5071 28.1998 18.4837 28.2282L18.1911 28.5855C18.1672 28.6139 18.155 28.6517 18.1569 28.6881C18.1583 28.724 18.1752 28.7576 18.2014 28.7803L18.3405 28.8989C18.3433 28.9013 18.3456 28.9037 18.3479 28.9056L18.3662 28.9207L18.3676 28.9193C18.7974 29.2336 19.334 29.384 19.9904 29.384H20.0021C20.5434 29.3835 21.0003 29.2648 21.3337 29.0327C21.6633 28.803 21.86 28.4499 21.8595 28.0419V28.0216C21.86 27.6103 21.7022 27.2997 21.4428 27.1163Z" fill="#666666"/>
<path d="M38.2226 29.1908L37.6523 28.3782L36.5094 26.6939L37.3976 25.7419L37.9145 25.1902L37.9459 25.1547C38.0058 25.0938 37.9763 25.0309 37.9506 25.0068C37.9244 24.9822 37.8883 24.9675 37.8518 24.9675H37.2581C37.223 24.9675 37.1771 24.995 37.1509 25.0181C37.1504 25.0181 37.1518 25.0181 37.1509 25.0181L35.1577 27.1648V25.3708V23.7881C35.1577 23.7531 35.1428 23.7186 35.117 23.6945C35.0912 23.6695 35.0547 23.6553 35.0182 23.6553H34.5626C34.5256 23.6553 34.4901 23.6695 34.4643 23.6945C34.4376 23.7186 34.4231 23.7531 34.4231 23.7881V25.3708V29.2423C34.4231 29.2773 34.4381 29.3118 34.4638 29.3364C34.4896 29.361 34.5256 29.3757 34.5626 29.3757H35.0182C35.0547 29.3757 35.0908 29.361 35.117 29.3364C35.1432 29.3118 35.1577 29.2773 35.1577 29.2423V28.1414L36.0211 27.1964L36.6026 28.0747H36.5998L37.4168 29.3076C37.436 29.3345 37.4664 29.378 37.5348 29.378H38.1285C38.165 29.378 38.2011 29.3638 38.2268 29.3388C38.2526 29.3147 38.2699 29.2513 38.2226 29.1908Z" fill="#666666"/>
<path d="M33.1189 23.697H33.1994L33.3193 24.0525L33.4391 23.697H33.5183V24.1177H33.4649V23.8686C33.4649 23.8601 33.4649 23.8469 33.4649 23.8261C33.4649 23.8062 33.4663 23.7859 33.4663 23.7627L33.3469 24.1177H33.2907L33.1713 23.7627V23.7755V23.8218C33.1723 23.8445 33.1723 23.8596 33.1723 23.8686V24.1177H33.1189V23.697Z" fill="#666666"/>
<path d="M33.7595 23.697H33.9501C33.9815 23.697 34.0077 23.7018 34.0269 23.7112C34.0657 23.7282 34.0845 23.7613 34.0845 23.81C34.0845 23.835 34.0802 23.8559 34.0695 23.8719C34.0582 23.8875 34.0442 23.9017 34.025 23.9112C34.0414 23.9183 34.055 23.9263 34.0629 23.9372C34.0704 23.948 34.0751 23.9665 34.0751 23.9906L34.0784 24.0463C34.0784 24.0629 34.0802 24.0747 34.0821 24.0828C34.0858 24.0955 34.0919 24.104 34.1004 24.1073V24.1177H34.0316C34.0297 24.1135 34.0287 24.1092 34.0269 24.104C34.025 24.0979 34.025 24.087 34.0245 24.0705L34.0208 24C34.0184 23.9721 34.01 23.9537 33.9913 23.9447C33.9815 23.9395 33.9632 23.9372 33.9412 23.9372H33.8157V24.1177H33.7595V23.697ZM33.9435 23.8894C33.9693 23.8894 33.9894 23.8847 34.0053 23.8733C34.0189 23.8639 34.0273 23.8445 34.0273 23.8152C34.0273 23.7859 34.0175 23.7651 33.9955 23.7542C33.9843 23.7485 33.9693 23.7457 33.951 23.7457H33.8157V23.8894H33.9435Z" fill="#666666"/>
<path d="M33.6412 24.1156C33.6248 24.1156 33.614 24.1033 33.614 24.0849C33.614 24.0665 33.6257 24.0537 33.643 24.0537C33.6594 24.0537 33.6707 24.0665 33.6707 24.0849C33.6707 24.1033 33.6594 24.1156 33.6412 24.1156Z" fill="#666666"/>
<path d="M34.2117 24.1156C34.1953 24.1156 34.1826 24.1033 34.1826 24.0849C34.1826 24.0665 34.1953 24.0537 34.2121 24.0537C34.2299 24.0537 34.2411 24.0665 34.2411 24.0849C34.2411 24.1033 34.2299 24.1156 34.2121 24.1156H34.2117Z" fill="#666666"/>
<path d="M47.928 6.21905C47.9196 6.20913 47.9117 6.1992 47.9009 6.18927C47.0455 5.39228 45.6774 4.89876 44.0916 4.89733C44.07 4.89449 44.0373 4.89449 44.0064 4.89449C42.7029 4.89403 41.4163 5.16866 40.2991 6.1349L40.2972 6.13586V5.28779H40.2996V0.99361C40.2996 0.880173 40.2518 0.768607 40.1676 0.689668C40.0837 0.609306 39.9667 0.5625 39.8473 0.5625H38.3664C38.2488 0.5625 38.1322 0.609306 38.0466 0.689668C37.9618 0.768607 37.9146 0.880173 37.9146 0.99361V5.28779H37.9159V14.4051H37.9146V18.6766C37.9146 18.7896 37.9632 18.9012 38.0466 18.9796C38.1318 19.0605 38.2488 19.1068 38.3682 19.1068H39.8473C39.9667 19.1068 40.0833 19.0605 40.1676 18.9796C40.2537 18.9012 40.3005 18.7896 40.3005 18.6766V17.7931C41.2884 18.9082 42.7057 19.2926 44.0064 19.2921H44.0977C45.6797 19.2869 47.0478 18.7939 47.9009 17.9978C49.4956 16.4733 49.8599 14.1366 49.8655 11.9645C49.8613 9.80416 49.4956 7.73743 47.928 6.21905ZM47.4833 11.964V11.9938V11.9976V12.0292C47.4795 13.3859 47.3367 14.7124 46.8254 15.6611C46.323 16.5744 45.5149 17.1842 43.9455 17.2084C43.9352 17.2074 43.9188 17.2074 43.887 17.2084H43.8607C42.281 17.1927 41.4626 16.5815 40.9574 15.6597C40.4419 14.7072 40.2972 13.3699 40.2972 12.0042V11.9219C40.2991 10.5652 40.4419 9.47656 40.9574 8.52781C41.4626 7.60601 42.281 6.99432 43.8607 6.98013H43.8715H43.8973H43.9216C45.5023 6.99432 46.3179 7.60507 46.8278 8.5297C47.339 9.47656 47.4833 10.5652 47.4833 11.9219V11.964Z" fill="#666666"/>
<path d="M61.5655 17.9573C63.1335 16.4389 63.4987 14.3722 63.5029 12.2114C63.4978 10.0397 63.1335 7.70308 61.5384 6.17856C60.6853 5.3825 59.3172 4.88899 57.7356 4.88379H57.6443C56.3436 4.88331 54.9259 5.26763 53.9384 6.38326V5.49975C53.9384 5.38676 53.8911 5.27521 53.8055 5.19672C53.7207 5.11541 53.6041 5.06956 53.4852 5.06956H52.0057C51.8863 5.06956 51.7692 5.11541 51.6845 5.19672C51.6007 5.27521 51.552 5.38676 51.552 5.49975V9.77123H51.5534V18.8881H51.552V23.1827C51.552 23.2962 51.5993 23.4073 51.6845 23.4867C51.7697 23.567 51.8863 23.6134 52.0038 23.6134H53.4847C53.6041 23.6134 53.7212 23.567 53.8055 23.4867C53.8893 23.4073 53.9375 23.2962 53.9375 23.1827V18.8881H53.9347V18.0405L53.9365 18.0414C55.0537 19.0072 56.3403 19.2823 57.6443 19.2819C57.6752 19.2819 57.708 19.2819 57.729 19.2785C59.3148 19.2771 60.6829 18.7841 61.5384 17.9871C61.5491 17.9771 61.5576 17.9672 61.5655 17.9573ZM61.1207 12.2544C61.1207 13.6111 60.977 14.6998 60.4652 15.6462C59.9558 16.5713 59.1402 17.182 57.5591 17.1967H57.5352H57.5094H57.4987C55.9189 17.182 55.1001 16.5703 54.5948 15.6485C54.0794 14.6998 53.9365 13.6111 53.9347 12.2544V12.1722C53.9347 10.8065 54.0794 9.46916 54.5948 8.51615C55.1001 7.59482 55.9189 6.9836 57.4987 6.96753H57.5244C57.5562 6.96894 57.5731 6.96894 57.5834 6.96753C59.1524 6.99211 59.9605 7.60145 60.4629 8.51475C60.9746 9.46396 61.117 10.7899 61.1207 12.1471V12.1788V12.1821V12.2123V12.2544Z" fill="#666666"/>
<path d="M82.8064 20.4107C82.6762 20.7666 82.4431 21.3415 82.2872 21.6865C82.2872 21.6865 82.0053 22.3124 81.6064 22.7161C81.2412 23.0844 80.8245 23.3387 80.3549 23.4796C79.8862 23.6195 79.5776 23.6412 79.5776 23.6412C79.2026 23.6677 78.6548 23.6899 78.3613 23.6899C78.0677 23.6899 77.827 23.3789 77.827 22.9998V21.9853C77.827 21.6057 77.9797 21.2951 78.166 21.2951C78.3528 21.2951 78.8107 21.263 79.1848 21.2242C79.1848 21.2242 79.4695 21.194 79.7298 20.9921C79.9906 20.7898 80.1222 20.4995 80.1222 20.4995C80.279 20.1544 80.5098 19.5792 80.6353 19.2213L80.9088 18.4408C81.0342 18.083 81.031 17.4987 80.9022 17.1423L76.7586 5.70865C76.6298 5.35269 76.8316 5.06055 77.2081 5.06055H78.6558C79.0313 5.06055 79.4381 5.35504 79.5585 5.71432L82.2722 13.8007C82.3934 14.1604 82.5887 14.1594 82.7067 13.7992L85.3525 5.71621C85.471 5.35552 85.875 5.06055 86.2515 5.06055H87.7244C88.1009 5.06055 88.3017 5.35223 88.1716 5.70817L82.8064 20.4107Z" fill="#666666"/>
<path d="M76.0232 9.71772V9.70778C76.0237 8.28065 75.5527 7.05678 74.5657 6.23898C73.5731 5.4155 72.1464 5.02881 70.3111 5.02787H70.2446H70.2198C68.2908 5.02315 66.7607 5.44622 65.5953 6.69705L65.5902 6.69326L65.5237 6.7741C65.4361 6.87147 65.35 6.97312 65.2661 7.08042C65.2657 7.08135 65.2652 7.08279 65.2648 7.08372L65.1454 7.22649C65.0737 7.31204 65.0386 7.42692 65.0536 7.54226C65.0658 7.65807 65.1243 7.76918 65.2132 7.84669L65.2802 7.90579C65.306 7.937 65.335 7.96582 65.3664 7.99183L65.6272 8.20831L66.321 8.8134C66.4091 8.89141 66.5266 8.93395 66.6399 8.92779C66.7527 8.92354 66.8581 8.87155 66.9297 8.78552L67.3745 8.25229V8.25181C67.6526 7.94833 67.9378 7.7323 68.2819 7.58008C68.7683 7.36451 69.3929 7.26383 70.2947 7.2558L70.3054 7.25484L70.3359 7.2539C71.6188 7.25721 72.4171 7.52052 72.874 7.92517C73.3296 8.3232 73.5609 8.92543 73.5642 9.86048C73.5642 9.86615 73.5642 9.88316 73.5665 9.90444V10.7865H69.7572C68.2201 10.7903 66.9353 11.1406 66.0078 11.8705C65.0868 12.5848 64.5728 13.6838 64.5723 14.9644L64.5728 15.0122C64.5751 16.0791 64.9721 17.1247 65.6941 17.8518C66.6689 18.8213 67.9677 19.1735 69.9299 19.1735H69.952H70.946C72.7434 19.1754 74.0324 18.7268 74.863 17.8234C75.6912 16.921 76.0237 15.6139 76.0237 13.9897V9.74231L76.0232 9.71772ZM67.0318 14.981V14.9484C67.0393 14.2246 67.2574 13.7722 67.6685 13.4541C68.0988 13.1232 68.8236 12.909 69.9084 12.909H69.9178H73.5665V14.0568C73.5628 15.1828 73.3183 15.8049 72.9906 16.0952C72.1994 16.8317 71.2194 16.9423 70.0255 16.9451H70.0124H69.9908C68.8409 16.9465 68.0862 16.7456 67.6582 16.4317C67.2514 16.1353 67.0421 15.7118 67.0318 14.981Z" fill="#666666"/>
<path d="M22.6218 5.08765C22.2285 5.08765 21.8202 5.40012 21.7125 5.78161L19.1247 14.9963C19.0175 15.3783 18.8293 15.382 18.7066 15.0048L15.697 5.77261C15.5743 5.39634 15.1525 5.08765 14.7596 5.08765H14.2198C13.827 5.08765 13.406 5.39634 13.2843 5.77309L10.2981 15.0048C10.1759 15.3816 9.9877 15.3787 9.87998 14.9968L7.26882 5.78161C7.16065 5.40012 6.75098 5.08765 6.35769 5.08765H5.25833C4.86552 5.08765 4.64124 5.39729 4.75969 5.77546L8.75303 18.4911C8.87196 18.8688 9.29005 19.1789 9.68335 19.1789H10.4386C10.7892 19.1789 11.1671 18.9043 11.2785 18.5682L14.2638 9.57424C14.3888 9.19794 14.5934 9.19794 14.7194 9.57328L17.7033 18.4954C17.8292 18.8707 18.2534 19.1789 18.6462 19.1789H19.3771C19.7409 19.1789 20.1276 18.892 20.2376 18.5417L24.2211 5.77594C24.3387 5.39729 24.1144 5.08765 23.7216 5.08765H22.6218V5.08765Z" fill="#666666"/>
<path d="M27.192 10.8758C27.2407 9.99892 27.3034 9.60654 27.5694 8.94805C28.0572 7.78091 29.1758 7.05624 30.4872 7.05624C31.7987 7.05624 32.9163 7.78043 33.4041 8.9457C33.6705 9.60654 33.7333 9.99892 33.7825 10.8758H27.192ZM36.2228 11.6884C36.2228 7.50626 34.025 4.9082 30.4872 4.9082C26.8961 4.9082 24.7517 7.58663 24.7517 12.0737C24.7517 16.694 26.9143 19.2391 30.8412 19.2391C33.2801 19.2391 34.5887 18.4133 35.909 17.0807L36.0851 16.9034L34.3995 15.4096L34.245 15.5647C33.1691 16.6515 32.2922 17.0363 30.896 17.0363C28.5704 17.0363 27.2533 15.5439 27.1822 12.831H36.2228V11.6884Z" fill="#666666"/>
<path d="M1.77806 8.00604C2.56229 8.00604 3.1986 7.35984 3.1986 6.56332C3.1986 5.76631 2.56229 5.11963 1.77806 5.11963C0.996129 5.11963 0.359375 5.76631 0.359375 6.56332C0.359375 7.35984 0.996129 8.00604 1.77806 8.00604Z" fill="#666666"/>
<path d="M88.0996 19.1703C88.8839 19.1703 89.5202 18.5241 89.5202 17.7281C89.5202 16.9306 88.8839 16.2834 88.0996 16.2834C87.3168 16.2834 86.6819 16.9306 86.6819 17.7281C86.6819 18.5241 87.3168 19.1703 88.0996 19.1703Z" fill="#666666"/>
</svg>
