<svg width="124" height="29" viewBox="0 0 124 29" fill="none" xmlns="http://www.w3.org/2000/svg">
<path d="M4.76618 25.1412C5.02043 25.1412 5.22719 24.9369 5.22719 24.685C5.22719 24.4335 5.02043 24.2288 4.76618 24.2288C4.51242 24.2288 4.30566 24.4335 4.30566 24.685C4.30566 24.9369 4.51242 25.1412 4.76618 25.1412Z" fill="#666666"/>
<path d="M40.4273 28.7169C40.682 28.7169 40.8883 28.5126 40.8883 28.2607C40.8883 28.0087 40.682 27.804 40.4273 27.804C40.1736 27.804 39.9673 28.0087 39.9673 28.2607C39.9673 28.5126 40.1736 28.7169 40.4273 28.7169Z" fill="#666666"/>
<path d="M18.6127 25.9524V25.951C18.6118 25.442 18.4319 25.0131 18.1062 24.7234L18.0832 24.7036L18.0779 24.6989H18.0769C17.7704 24.4394 17.355 24.3031 16.8633 24.2988C16.8614 24.2983 16.857 24.2979 16.8522 24.2979C16.8474 24.2979 16.8431 24.2983 16.8388 24.2988H16.835C16.8201 24.2988 16.81 24.2993 16.8028 24.2993C16.7971 24.2993 16.7879 24.2988 16.7769 24.2988H16.7697C16.7659 24.2988 16.7611 24.2979 16.7553 24.2979H16.7534H16.751C16.7481 24.2979 16.7448 24.2979 16.7414 24.2988C16.2502 24.304 15.8367 24.4399 15.5311 24.6989H15.5297L15.5019 24.7234C15.1771 25.0117 14.9972 25.4391 14.9948 25.9449V25.9454L14.9943 25.9477L14.9919 28.5666C14.9919 28.6011 15.0068 28.6355 15.0337 28.6601C15.0601 28.6851 15.0975 28.6992 15.1349 28.6992H15.6088C15.6458 28.6992 15.6827 28.6851 15.7096 28.6601C15.7364 28.6355 15.7513 28.6011 15.7513 28.5666L15.7523 26.0359C15.7551 25.6651 15.8516 25.4023 16.0257 25.2287C16.1946 25.0603 16.4517 24.9655 16.8057 24.9588C17.1564 24.9655 17.4135 25.0603 17.5823 25.2287C17.756 25.4023 17.8524 25.6651 17.8553 26.0364L17.8548 28.5666C17.8548 28.6011 17.8702 28.6355 17.8966 28.6601C17.9234 28.6851 17.9603 28.6992 17.9978 28.6992H18.4722C18.5096 28.6992 18.5465 28.6851 18.5729 28.6601C18.6003 28.6355 18.6151 28.6011 18.6151 28.5666L18.6127 25.9524Z" fill="#666666"/>
<path d="M35.1374 25.9524V25.951C35.1364 25.442 34.9565 25.0131 34.6304 24.7234L34.6078 24.7036L34.6025 24.6989H34.6016C34.295 24.4394 33.8796 24.3031 33.3875 24.2988C33.386 24.2983 33.3817 24.2979 33.3769 24.2979C33.3721 24.2979 33.3678 24.2983 33.3635 24.2988H33.3596C33.3447 24.2988 33.3347 24.2993 33.3275 24.2993C33.3217 24.2993 33.3126 24.2988 33.3016 24.2988H33.2944C33.2905 24.2988 33.2857 24.2979 33.28 24.2979H33.2781H33.2757C33.2728 24.2979 33.2694 24.2979 33.2661 24.2988C32.7749 24.304 32.3614 24.4399 32.0558 24.6989H32.0544L32.0265 24.7234C31.7018 25.0117 31.5219 25.4391 31.5195 25.9449V25.9454V25.9477L31.5166 28.5666C31.5166 28.6011 31.5315 28.6355 31.5583 28.6601C31.5852 28.6851 31.6217 28.6992 31.6596 28.6992H32.1335C32.1704 28.6992 32.2074 28.6851 32.2342 28.6601C32.2611 28.6355 32.276 28.6011 32.276 28.5666L32.2769 26.0359C32.2798 25.6651 32.3762 25.4023 32.5504 25.2287C32.7187 25.0603 32.9763 24.9655 33.3303 24.9588C33.681 24.9655 33.9382 25.0603 34.107 25.2287C34.2807 25.4023 34.3771 25.6651 34.3799 26.0364L34.3795 28.5666C34.3795 28.6011 34.3948 28.6355 34.4212 28.6601C34.4481 28.6851 34.485 28.6992 34.5224 28.6992H34.9968C35.0343 28.6992 35.0712 28.6851 35.0976 28.6601C35.1249 28.6355 35.1398 28.6011 35.1398 28.5666L35.1374 25.9524Z" fill="#666666"/>
<path d="M26.4169 24.7454C26.4145 24.7421 26.4116 24.7393 26.4083 24.7359C26.1387 24.4916 25.707 24.3396 25.2071 24.3392C25.1999 24.3382 25.1898 24.3382 25.1798 24.3382C24.7687 24.3382 24.3628 24.4227 24.0102 24.7194V24.4595H24.0107V23.1394C24.0107 23.1045 23.9959 23.0705 23.969 23.046C23.9426 23.0214 23.9057 23.0068 23.8678 23.0068H23.401C23.3636 23.0068 23.3271 23.0214 23.2998 23.046C23.2729 23.0705 23.2585 23.1045 23.2585 23.1394V24.4595V27.261V28.5735C23.2585 28.608 23.2734 28.6424 23.2998 28.6664C23.3267 28.6915 23.3636 28.7056 23.401 28.7056H23.8683C23.9057 28.7056 23.9421 28.6915 23.969 28.6664C23.9963 28.6424 24.0107 28.608 24.0107 28.5735V28.3018C24.3225 28.6448 24.7696 28.7627 25.1798 28.7622H25.209C25.7074 28.7613 26.1392 28.6094 26.4083 28.365C26.9115 27.8965 27.0266 27.1784 27.0281 26.5108C27.0266 25.847 26.9115 25.212 26.4169 24.7454ZM26.2769 26.5108V26.5203V26.5207V26.5307C26.2754 26.9477 26.2303 27.3553 26.0691 27.6469C25.9108 27.9272 25.6561 28.1145 25.1606 28.1225C25.1577 28.122 25.1524 28.122 25.1424 28.1225H25.1342C24.6358 28.1173 24.3777 27.9295 24.218 27.6464C24.0558 27.3539 24.0102 26.943 24.0102 26.5231V26.4981C24.0102 26.0806 24.0558 25.7465 24.218 25.4545C24.3777 25.1714 24.6358 24.9836 25.1342 24.9789H25.1376H25.1457H25.1534C25.6518 24.9836 25.9094 25.1714 26.0696 25.4554C26.2313 25.7465 26.2769 26.0806 26.2769 26.4981V26.5108Z" fill="#666666"/>
<path d="M14.4639 25.7583V25.7555C14.4639 25.3111 14.3138 24.9303 13.9991 24.676C13.6815 24.4199 13.2268 24.2996 12.6401 24.2991H12.6195H12.6113C11.9959 24.2972 11.5075 24.4293 11.1353 24.8185L11.1338 24.8176L11.1122 24.8421C11.0844 24.8728 11.0571 24.9044 11.0307 24.9374C11.0307 24.9374 11.0302 24.9384 11.0297 24.9388L10.9918 24.9832C10.9688 25.0096 10.9578 25.045 10.9626 25.0813C10.9669 25.1177 10.9851 25.1521 11.0134 25.1762L11.035 25.1941C11.0432 25.204 11.0523 25.2129 11.0624 25.2214L11.1458 25.2884L11.367 25.4767C11.3953 25.5012 11.4327 25.5144 11.4691 25.5125C11.5051 25.5111 11.5392 25.4951 11.5613 25.4682L11.7037 25.3021H11.7032C11.792 25.2078 11.8831 25.1408 11.993 25.0931C12.1484 25.0261 12.3475 24.995 12.6353 24.9921H12.6392L12.6487 24.9917C13.0579 24.9931 13.3126 25.0743 13.4589 25.2007C13.6043 25.3243 13.6782 25.5116 13.6791 25.8027C13.6791 25.8046 13.6791 25.8098 13.6796 25.8164V26.0905H12.464C11.9733 26.0919 11.5632 26.2009 11.2672 26.4283C10.9731 26.65 10.8091 26.9921 10.8091 27.3903V27.4054C10.81 27.737 10.9367 28.0626 11.1669 28.2891C11.4783 28.5905 11.8927 28.7004 12.5192 28.7004H12.5259H12.8435C13.4172 28.7004 13.8283 28.5613 14.0936 28.2801C14.3579 27.9994 14.4639 27.5927 14.4639 27.0869V25.7659V25.7583ZM13.6796 27.1081C13.6787 27.4587 13.6005 27.6521 13.4959 27.7427C13.2431 27.9715 12.9308 28.006 12.5499 28.0069H12.5456H12.5384C12.1714 28.0074 11.9306 27.9446 11.7939 27.8474C11.6639 27.755 11.5972 27.6233 11.5939 27.3959V27.3856C11.5963 27.1605 11.6658 27.0199 11.7973 26.9209C11.9345 26.818 12.1662 26.751 12.512 26.751H12.5154H13.6796V27.1081Z" fill="#666666"/>
<path d="M30.9935 25.7645V25.7612C30.994 25.3177 30.8433 24.9374 30.5287 24.6831C30.2121 24.4269 29.7563 24.3066 29.1706 24.3062H29.149H29.1413C28.5259 24.3047 28.0371 24.4364 27.6653 24.8256L27.6639 24.8242L27.6423 24.8492C27.6145 24.8794 27.5871 24.911 27.5603 24.9445C27.5603 24.9445 27.5598 24.945 27.5598 24.9454L27.5219 24.9898C27.4989 25.0162 27.4878 25.0521 27.4926 25.0879C27.4965 25.1238 27.5147 25.1587 27.5435 25.1827L27.5646 25.2011C27.5732 25.2106 27.5823 25.2195 27.5924 25.228L27.6754 25.2955L27.8965 25.4837C27.9253 25.5078 27.9627 25.5205 27.9987 25.5191C28.0347 25.5177 28.0683 25.5012 28.0913 25.4748L28.2333 25.3087C28.322 25.2144 28.4132 25.1474 28.523 25.0997C28.6784 25.0327 28.8775 25.0016 29.1653 24.9992L29.1687 24.9988H29.1788C29.588 24.9992 29.8427 25.0813 29.9885 25.2073C30.1339 25.3309 30.2078 25.5182 30.2092 25.8088C30.2092 25.8107 30.2092 25.8164 30.2097 25.8225V26.0971H28.9936C28.5034 26.098 28.0932 26.207 27.7968 26.4339C27.5032 26.6557 27.3391 26.9977 27.3386 27.3959L27.3391 27.411C27.3396 27.7427 27.4662 28.0678 27.6965 28.2938C28.0078 28.5952 28.4228 28.7047 29.0488 28.7047H29.056H29.373C29.9468 28.7052 30.3584 28.566 30.6232 28.2848C30.888 28.0041 30.994 27.5979 30.994 27.093V25.772L30.9935 25.7645ZM28.1239 27.4011V27.3907C28.1263 27.1657 28.1959 27.0256 28.3268 26.9265C28.464 26.8232 28.6957 26.7567 29.0421 26.7567H29.0449H30.2097V27.1138C30.2087 27.4639 30.1305 27.6568 30.0259 27.7474C29.7731 27.9767 29.4608 28.0107 29.0795 28.0116H29.0752H29.0685C28.7015 28.0121 28.4607 27.9498 28.3239 27.8522C28.1939 27.7602 28.1268 27.6281 28.1239 27.4011Z" fill="#666666"/>
<path d="M7.15937 24.3145H6.35875L6.35777 23.5163L6.35729 23.1299C6.35729 23.0605 6.2959 23.0039 6.21962 23.0039H5.73801C5.70201 23.0039 5.66605 23.0176 5.64062 23.0407C5.61473 23.0643 5.59985 23.0969 5.59985 23.1299V23.8418H5.60033V27.5841C5.60033 27.8879 5.68955 28.162 5.88527 28.3691C6.07188 28.5697 6.37409 28.6951 6.72331 28.6951H6.72427H6.95646V28.6919H7.15937C7.19439 28.6919 7.22892 28.6772 7.25339 28.6503C7.27881 28.6244 7.29272 28.5881 7.29272 28.5508V28.0879C7.29272 28.0511 7.27881 28.0143 7.25339 27.9879C7.22892 27.961 7.19439 27.9464 7.15937 27.9464H6.78712C6.71181 27.9436 6.65136 27.9351 6.5986 27.9167C6.56501 27.9049 6.54439 27.8921 6.52471 27.8804C6.50361 27.8657 6.4921 27.8587 6.47098 27.8369C6.39951 27.7634 6.35969 27.6463 6.35875 27.4727V25.0605H7.15937C7.19439 25.0605 7.22892 25.0449 7.25339 25.0189C7.27881 24.9925 7.29272 24.9557 7.29272 24.9185V24.4561C7.29272 24.4193 7.27881 24.3825 7.25339 24.3561C7.22892 24.3292 7.19439 24.3145 7.15937 24.3145Z" fill="#666666"/>
<path d="M10.6126 24.8612L10.5685 24.8126C10.5666 24.8069 10.5632 24.8018 10.5574 24.7961L10.531 24.7692L10.4941 24.7314L10.4634 24.6984L10.4624 24.6994C10.19 24.4172 9.85082 24.2988 9.48961 24.2983C9.4824 24.2983 9.47377 24.2983 9.46179 24.2988C9.20514 24.2988 8.90245 24.412 8.72112 24.6267L8.59543 24.773V24.7121V24.4465C8.59543 24.4116 8.58057 24.3776 8.5537 24.3531C8.52732 24.3285 8.49039 24.3139 8.45297 24.3139H7.98622C7.94832 24.3139 7.91186 24.3285 7.885 24.3531C7.85814 24.3776 7.84326 24.4116 7.84326 24.4465V24.7121V28.5685C7.84326 28.6035 7.85814 28.6374 7.885 28.6619C7.91138 28.6865 7.94832 28.7011 7.98622 28.7011H8.06632C8.06872 28.7011 8.07207 28.7016 8.07448 28.7016H8.36854C8.37094 28.7016 8.37381 28.7011 8.37621 28.7011H8.45297C8.49039 28.7011 8.52684 28.6865 8.5537 28.6619C8.58105 28.6374 8.59543 28.6035 8.59543 28.5685V28.4973C8.59543 28.4964 8.59593 28.4954 8.59593 28.4945V26.0492C8.59593 26.0459 8.59543 26.0426 8.59543 26.0397V25.8416C8.60983 25.6142 8.68322 25.4099 8.80363 25.2608C8.93218 25.1023 9.12119 24.999 9.37592 24.9985C9.51071 24.9985 9.59946 25.014 9.67573 25.0457C9.75009 25.0773 9.8254 25.132 9.9247 25.2325L9.94723 25.2547L10.0485 25.366C10.0725 25.3924 10.1075 25.408 10.1439 25.4085C10.1808 25.4089 10.2183 25.3948 10.2461 25.3698L10.5963 25.0565C10.6241 25.031 10.6418 24.9961 10.6452 24.9593C10.6486 24.923 10.6361 24.8876 10.6126 24.8612Z" fill="#666666"/>
<path d="M22.376 26.4458C22.3741 26.4444 22.3722 26.4435 22.3707 26.4421H22.3698C22.0973 26.2548 21.7519 26.1897 21.3802 26.1585L20.6836 26.101C20.3934 26.0769 20.214 26.0175 20.1094 25.9368C20.0212 25.8703 19.9665 25.7632 19.9646 25.599V25.5952H19.9641L19.9646 25.5862C19.9665 25.3919 20.0432 25.2503 20.1795 25.1541C20.3258 25.0508 20.5589 24.9847 20.8894 24.9847H20.8923H20.8928C21.3144 24.9852 21.6632 25.0819 21.9539 25.2659L21.9534 25.2664L22.1299 25.3886C22.1582 25.4079 22.1942 25.415 22.2288 25.407C22.2643 25.3999 22.2964 25.3782 22.317 25.3484L22.5775 24.9753C22.5986 24.9451 22.6072 24.9078 22.6024 24.8724C22.5996 24.8531 22.5924 24.8352 22.5813 24.8191C22.5718 24.8012 22.5578 24.7847 22.5401 24.7724L22.5099 24.7512C22.0944 24.4601 21.5154 24.2964 20.8909 24.2954C20.3905 24.2954 19.9641 24.4138 19.6547 24.6403C19.3477 24.863 19.1668 25.1998 19.1668 25.5829V25.5881V25.591V25.6009C19.1668 25.9396 19.2939 26.2392 19.5491 26.4435C19.8067 26.6506 20.1689 26.761 20.6256 26.7973L21.3418 26.8544C21.6047 26.878 21.7682 26.9351 21.8651 27.0148C21.9491 27.0818 22.0033 27.1884 22.0038 27.3588V27.3682V27.3696C22.0019 27.5838 21.9141 27.732 21.75 27.8343C21.5744 27.9443 21.2881 28.0113 20.8909 28.0113H20.888C20.8865 28.0113 20.8841 28.0113 20.8808 28.0117H20.877C20.3526 28.0094 19.9794 27.8933 19.6897 27.6579L19.5386 27.5319C19.5112 27.5093 19.4753 27.4984 19.4393 27.5036C19.4028 27.5078 19.3683 27.5272 19.3443 27.5555L19.0445 27.9122C19.02 27.9405 19.0076 27.9782 19.0095 28.0146C19.0114 28.0504 19.0282 28.0839 19.055 28.1066L19.1975 28.225L19.197 28.2254C19.1994 28.2278 19.2028 28.2297 19.2052 28.2316L19.2239 28.2467L19.2253 28.2453C19.6657 28.559 20.215 28.709 20.888 28.709H20.9C21.455 28.7086 21.9232 28.5901 22.2647 28.3585C22.602 28.1292 22.8034 27.7768 22.803 27.3696V27.3493C22.8034 26.9389 22.6418 26.6289 22.376 26.4458Z" fill="#666666"/>
<path d="M39.5679 28.5164L38.9836 27.7054L37.8131 26.0244L38.7231 25.0742L39.2527 24.5236L39.2848 24.4882C39.3457 24.4274 39.316 24.3646 39.2896 24.3406C39.2628 24.316 39.2258 24.3014 39.1884 24.3014H38.5797C38.5442 24.3014 38.4971 24.3288 38.4703 24.3519C38.4698 24.3519 38.4708 24.3519 38.4703 24.3519L36.4282 26.4943V24.7038V23.1243C36.4282 23.0894 36.4124 23.0549 36.3865 23.0309C36.3596 23.0058 36.3222 22.9917 36.2848 22.9917H35.818C35.7806 22.9917 35.7441 23.0058 35.7173 23.0309C35.6899 23.0549 35.675 23.0894 35.675 23.1243V24.7038V28.5678C35.675 28.6027 35.6904 28.6372 35.7168 28.6617C35.7437 28.6862 35.7806 28.7009 35.8185 28.7009H36.2852C36.3222 28.7009 36.3591 28.6862 36.3865 28.6617C36.4133 28.6372 36.4282 28.6027 36.4282 28.5678V27.469L37.3128 26.5259L37.9086 27.4025H37.9057L38.7428 28.6329C38.7624 28.6598 38.7931 28.7032 38.8636 28.7032H39.4714C39.5088 28.7032 39.5463 28.6891 39.5726 28.6641C39.599 28.64 39.6168 28.5768 39.5679 28.5164Z" fill="#666666"/>
<path d="M34.3391 23.0332H34.4216L34.5439 23.388L34.6667 23.0332H34.7483V23.4531H34.6936V23.2045C34.6936 23.196 34.6936 23.1828 34.6936 23.162C34.6936 23.1422 34.695 23.1219 34.695 23.0988L34.5727 23.4531H34.5151L34.3928 23.0988V23.1115V23.1578C34.3938 23.1804 34.3938 23.1955 34.3938 23.2045V23.4531H34.3391V23.0332Z" fill="#666666"/>
<path d="M34.9954 23.0332H35.1901C35.2222 23.0332 35.2491 23.0379 35.2688 23.0474C35.3086 23.0643 35.3278 23.0974 35.3278 23.146C35.3278 23.171 35.3239 23.1917 35.3129 23.2078C35.3014 23.2233 35.2865 23.2375 35.2673 23.2469C35.2841 23.254 35.298 23.262 35.3062 23.2729C35.3139 23.2837 35.3187 23.3021 35.3187 23.3262L35.322 23.3819C35.322 23.3984 35.3239 23.4102 35.3254 23.4182C35.3297 23.4309 35.3355 23.4394 35.3446 23.4427V23.4531H35.2736C35.2717 23.4489 35.2712 23.4446 35.2688 23.4394C35.2673 23.4333 35.2669 23.4224 35.2664 23.4059L35.263 23.3356C35.2606 23.3078 35.2515 23.2894 35.2323 23.2804C35.2222 23.2752 35.204 23.2729 35.1815 23.2729H35.0529V23.4531H34.9954V23.0332ZM35.1839 23.2252C35.2098 23.2252 35.2309 23.2205 35.2467 23.2092C35.2611 23.1997 35.2697 23.1804 35.2697 23.1511C35.2697 23.1219 35.2592 23.1011 35.2371 23.0903C35.2251 23.0846 35.2098 23.0818 35.1911 23.0818H35.0529V23.2252H35.1839Z" fill="#666666"/>
<path d="M34.874 23.4512C34.8577 23.4512 34.8462 23.4389 34.8462 23.4205C34.8462 23.4021 34.8577 23.3894 34.8755 23.3894C34.8927 23.3894 34.9047 23.4021 34.9047 23.4205C34.9047 23.4389 34.8927 23.4512 34.874 23.4512Z" fill="#666666"/>
<path d="M35.4587 23.4512C35.4414 23.4512 35.429 23.4389 35.429 23.4205C35.429 23.4021 35.4414 23.3894 35.4592 23.3894C35.4774 23.3894 35.4884 23.4021 35.4884 23.4205C35.4884 23.4389 35.4774 23.4512 35.4587 23.4512Z" fill="#666666"/>
<path d="M49.5114 5.71971C49.5032 5.71027 49.4951 5.69989 49.4841 5.69047C48.6071 4.89502 47.2055 4.40247 45.5807 4.40105C45.5591 4.39822 45.5255 4.39822 45.4939 4.39822C44.1579 4.39729 42.8401 4.67186 41.6951 5.6362L41.6937 5.63715V4.79075H41.696V0.504508C41.696 0.391745 41.6471 0.280415 41.5608 0.201617C41.4749 0.121416 41.355 0.074707 41.2322 0.074707H39.7154C39.5949 0.074707 39.4755 0.121416 39.3877 0.201617C39.3009 0.280415 39.2524 0.391745 39.2524 0.504508V4.79075H39.2534V13.8902H39.2524V18.1529C39.2524 18.2661 39.3023 18.3774 39.3877 18.4558C39.475 18.5364 39.5949 18.5827 39.7168 18.5827H41.2327C41.355 18.5827 41.4744 18.5364 41.5608 18.4558C41.649 18.3774 41.697 18.2661 41.697 18.1529V17.2716C42.7087 18.3845 44.1613 18.7681 45.4939 18.7676H45.5874C47.2078 18.7624 48.6095 18.2699 49.4841 17.4758C51.1179 15.9543 51.4911 13.6222 51.4964 11.4544C51.4921 9.29827 51.1179 7.23558 49.5114 5.71971ZM49.0562 11.4539V11.4836V11.4869V11.5185C49.0518 12.873 48.906 14.1969 48.3822 15.1438C47.867 16.0553 47.039 16.6639 45.4315 16.688C45.421 16.6865 45.4037 16.6865 45.3715 16.688H45.3447C43.7262 16.6724 42.8876 16.0624 42.37 15.1424C41.8414 14.1917 41.6937 12.857 41.6937 11.494V11.4119C41.6951 10.0579 41.8414 8.97084 42.37 8.02442C42.8876 7.10442 43.7262 6.49393 45.3447 6.47931H45.3557H45.3821H45.407C47.0265 6.49393 47.8622 7.103 48.3841 8.02631C48.9084 8.97084 49.0562 10.0579 49.0562 11.4119V11.4539Z" fill="#666666"/>
<path d="M63.4843 17.4354C65.0903 15.92 65.465 13.8568 65.4688 11.7007C65.4635 9.53329 65.0903 7.20075 63.4564 5.67969C62.5824 4.8852 61.1807 4.39263 59.5598 4.38745H59.4663C58.1337 4.38698 56.6816 4.77054 55.6694 5.88398V5.00221C55.6694 4.88896 55.6215 4.7781 55.5332 4.69931C55.4468 4.61863 55.3274 4.5724 55.2051 4.5724H53.6897C53.5674 4.5724 53.4474 4.61863 53.3606 4.69931C53.2747 4.7781 53.2249 4.88896 53.2249 5.00221V9.26533H53.2258V18.3643H53.2249V22.6506C53.2249 22.7633 53.2733 22.8747 53.3606 22.9535C53.4479 23.0341 53.5674 23.0804 53.6878 23.0804H55.2046C55.3274 23.0804 55.4473 23.0341 55.5332 22.9535C55.6195 22.8747 55.6685 22.7633 55.6685 22.6506V18.3643H55.6661V17.5184L55.6675 17.5193C56.8126 18.4832 58.1308 18.7573 59.4663 18.7569C59.4979 18.7569 59.5315 18.7569 59.5531 18.754C61.1779 18.7526 62.58 18.2605 63.4564 17.4651C63.4675 17.4552 63.4756 17.4453 63.4843 17.4354ZM63.0286 11.7437C63.0286 13.0977 62.8808 14.1842 62.3565 15.1288C61.8346 16.0521 60.9989 16.6616 59.3794 16.6763H59.3545H59.3281H59.3171C57.6986 16.6616 56.8601 16.0507 56.3424 15.1307C55.8138 14.1842 55.6675 13.0977 55.6661 11.7437V11.6616C55.6661 10.2985 55.8138 8.96384 56.3424 8.01271C56.8601 7.09318 57.6986 6.48316 59.3171 6.46712H59.3439C59.3766 6.46853 59.3934 6.46853 59.4039 6.46712C61.0119 6.49118 61.8398 7.0998 62.3546 8.01131C62.8784 8.95865 63.0247 10.282 63.0286 11.6365V11.6682V11.6715V11.7017V11.7437Z" fill="#666666"/>
<path d="M85.2468 19.884C85.1135 20.2393 84.8741 20.813 84.7144 21.1574C84.7144 21.1574 84.4261 21.782 84.0173 22.185C83.6432 22.5525 83.2162 22.8063 82.7346 22.9464C82.2544 23.0866 81.9388 23.1083 81.9388 23.1083C81.5541 23.1347 80.9933 23.1569 80.6925 23.1569C80.3913 23.1569 80.1447 22.8464 80.1447 22.468V21.4556C80.1447 21.0767 80.3016 20.7668 80.492 20.7668C80.6834 20.7668 81.153 20.7347 81.5358 20.696C81.5358 20.696 81.8275 20.6658 82.0942 20.4643C82.3619 20.2624 82.4967 19.9723 82.4967 19.9723C82.6574 19.6283 82.8939 19.0542 83.0224 18.6965L83.3026 17.9181C83.4312 17.5609 83.4278 16.9778 83.2959 16.6221L79.0505 5.2108C78.9181 4.85507 79.1253 4.56396 79.5105 4.56396H80.9938C81.379 4.56396 81.7954 4.85742 81.9191 5.21646L84.6995 13.287C84.8237 13.646 85.0233 13.645 85.1442 13.2855L87.8555 5.21835C87.9763 4.85837 88.3908 4.56396 88.776 4.56396H90.2852C90.6708 4.56396 90.8766 4.85458 90.7437 5.21033L85.2468 19.884Z" fill="#666666"/>
<path d="M78.2966 9.21197V9.20205C78.297 7.77772 77.8149 6.55624 76.8037 5.74004C75.7863 4.91817 74.3246 4.53226 72.4442 4.5313H72.3761H72.3506C70.3747 4.52611 68.8071 4.94884 67.6131 6.19721L67.6078 6.19344L67.5392 6.27411C67.45 6.3713 67.3617 6.47275 67.2754 6.57984C67.2754 6.58077 67.2744 6.58219 67.2739 6.58313L67.1521 6.72561C67.0787 6.81053 67.0427 6.92519 67.0576 7.04077C67.0705 7.1559 67.13 7.26724 67.2216 7.34508L67.2903 7.40359C67.3166 7.43426 67.3459 7.4635 67.3785 7.48946L67.6452 7.70552L68.3561 8.30943C68.4468 8.38726 68.5667 8.42973 68.6828 8.42359C68.7989 8.41935 68.9064 8.36699 68.9802 8.28159L69.436 7.74941V7.74846C69.7204 7.44604 70.013 7.22995 70.3656 7.07804C70.864 6.86384 71.5035 6.7629 72.4279 6.75439L72.4389 6.75392L72.4696 6.75299C73.7845 6.75628 74.6019 7.01908 75.0701 7.42292C75.5373 7.82017 75.7743 8.42123 75.7776 9.35446C75.7776 9.36057 75.7776 9.37708 75.78 9.39832V10.2787H71.8772C70.3023 10.2825 68.9855 10.6316 68.0357 11.3605C67.0921 12.0734 66.5654 13.1698 66.5649 14.4479L66.5654 14.496C66.5678 15.5609 66.9746 16.605 67.7143 17.3296C68.713 18.2978 70.0437 18.6492 72.0537 18.6492H72.0763H73.0951C74.9362 18.6511 76.2573 18.2034 77.1079 17.3018C77.9569 16.4011 78.297 15.0962 78.297 13.4756V9.23603L78.2966 9.21197ZM69.0843 14.4649V14.4324C69.092 13.71 69.316 13.2585 69.7372 12.941C70.1781 12.6108 70.9202 12.397 72.0316 12.397H72.0412H75.78V13.5426C75.7762 14.6664 75.5253 15.2872 75.19 15.5769C74.3788 16.312 73.3753 16.4224 72.152 16.4252H72.1386H72.1165C70.9384 16.4262 70.1651 16.2261 69.7267 15.9128C69.3093 15.617 69.0949 15.1938 69.0843 14.4649Z" fill="#666666"/>
<path d="M23.5844 4.59106C23.1814 4.59106 22.7626 4.90292 22.6528 5.28318L20.0015 14.4799C19.8916 14.8615 19.6988 14.8648 19.5731 14.4888L16.4891 5.27468C16.3639 4.89867 15.9317 4.59106 15.5292 4.59106H14.9761C14.5736 4.59106 14.1419 4.89867 14.0172 5.27516L10.9581 14.4888C10.8329 14.8648 10.64 14.862 10.5292 14.4808L7.8544 5.28366C7.74359 4.90292 7.32337 4.59106 6.92091 4.59106H5.79408C5.39209 4.59106 5.16232 4.9001 5.28367 5.27752L9.37508 17.9683C9.49692 18.3453 9.92528 18.6547 10.3282 18.6547H11.102C11.4613 18.6547 11.8484 18.3806 11.9626 18.0457L15.0207 9.06838C15.1488 8.6933 15.3589 8.6933 15.4879 9.0679L18.5451 17.9725C18.6741 18.3471 19.1087 18.6547 19.5107 18.6547H20.2595C20.6327 18.6547 21.029 18.3684 21.1412 18.0188L25.2225 5.27799C25.3434 4.9001 25.1132 4.59107 24.7112 4.59107H23.5844V4.59106Z" fill="#666666"/>
<path d="M28.2659 10.3678C28.3167 9.4926 28.381 9.101 28.653 8.4438C29.1528 7.27894 30.2984 6.55569 31.6425 6.55569C32.9861 6.55569 34.1312 7.27847 34.6315 8.44145C34.904 9.101 34.9683 9.4926 35.0186 10.3678H28.2659ZM37.5188 11.1788C37.5188 7.00483 35.2671 4.41138 31.6425 4.41138C27.9632 4.41138 25.7661 7.08551 25.7661 11.5633C25.7661 16.1746 27.9823 18.7147 32.0051 18.7147C34.5039 18.7147 35.8447 17.8905 37.1979 16.5601L37.3778 16.3836L35.6504 14.8923L35.4926 15.0475C34.3902 16.1317 33.4917 16.5162 32.0613 16.5162C29.6786 16.5162 28.3292 15.0267 28.2563 12.3191H37.5188V11.1788Z" fill="#666666"/>
<path d="M2.22841 7.50357C3.03144 7.50357 3.68383 6.85864 3.68383 6.06319C3.68383 5.26822 3.03144 4.6228 2.22841 4.6228C1.42731 4.6228 0.774902 5.26822 0.774902 6.06319C0.774902 6.85864 1.42731 7.50357 2.22841 7.50357Z" fill="#666666"/>
<path d="M90.6698 18.6461C91.4733 18.6461 92.1253 18.0012 92.1253 17.2067C92.1253 16.4108 91.4733 15.7649 90.6698 15.7649C89.8682 15.7649 89.2173 16.4108 89.2173 17.2067C89.2173 18.0012 89.8682 18.6461 90.6698 18.6461Z" fill="#666666"/>
<path d="M98.9226 6.14028H97.3112V8.51717H98.9226C99.7035 8.51717 100.2 8.04207 100.2 7.33486C100.2 6.62765 99.7035 6.14028 98.9226 6.14028ZM99.0094 10.0411H97.3112V13.3078H95.5886V4.62866H99.0094C100.831 4.62866 101.922 5.85957 101.922 7.33486C101.922 8.80968 100.831 10.0411 99.0094 10.0411Z" fill="#666666"/>
<path d="M102.922 13.3078V4.62866H104.644V11.7962H108.647V13.3078H102.922Z" fill="#666666"/>
<path d="M112.339 13.3809C110.53 13.3809 109.092 12.1741 109.092 10.3336V4.62866H110.815V10.2727C110.815 11.272 111.41 11.8693 112.339 11.8693C113.269 11.8693 113.877 11.272 113.877 10.2727V4.62866H115.587V10.3336C115.587 12.1741 114.149 13.3809 112.339 13.3809Z" fill="#666666"/>
<path d="M119.957 13.3961C118.621 13.3961 117.606 13.1163 116.739 12.252L117.853 11.1565C118.41 11.7042 119.165 11.8868 119.982 11.8868C120.997 11.8868 121.542 11.5094 121.542 10.8159C121.542 10.5111 121.455 10.2559 121.269 10.0851C121.096 9.92701 120.898 9.84161 120.489 9.78076L119.425 9.63497C118.67 9.52505 118.113 9.29388 117.717 8.91643C117.296 8.50268 117.086 7.94265 117.086 7.21232C117.086 5.66626 118.249 4.58301 120.155 4.58301C121.368 4.58301 122.247 4.87506 123.002 5.59313L121.913 6.6523C121.356 6.12908 120.687 6.05595 120.106 6.05595C119.19 6.05595 118.744 6.5551 118.744 7.15146C118.744 7.37084 118.818 7.60203 119.004 7.77234C119.178 7.93086 119.462 8.06437 119.821 8.11297L120.86 8.25924C121.665 8.36868 122.173 8.58806 122.544 8.9287C123.014 9.36701 123.225 10.0001 123.225 10.7668C123.225 12.4469 121.801 13.3961 119.957 13.3961Z" fill="#666666"/>
</svg>
